<?xml version="1.0" encoding="utf-8"?>
<!-- Generator: Adobe Illustrator 21.0.0, SVG Export Plug-In . SVG Version: 6.00 Build 0)  -->
<svg version="1.1" id="Слой_1" xmlns="http://www.w3.org/2000/svg" xmlns:xlink="http://www.w3.org/1999/xlink" x="0px" y="0px"
	 viewBox="0 0 1000 1000" style="enable-background:new 0 0 1000 1000;" xml:space="preserve">
<style type="text/css">
	.st0{fill:none;stroke:#2A2B2A;stroke-width:80;stroke-miterlimit:10;}
	.st1{fill:#B3B3B3;}
	.st2{fill:#A6120D;}
	.st3{fill:#DD1B16;}
	.st4{fill:#F2F2F2;}
</style>
<g id="Слой_6">
	<g>
		
			<rect x="197.7" y="198.4" transform="matrix(0.7071 0.7071 -0.7071 0.7071 500.3328 -206.8307)" class="st0" width="604.4" height="604.4"/>
		<g id="g48">
			<polygon id="polygon50" class="st1" points="200,671.2 436.5,801.2 674.2,669.4 718.5,301.9 436.2,204.9 155.7,303.7 			"/>
			<polygon id="polygon52" class="st2" points="435.5,770.1 649.2,651.8 690.5,323.1 435.5,236.2 			"/>
			<polygon id="polygon54" class="st3" points="435.5,770.1 435.5,236.2 187.2,324.7 225.1,653.4 			"/>
			<path id="path56" class="st4" d="M505.7,520.4l-70.2,32.8h-74l-34.8,87l-64.7,1.2l173.4-385.8L505.7,520.4z M498.9,503.9
				L436,379.3l-51.6,122.5h51.2L498.9,503.9z"/>
			<polygon id="polygon58" class="st1" points="494.6,501.8 435.7,501.8 435.5,553.2 517,553.2 555.1,641.4 617,642.6 435.5,255.6 
				436,379.3 			"/>
		</g>
	</g>
</g>
</svg>
