<svg id="Слой_1" data-name="Слой 1" xmlns="http://www.w3.org/2000/svg" viewBox="0 0 29.85 29.85">
  <defs>
    <style>
      .cls-1 {
        fill: #fff;
        stroke: #fff;
        stroke-miterlimit: 10;
        stroke-width: 0.25px;
      }
    </style>
  </defs>
  <title>instagram</title>
  <g id="Слой_1-2" data-name="Слой 1">
    <path class="cls-1" d="M95.46455,9.5c3.9,0,4.4,0,6,.1,4,0.2,5.9,2.1,6,6,0.1,1.6.1,2,.1,6,0,3.9,0,4.4-.1,6-0.2,4-2,5.9-6,6-1.6.1-2,.1-6,0.1-3.9,0-4.4,0-6-.1-4-.2-5.9-2.1-6-6-0.1-1.6-.1-2-0.1-6,0-3.9,0-4.4.1-6,0.2-4,2-5.9,6-6C91.06455,9.5,91.56455,9.5,95.46455,9.5Zm0-2.7c-4,0-4.5,0-6.1.1-5.4.2-8.3,3.2-8.6,8.6-0.1,1.6-.1,2.1-0.1,6.1s0,4.5.1,6.1c0.2,5.4,3.2,8.3,8.6,8.6,1.6,0.1,2.1.1,6.1,0.1s4.5,0,6.1-.1c5.4-.2,8.3-3.2,8.6-8.6,0.1-1.6.1-2.1,0.1-6.1s0-4.5-.1-6.1c-0.2-5.4-3.2-8.3-8.6-8.6C99.96455,6.9,99.46455,6.8,95.46455,6.8Zm0,7.2a7.6,7.6,0,1,0,7.6,7.6A7.59663,7.59663,0,0,0,95.46455,14Zm0,12.5a4.9,4.9,0,1,1,4.9-4.9A4.84482,4.84482,0,0,1,95.46455,26.5Zm7.9-14.5a1.8,1.8,0,1,0,1.8,1.8A1.73261,1.73261,0,0,0,103.36455,12Z" transform="translate(-80.53955 -6.675)"/>
  </g>
</svg>
