<?xml version="1.0" encoding="utf-8"?>
<!-- Generator: Adobe Illustrator 21.1.0, SVG Export Plug-In . SVG Version: 6.00 Build 0)  -->
<svg version="1.1" id="Layer_1" xmlns="http://www.w3.org/2000/svg" xmlns:xlink="http://www.w3.org/1999/xlink" x="0px" y="0px"
	 viewBox="0 0 362 362" style="enable-background:new 0 0 362 362;" xml:space="preserve">
<g>
	<path d="M181,15c44.3,0,86,17.3,117.4,48.6C329.7,95,347,136.7,347,181s-17.3,86-48.6,117.4C267,329.7,225.3,347,181,347
		c-44.3,0-86-17.3-117.4-48.6C32.3,267,15,225.3,15,181S32.3,95,63.6,63.6C95,32.3,136.7,15,181,15 M181,0C81,0,0,81,0,181
		s81,181,181,181s181-81,181-181S281,0,181,0L181,0z"/>
</g>
</svg>
