<?xml version="1.0" encoding="utf-8"?>
<!-- Generator: Adobe Illustrator 21.1.0, SVG Export Plug-In . SVG Version: 6.00 Build 0)  -->
<svg version="1.1" id="Layer_1" xmlns="http://www.w3.org/2000/svg" xmlns:xlink="http://www.w3.org/1999/xlink" x="0px" y="0px"
	 viewBox="0 0 61 61" style="enable-background:new 0 0 61 61;" xml:space="preserve">
<style type="text/css">
	.st0{fill:url(#hmz5a_1_);}
	.st1{fill:#FFFFFF;fill-opacity:0;stroke:#F7931E;stroke-miterlimit:50;}
</style>
<linearGradient id="hmz5a_1_" gradientUnits="userSpaceOnUse" x1="512.8711" y1="-628.5961" x2="531.0911" y2="-600.0061" gradientTransform="matrix(0.6428 0.766 0.766 -0.6428 171.0569 -764.1326)">
	<stop  offset="0" style="stop-color:#FF9C28"/>
	<stop  offset="1" style="stop-color:#FCCC5B"/>
</linearGradient>
<path id="hmz5a" class="st0" d="M35,42.6l2.1-1.8L35.3,28l5.8-4.9c0.9-0.7,1-2,0.3-2.9c-0.7-0.9-2-1-2.9-0.3l-5.8,4.9l-12.3-4
	l-2.1,1.8l9.7,6.2l-5.8,4.9l-3.4-0.8l-1.6,1.3l4.1,2.8l2,4.6l1.6-1.3l-0.2-3.4l5.8-4.9L35,42.6z"/>
<path id="hmz5c" class="st1" d="M0.5,30.5c0-16.6,13.4-30,30-30s30,13.4,30,30s-13.4,30-30,30S0.5,47.1,0.5,30.5z"/>
</svg>
