<?xml version="1.0" encoding="utf-8"?>
<!-- Generator: Adobe Illustrator 21.1.0, SVG Export Plug-In . SVG Version: 6.00 Build 0)  -->
<svg version="1.1" id="Layer_1" xmlns="http://www.w3.org/2000/svg" xmlns:xlink="http://www.w3.org/1999/xlink" x="0px" y="0px"
	 viewBox="0 0 80 80" style="enable-background:new 0 0 80 80;" xml:space="preserve">
<style type="text/css">
	.st0{fill:#FFFFFF;}
	.st1{fill:#F7931E;}
	.st2{enable-background:new    ;}
</style>
<g id="Oval-10-Copy">
	<circle class="st0" cx="40" cy="40" r="40"/>
</g>
<g id="Oval-10-Copy-4">
	<path class="st1" d="M40,70.5C23.2,70.5,9.5,56.8,9.5,40C9.5,23.2,23.2,9.5,40,9.5c16.8,0,30.5,13.7,30.5,30.5
		C70.5,56.8,56.8,70.5,40,70.5z M40,10.5c-16.3,0-29.5,13.2-29.5,29.5S23.7,69.5,40,69.5S69.5,56.3,69.5,40S56.3,10.5,40,10.5z"/>
</g>
<g id="_x32_" class="st2">
	<path transform="translate(40.000000, 40.000000) scale(-1, 1) translate(-40.000000, -40.000000) " class="st1" d="M41.2,44.9
		c-0.2-0.3-0.4-0.6-0.7-0.9s-0.9-0.9-2-1.9s-1.8-1.7-2.2-2.2c-0.6-0.8-1-1.5-1.3-2.2s-0.4-1.4-0.4-2.2c0-1.4,0.5-2.5,1.5-3.4
		s2.3-1.4,4-1.4c1.5,0,2.8,0.4,3.9,1.2s1.6,2.1,1.8,3.9l-3.3,0.3c-0.1-1-0.3-1.6-0.7-2.1s-1-0.6-1.6-0.6c-0.7,0-1.2,0.2-1.6,0.6
		S38,35,38,35.8c0,0.7,0.2,1.3,0.7,2c0.3,0.5,1.2,1.4,2.7,2.8c1.8,1.7,3.1,3.1,3.7,4.1s1,2.1,1.1,3.3H34.7v-3.1H41.2z"/>
</g>
</svg>
