<svg xmlns="http://www.w3.org/2000/svg" xmlns:xlink="http://www.w3.org/1999/xlink" width="62" height="62" viewBox="0 0 62 62"><defs><path id="2yqqa" d="M457.63 789.38v2.75h-8.25v-2.75zm-5.5 17.88V799h2.75v8.25zm11.04-9.1a12.37 12.37 0 1 1-1.94-1.94l1.95-1.95c.7.58 1.35 1.24 1.94 1.94zm-9.67 17.35a9.62 9.62 0 1 0 .02-19.24 9.62 9.62 0 0 0-.01 19.24z"/><path id="2yqqc" d="M423 804a30 30 0 1 1 60 0 30 30 0 0 1-60 0z"/><linearGradient id="2yqqb" x1="448.63" x2="465.88" y1="815.33" y2="785.3" gradientUnits="userSpaceOnUse"><stop offset="0" stop-color="#ff9c28"/><stop offset="1" stop-color="#fccc5b"/></linearGradient></defs><g><g transform="translate(-422 -773)"/><g transform="translate(-422 -773)"><use fill="url(#2yqqb)" xlink:href="#2yqqa"/></g><g transform="translate(-422 -773)"><use fill="#fff" fill-opacity="0" stroke="#f7931e" stroke-miterlimit="50" xlink:href="#2yqqc"/></g></g></svg>