<?xml version="1.0" encoding="utf-8"?>
<!-- Generator: Adobe Illustrator 21.1.0, SVG Export Plug-In . SVG Version: 6.00 Build 0)  -->
<svg version="1.1" id="Layer_1" xmlns="http://www.w3.org/2000/svg" xmlns:xlink="http://www.w3.org/1999/xlink" x="0px" y="0px"
	 viewBox="0 0 15 13" style="enable-background:new 0 0 15 13;" xml:space="preserve">
<style type="text/css">
	.st0{fill:#F7931E;}
</style>
<path id="dm12a" class="st0" d="M12.5,7.3l-4,4.3c-0.3,0.3-0.3,0.8,0,1.2c0.3,0.3,0.8,0.3,1,0l5.3-5.7c0.3-0.3,0.3-0.8,0-1.1
	L9.5,0.2C9.4,0.1,9.2,0,9,0C8.8,0,8.6,0.1,8.5,0.2c-0.3,0.3-0.3,0.8,0,1.1l4,4.3H0.8C0.3,5.7,0,6,0,6.5s0.4,0.8,0.8,0.8H12.5z"/>
</svg>
