<svg xmlns="http://www.w3.org/2000/svg" xmlns:xlink="http://www.w3.org/1999/xlink" width="27" height="26" viewBox="0 0 27 26"><defs><path id="urq7a" d="M708.56 204.71c.33-.07.87-.16 1.6-.16 1.85 0 2.7.76 2.7 1.93 0 1.25-1.32 1.78-2.92 1.78h-1.38zm-.05 5.6h1.35c1.62 0 2.38.61 2.6 1.92.4 1.5.6 2.55 1 3.02h3.05c-.23-.47-.56-1.12-.91-3.02-.38-1.69-1-2.66-2.22-3.04v-.16c1.45-.43 2.57-1.44 2.57-2.97 0-1.2-.48-2.12-1.27-2.64-.84-.61-1.91-1-4.27-1-2.06 0-3.66.23-4.8.39v12.44h2.9zm1.96-11.43c5.48 0 9.64 4.48 9.64 10.01 0 5.44-4.16 9.92-9.56 9.84a9.73 9.73 0 0 1-9.78-9.93c0-5.44 4.22-9.92 9.64-9.92zm0-2.53c-7.16 0-12.87 5.48-12.87 12.45 0 6.97 5.71 12.52 12.87 12.52 7.18 0 12.85-5.55 12.85-12.52s-5.67-12.45-12.77-12.45z"/></defs><g><g clip-path="url(#clip-B6EEDA37-E84D-48C8-B8E9-01B5360E2E76)" transform="translate(-697 -196)"><use fill="#fff" xlink:href="#urq7a"/></g></g></svg>