<?xml version="1.0" encoding="utf-8"?>
<!-- Generator: Adobe Illustrator 21.1.0, SVG Export Plug-In . SVG Version: 6.00 Build 0)  -->
<svg version="1.1" id="Layer_1" xmlns="http://www.w3.org/2000/svg" xmlns:xlink="http://www.w3.org/1999/xlink" x="0px" y="0px"
	 viewBox="0 0 80 80" style="enable-background:new 0 0 80 80;" xml:space="preserve">
<style type="text/css">
	.st0{fill:#FFFFFF;}
	.st1{fill:none;stroke:#F7931E;}
	.st2{fill:#F7931E;enable-background:new    ;}
</style>
<title>Group 4</title>
<desc>Created with Sketch.</desc>
<g id="Almagel" transform="translate(-915.000000, -629.000000)">
	<g id="Group-4" transform="translate(915.000000, 629.000000)">
		<g id="Group-7-Copy-4" transform="translate(40.000000, 40.000000) scale(-1, 1) translate(-40.000000, -40.000000) ">
			<circle id="Oval-10-Copy" class="st0" cx="40" cy="40" r="40"/>
			<circle id="Oval-10-Copy-4" class="st1" cx="40" cy="40" r="30"/>
		</g>
		<path id="_x33_" class="st2" d="M34,43.4l3.2-0.4c0.1,0.8,0.4,1.4,0.8,1.9s1,0.6,1.6,0.6c0.7,0,1.3-0.3,1.7-0.8s0.7-1.2,0.7-2.1
			c0-0.8-0.2-1.5-0.7-2s-1-0.7-1.6-0.7c-0.4,0-0.9,0.1-1.5,0.2l0.4-2.7c0.9,0,1.6-0.2,2-0.6s0.7-1,0.7-1.6c0-0.6-0.2-1-0.5-1.4
			s-0.8-0.5-1.4-0.5c-0.6,0-1,0.2-1.4,0.6s-0.6,1-0.7,1.7l-3-0.5c0.2-1,0.5-1.9,1-2.5s1-1.1,1.8-1.5s1.6-0.5,2.6-0.5
			c1.6,0,2.9,0.5,3.9,1.5c0.8,0.8,1.2,1.8,1.2,2.9c0,1.5-0.8,2.7-2.5,3.6c1,0.2,1.8,0.7,2.4,1.4s0.9,1.6,0.9,2.7
			c0,1.5-0.6,2.8-1.7,3.9s-2.5,1.6-4.1,1.6c-1.6,0-2.8-0.4-3.9-1.3S34.2,44.9,34,43.4z"/>
	</g>
</g>
</svg>
