<?xml version="1.0" encoding="utf-8"?>
<!-- Generator: Adobe Illustrator 21.1.0, SVG Export Plug-In . SVG Version: 6.00 Build 0)  -->
<svg version="1.1" id="Layer_1" xmlns="http://www.w3.org/2000/svg" xmlns:xlink="http://www.w3.org/1999/xlink" x="0px" y="0px"
	 viewBox="0 0 15 13" style="enable-background:new 0 0 15 13;" xml:space="preserve">
<style type="text/css">
	.st0{fill:#F7931E;}
</style>
<path id="dm12a" class="st0" d="M2.5,5.7l4-4.3c0.3-0.3,0.3-0.8,0-1.2c-0.3-0.3-0.8-0.3-1,0L0.2,5.9c-0.3,0.3-0.3,0.8,0,1.1l5.3,5.8
	C5.6,12.9,5.8,13,6,13s0.4-0.1,0.5-0.2c0.3-0.3,0.3-0.8,0-1.1l-4-4.3l11.7,0C14.7,7.3,15,7,15,6.5s-0.4-0.8-0.8-0.8L2.5,5.7z"/>
</svg>
