<svg xmlns="http://www.w3.org/2000/svg" xmlns:xlink="http://www.w3.org/1999/xlink" width="150" height="22" viewBox="0 0 150 22"><defs><path id="e7bca" d="M174.78 51.9c.11-.02.3-.05.55-.05.62 0 .9.26.9.65 0 .41-.44.6-.98.6h-.47zm-.02 1.87h.46c.55 0 .8.2.88.64.13.5.2.85.34 1h1.03c-.08-.15-.19-.36-.31-1-.13-.56-.34-.88-.75-1.01v-.05c.5-.15.87-.48.87-1 0-.4-.16-.7-.43-.87-.28-.2-.65-.33-1.44-.33-.7 0-1.24.07-1.63.12v4.15h.98zm.67-3.8c1.85 0 3.25 1.49 3.25 3.33 0 1.81-1.4 3.3-3.22 3.28a3.26 3.26 0 0 1-3.3-3.31c0-1.81 1.42-3.3 3.25-3.3zm0-.85a4.22 4.22 0 0 0-4.35 4.15 4.24 4.24 0 0 0 4.35 4.17 4.23 4.23 0 0 0 4.34-4.17 4.2 4.2 0 0 0-4.31-4.15z"/><path id="e7bcb" d="M44.13 61.27h-7.8l-1.5 4.4H30.1l8.05-21.33h4.12l8.1 21.33h-4.74zm-6.6-3.56h5.4l-2.72-7.98zm28.54-7.9v15.86h-4.29V53.25H58l-.27 4.89c-.17 2.6-.69 4.5-1.56 5.7-.87 1.19-2.17 1.8-3.89 1.83h-1.45l-.05-3.44.54-.05c.77-.06 1.33-.5 1.69-1.35.35-.84.58-2.27.67-4.29l.3-6.72zm13.1 10.86l4.2-10.85h5.37v15.85h-4.29v-9.73l-3.84 9.73h-2.88l-3.77-9.57v9.57h-4.3V49.82H75zm22.6 5c-.19-.38-.33-.86-.42-1.42a5.22 5.22 0 0 1-4.06 1.71 5.75 5.75 0 0 1-3.9-1.35 4.31 4.31 0 0 1-1.56-3.4c0-1.67.63-2.96 1.9-3.86 1.26-.9 3.08-1.35 5.47-1.36h1.97v-.91c0-.74-.2-1.32-.57-1.76-.38-.44-.98-.66-1.8-.66-.73 0-1.3.17-1.7.51-.42.34-.62.81-.62 1.4h-4.3c0-.9.3-1.76.87-2.54a5.68 5.68 0 0 1 2.43-1.84 8.98 8.98 0 0 1 3.54-.66c1.98 0 3.55.49 4.71 1.47a5.12 5.12 0 0 1 1.75 4.14V62c0 1.5.22 2.64.63 3.4v.26zm-3.54-2.95c.63 0 1.22-.14 1.75-.41.54-.28.93-.66 1.19-1.12v-2.73h-1.6c-2.15 0-3.3.73-3.43 2.2l-.02.25c0 .52.19.96.57 1.3.37.34.89.51 1.54.51zm21.48-9.47h-6.65v12.42h-4.29V49.82h10.94zm9.2 12.71a7.95 7.95 0 0 1-5.76-2.14c-1.48-1.42-2.22-3.32-2.22-5.7v-.4c0-1.6.31-3.02.94-4.28a6.8 6.8 0 0 1 2.65-2.9 7.52 7.52 0 0 1 3.9-1.01c2.2 0 3.93.68 5.2 2.05 1.26 1.36 1.89 3.3 1.89 5.81v1.73h-10.23a3.91 3.91 0 0 0 1.25 2.5c.7.62 1.59.93 2.65.93 1.66 0 2.95-.6 3.88-1.77l2.1 2.32c-.64.9-1.5 1.6-2.6 2.1-1.1.51-2.32.76-3.66.76zm-.5-13a2.7 2.7 0 0 0-2.07.84 4.36 4.36 0 0 0-1.02 2.43h5.97v-.33a3.1 3.1 0 0 0-.77-2.18c-.5-.51-1.2-.77-2.1-.77zm23.5-3.14v15.85h-4.29V53.25h-3.78l-.27 4.89c-.17 2.6-.69 4.5-1.56 5.7-.87 1.19-2.17 1.8-3.89 1.83h-1.45l-.05-3.44.54-.05c.77-.06 1.33-.5 1.69-1.35.36-.84.58-2.27.67-4.29l.3-6.72zm7.9 4.64h3.08c1.38 0 2.6.23 3.65.7a5.36 5.36 0 0 1 2.41 1.96c.56.86.84 1.85.84 2.98 0 1.67-.63 3.02-1.88 4.04s-2.96 1.53-5.11 1.53h-7.3V49.82h4.31zm0 3.4v4.42h3.05c.85 0 1.5-.2 1.96-.58a2 2 0 0 0 .68-1.6 2.1 2.1 0 0 0-.67-1.63c-.44-.4-1.1-.6-1.97-.6z"/></defs><g><g clip-path="url(#clip-1690AA52-DAC8-45BF-8741-1059C0745824)" transform="translate(-30 -44)"><use fill="#4db748" xlink:href="#e7bca"/></g><g transform="translate(-30 -44)"><use fill="#4db748" xlink:href="#e7bcb"/></g></g></svg>