<svg xmlns="http://www.w3.org/2000/svg" xmlns:xlink="http://www.w3.org/1999/xlink" viewBox="0 0 1133 40"><defs><path id="p25ea" d="M16 35.35c0-2.27.3-4.4.89-6.4a16 16 0 0 1 2.57-5.2 11.93 11.93 0 0 1 9.7-4.74 10.43 10.43 0 0 1 7.22 2.51c.8.7 1.47 1.49 1.99 2.33a13.5 13.5 0 0 1 1.9 5.2h-1.7a10.12 10.12 0 0 0-1.13-3.51 9.38 9.38 0 0 0-4.97-4.31 9.63 9.63 0 0 0-3.31-.57c-1.8 0-3.42.4-4.84 1.18a11.17 11.17 0 0 0-3.6 3.17 14.6 14.6 0 0 0-2.24 4.66 20.3 20.3 0 0 0-.78 5.68c0 2.01.26 3.9.78 5.68a14.6 14.6 0 0 0 2.24 4.66 11.17 11.17 0 0 0 3.6 3.17 9.8 9.8 0 0 0 4.84 1.18 7.9 7.9 0 0 0 3.77-.94c1.17-.63 2.2-1.46 3.08-2.5a13.5 13.5 0 0 0 3.02-7.8h1.7a16.92 16.92 0 0 1-1.22 5.16 14.6 14.6 0 0 1-2.52 4.09 11.07 11.07 0 0 1-3.54 2.69 9.83 9.83 0 0 1-4.3.96 11.93 11.93 0 0 1-9.69-4.74 16 16 0 0 1-2.57-5.2c-.6-2-.89-4.14-.89-6.41zm34.56-15.6h1.85l10.92 31.2H61.5l-3.48-10H44.79l-3.52 10h-1.82zm6.92 19.53l-5.92-17.66h-.07l-6.16 17.66zm5.89-19.54h2.43l10.8 29.07h.08l10.68-29.07h2.44v31.22h-1.7V22.1h-.08L77.49 50.96h-1.7L65.15 22.1h-.08v28.86h-1.7zm54.4 15.61c0 2.27-.3 4.4-.88 6.4a16 16 0 0 1-2.58 5.2 11.82 11.82 0 0 1-9.66 4.74 11.93 11.93 0 0 1-9.69-4.73 16 16 0 0 1-2.57-5.2c-.6-2-.89-4.14-.89-6.41 0-2.27.3-4.4.89-6.4a16 16 0 0 1 2.57-5.2 11.93 11.93 0 0 1 9.7-4.74 11.82 11.82 0 0 1 9.65 4.73 16 16 0 0 1 2.58 5.2c.59 2 .89 4.14.89 6.41zm-24.57 0c0 2.01.26 3.9.78 5.68a14.6 14.6 0 0 0 2.24 4.66 11.17 11.17 0 0 0 3.6 3.17 9.8 9.8 0 0 0 4.84 1.18c1.8 0 3.4-.4 4.82-1.18 1.4-.79 2.6-1.85 3.57-3.17a14.6 14.6 0 0 0 2.25-4.66c.52-1.78.77-3.67.77-5.68s-.25-3.9-.77-5.68a14.6 14.6 0 0 0-2.25-4.66 11.24 11.24 0 0 0-3.57-3.17 9.7 9.7 0 0 0-4.82-1.18c-1.8 0-3.42.4-4.84 1.18a11.17 11.17 0 0 0-3.6 3.17 14.6 14.6 0 0 0-2.24 4.66 20.3 20.3 0 0 0-.78 5.68zm45-15.6v31.2h-1.7V21.4h-12.22l-.62 19.63a31.1 31.1 0 0 1-.45 4.77c-.24 1.3-.6 2.38-1.06 3.21a4.51 4.51 0 0 1-1.72 1.82 5.64 5.64 0 0 1-3.77.42c-.42-.11-.8-.24-1.17-.38v-1.75c.72.4 1.5.61 2.32.61.65 0 1.22-.14 1.73-.41.5-.28.92-.77 1.25-1.47.34-.7.6-1.62.8-2.77.2-1.15.31-2.6.37-4.35l.65-20.99zm2.95 0h1.7v31.2h-1.7zm4.64 0h1.7V37.7l17.25-17.83.68 1.57-10.96 11.28 13.4 18.23h-2.14l-12.5-16.92-5.72 5.9v11.02h-1.7zm21.29 0l-.38.38-.16-.39zm-1.66 1.7l1.28-1.32 9.55 22.35 9.2-22.74h1.71v.2l-11.69 28.3c-.95 2.3-2.4 3.46-4.37 3.46a5.09 5.09 0 0 1-2.94-.96v-1.88a4.71 4.71 0 0 0 2.98 1.18c.75 0 1.37-.23 1.88-.7.5-.47.93-1.15 1.3-2.06l1.12-2.8zm-.55-1.7l-.13.13-.06-.14zm22.3.18l.07-.19h10.99c1.65 0 3.03.24 4.14.7 1.1.47 2 1.08 2.67 1.84a6.9 6.9 0 0 1 1.45 2.6c.3.98.45 1.96.45 2.95a7.4 7.4 0 0 1-.4 2.4 6.4 6.4 0 0 1-2.8 3.48c-.65.4-1.38.65-2.18.77l.07.08a4 4 0 0 1 1.28.27c.67.2 1.38.59 2.11 1.15.74.57 1.4 1.36 1.97 2.36.58 1.01.87 2.3.87 3.87 0 1.43-.23 2.68-.7 3.76a7.63 7.63 0 0 1-1.95 2.73 8.33 8.33 0 0 1-3.03 1.69c-1.2.38-2.5.57-3.95.57h-11.07zm11.06 13.98c2.35 0 4.1-.6 5.26-1.77a6.35 6.35 0 0 0 1.74-4.66c0-1.14-.19-2.09-.58-2.86-.38-.77-.9-1.4-1.55-1.88a6.08 6.08 0 0 0-2.22-1.03c-.84-.2-1.72-.3-2.65-.3h-9.37v12.5zm0 15.39c2.48 0 4.42-.6 5.82-1.78 1.4-1.18 2.11-2.95 2.11-5.3a6.6 6.6 0 0 0-.73-3.3 5.8 5.8 0 0 0-1.88-2.04 7.26 7.26 0 0 0-2.55-1.03 14 14 0 0 0-2.77-.28h-9.37V49.3zm19.58-29.56h1.86l10.91 31.22h-1.82l-3.48-10.01h-13.24l-3.52 10h-1.82zm6.93 19.54l-5.92-17.66h-.08l-6.15 17.66zm5.88-19.54h1.7v14.17h17.65V19.74h1.7v31.22h-1.7v-15.4h-17.65v15.4h-1.7zm24 0h1.7v14.17h17.64V19.74h1.7v31.22h-1.7v-15.4h-17.65v15.4h-1.7zm41.79 17h-9.64l-9.13 14.22h-1.98l9.37-14.34a8.75 8.75 0 0 1-2.87-.72 7.03 7.03 0 0 1-2.26-1.6 7.18 7.18 0 0 1-1.49-2.47 9.6 9.6 0 0 1-.54-3.34c0-2.74.75-4.89 2.26-6.43 1.51-1.54 3.6-2.32 6.3-2.32h11.68v31.22h-1.7zm-9.99-15.34c-2.11 0-3.8.6-5.03 1.77-1.24 1.19-1.86 2.94-1.86 5.27 0 1.14.18 2.13.53 2.98a5.45 5.45 0 0 0 3.63 3.27c.84.27 1.75.4 2.73.4h9.99V21.4zm23.45-1.66h2.44l10.8 29.07h.07l10.69-29.07h2.43v31.22h-1.7V22.1h-.08L324 50.96h-1.7L311.64 22.1h-.07v28.86h-1.7zm54.41 15.61c0 2.27-.3 4.4-.89 6.4a16 16 0 0 1-2.57 5.2 11.82 11.82 0 0 1-9.66 4.74 11.93 11.93 0 0 1-9.69-4.73 16 16 0 0 1-2.57-5.2c-.6-2-.9-4.14-.9-6.41 0-2.27.3-4.4.9-6.4a16 16 0 0 1 2.57-5.2 11.93 11.93 0 0 1 9.7-4.74 11.82 11.82 0 0 1 9.65 4.73 16 16 0 0 1 2.57 5.2c.6 2 .9 4.14.9 6.41zm-24.57 0c0 2.01.26 3.9.77 5.68a14.6 14.6 0 0 0 2.25 4.66 11.17 11.17 0 0 0 3.6 3.17 9.8 9.8 0 0 0 4.83 1.18c1.8 0 3.42-.4 4.82-1.18 1.4-.79 2.6-1.85 3.58-3.17a14.6 14.6 0 0 0 2.25-4.66c.51-1.78.77-3.67.77-5.68s-.26-3.9-.77-5.68a14.6 14.6 0 0 0-2.25-4.66 11.24 11.24 0 0 0-3.58-3.17 9.7 9.7 0 0 0-4.82-1.18c-1.8 0-3.41.4-4.83 1.18a11.17 11.17 0 0 0-3.6 3.17 14.6 14.6 0 0 0-2.25 4.66 20.3 20.3 0 0 0-.77 5.68zm41.25 3.06l-5-5.16-11.72 17.7h-2.05l12.58-18.92-11.8-12.29h2.28l15.71 16.35V19.74h1.7v16.4l15.8-16.4h2.2l-11.8 12.24 12.42 18.74v.24h-1.94l-11.72-17.7-4.96 5.1v12.6h-1.7zm20.47 12.55l-.15-.24V19.74h18.57v1.66h-16.87v12.5h15.87v1.67h-15.87V49.3h17.07v1.66zm30.1-29.56v12.03h10.73c2.58 0 4.6.75 6.07 2.27 1.47 1.51 2.21 3.67 2.21 6.47 0 1.34-.2 2.55-.58 3.63a7.33 7.33 0 0 1-4.33 4.55 9.4 9.4 0 0 1-3.49.6h-12.3v-31.2h18.88v1.65zM442 49.3c2.11 0 3.78-.62 5-1.86 1.23-1.24 1.85-3 1.85-5.27 0-2.27-.6-4.02-1.82-5.25-1.21-1.22-2.88-1.83-5-1.83h-10.48v14.2zm7.39-29.56h1.86l9.71 22.74 8.54-21.08h1.76l-11.07 26.85c-.96 2.3-2.42 3.45-4.38 3.45a5.09 5.09 0 0 1-2.94-.96v-1.88a4.71 4.71 0 0 0 2.98 1.18c.75 0 1.38-.23 1.88-.7s.93-1.15 1.3-2.06l1.12-2.8zm21.87 1.66l.69-1.66h18.07v1.66h-9.71v29.56h-1.7V21.4zm18.8-1.66h1.66v28.81h.12l17.1-28.8h2.13v31.2h-1.7v-28.8h-.12l-17.14 28.8h-2.09V21.4h.04zm-19.89 0l-.67 1.66h-.6v-1.66zm85.1 0h1.7v31.22h-34.13V19.74h1.7V49.3h14.51V19.74h1.7V49.3h14.52zm4.64 0h1.7v17.97l17.38-17.97h2.2l-12.61 12.99 13.12 17.86v.37h-1.86l-12.5-16.92-5.73 5.9v11.02h-1.7zm22.06 31.22l-.27-.37V19.74h1.7v31.22zM607.92 59v-8.04H586.3V59h-1.66v-9.7h2.44a33.31 33.31 0 0 0 2.3-6.4 55.7 55.7 0 0 0 1.24-6.65c.27-2.2.44-4.35.5-6.43s.1-4 .1-5.75v-4.33h15.6V49.3h1.15v1.57a8.64 8.64 0 0 0 1.63.46V59zm1.67-9.7v.38a4.6 4.6 0 0 1-1.29-.38zm-4.49-27.9h-12.19v2.98c0 1.75-.03 3.65-.1 5.7a68.6 68.6 0 0 1-.5 6.34 59.64 59.64 0 0 1-1.2 6.56c-.53 2.2-1.26 4.3-2.19 6.32h16.18zm25.58-1.66v31.22h-1.7V21.4h-12.23l-.62 19.63a31.1 31.1 0 0 1-.45 4.77c-.24 1.3-.6 2.38-1.06 3.21a4.51 4.51 0 0 1-1.72 1.82c-.69.37-1.5.56-2.42.56-.31 0-.61-.02-.9-.06v-1.65c.24.04.47.05.7.05.65 0 1.22-.14 1.73-.41.5-.28.92-.77 1.25-1.47.34-.7.6-1.62.8-2.77.2-1.15.31-2.6.37-4.35l.65-20.99zM608.3 49.3h-.34v-.18l.34.18zm44.67-27.15h-.12l-17.14 28.8h-2.09v-31.2h1.7v28.8h.12l17.1-28.8h2.13v31.2h-1.7zm4.64-2.4h11.07c1.65 0 3.03.23 4.14.7 1.11.46 2 1.07 2.67 1.83a6.9 6.9 0 0 1 1.45 2.6c.3.98.45 1.96.45 2.95a7.4 7.4 0 0 1-.39 2.4 6.4 6.4 0 0 1-2.8 3.48c-.66.4-1.4.65-2.2.77l.09.08a4 4 0 0 1 1.27.27c.67.2 1.38.59 2.11 1.15.74.57 1.4 1.36 1.98 2.36.58 1.01.87 2.3.87 3.87 0 1.43-.24 2.68-.7 3.76a7.63 7.63 0 0 1-1.95 2.73 8.33 8.33 0 0 1-3.04 1.69c-1.19.38-2.5.57-3.95.57h-11.07zm11.07 14.16c2.35 0 4.1-.6 5.26-1.77a6.35 6.35 0 0 0 1.74-4.66c0-1.14-.19-2.09-.58-2.86-.38-.77-.9-1.4-1.54-1.88a6.08 6.08 0 0 0-2.23-1.03c-.84-.2-1.72-.3-2.65-.3h-9.36v12.5zm0 15.39c2.48 0 4.42-.6 5.82-1.78 1.41-1.18 2.11-2.95 2.11-5.3a6.6 6.6 0 0 0-.73-3.3 5.8 5.8 0 0 0-1.88-2.04 7.26 7.26 0 0 0-2.55-1.03 14 14 0 0 0-2.77-.28h-9.36V49.3zm30.73-27.15h-.12l-17.14 28.8h-2.1v-31.2h1.71v28.8h.12l17.1-28.8h2.13v31.2h-1.7zm4.64-2.4h2.44l10.8 29.06h.07l10.68-29.07h2.44v31.22h-1.7V22.1h-.08l-10.52 28.86h-1.7L705.82 22.1h-.08v28.86h-1.7zM763.84 59v-8.04H742.2V59h-1.67v-9.7h2.44a33.31 33.31 0 0 0 2.3-6.4 55.7 55.7 0 0 0 1.24-6.65c.27-2.2.44-4.35.5-6.43.07-2.08.1-4 .1-5.75v-4.33h15.6V49.3h1.16v1.57a8.64 8.64 0 0 0 1.62.46V59zm1.66-9.7v.38a4.6 4.6 0 0 1-1.28-.38zm-4.49-27.9h-12.19v2.98c0 1.75-.03 3.65-.1 5.7a68.6 68.6 0 0 1-.5 6.34 59.64 59.64 0 0 1-1.2 6.56c-.52 2.2-1.25 4.3-2.18 6.32H761zm25.58-1.66v31.22h-1.7V21.4h-12.23l-.62 19.63a31.1 31.1 0 0 1-.44 4.77c-.25 1.3-.6 2.38-1.07 3.21a4.51 4.51 0 0 1-1.72 1.82c-.68.37-1.49.56-2.42.56-.31 0-.6-.02-.89-.06v-1.65c.23.04.46.05.7.05.64 0 1.22-.14 1.72-.41.5-.28.92-.77 1.26-1.47.33-.7.6-1.62.8-2.77.19-1.15.3-2.6.36-4.35l.66-20.99zM764.22 49.3h-.34v-.18l.34.18zm43.12-12.55h-9.64l-9.13 14.2h-1.98l9.37-14.33a8.75 8.75 0 0 1-2.87-.72 7.03 7.03 0 0 1-2.26-1.6 7.18 7.18 0 0 1-1.49-2.47 9.6 9.6 0 0 1-.54-3.34c0-2.74.75-4.89 2.26-6.43 1.51-1.54 3.6-2.32 6.3-2.32h11.68v31.22h-1.7zm-9.99-15.35c-2.11 0-3.8.6-5.03 1.77-1.24 1.19-1.86 2.94-1.86 5.27 0 1.14.18 2.13.53 2.98a5.45 5.45 0 0 0 3.63 3.27c.84.27 1.75.4 2.73.4h9.99V21.4zm23.45-1.66h11.07c1.65 0 3.03.24 4.14.7a6.9 6.9 0 0 1 4.12 4.44c.3.98.45 1.96.45 2.95a7.4 7.4 0 0 1-.39 2.4 6.4 6.4 0 0 1-2.8 3.48c-.66.4-1.4.65-2.2.77l.09.08a4 4 0 0 1 1.27.27c.67.2 1.38.59 2.11 1.15.74.57 1.4 1.36 1.98 2.36.58 1.01.87 2.3.87 3.87 0 1.43-.24 2.68-.7 3.76a7.63 7.63 0 0 1-1.96 2.73 8.33 8.33 0 0 1-3.03 1.69c-1.19.38-2.5.57-3.95.57H820.8zm11.07 14.17c2.35 0 4.1-.6 5.26-1.77a6.35 6.35 0 0 0 1.74-4.66c0-1.14-.19-2.09-.58-2.86-.38-.77-.9-1.4-1.54-1.88a6.08 6.08 0 0 0-2.23-1.03c-.84-.2-1.72-.3-2.65-.3h-9.37v12.5zm0 15.39c2.48 0 4.42-.6 5.82-1.78 1.41-1.18 2.11-2.95 2.11-5.3a6.6 6.6 0 0 0-.73-3.3 5.8 5.8 0 0 0-1.88-2.04 7.26 7.26 0 0 0-2.55-1.03 14 14 0 0 0-2.77-.28h-9.37V49.3zm19.58-29.56h1.86l10.91 31.22h-1.82l-3.48-10.01h-13.23l-3.53 10h-1.82zm6.93 19.54l-5.92-17.66h-.08l-6.15 17.66zm38.3-19.54h1.71v31.22h-34.13V19.74h1.7V49.3h14.51V19.74h1.7V49.3h14.52zm29.69 15.61c0 2.27-.3 4.4-.89 6.4a16 16 0 0 1-2.57 5.2 11.82 11.82 0 0 1-9.66 4.74 11.93 11.93 0 0 1-9.7-4.73 16 16 0 0 1-2.57-5.2c-.59-2-.89-4.14-.89-6.41 0-2.27.3-4.4.9-6.4a16 16 0 0 1 2.57-5.2 11.93 11.93 0 0 1 9.7-4.74 11.82 11.82 0 0 1 9.65 4.73 16 16 0 0 1 2.57 5.2c.6 2 .89 4.14.89 6.41zm-24.57 0c0 2.01.26 3.9.77 5.68a14.6 14.6 0 0 0 2.25 4.66 11.17 11.17 0 0 0 3.6 3.17 9.8 9.8 0 0 0 4.83 1.18c1.8 0 3.41-.4 4.82-1.18 1.4-.79 2.6-1.85 3.58-3.17a14.6 14.6 0 0 0 2.24-4.66c.52-1.78.78-3.67.78-5.68s-.26-3.9-.78-5.68a14.6 14.6 0 0 0-2.24-4.66 11.24 11.24 0 0 0-3.58-3.17 9.7 9.7 0 0 0-4.82-1.18c-1.8 0-3.42.4-4.84 1.18a11.17 11.17 0 0 0-3.6 3.17 14.6 14.6 0 0 0-2.24 4.66 20.3 20.3 0 0 0-.77 5.68zm26.27-15.6h16.88v1.65h-15.17v29.56h-1.7zm41.87 15.6c0 2.27-.3 4.4-.89 6.4a16 16 0 0 1-2.57 5.2 11.82 11.82 0 0 1-9.66 4.74 11.93 11.93 0 0 1-9.69-4.73 16 16 0 0 1-2.57-5.2c-.6-2-.9-4.14-.9-6.41 0-2.27.3-4.4.9-6.4a16 16 0 0 1 2.57-5.2 11.93 11.93 0 0 1 9.7-4.74 11.82 11.82 0 0 1 9.65 4.73 16 16 0 0 1 2.57 5.2c.6 2 .9 4.14.9 6.41zm-24.57 0c0 2.01.26 3.9.78 5.68a14.6 14.6 0 0 0 2.24 4.66 11.17 11.17 0 0 0 3.6 3.17 9.8 9.8 0 0 0 4.84 1.18c1.8 0 3.4-.4 4.81-1.18 1.41-.79 2.6-1.85 3.58-3.17a14.6 14.6 0 0 0 2.25-4.66c.51-1.78.77-3.67.77-5.68s-.26-3.9-.77-5.68a14.6 14.6 0 0 0-2.25-4.66 11.24 11.24 0 0 0-3.58-3.17 9.7 9.7 0 0 0-4.81-1.18c-1.81 0-3.42.4-4.84 1.18a11.17 11.17 0 0 0-3.6 3.17 14.6 14.6 0 0 0-2.24 4.66 20.3 20.3 0 0 0-.78 5.68zM990.3 51.7c-1.63 0-3.12-.23-4.47-.68a9.19 9.19 0 0 1-3.46-2.03 9.12 9.12 0 0 1-2.23-3.43c-.53-1.39-.8-3.03-.8-4.92h1.71c.05 3.23.9 5.61 2.55 7.13 1.66 1.51 3.91 2.27 6.78 2.27 1.1 0 2.18-.16 3.2-.48a7.39 7.39 0 0 0 4.62-3.9c.5-.96.73-2.08.73-3.36 0-1.37-.23-2.5-.68-3.37a5.29 5.29 0 0 0-1.82-2.05 7.26 7.26 0 0 0-2.6-1.03c-.99-.19-2-.28-3.07-.28h-1.52c-.4 0-.81.01-1.22.04v-1.7c.4.03.82.04 1.22.04h1.52c.93 0 1.85-.1 2.75-.33.9-.22 1.72-.58 2.44-1.09a5.59 5.59 0 0 0 1.74-2.03c.44-.85.66-1.88.66-3.1 0-1.14-.2-2.13-.58-2.98a5.63 5.63 0 0 0-1.63-2.1 7.13 7.13 0 0 0-2.45-1.24 12.35 12.35 0 0 0-6.44.02c-1.04.29-1.94.76-2.7 1.4a7.02 7.02 0 0 0-1.84 2.47c-.46 1-.73 2.22-.8 3.65h-1.71c.1-1.66.43-3.1.99-4.3a8.61 8.61 0 0 1 5.41-4.75 13.5 13.5 0 0 1 4-.57c1.35 0 2.6.17 3.74.52 1.15.35 2.15.88 3 1.58.85.7 1.52 1.56 2 2.6.47 1.03.71 2.25.71 3.65 0 1.1-.16 2.1-.48 2.95a6.47 6.47 0 0 1-3.14 3.56 7.1 7.1 0 0 1-2.1.7v.09c.95.18 1.81.44 2.59.79a5.98 5.98 0 0 1 3.27 3.7c.3.88.44 1.94.44 3.16 0 1.55-.27 2.9-.81 4.07a8.34 8.34 0 0 1-2.23 2.93 9.81 9.81 0 0 1-3.29 1.79c-1.25.4-2.58.6-4 .6zm33.98 7.3v-8.04h-21.64V59h-1.66v-9.7h2.44a33.31 33.31 0 0 0 2.3-6.4 55.7 55.7 0 0 0 1.24-6.65c.27-2.2.44-4.35.5-6.43.07-2.08.1-4 .1-5.75v-4.33h15.6V49.3h2.78V59zm-2.83-37.6h-12.19v2.98c0 1.75-.03 3.65-.1 5.7a68.6 68.6 0 0 1-.5 6.34 59.64 59.64 0 0 1-1.2 6.56c-.53 2.2-1.26 4.3-2.18 6.32h16.17zm30.26 13.95c0 2.27-.3 4.4-.89 6.4a16 16 0 0 1-2.57 5.2 11.82 11.82 0 0 1-9.66 4.74 11.93 11.93 0 0 1-9.69-4.73 16 16 0 0 1-2.57-5.2c-.6-2-.9-4.14-.9-6.41 0-2.27.3-4.4.9-6.4a16 16 0 0 1 2.57-5.2 11.93 11.93 0 0 1 9.7-4.74 11.82 11.82 0 0 1 9.65 4.73 16 16 0 0 1 2.57 5.2c.6 2 .9 4.14.9 6.41zm-24.57 0c0 2.01.26 3.9.77 5.68a14.6 14.6 0 0 0 2.25 4.66 11.17 11.17 0 0 0 3.6 3.17 9.8 9.8 0 0 0 4.83 1.18c1.81 0 3.42-.4 4.82-1.18 1.4-.79 2.6-1.85 3.58-3.17a14.6 14.6 0 0 0 2.25-4.66c.51-1.78.77-3.67.77-5.68s-.26-3.9-.77-5.68a14.6 14.6 0 0 0-2.25-4.66 11.24 11.24 0 0 0-3.58-3.17 9.7 9.7 0 0 0-4.82-1.18c-1.8 0-3.41.4-4.83 1.18a11.17 11.17 0 0 0-3.6 3.17 14.6 14.6 0 0 0-2.25 4.66 20.3 20.3 0 0 0-.77 5.68zm26.28-15.6h11.76c.77 0 1.63.1 2.57.3a6.54 6.54 0 0 1 4.67 3.91c.54 1.15.8 2.66.8 4.53 0 2.74-.74 4.85-2.24 6.34-1.5 1.48-3.63 2.22-6.42 2.22h-9.44v13.9h-1.7zm1.7 15.64h9.71c1.24 0 2.3-.2 3.16-.63a5.73 5.73 0 0 0 2.07-1.64c.51-.67.89-1.41 1.12-2.23a8.9 8.9 0 0 0 .11-4.52 6.78 6.78 0 0 0-.92-2.32 5.81 5.81 0 0 0-1.96-1.88 6.4 6.4 0 0 0-3.35-.77h-9.94zm44.27-.04c0 2.27-.3 4.4-.9 6.4a16 16 0 0 1-2.56 5.2 11.82 11.82 0 0 1-9.66 4.74 11.93 11.93 0 0 1-9.7-4.73 16 16 0 0 1-2.57-5.2c-.59-2-.89-4.14-.89-6.41 0-2.27.3-4.4.9-6.4a16 16 0 0 1 2.57-5.2 11.93 11.93 0 0 1 9.7-4.74 11.82 11.82 0 0 1 9.65 4.73 16 16 0 0 1 2.57 5.2c.6 2 .89 4.14.89 6.41zm-24.57 0c0 2.01.25 3.9.77 5.68a14.6 14.6 0 0 0 2.24 4.66 11.17 11.17 0 0 0 3.6 3.17 9.8 9.8 0 0 0 4.84 1.18c1.8 0 3.41-.4 4.82-1.18 1.4-.79 2.6-1.85 3.58-3.17a14.6 14.6 0 0 0 2.24-4.66c.52-1.78.78-3.67.78-5.68s-.26-3.9-.78-5.68a14.6 14.6 0 0 0-2.24-4.66 11.24 11.24 0 0 0-3.58-3.17 9.7 9.7 0 0 0-4.82-1.18c-1.8 0-3.42.4-4.84 1.18a11.17 11.17 0 0 0-3.6 3.17 14.6 14.6 0 0 0-2.24 4.66 20.3 20.3 0 0 0-.77 5.68zm26.27-15.6h11.07c1.65 0 3.03.23 4.14.7 1.11.46 2 1.07 2.67 1.83a6.9 6.9 0 0 1 1.45 2.6c.3.98.45 1.96.45 2.95a7.4 7.4 0 0 1-.39 2.4 6.4 6.4 0 0 1-2.8 3.48c-.66.4-1.4.65-2.2.77l.08.08a4 4 0 0 1 1.28.27c.67.2 1.38.59 2.11 1.15.74.57 1.4 1.36 1.97 2.36.59 1.01.88 2.3.88 3.87 0 1.43-.24 2.68-.7 3.76a7.63 7.63 0 0 1-1.96 2.73 8.33 8.33 0 0 1-3.03 1.69c-1.19.38-2.5.57-3.95.57h-11.07zm11.07 14.16c2.35 0 4.1-.6 5.26-1.77a6.35 6.35 0 0 0 1.74-4.66c0-1.14-.19-2.09-.58-2.86-.38-.77-.9-1.4-1.54-1.88a6.08 6.08 0 0 0-2.23-1.03c-.84-.2-1.72-.3-2.65-.3h-9.37v12.5zm0 15.39c2.48 0 4.42-.6 5.82-1.78 1.41-1.18 2.11-2.95 2.11-5.3a6.6 6.6 0 0 0-.73-3.3 5.8 5.8 0 0 0-1.88-2.04 7.26 7.26 0 0 0-2.55-1.03 14 14 0 0 0-2.77-.28h-9.37V49.3zm13.78-25.05c0 .58-.04 1.15-.12 1.72-.08.57-.21 1.1-.4 1.6-.2.5-.46.93-.78 1.31s-.72.67-1.18.87v-1.44c.28-.14.5-.38.68-.72a5.62 5.62 0 0 0 .6-2.3c.02-.4.04-.75.04-1.04h-.82v-4.5h1.98zm21.36 12.5h-9.64l-9.13 14.2h-1.97l9.36-14.33a8.75 8.75 0 0 1-2.86-.72 7.03 7.03 0 0 1-2.27-1.6 7.18 7.18 0 0 1-1.49-2.47 9.6 9.6 0 0 1-.54-3.34c0-2.74.76-4.89 2.26-6.43 1.51-1.54 3.61-2.32 6.3-2.32H1149v31.22h-1.7zm-9.99-15.35c-2.11 0-3.79.6-5.03 1.77-1.24 1.19-1.86 2.94-1.86 5.27 0 1.14.18 2.13.53 2.98a5.45 5.45 0 0 0 3.63 3.27c.84.27 1.75.4 2.73.4h9.99V21.4z"/></defs><g><g transform="translate(-16 -19)"><use fill="#a5b4c2" xlink:href="#p25ea"/></g></g></svg>