<svg xmlns="http://www.w3.org/2000/svg" viewBox="0 0 43.74 36"><defs><style>.cls-1{fill:#e5e5e5;}</style></defs><title>Asset 4</title><g id="Layer_2" data-name="Layer 2"><g id="lp"><path class="cls-1" d="M12.78,0l5.4,4.32c-5.76,4-10.26,11-10.62,16.74a5.56,5.56,0,0,1,2-.36,7.3,7.3,0,0,1,7.2,7.56A7.68,7.68,0,0,1,9,36c-4.86,0-9-4.14-9-11.52C0,14.4,5.76,5,12.78,0ZM38.34,0l5.4,4.32c-5.76,4-10.26,11-10.62,16.74a4.82,4.82,0,0,1,2-.36,7.3,7.3,0,0,1,7.2,7.56A7.68,7.68,0,0,1,34.56,36c-4.86,0-9-4.14-9-11.52C25.56,14.4,31.32,5,38.34,0Z"/></g></g></svg>