<svg xmlns="http://www.w3.org/2000/svg" viewBox="0 0 43.56 36"><defs><style>.cls-1{fill:#e5e5e5;}</style></defs><title>Asset 5</title><g id="Layer_2" data-name="Layer 2"><g id="lp"><path class="cls-1" d="M5.22,36,0,31.68c5.76-4,10.08-11,10.44-16.74,0,.18-1.26.36-1.8.36A7.24,7.24,0,0,1,1.26,7.74,7.8,7.8,0,0,1,9,0c4.86,0,9.18,4.14,9.18,11.52C18.18,21.6,12.24,31.14,5.22,36Zm25.56,0-5.4-4.32c5.76-4,10.26-11,10.62-16.74a4.8,4.8,0,0,1-2,.36c-4.14,0-7.2-3.24-7.2-7.56A7.68,7.68,0,0,1,34.56,0c4.86,0,9,4.14,9,11.52A31,31,0,0,1,30.78,36Z"/></g></g></svg>