<svg id="lp" xmlns="http://www.w3.org/2000/svg" xmlns:xlink="http://www.w3.org/1999/xlink" width="39.68" height="26" viewBox="0 0 39.68 26">
  <defs>
    <style>
      .cls-1 {
        fill: #f5f5f5;
      }

      .cls-2 {
        fill: #ff4b55;
      }

      .cls-3 {
        fill: #41479a;
      }
    </style>
    <symbol id="New_Symbol_4" data-name="New Symbol 4" viewBox="0 0 49.95 32.73">
      <path class="cls-1" d="M49.09,32.73H0.86A0.86,0.86,0,0,1,0,31.87v-31A0.86,0.86,0,0,1,.86,0H49.09A0.86,0.86,0,0,1,50,.86v31a0.86,0.86,0,0,1-.86.86h0Zm0,0"/>
      <path class="cls-2" d="M50,2.52H0V0.86A0.86,0.86,0,0,1,.86,0H49.09A0.86,0.86,0,0,1,50,.86V2.52Zm0,0"/>
      <rect class="cls-2" y="10.07" width="49.95" height="2.52"/>
      <rect class="cls-2" y="5.04" width="49.95" height="2.52"/>
      <path class="cls-2" d="M50,17.62H0.86A0.86,0.86,0,0,1,0,16.76V15.1H50v2.52Zm0,0"/>
      <rect class="cls-2" y="25.17" width="49.95" height="2.52"/>
      <path class="cls-2" d="M49.09,32.73H0.86A0.86,0.86,0,0,1,0,31.87V30.21H50v1.66a0.86,0.86,0,0,1-.86.86h0Zm0,0"/>
      <rect class="cls-2" y="20.14" width="49.95" height="2.52"/>
      <path class="cls-3" d="M22.39,0H0.86A0.86,0.86,0,0,0,0,.86v15.9a0.86,0.86,0,0,0,.86.86H22.39a0.86,0.86,0,0,0,.86-0.86V0.86A0.86,0.86,0,0,0,22.39,0h0Zm0,0"/>
      <path class="cls-1" d="M2.42,2L2.61,2.55h0.6a0.08,0.08,0,0,1,0,.15l-0.49.36L3,3.63a0.08,0.08,0,0,1-.12.09L2.34,3.37l-0.49.35a0.08,0.08,0,0,1-.12-0.09l0.18-.57L1.42,2.7a0.08,0.08,0,0,1,0-.15h0.6L2.26,2a0.08,0.08,0,0,1,.15,0h0Zm0,0"/>
      <path class="cls-1" d="M2.42,5L2.61,5.54h0.6a0.08,0.08,0,0,1,0,.15L2.77,6,3,6.62a0.08,0.08,0,0,1-.12.09L2.34,6.36l-0.49.35a0.08,0.08,0,0,1-.12-0.09L1.91,6,1.42,5.69a0.08,0.08,0,0,1,0-.15h0.6L2.26,5a0.08,0.08,0,0,1,.15,0h0Zm0,0"/>
      <path class="cls-1" d="M2.42,8L2.61,8.53h0.6a0.08,0.08,0,0,1,0,.15L2.77,9,3,9.61a0.08,0.08,0,0,1-.12.09L2.34,9.35,1.85,9.7a0.08,0.08,0,0,1-.12-0.09L1.91,9,1.42,8.68a0.08,0.08,0,0,1,0-.15h0.6L2.26,8a0.08,0.08,0,0,1,.15,0h0Zm0,0"/>
      <path class="cls-1" d="M2.42,10.95l0.19,0.57h0.6a0.08,0.08,0,0,1,0,.15L2.77,12,3,12.6a0.08,0.08,0,0,1-.12.09l-0.49-.35-0.49.35a0.08,0.08,0,0,1-.12-0.09L1.91,12l-0.48-.36a0.08,0.08,0,0,1,0-.15h0.6l0.19-.57a0.08,0.08,0,0,1,.15,0h0Zm0,0"/>
      <path class="cls-1" d="M2.42,13.94l0.19,0.57h0.6a0.08,0.08,0,0,1,0,.15L2.77,15,3,15.6a0.08,0.08,0,0,1-.12.09l-0.49-.35-0.49.35a0.08,0.08,0,0,1-.12-0.09L1.91,15l-0.48-.36a0.08,0.08,0,0,1,0-.15h0.6l0.19-.57a0.08,0.08,0,0,1,.15,0h0Zm0,0"/>
      <path class="cls-1" d="M4.74,3.44L4.93,4h0.6a0.08,0.08,0,0,1,0,.15L5.1,4.52,5.28,5.1a0.08,0.08,0,0,1-.12.09L4.66,4.84l-0.49.35A0.08,0.08,0,0,1,4,5.1l0.18-.57L3.74,4.17a0.08,0.08,0,0,1,0-.15h0.6l0.19-.57a0.08,0.08,0,0,1,.15,0h0Zm0,0"/>
      <path class="cls-1" d="M4.74,6.43L4.93,7h0.6a0.08,0.08,0,0,1,0,.15L5.1,7.51,5.28,8.09a0.08,0.08,0,0,1-.12.09L4.66,7.83l-0.49.35A0.08,0.08,0,0,1,4,8.09l0.18-.57L3.74,7.16a0.08,0.08,0,0,1,0-.15h0.6l0.19-.57a0.08,0.08,0,0,1,.15,0h0Zm0,0"/>
      <path class="cls-1" d="M4.74,9.42L4.93,10h0.6a0.08,0.08,0,0,1,0,.15l-0.49.36,0.18,0.57a0.08,0.08,0,0,1-.12.09l-0.49-.35-0.49.35A0.08,0.08,0,0,1,4,11.08l0.18-.57-0.48-.36a0.08,0.08,0,0,1,0-.15h0.6l0.19-.57a0.08,0.08,0,0,1,.15,0h0Zm0,0"/>
      <path class="cls-1" d="M4.74,12.42L4.93,13h0.6a0.08,0.08,0,0,1,0,.15L5.1,13.5l0.18,0.57a0.08,0.08,0,0,1-.12.09l-0.49-.35-0.49.35A0.08,0.08,0,0,1,4,14.07l0.18-.57-0.48-.36a0.08,0.08,0,0,1,0-.15h0.6l0.19-.57a0.08,0.08,0,0,1,.15,0h0Zm0,0"/>
      <path class="cls-1" d="M7.06,2L7.25,2.55h0.6a0.08,0.08,0,0,1,0,.15l-0.49.36L7.6,3.63a0.08,0.08,0,0,1-.12.09L7,3.37l-0.49.35a0.08,0.08,0,0,1-.12-0.09l0.18-.57L6.07,2.7a0.08,0.08,0,0,1,0-.15h0.6L6.91,2a0.08,0.08,0,0,1,.15,0h0Zm0,0"/>
      <path class="cls-1" d="M7.06,5L7.25,5.54h0.6a0.08,0.08,0,0,1,0,.15L7.42,6,7.6,6.62a0.08,0.08,0,0,1-.12.09L7,6.36l-0.49.35a0.08,0.08,0,0,1-.12-0.09L6.55,6,6.07,5.69a0.08,0.08,0,0,1,0-.15h0.6L6.91,5a0.08,0.08,0,0,1,.15,0h0Zm0,0"/>
      <path class="cls-1" d="M7.06,8L7.25,8.53h0.6a0.08,0.08,0,0,1,0,.15L7.42,9,7.6,9.61a0.08,0.08,0,0,1-.12.09L7,9.35,6.49,9.7a0.08,0.08,0,0,1-.12-0.09L6.55,9,6.07,8.68a0.08,0.08,0,0,1,0-.15h0.6L6.91,8a0.08,0.08,0,0,1,.15,0h0Zm0,0"/>
      <path class="cls-1" d="M7.06,10.95l0.19,0.57h0.6a0.08,0.08,0,0,1,0,.15L7.42,12,7.6,12.6a0.08,0.08,0,0,1-.12.09L7,12.34l-0.49.35a0.08,0.08,0,0,1-.12-0.09L6.55,12l-0.49-.36a0.08,0.08,0,0,1,0-.15h0.6l0.19-.57a0.08,0.08,0,0,1,.15,0h0Zm0,0"/>
      <path class="cls-1" d="M7.06,13.94l0.19,0.57h0.6a0.08,0.08,0,0,1,0,.15L7.42,15,7.6,15.6a0.08,0.08,0,0,1-.12.09L7,15.33l-0.49.35a0.08,0.08,0,0,1-.12-0.09L6.55,15l-0.49-.36a0.08,0.08,0,0,1,0-.15h0.6l0.19-.57a0.08,0.08,0,0,1,.15,0h0Zm0,0"/>
      <path class="cls-1" d="M9.38,3.44L9.57,4h0.6a0.08,0.08,0,0,1,0,.15l-0.49.36L9.92,5.1a0.08,0.08,0,0,1-.12.09L9.31,4.84l-0.49.35A0.08,0.08,0,0,1,8.69,5.1l0.18-.57L8.39,4.17a0.08,0.08,0,0,1,0-.15H9l0.19-.57a0.08,0.08,0,0,1,.15,0h0Zm0,0"/>
      <path class="cls-1" d="M9.38,6.43L9.57,7h0.6a0.08,0.08,0,0,1,0,.15l-0.49.36L9.92,8.09a0.08,0.08,0,0,1-.12.09L9.31,7.83l-0.49.35a0.08,0.08,0,0,1-.12-0.09l0.18-.57L8.39,7.16a0.08,0.08,0,0,1,0-.15H9l0.19-.57a0.08,0.08,0,0,1,.15,0h0Zm0,0"/>
      <path class="cls-1" d="M9.38,9.42L9.57,10h0.6a0.08,0.08,0,0,1,0,.15l-0.49.36,0.18,0.57a0.08,0.08,0,0,1-.12.09l-0.49-.35-0.49.35a0.08,0.08,0,0,1-.12-0.09l0.18-.57-0.49-.36a0.08,0.08,0,0,1,0-.15H9l0.19-.57a0.08,0.08,0,0,1,.15,0h0Zm0,0"/>
      <path class="cls-1" d="M9.38,12.42L9.57,13h0.6a0.08,0.08,0,0,1,0,.15l-0.49.36,0.18,0.57a0.08,0.08,0,0,1-.12.09l-0.49-.35-0.49.35a0.08,0.08,0,0,1-.12-0.09l0.18-.57-0.49-.36a0.08,0.08,0,0,1,0-.15H9l0.19-.57a0.08,0.08,0,0,1,.15,0h0Zm0,0"/>
      <path class="cls-1" d="M11.7,2l0.19,0.57h0.6a0.08,0.08,0,0,1,0,.15l-0.48.36,0.18,0.57a0.08,0.08,0,0,1-.12.09l-0.49-.35-0.49.35A0.08,0.08,0,0,1,11,3.63l0.18-.57L10.71,2.7a0.08,0.08,0,0,1,0-.15h0.6L11.55,2a0.08,0.08,0,0,1,.15,0h0Zm0,0"/>
      <path class="cls-1" d="M11.7,5l0.19,0.57h0.6a0.08,0.08,0,0,1,0,.15L12.06,6l0.18,0.57a0.08,0.08,0,0,1-.12.09l-0.49-.35-0.49.35A0.08,0.08,0,0,1,11,6.62L11.19,6l-0.48-.36a0.08,0.08,0,0,1,0-.15h0.6L11.55,5a0.08,0.08,0,0,1,.15,0h0Zm0,0"/>
      <path class="cls-1" d="M11.7,8l0.19,0.57h0.6a0.08,0.08,0,0,1,0,.15L12.06,9l0.18,0.57a0.08,0.08,0,0,1-.12.09l-0.49-.35-0.49.35A0.08,0.08,0,0,1,11,9.61L11.19,9l-0.48-.36a0.08,0.08,0,0,1,0-.15h0.6L11.55,8a0.08,0.08,0,0,1,.15,0h0Zm0,0"/>
      <path class="cls-1" d="M11.7,10.95l0.19,0.57h0.6a0.08,0.08,0,0,1,0,.15L12.06,12l0.18,0.57a0.08,0.08,0,0,1-.12.09l-0.49-.35-0.49.35A0.08,0.08,0,0,1,11,12.6L11.19,12l-0.48-.36a0.08,0.08,0,0,1,0-.15h0.6l0.19-.57a0.08,0.08,0,0,1,.15,0h0Zm0,0"/>
      <path class="cls-1" d="M11.7,13.94l0.19,0.57h0.6a0.08,0.08,0,0,1,0,.15L12.06,15l0.18,0.57a0.08,0.08,0,0,1-.12.09l-0.49-.35-0.49.35A0.08,0.08,0,0,1,11,15.6L11.19,15l-0.48-.36a0.08,0.08,0,0,1,0-.15h0.6l0.19-.57a0.08,0.08,0,0,1,.15,0h0Zm0,0"/>
      <path class="cls-1" d="M14,3.44L14.22,4h0.6a0.08,0.08,0,0,1,0,.15l-0.48.36L14.56,5.1a0.08,0.08,0,0,1-.12.09l-0.49-.35-0.49.35a0.08,0.08,0,0,1-.12-0.09l0.18-.57L13,4.17a0.08,0.08,0,0,1,0-.15h0.6l0.19-.57a0.08,0.08,0,0,1,.15,0h0Zm0,0"/>
      <path class="cls-1" d="M14,6.43L14.22,7h0.6a0.08,0.08,0,0,1,0,.15l-0.48.36,0.18,0.57a0.08,0.08,0,0,1-.12.09l-0.49-.35-0.49.35a0.08,0.08,0,0,1-.12-0.09l0.18-.57L13,7.16a0.08,0.08,0,0,1,0-.15h0.6l0.19-.57a0.08,0.08,0,0,1,.15,0h0Zm0,0"/>
      <path class="cls-1" d="M14,9.42L14.22,10h0.6a0.08,0.08,0,0,1,0,.15l-0.48.36,0.18,0.57a0.08,0.08,0,0,1-.12.09l-0.49-.35-0.49.35a0.08,0.08,0,0,1-.12-0.09l0.18-.57L13,10.15a0.08,0.08,0,0,1,0-.15h0.6l0.19-.57a0.08,0.08,0,0,1,.15,0h0Zm0,0"/>
      <path class="cls-1" d="M14,12.42L14.22,13h0.6a0.08,0.08,0,0,1,0,.15l-0.48.36,0.18,0.57a0.08,0.08,0,0,1-.12.09l-0.49-.35-0.49.35a0.08,0.08,0,0,1-.12-0.09l0.18-.57L13,13.14a0.08,0.08,0,0,1,0-.15h0.6l0.19-.57a0.08,0.08,0,0,1,.15,0h0Zm0,0"/>
      <path class="cls-1" d="M16.35,2l0.19,0.57h0.6a0.08,0.08,0,0,1,0,.15l-0.48.36,0.18,0.57a0.08,0.08,0,0,1-.12.09l-0.49-.35-0.49.35a0.08,0.08,0,0,1-.12-0.09l0.18-.57L15.35,2.7a0.08,0.08,0,0,1,0-.15H16L16.19,2a0.08,0.08,0,0,1,.15,0h0Zm0,0"/>
      <path class="cls-1" d="M16.35,5l0.19,0.57h0.6a0.08,0.08,0,0,1,0,.15L16.7,6l0.18,0.57a0.08,0.08,0,0,1-.12.09l-0.49-.35-0.49.35a0.08,0.08,0,0,1-.12-0.09L15.84,6l-0.48-.36a0.08,0.08,0,0,1,0-.15H16L16.19,5a0.08,0.08,0,0,1,.15,0h0Zm0,0"/>
      <path class="cls-1" d="M16.35,8l0.19,0.57h0.6a0.08,0.08,0,0,1,0,.15L16.7,9l0.18,0.57a0.08,0.08,0,0,1-.12.09l-0.49-.35-0.49.35a0.08,0.08,0,0,1-.12-0.09L15.84,9l-0.48-.36a0.08,0.08,0,0,1,0-.15H16L16.19,8a0.08,0.08,0,0,1,.15,0h0Zm0,0"/>
      <path class="cls-1" d="M16.35,10.95l0.19,0.57h0.6a0.08,0.08,0,0,1,0,.15L16.7,12l0.18,0.57a0.08,0.08,0,0,1-.12.09l-0.49-.35-0.49.35a0.08,0.08,0,0,1-.12-0.09L15.84,12l-0.48-.36a0.08,0.08,0,0,1,0-.15H16l0.19-.57a0.08,0.08,0,0,1,.15,0h0Zm0,0"/>
      <path class="cls-1" d="M16.35,13.94l0.19,0.57h0.6a0.08,0.08,0,0,1,0,.15L16.7,15l0.18,0.57a0.08,0.08,0,0,1-.12.09l-0.49-.35-0.49.35a0.08,0.08,0,0,1-.12-0.09L15.84,15l-0.48-.36a0.08,0.08,0,0,1,0-.15H16l0.19-.57a0.08,0.08,0,0,1,.15,0h0Zm0,0"/>
      <path class="cls-1" d="M18.67,3.44L18.86,4h0.6a0.08,0.08,0,0,1,0,.15L19,4.52,19.21,5.1a0.08,0.08,0,0,1-.12.09l-0.49-.35-0.49.35A0.08,0.08,0,0,1,18,5.1l0.18-.57-0.49-.36a0.08,0.08,0,0,1,0-.15h0.6l0.19-.57a0.08,0.08,0,0,1,.15,0h0Zm0,0"/>
      <path class="cls-1" d="M18.67,6.43L18.86,7h0.6a0.08,0.08,0,0,1,0,.15L19,7.51l0.18,0.57a0.08,0.08,0,0,1-.12.09l-0.49-.35-0.49.35A0.08,0.08,0,0,1,18,8.09l0.18-.57-0.49-.36a0.08,0.08,0,0,1,0-.15h0.6l0.19-.57a0.08,0.08,0,0,1,.15,0h0Zm0,0"/>
      <path class="cls-1" d="M18.67,9.42L18.86,10h0.6a0.08,0.08,0,0,1,0,.15L19,10.51l0.18,0.57a0.08,0.08,0,0,1-.12.09l-0.49-.35-0.49.35A0.08,0.08,0,0,1,18,11.08l0.18-.57-0.49-.36a0.08,0.08,0,0,1,0-.15h0.6l0.19-.57a0.08,0.08,0,0,1,.15,0h0Zm0,0"/>
      <path class="cls-1" d="M18.67,12.42L18.86,13h0.6a0.08,0.08,0,0,1,0,.15L19,13.5l0.18,0.57a0.08,0.08,0,0,1-.12.09l-0.49-.35-0.49.35A0.08,0.08,0,0,1,18,14.07l0.18-.57-0.49-.36a0.08,0.08,0,0,1,0-.15h0.6l0.19-.57a0.08,0.08,0,0,1,.15,0h0Zm0,0"/>
      <path class="cls-1" d="M21,2l0.19,0.57h0.6a0.08,0.08,0,0,1,0,.15l-0.49.36,0.18,0.57a0.08,0.08,0,0,1-.12.09l-0.49-.35-0.49.35a0.08,0.08,0,0,1-.12-0.09l0.18-.57L20,2.7a0.08,0.08,0,0,1,0-.15h0.6L20.84,2A0.08,0.08,0,0,1,21,2h0Zm0,0"/>
      <path class="cls-1" d="M21,5l0.19,0.57h0.6a0.08,0.08,0,0,1,0,.15L21.34,6l0.18,0.57a0.08,0.08,0,0,1-.12.09l-0.49-.35-0.49.35a0.08,0.08,0,0,1-.12-0.09L20.48,6,20,5.69a0.08,0.08,0,0,1,0-.15h0.6L20.84,5A0.08,0.08,0,0,1,21,5h0Zm0,0"/>
      <path class="cls-1" d="M21,8l0.19,0.57h0.6a0.08,0.08,0,0,1,0,.15L21.34,9l0.18,0.57a0.08,0.08,0,0,1-.12.09l-0.49-.35-0.49.35a0.08,0.08,0,0,1-.12-0.09L20.48,9,20,8.68a0.08,0.08,0,0,1,0-.15h0.6L20.84,8A0.08,0.08,0,0,1,21,8h0Zm0,0"/>
      <path class="cls-1" d="M21,10.95l0.19,0.57h0.6a0.08,0.08,0,0,1,0,.15L21.34,12l0.18,0.57a0.08,0.08,0,0,1-.12.09l-0.49-.35-0.49.35a0.08,0.08,0,0,1-.12-0.09L20.48,12,20,11.67a0.08,0.08,0,0,1,0-.15h0.6l0.19-.57a0.08,0.08,0,0,1,.15,0h0Zm0,0"/>
      <path class="cls-1" d="M21,13.94l0.19,0.57h0.6a0.08,0.08,0,0,1,0,.15L21.34,15l0.18,0.57a0.08,0.08,0,0,1-.12.09l-0.49-.35-0.49.35a0.08,0.08,0,0,1-.12-0.09L20.48,15,20,14.66a0.08,0.08,0,0,1,0-.15h0.6l0.19-.57a0.08,0.08,0,0,1,.15,0h0Zm0,0"/>
    </symbol>
  </defs>
  <title>eng</title>
  <use width="49.95" height="32.73" transform="translate(0) scale(0.79)" xlink:href="#New_Symbol_4"/>
</svg>
