<svg id="lp" xmlns="http://www.w3.org/2000/svg" width="102.91" height="198.36" viewBox="0 0 102.91 198.36">
  <defs>
    <style>
      .cls-1, .cls-2, .cls-3 {
        fill: none;
        stroke-miterlimit: 10;
      }

      .cls-1 {
        stroke: #910a3d;
        stroke-width: 5px;
      }

      .cls-2 {
        stroke: #b2b2b2;
      }

      .cls-3 {
        stroke: #ffc936;
        stroke-width: 7px;
      }
    </style>
  </defs>
  <title>estimate_languages</title>
  <path class="cls-1" d="M701.87,2747c-1.42-1-19.75-13.75-19.58-36.91,0.17-22.14,17.09-34.51,18.76-35.69" transform="translate(-656.46 -2659.46)"/>
  <path class="cls-1" d="M714.88,2747c1.42-1,19.75-13.75,19.58-36.91-0.17-22.14-17.09-34.51-18.76-35.69" transform="translate(-656.46 -2659.46)"/>
  <line class="cls-1" x1="52.04" y1="79.36" x2="52.04" y2="23.36"/>
  <line class="cls-1" x1="91.54" y1="50.86" x2="12.54" y2="50.86"/>
  <line class="cls-1" x1="86.54" y1="30.86" x2="16.54" y2="30.86"/>
  <line class="cls-1" x1="86.54" y1="71.86" x2="16.54" y2="71.86"/>
  <line class="cls-2" x1="52.04" y1="128.36" x2="52.04" y2="198.36"/>
  <path class="cls-3" d="M660,2710.92a47.93,47.93,0,1,1,25.13,42.19l-12.49,3.84,1.56-12A47.81,47.81,0,0,1,660,2710.92Z" transform="translate(-656.46 -2659.46)"/>
</svg>
