<svg id="lp" xmlns="http://www.w3.org/2000/svg" width="103" height="108.58" viewBox="0 0 103 108.58">
  <defs>
    <style>
      .cls-1 {
        fill: none;
        stroke: #ffc936;
        stroke-miterlimit: 10;
        stroke-width: 7px;
      }

      .cls-2 {
        fill: #910a3d;
      }
    </style>
  </defs>
  <title>estimate_words</title>
  <g>
    <polyline class="cls-1" points="3.5 39.58 3.5 105.08 99.5 105.08 99.5 39.58"/>
    <path class="cls-2" d="M696,3183.52l9.87,9.87-4.28,4.28-9-9c-2.27-2.27-5.09-2.5-7.08-.52-2.43,2.43-2.4,5.65,1.56,9.61l7.17,7.17-4.28,4.28-23.37-23.37,4.28-4.28,8.63,8.63a9.76,9.76,0,0,1,3.15-7C686.63,3179.3,692,3179.5,696,3183.52Z" transform="translate(-655 -3111.24)"/>
    <path class="cls-2" d="M728.74,3114.82c5.1,5.1,4.51,12.5-.23,17.23s-12.24,5.42-17.33.33-4.51-12.5.33-17.33S723.65,3109.73,728.74,3114.82Zm-4.15,4.15a6.55,6.55,0,1,0,.26,9.41A6.61,6.61,0,0,0,724.59,3119Z" transform="translate(-655 -3111.24)"/>
    <path class="cls-2" d="M743.17,3193.12l-12.22-12.44c-1.94,2.74-1.74,5.83.22,7.82a5.85,5.85,0,0,0,6.15,1.94l3,4.67c-4.82,1.9-9.32.6-12.83-3-4.53-4.62-4.73-11.82.41-16.87s12.38-4.76,17-.08a11.67,11.67,0,0,1-.21,16.49Zm-9-15.3,7.75,7.89a5.33,5.33,0,0,0-.78-6.82A5.75,5.75,0,0,0,734.12,3177.82Z" transform="translate(-655 -3111.24)"/>
    <path class="cls-2" d="M675.62,3159.63l9.82-31.55,5.79,1.8-9.82,31.55Z" transform="translate(-655 -3111.24)"/>
    <path class="cls-2" d="M708.6,3179.75L699,3148.12l5.8-1.75L714.4,3178Z" transform="translate(-655 -3111.24)"/>
  </g>
</svg>
