<svg id="lp" xmlns="http://www.w3.org/2000/svg" width="97.95" height="202.14" viewBox="0 0 97.95 202.14">
  <defs>
    <style>
      .cls-1, .cls-3, .cls-4 {
        fill: none;
        stroke-miterlimit: 10;
      }

      .cls-1 {
        stroke: #b2b2b2;
      }

      .cls-2 {
        fill: #ffc936;
      }

      .cls-3 {
        stroke: #910a3d;
      }

      .cls-3, .cls-4 {
        stroke-width: 5px;
      }

      .cls-4 {
        stroke: #ffc936;
      }
    </style>
  </defs>
  <title>estimate_type</title>
  <line class="cls-1" x1="49.9" y1="132.14" x2="49.9" y2="202.14"/>
  <path class="cls-2" d="M750.08,2994.82H713.95l-1-1.62c-1.65-2.58-4.62-7.68-7.5-12.61-1.66-2.84-3.27-5.61-4.54-7.73s-4.36-7.3.4-13.77a13.4,13.4,0,0,1,5.49-3.9c0.17-6,.51-21.19.58-35.84a8.59,8.59,0,0,1,17.15-.65c0.14,1.94.29,4.25,0.46,6.67,0.31,4.55.69,10.19,1,14a10.1,10.1,0,0,1,3.7.22,9.8,9.8,0,0,1,5,3.07,11.74,11.74,0,0,1,2-.19,10.09,10.09,0,0,1,3.56.63,10.26,10.26,0,0,1,5.34,4.73,14.44,14.44,0,0,1,7.27,4.46c2.2,2.64,2.54,5.76,2.71,8.73,0.23,4.17-4,26.54-4.91,31Zm-32.27-7H744.3c2.26-11.89,4.36-24.4,4.25-26.44-0.13-2.35-.34-3.72-1.09-4.62a8.45,8.45,0,0,0-4.89-2.45l-1.95-.32-0.73-1.83c-0.8-2-1.8-2.39-2.13-2.51a3.13,3.13,0,0,0-1.1-.18,5.94,5.94,0,0,0-2.16.46l-2.88,1.17-1.5-2.72a3.43,3.43,0,0,0-2.19-2,2.88,2.88,0,0,0-.71-0.08,6,6,0,0,0-2.71.81l-4.39,2.38-0.74-4.94c-0.22-1.45-.7-8.34-1.4-18.68-0.16-2.42-.32-4.73-0.46-6.66a1.5,1.5,0,0,0-1.53-1.37,1.59,1.59,0,0,0-1.64,1.56c-0.09,18.47-.57,35.93-0.66,38.28l-0.09,2.15-2,.89-1,.45c-1.18.5-3.14,1.34-3.7,2.09-1.71,2.32-1.39,3.73,0,6s2.9,4.93,4.58,7.79C713.77,2981,716.16,2985.11,717.81,2987.82Z" transform="translate(-657.6 -2886.68)"/>
  <polyline class="cls-3" points="53.11 1.58 42.7 14.39 35.4 8.24"/>
  <circle class="cls-4" cx="10.57" cy="12.67" r="8.07"/>
  <circle class="cls-4" cx="74.68" cy="12.67" r="8.07"/>
</svg>
