<svg id="lp" xmlns="http://www.w3.org/2000/svg" width="109.46" height="560.36" viewBox="0 0 109.46 560.36">
  <defs>
    <style>
      .cls-1, .cls-2, .cls-3, .cls-4 {
        fill: none;
        stroke-miterlimit: 10;
      }

      .cls-1 {
        stroke: #910a3d;
      }

      .cls-1, .cls-4 {
        stroke-width: 5px;
      }

      .cls-2 {
        stroke: #b2b2b2;
      }

      .cls-3, .cls-4 {
        stroke: #ffc936;
      }

      .cls-3 {
        stroke-width: 7px;
      }

      .cls-5 {
        font-size: 45.89px;
      }

      .cls-5, .cls-6 {
        fill: #910a3d;
        font-family: Galano Grotesque;
        font-weight: 700;
      }

      .cls-6 {
        font-size: 45.89px;
      }
    </style>
  </defs>
  <title>estimate</title>
  <path class="cls-1" d="M701.87,2747c-1.42-1-19.75-13.75-19.58-36.91,0.17-22.14,17.09-34.51,18.76-35.69" transform="translate(-655 -2659.46)"/>
  <path class="cls-1" d="M714.88,2747c1.42-1,19.75-13.75,19.58-36.91-0.17-22.14-17.09-34.51-18.76-35.69" transform="translate(-655 -2659.46)"/>
  <line class="cls-1" x1="53.5" y1="79.36" x2="53.5" y2="23.36"/>
  <line class="cls-1" x1="93" y1="50.86" x2="14" y2="50.86"/>
  <line class="cls-1" x1="88" y1="30.86" x2="18" y2="30.86"/>
  <line class="cls-1" x1="88" y1="71.86" x2="18" y2="71.86"/>
  <line class="cls-2" x1="53.5" y1="128.36" x2="53.5" y2="198.36"/>
  <line class="cls-2" x1="52.5" y1="359.36" x2="52.5" y2="429.36"/>
  <path class="cls-3" d="M747.19,2991.32c0.28,0,.58-1.77.78-2.26,4.83-11.65,4.28-23.92,4.07-27.86-0.15-2.66-.41-4.89-1.9-6.67a11.86,11.86,0,0,0-7-3.66,7.34,7.34,0,0,0-4.16-4.49,6.62,6.62,0,0,0-2.33-.41,9.43,9.43,0,0,0-3.47.72,7,7,0,0,0-4.4-3.71,6.38,6.38,0,0,0-1.56-.19,9.44,9.44,0,0,0-4.38,1.23c-0.28-1.86-1.25-16.83-1.83-25.07a5,5,0,0,0-5-4.63h0a5.08,5.08,0,0,0-5.13,5c-0.09,17.86-.55,35.48-0.66,38.15-1.74.79-4.76,1.83-6.1,3.65-3.08,4.17-1.74,7.34-.21,9.9,3.44,5.77,9.44,16.25,12,20.25h31.33Z" transform="translate(-655 -2659.46)"/>
  <polyline class="cls-1" points="55.7 228.8 45.3 241.61 38 235.46"/>
  <circle class="cls-4" cx="13.16" cy="239.89" r="8.07"/>
  <circle class="cls-4" cx="77.28" cy="239.89" r="8.07"/>
  <polyline class="cls-3" points="3.5 491.36 3.5 556.86 99.5 556.86 99.5 491.36"/>
  <text class="cls-5" transform="translate(32.76 552.07) rotate(-45)">h</text>
  <text class="cls-5" transform="translate(63.29 481.97) rotate(-45)">o</text>
  <text class="cls-5" transform="translate(63.76 522.83) rotate(45.51)">e</text>
  <text class="cls-5" transform="translate(17.56 499.21) rotate(17.29)">l</text>
  <text class="cls-6" transform="translate(50.52 521.22) rotate(-16.82)">l</text>
  <path class="cls-3" d="M660,2710.92a47.93,47.93,0,1,1,25.13,42.19l-12.49,3.84,1.56-12A47.81,47.81,0,0,1,660,2710.92Z" transform="translate(-655 -2659.46)"/>
</svg>
