<svg id="lp" xmlns="http://www.w3.org/2000/svg" width="38" height="33.75" viewBox="0 0 38 33.75">
  <defs>
    <style>
      .cls-1 {
        fill: #ffc936;
      }

      .cls-2 {
        fill: #910a3d;
      }
    </style>
  </defs>
  <title>job_02_small_color</title>
  <g>
    <path class="cls-1" d="M174.89,1034.13h-31.8v-22h31.8v22Zm-30-1.8h28.2v-18.4h-28.2v18.4Z" transform="translate(-139.89 -1008.93)"/>
    <rect class="cls-1" y="3.2" width="38" height="1.8"/>
    <rect class="cls-1" x="18.4" y="23.6" width="1.8" height="3.2"/>
    <rect class="cls-1" x="151.56" y="1037.92" width="9.11" height="1.8" transform="translate(-828.72 -594.28) rotate(-45)"/>
    <rect class="cls-1" x="161.53" y="1034.27" width="1.8" height="9.12" transform="translate(-826.88 -589.82) rotate(-45)"/>
    <rect class="cls-1" x="18.4" width="1.8" height="3.8"/>
    <path class="cls-2" d="M153.85,1028.13a5.26,5.26,0,1,1,5.26-5.26A5.27,5.27,0,0,1,153.85,1028.13Zm0-9.13a3.86,3.86,0,1,0,3.86,3.86A3.87,3.87,0,0,0,153.85,1019Z" transform="translate(-139.89 -1008.93)"/>
    <rect class="cls-2" x="22.8" y="10" width="7.2" height="1.4"/>
    <rect class="cls-2" x="22.8" y="13.2" width="7.2" height="1.4"/>
    <rect class="cls-2" x="22.8" y="16.6" width="7.2" height="1.4"/>
    <polygon class="cls-2" points="18.6 14.6 13.27 14.6 13.21 9.36 14.61 9.33 14.65 13.2 18.6 13.2 18.6 14.6"/>
  </g>
</svg>
