<svg id="lp" xmlns="http://www.w3.org/2000/svg" width="30.15" height="33.8" viewBox="0 0 30.15 33.8">
  <defs>
    <style>
      .cls-1 {
        fill: #989898;
      }
    </style>
  </defs>
  <title>job_03_small_mh</title>
  <g>
    <path class="cls-1" d="M267.55,954.44c-4.4,0-6.77-8.71-6.77-16.9s2.37-16.9,6.77-16.9,6.77,8.71,6.77,16.9S271.94,954.44,267.55,954.44Zm0-32c-1.13,0-2.36,1.53-3.3,4.1a37.23,37.23,0,0,0,0,22c0.94,2.56,2.18,4.1,3.3,4.1s2.36-1.53,3.3-4.1a37.23,37.23,0,0,0,0-22C269.91,924,268.68,922.44,267.55,922.44Z" transform="translate(-252.47 -920.64)"/>
    <path class="cls-1" d="M277.66,947.92a14.93,14.93,0,0,1-2.54-.24,35,35,0,0,1-11-4.28c-7.1-4.1-13.45-10.5-11.25-14.31,1-1.71,3.5-2.31,7.07-1.69a35,35,0,0,1,11,4.28c7.1,4.1,13.45,10.5,11.25,14.31C281.45,947.26,279.88,947.92,277.66,947.92Zm-20.25-19c-1.5,0-2.55.35-2.94,1-0.56,1,.14,2.81,1.9,4.91a37.23,37.23,0,0,0,19.06,11c2.69,0.47,4.64.16,5.2-.81s-0.14-2.81-1.9-4.91a37.23,37.23,0,0,0-19.06-11A13.38,13.38,0,0,0,257.41,929Z" transform="translate(-252.47 -920.64)"/>
    <path class="cls-1" d="M257.44,947.92c-2.22,0-3.79-.66-4.53-1.93-2.2-3.81,4.16-10.21,11.25-14.31a35,35,0,0,1,11-4.28c3.57-.62,6.08,0,7.07,1.69,2.2,3.81-4.16,10.21-11.25,14.31a35,35,0,0,1-11,4.28A14.93,14.93,0,0,1,257.44,947.92Zm20.25-19a13.37,13.37,0,0,0-2.26.22,37.23,37.23,0,0,0-19.06,11c-1.75,2.1-2.46,3.93-1.9,4.91s2.51,1.28,5.2.81a37.23,37.23,0,0,0,19.06-11c1.75-2.1,2.46-3.93,1.9-4.91C280.23,929.32,279.19,929,277.69,929Z" transform="translate(-252.47 -920.64)"/>
    <path class="cls-1" d="M267.55,940.25a2.71,2.71,0,1,1,2.71-2.71A2.71,2.71,0,0,1,267.55,940.25Zm0-4a1.31,1.31,0,1,0,1.31,1.31A1.31,1.31,0,0,0,267.55,936.23Z" transform="translate(-252.47 -920.64)"/>
  </g>
</svg>
