<svg id="lp" xmlns="http://www.w3.org/2000/svg" width="30.15" height="33.8" viewBox="0 0 30.15 33.8">
  <defs>
    <style>
      .cls-1 {
        fill: #ffc936;
      }

      .cls-2 {
        fill: #910a3d;
      }
    </style>
  </defs>
  <title>job_03_small_color</title>
  <g>
    <path class="cls-1" d="M265.61,1041.15c-4.4,0-6.77-8.71-6.77-16.9s2.37-16.9,6.77-16.9,6.77,8.71,6.77,16.9S270,1041.15,265.61,1041.15Zm0-32c-1.13,0-2.36,1.53-3.3,4.1a37.23,37.23,0,0,0,0,22c0.94,2.56,2.18,4.1,3.3,4.1s2.36-1.53,3.3-4.1a37.23,37.23,0,0,0,0-22C268,1010.69,266.74,1009.16,265.61,1009.16Z" transform="translate(-250.53 -1007.36)"/>
    <path class="cls-1" d="M275.72,1034.63a14.93,14.93,0,0,1-2.54-.24,35,35,0,0,1-11-4.28c-7.1-4.1-13.45-10.5-11.25-14.31,1-1.71,3.5-2.31,7.07-1.69a35,35,0,0,1,11,4.28c7.1,4.1,13.45,10.5,11.25,14.31C279.51,1034,277.94,1034.63,275.72,1034.63Zm-20.25-19c-1.5,0-2.55.35-2.94,1-0.56,1,.14,2.81,1.9,4.91a37.23,37.23,0,0,0,19.06,11c2.69,0.47,4.64.16,5.2-.81s-0.14-2.81-1.9-4.91a37.23,37.23,0,0,0-19.06-11A13.38,13.38,0,0,0,255.47,1015.68Z" transform="translate(-250.53 -1007.36)"/>
    <path class="cls-1" d="M255.5,1034.63c-2.22,0-3.79-.66-4.53-1.93-2.2-3.81,4.16-10.21,11.25-14.31a35,35,0,0,1,11-4.28c3.57-.62,6.08,0,7.07,1.69,2.2,3.81-4.16,10.21-11.25,14.31a35,35,0,0,1-11,4.28A14.93,14.93,0,0,1,255.5,1034.63Zm20.25-19a13.37,13.37,0,0,0-2.26.22,37.23,37.23,0,0,0-19.06,11c-1.75,2.1-2.46,3.93-1.9,4.91s2.51,1.28,5.2.81a37.23,37.23,0,0,0,19.06-11c1.75-2.1,2.46-3.93,1.9-4.91C278.3,1016,277.25,1015.68,275.75,1015.68Z" transform="translate(-250.53 -1007.36)"/>
    <path class="cls-2" d="M265.61,1027a2.71,2.71,0,1,1,2.71-2.71A2.71,2.71,0,0,1,265.61,1027Zm0-4a1.31,1.31,0,1,0,1.31,1.31A1.31,1.31,0,0,0,265.61,1022.94Z" transform="translate(-250.53 -1007.36)"/>
  </g>
</svg>
