<svg id="lp" xmlns="http://www.w3.org/2000/svg" width="38" height="33.75" viewBox="0 0 38 33.75">
  <defs>
    <style>
      .cls-1 {
        fill: #989898;
      }
    </style>
  </defs>
  <title>job_02_small_mh</title>
  <g>
    <path class="cls-1" d="M176.83,947.42H145v-22h31.8v22Zm-30-1.8H175v-18.4h-28.2v18.4Z" transform="translate(-141.83 -922.22)"/>
    <rect class="cls-1" y="3.2" width="38" height="1.8"/>
    <rect class="cls-1" x="18.4" y="23.6" width="1.8" height="3.2"/>
    <rect class="cls-1" x="153.5" y="951.21" width="9.11" height="1.8" transform="translate(-768.78 -531.59) rotate(-45)"/>
    <rect class="cls-1" x="163.47" y="947.55" width="1.8" height="9.12" transform="translate(-766.93 -527.13) rotate(-45)"/>
    <rect class="cls-1" x="18.4" width="1.8" height="3.8"/>
    <path class="cls-1" d="M155.79,941.42a5.26,5.26,0,1,1,5.26-5.26A5.27,5.27,0,0,1,155.79,941.42Zm0-9.13a3.86,3.86,0,1,0,3.86,3.86A3.87,3.87,0,0,0,155.79,932.29Z" transform="translate(-141.83 -922.22)"/>
    <rect class="cls-1" x="22.8" y="10" width="7.2" height="1.4"/>
    <rect class="cls-1" x="22.8" y="13.2" width="7.2" height="1.4"/>
    <rect class="cls-1" x="22.8" y="16.6" width="7.2" height="1.4"/>
    <polygon class="cls-1" points="18.6 14.6 13.27 14.6 13.21 9.36 14.61 9.33 14.65 13.2 18.6 13.2 18.6 14.6"/>
  </g>
</svg>
