<svg id="lp" xmlns="http://www.w3.org/2000/svg" width="79" height="95.72" viewBox="0 0 79 95.72">
  <defs>
    <style>
      .cls-1, .cls-2 {
        fill: none;
        stroke-miterlimit: 10;
      }

      .cls-1 {
        stroke: #ffc936;
        stroke-width: 7px;
      }

      .cls-2 {
        stroke: #910a3d;
        stroke-width: 5px;
      }
    </style>
  </defs>
  <title>money</title>
  <g>
    <path class="cls-1" d="M1144.5,1563.82c-13.34,14-36,10.85-36,10.85v38c0,22.38,36,38,36,38s36-15.6,36-38v-38S1157.84,1577.84,1144.5,1563.82Z" transform="translate(-1105 -1558.74)"/>
    <path class="cls-2" d="M1156.79,1598.3c0-3.8-1.67-9-12.28-9s-12.05,5.89-12.05,8.23c0,5,8.38,8.39,12.05,9.88s12.28,3.68,12.28,9.37c0,2.87-2.32,8.76-12.16,8.76-11.27,0-12.61-5.1-12.61-9" transform="translate(-1105 -1558.74)"/>
    <line class="cls-2" x1="38.5" y1="30.08" x2="38.5" y2="24.08"/>
    <line class="cls-2" x1="38.5" y1="73.08" x2="38.5" y2="68.08"/>
  </g>
</svg>
