<?xml version="1.0" encoding="utf-8"?>
<!-- Generator: Adobe Illustrator 17.1.0, SVG Export Plug-In . SVG Version: 6.00 Build 0)  -->
<!DOCTYPE svg PUBLIC "-//W3C//DTD SVG 1.1//EN" "http://www.w3.org/Graphics/SVG/1.1/DTD/svg11.dtd">
<svg version="1.1" id="Layer_1" xmlns="http://www.w3.org/2000/svg" xmlns:xlink="http://www.w3.org/1999/xlink" x="0px" y="0px"
	 viewBox="0 0 339.3 169" enable-background="new 0 0 339.3 169" xml:space="preserve">
<path opacity="5.000000e-002" fill="#FFFFFF" d="M255.9,44.2c0.9,0,1.6,0.8,1.6,1.7v47c0,0.9-0.7,1.6-1.6,1.6h-1.6
	c0,0.1,0,0.1,0,0.2c0,0.7-0.6,1.2-1.2,1.2h-3.3c-0.7,0-1.2-0.6-1.2-1.2c0-0.1,0-0.1,0-0.2h-26.3c0,0.1,0,0.1,0,0.2
	c0,0.7-0.6,1.2-1.2,1.2h-3.3c-0.7,0-1.2-0.6-1.2-1.2c0-0.1,0-0.1,0-0.2h-1.7c-0.9,0-1.6-0.7-1.6-1.6V45.8c0-0.9,0.7-1.6,1.6-1.6
	H255.9 M215.7,53.6h38.7c0.9,0,1.6-0.7,1.6-1.6v-5c0-0.9-0.7-1.6-1.6-1.6h-38.7c-0.9,0-1.6,0.7-1.6,1.6v5
	C214.1,52.9,214.8,53.6,215.7,53.6 M215.7,63.3h38.7c0.9,0,1.6-0.7,1.6-1.6v-5c0-0.9-0.7-1.6-1.6-1.6h-38.7c-0.9,0-1.6,0.7-1.6,1.6
	v5C214.1,62.6,214.8,63.3,215.7,63.3 M215.7,73h38.7c0.9,0,1.6-0.7,1.6-1.6v-5c0-0.9-0.7-1.6-1.6-1.6h-38.7c-0.9,0-1.6,0.7-1.6,1.6
	v5C214.1,72.3,214.8,73,215.7,73 M215.7,82.6h38.7c0.9,0,1.6-0.7,1.6-1.6v-5c0-0.9-0.7-1.6-1.6-1.6h-38.7c-0.9,0-1.6,0.7-1.6,1.6v5
	C214.1,81.9,214.8,82.6,215.7,82.6 M255.9,42.7h-41.3c-1.8,0-3.1,1.4-3.1,3.1v47.1c0,1.8,1.4,3.1,3.1,3.1h0.5
	c0.5,0.9,1.4,1.4,2.4,1.4h3.3c1,0,1.9-0.6,2.4-1.4h24c0.5,0.9,1.4,1.4,2.4,1.4h3.3c1,0,1.9-0.6,2.4-1.4h0.5c1.8,0,3.1-1.4,3.1-3.1
	v-47C259,44.1,257.6,42.7,255.9,42.7L255.9,42.7z M215.7,52.1c-0.1,0-0.1,0-0.1-0.1v-5c0-0.1,0-0.1,0.1-0.1h38.7
	c0.1,0,0.1,0,0.1,0.1v5c0,0.1,0,0.1-0.1,0.1H215.7L215.7,52.1z M215.7,61.8c-0.1,0-0.1,0-0.1-0.1v-5c0-0.1,0-0.1,0.1-0.1h38.7
	c0.1,0,0.1,0,0.1,0.1v5c0,0.1,0,0.1-0.1,0.1H215.7L215.7,61.8z M215.7,71.5c-0.1,0-0.1,0-0.1-0.1v-5c0-0.1,0-0.1,0.1-0.1h38.7
	c0.1,0,0.1,0,0.1,0.1v5c0,0.1,0,0.1-0.1,0.1H215.7L215.7,71.5z M215.7,81.1c-0.1,0-0.1,0-0.1-0.1v-5c0-0.1,0-0.1,0.1-0.1h38.7
	c0.1,0,0.1,0,0.1,0.1v5c0,0.1,0,0.1-0.1,0.1H215.7L215.7,81.1z"/>
<path opacity="5.000000e-002" fill="#FFFFFF" d="M159.7,161.5h-5.5c-1.2,0-2.2-1.1-2.2-2.3v-36.5c0-1.3,1.1-2.2,2.2-2.2h5.5
	c1.1,0,2.3,0.8,2.3,2.2v36.5C162,160.5,160.8,161.5,159.7,161.5z M154.2,122.5c0,0-0.2,0-0.2,0.2v36.5c0,0.2,0.2,0.3,0.2,0.3h5.4
	c0.1,0,0.3-0.2,0.3-0.3v-36.5c0-0.1-0.2-0.2-0.3-0.2H154.2z"/>
<path opacity="5.000000e-002" fill="#FFFFFF" d="M151.8,127.6V159c0,1.2,1.1,2.6,2.3,2.6h6.1c1.2,0,1.8-1.3,1.8-2.6v-31h29
	c2,0,3.3,1.2,3.3,3.1V161c0,2-1.3,3.9-3.3,3.9h-38.6c-2,0-3.9-1.9-3.9-3.9v-29.9C148.5,129.3,149.8,127.8,151.8,127.6 M188.7,135.2
	h2.5c0.2,0,0.4-0.2,0.4-0.4v-2.5c0-0.2-0.2-0.4-0.4-0.4h-2.5c-0.2,0-0.4,0.2-0.4,0.4v2.5C188.3,135.1,188.5,135.2,188.7,135.2
	 M167,143.8h18.3c0.6,0,1-0.5,1-1V133c0-0.6-0.5-1-1-1H167c-0.6,0-1,0.5-1,1v9.8C166,143.3,166.4,143.8,167,143.8 M188.7,139.8h2.5
	c0.2,0,0.4-0.2,0.4-0.4v-2.5c0-0.2-0.2-0.4-0.4-0.4h-2.5c-0.2,0-0.4,0.2-0.4,0.4v2.5C188.3,139.7,188.5,139.8,188.7,139.8
	 M180.2,150.4h2.5c0.2,0,0.4-0.2,0.4-0.4v-2.5c0-0.2-0.2-0.4-0.4-0.4h-2.5c-0.2,0-0.4,0.2-0.4,0.4v2.5
	C179.8,150.2,179.9,150.4,180.2,150.4 M175.2,150.4h2.5c0.2,0,0.4-0.2,0.4-0.4v-2.5c0-0.2-0.2-0.4-0.4-0.4h-2.5
	c-0.2,0-0.4,0.2-0.4,0.4v2.5C174.8,150.2,175,150.4,175.2,150.4 M170.3,150.4h2.5c0.2,0,0.4-0.2,0.4-0.4v-2.5c0-0.2-0.2-0.4-0.4-0.4
	h-2.5c-0.2,0-0.4,0.2-0.4,0.4v2.5C169.9,150.2,170.1,150.4,170.3,150.4 M180.2,155h2.5c0.2,0,0.4-0.2,0.4-0.4v-2.5
	c0-0.2-0.2-0.4-0.4-0.4h-2.5c-0.2,0-0.4,0.2-0.4,0.4v2.5C179.8,154.8,179.9,155,180.2,155 M175.2,155h2.5c0.2,0,0.4-0.2,0.4-0.4
	v-2.5c0-0.2-0.2-0.4-0.4-0.4h-2.5c-0.2,0-0.4,0.2-0.4,0.4v2.5C174.8,154.8,175,155,175.2,155 M170.3,155h2.5c0.2,0,0.4-0.2,0.4-0.4
	v-2.5c0-0.2-0.2-0.4-0.4-0.4h-2.5c-0.2,0-0.4,0.2-0.4,0.4v2.5C169.9,154.8,170.1,155,170.3,155 M180.2,159.3h2.5
	c0.2,0,0.4-0.2,0.4-0.4v-2.5c0-0.2-0.2-0.4-0.4-0.4h-2.5c-0.2,0-0.4,0.2-0.4,0.4v2.5C179.8,159.1,179.9,159.3,180.2,159.3
	 M175.2,159.3h2.5c0.2,0,0.4-0.2,0.4-0.4v-2.5c0-0.2-0.2-0.4-0.4-0.4h-2.5c-0.2,0-0.4,0.2-0.4,0.4v2.5
	C174.8,159.1,175,159.3,175.2,159.3 M170.3,159.3h2.5c0.2,0,0.4-0.2,0.4-0.4v-2.5c0-0.2-0.2-0.4-0.4-0.4h-2.5
	c-0.2,0-0.4,0.2-0.4,0.4v2.5C169.9,159.1,170.1,159.3,170.3,159.3 M153.3,125.9l-1.7,0.2c-2.7,0.3-4.6,2.4-4.6,5V161
	c0,2.8,2.6,5.4,5.4,5.4H191c3,0,4.8-2.7,4.8-5.4v-29.9c0-2.8-1.9-4.6-4.8-4.6h-29h-1.5v1.5v31c0,0.6-0.2,1-0.3,1.1l-6,0
	c-0.3,0-0.8-0.6-0.8-1.1v-31.4V125.9L153.3,125.9z M167.5,133.4h17.4v8.9h-17.4V133.4L167.5,133.4z"/>
<g opacity="5.000000e-002">
	<path fill="#FFFFFF" d="M99.4,67.6H73.3c-0.8,0-1.5-0.1-2.2-0.4c-3.3-1.1-5.6-4.2-5.6-7.7c0-4.5,3.6-8.1,8.1-8.1
		c4.5,0,8.1,3.6,8.1,8.1c0,0.3,0,0.7-0.1,1H92c0-0.3-0.1-0.7-0.1-1c0-4.5,3.6-8.1,8.1-8.1s8.1,3.6,8.1,8.1c0,4.5-3.6,8.1-8.1,8.1
		C99.8,67.6,99.6,67.6,99.4,67.6z M73.6,52.9c-3.6,0-6.6,3-6.6,6.6c0,2.9,1.8,5.4,4.6,6.3c0.6,0.2,1.1,0.3,1.7,0.3h26.1
		c0.2,0,0.3,0,0.5,0l0.1,0l0.1,0c3.6,0,6.6-3,6.6-6.6c0-3.6-3-6.6-6.6-6.6s-6.6,3-6.6,6.6c0,0.5,0.1,1.1,0.2,1.6l0.2,0.9H79.7
		l0.2-0.9c0.1-0.5,0.2-1.1,0.2-1.6C80.2,55.9,77.2,52.9,73.6,52.9z M100,64c-2.5,0-4.5-2-4.5-4.5c0-2.5,2-4.5,4.5-4.5s4.5,2,4.5,4.5
		C104.5,62,102.5,64,100,64z M100,56.5c-1.7,0-3,1.4-3,3c0,1.7,1.4,3,3,3s3-1.4,3-3C103,57.8,101.7,56.5,100,56.5z M73.6,63.9
		c-2.5,0-4.5-2-4.5-4.5s2-4.5,4.5-4.5s4.5,2,4.5,4.5S76.1,63.9,73.6,63.9z M73.6,56.3c-1.7,0-3,1.4-3,3s1.4,3,3,3c1.7,0,3-1.4,3-3
		S75.2,56.3,73.6,56.3z"/>
	<path fill="#FFFFFF" d="M68.3,89.2c-0.4,0-1.8-0.2-1.8-2.9v-8.5h-2c-2.2,0-4-1.8-4-4V44.9c0-2.2,1.8-4,4-4h44.7c2.2,0,4,1.8,4,4
		v28.9c0,2.2-1.8,4-4,4H78.7l-8.1,9.9C69.8,88.8,69.1,89.2,68.3,89.2z M64.5,42.4c-1.4,0-2.5,1.1-2.5,2.5v28.9
		c0,1.4,1.1,2.5,2.5,2.5H68l0,10c0,1.1,0.3,1.4,0.3,1.4c0.1,0,0.5-0.2,1.1-0.9L78,76.4h31.1c1.4,0,2.5-1.1,2.5-2.5V44.9
		c0-1.4-1.1-2.5-2.5-2.5H64.5z"/>
</g>
<path opacity="5.000000e-002" fill="#FFFFFF" d="M323.1,16.9c3.6,0,6.5,2.9,6.5,6.5s-2.9,6.5-6.4,6.5l0,0h0H323l-0.1,0
	c-0.2,0-0.3,0-0.5,0h-28.4c-0.5,0-1.1-0.1-1.6-0.3l-0.1,0l-0.1,0c-2.7-0.9-4.5-3.3-4.5-6.2c0-3.6,2.9-6.5,6.5-6.5
	c3.6,0,6.5,2.9,6.5,6.5c0,0.5-0.1,1-0.2,1.6l-0.5,1.9h1.9h13.2h1.9l-0.5-1.9c-0.1-0.5-0.2-1-0.2-1.6
	C316.7,19.8,319.6,16.9,323.1,16.9 M323.1,15.4c-4.4,0-8,3.6-8,8c0,0.7,0.1,1.3,0.2,1.9h-13.2c0.2-0.6,0.2-1.3,0.2-1.9
	c0-4.4-3.6-8-8-8c-4.4,0-8,3.6-8,8c0,3.6,2.3,6.6,5.5,7.6c0.7,0.3,1.4,0.4,2.1,0.4h28.4c0.2,0,0.4,0,0.6,0c0,0,0,0,0,0
	c4.4,0,8-3.6,8-8S327.5,15.4,323.1,15.4L323.1,15.4z"/>
<path opacity="5.000000e-002" fill="#FFFFFF" d="M294.4,20.7c1.4,0,2.6,1.2,2.6,2.6s-1.2,2.6-2.6,2.6c-1.4,0-2.6-1.2-2.6-2.6
	S293,20.7,294.4,20.7 M294.4,19.2c-2.3,0-4.1,1.8-4.1,4.1c0,2.3,1.8,4.1,4.1,4.1c2.3,0,4.1-1.8,4.1-4.1
	C298.5,21,296.7,19.2,294.4,19.2L294.4,19.2z"/>
<path opacity="5.000000e-002" fill="#FFFFFF" d="M323.1,20.8c1.4,0,2.6,1.2,2.6,2.6s-1.2,2.6-2.6,2.6c-1.4,0-2.6-1.2-2.6-2.6
	S321.7,20.8,323.1,20.8 M323.1,19.3c-2.3,0-4.1,1.8-4.1,4.1c0,2.3,1.8,4.1,4.1,4.1s4.1-1.8,4.1-4.1
	C327.3,21.1,325.4,19.3,323.1,19.3L323.1,19.3z"/>
<path opacity="5.000000e-002" fill="#FFFFFF" d="M333.1,5.5c1.1,0,2.1,0.9,2.1,2.1V39c0,1.1-0.9,2.1-2.1,2.1h-33.4h-0.7l-0.5,0.6
	l-9.1,11.1c-0.1,0.2-0.2,0.3-0.3,0.4c0-0.1,0-0.3,0-0.5l0-9.9l0,0l0,0l0-1.5h-1.5h-3c-1.1,0-2.1-0.9-2.1-2.1V7.6
	c0-1.1,0.9-2.1,2.1-2.1H333.1 M333.1,4h-48.5c-2,0-3.6,1.6-3.6,3.6V39c0,2,1.6,3.6,3.6,3.6h3c0,0,0,0,0,0v10c0,1.5,0.5,2.3,1.2,2.3
	c0.5,0,1.2-0.4,1.8-1.3l9.1-11.1h33.4c2,0,3.6-1.6,3.6-3.6V7.6C336.6,5.6,335,4,333.1,4L333.1,4z"/>
<path opacity="5.000000e-002" fill="#FFFFFF" d="M44.5,96.6c9,0,17.5,3.9,24,10.9c4.3,4.7,7.4,10.4,9,16.7c0.5-0.3,1.2-0.5,1.8-0.5
	c2.1,0,3.8,1.7,3.8,3.8V138c0,2.1-1.7,3.8-3.8,3.8c-0.1,0-0.3,0-0.4,0c-1.7,4.7-7.7,16-26,17.9c-0.2,1.7-1.6,3-3.4,3h-8.6
	c-1.9,0-3.4-1.5-3.4-3.4s1.5-3.4,3.4-3.4h8.6c1.7,0,3.1,1.2,3.4,2.8c17.6-1.9,23.4-12.6,25.1-17.1c-1.4-0.5-2.4-1.9-2.4-3.5v-8.2
	c-2.2-17.2-15.2-30.2-31-30.2c-14.9,0-27.3,11.5-30.5,27.2c0,0.2,0,0.4,0,0.6V138c0,2.1-1.5,3.8-3.4,3.8c-1.9,0-3.4-1.7-3.4-3.8
	v-10.6c0-2.1,1.5-3.8,3.4-3.8c0.3,0,0.7,0.1,1,0.2c1.7-6.2,4.7-11.8,8.9-16.4C27,100.5,35.5,96.6,44.5,96.6 M44.5,95.1
	c-9.4,0-18.3,4-25.1,11.3c-4,4.4-7.1,9.8-8.9,15.7c-2.6,0.1-4.8,2.4-4.8,5.3V138c0,2.9,2.2,5.3,4.9,5.3c2.7,0,4.9-2.4,4.9-5.3v-10.6
	c0-0.2,0-0.3,0-0.5c3.2-15.2,15.1-25.8,29-25.8c14.9,0,27.3,12.1,29.5,28.8v8.1c0,1.7,0.8,3.2,2,4.2c-2,4.6-7.6,12.9-22.2,14.9
	c-0.8-1.6-2.5-2.7-4.4-2.7h-8.6c-2.7,0-4.9,2.2-4.9,4.9s2.2,4.9,4.9,4.9h8.6c2.1,0,3.8-1.3,4.6-3.1c17.2-2.2,23.7-12.5,25.9-17.8
	c2.6-0.3,4.6-2.5,4.6-5.2v-10.6c0-2.9-2.4-5.3-5.3-5.3c-0.3,0-0.5,0-0.8,0.1c-1.8-5.9-4.9-11.4-8.9-15.8
	C62.9,99.1,54,95.1,44.5,95.1L44.5,95.1z"/>
<g opacity="5.000000e-002">
	<path fill="#FFFFFF" d="M130.4,90.4l-17.7,10.3c0,0-0.1,0.1-0.3,0.1c-0.2,0-0.3,0-0.3,0L94.5,90.4H130.4 M132.4,88.9H92.3
		c-0.8,0-1.5,0.3-2,0.7l21.1,12.3c0.3,0.2,0.7,0.3,1.1,0.3h0c0.4,0,0.8-0.1,1.1-0.2l21.1-12.3C134,89.2,133.3,88.9,132.4,88.9
		L132.4,88.9z"/>
	<path fill="#FFFFFF" d="M115.6,103.8l15.2,12.4H94.2l15.2-12.3l0.7,0.4c0.6,0.4,1.5,0.6,2.3,0.6c0.8,0,1.6-0.2,2.3-0.6L115.6,103.8
		 M115.8,102l-1.8,1.1c-0.4,0.2-1,0.4-1.5,0.4h0c-0.6,0-1.1-0.1-1.5-0.4l-1.6-1l-18.7,15.1c0.5,0.3,1.1,0.5,1.7,0.5h40.3
		c0.7,0,1.3-0.2,1.8-0.5L115.8,102L115.8,102z"/>
	<path fill="#FFFFFF" d="M134.3,93.2v20L120,101.5L134.3,93.2 M135.5,90.7l-18.2,10.6l17.9,14.6c0.4-0.4,0.6-1,0.6-1.5V91.8
		C135.8,91.4,135.7,91,135.5,90.7L135.5,90.7z"/>
	<path fill="#FFFFFF" d="M90.5,93.1l14.5,8.5l-14.5,11.8V93.1 M89.3,90.6C89.1,91,89,91.4,89,91.8v22.6c0,0.6,0.2,1.2,0.7,1.6
		l18-14.6L89.3,90.6L89.3,90.6z"/>
</g>
<g opacity="5.000000e-002">
	<path fill="#FFFFFF" d="M269.2,7.5l-17.7,10.3c0,0-0.1,0.1-0.3,0.1c-0.2,0-0.3,0-0.3,0L233.3,7.5H269.2 M271.3,6h-40.2
		c-0.8,0-1.5,0.3-2,0.7l21.1,12.3c0.3,0.2,0.7,0.3,1.1,0.3h0c0.4,0,0.8-0.1,1.1-0.2l21.1-12.3C272.9,6.3,272.1,6,271.3,6L271.3,6z"
		/>
	<path fill="#FFFFFF" d="M254.5,20.9l15.2,12.4h-36.6l15.2-12.3l0.7,0.4c0.6,0.4,1.5,0.6,2.3,0.6c0.8,0,1.6-0.2,2.3-0.6L254.5,20.9
		 M254.6,19.1l-1.8,1.1c-0.4,0.2-1,0.4-1.5,0.4h0c-0.6,0-1.1-0.1-1.5-0.4l-1.6-1l-18.7,15.1c0.5,0.3,1.1,0.5,1.7,0.5h40.3
		c0.7,0,1.3-0.2,1.8-0.5L254.6,19.1L254.6,19.1z"/>
	<path fill="#FFFFFF" d="M273.1,10.3v20l-14.3-11.7L273.1,10.3 M274.4,7.9l-18.2,10.6l17.9,14.6c0.4-0.4,0.6-1,0.6-1.5V8.9
		C274.6,8.6,274.5,8.2,274.4,7.9L274.4,7.9z"/>
	<path fill="#FFFFFF" d="M229.3,10.2l14.5,8.5l-14.5,11.8V10.2 M228.1,7.8c-0.2,0.3-0.3,0.7-0.3,1.1v22.6c0,0.6,0.2,1.2,0.7,1.6
		l18-14.6L228.1,7.8L228.1,7.8z"/>
</g>
<path opacity="5.000000e-002" fill="#FFFFFF" stroke="#FFFFFF" stroke-width="1.5" stroke-miterlimit="10" d="M222,166.1"/>
<path opacity="5.000000e-002" fill="#FFFFFF" d="M111.1,6.3c0.3,0,0.5,0.2,0.5,0.5v17.5c0,0.3-0.2,0.5-0.5,0.5h-1.7l-1.5,0l0,1.5v4
	l-4.1-5l-0.5-0.6h-0.7H84c-0.3,0-0.5-0.2-0.5-0.5V6.8c0-0.3,0.2-0.5,0.5-0.5H111.1 M111.1,4.8H84c-1.1,0-2,0.9-2,2v17.5
	c0,1.1,0.9,2,2,2h18.6l5,6.2c0.4,0.5,0.7,0.7,1,0.7c0.4,0,0.7-0.4,0.7-1.3v-5.6c0,0,0,0,0,0h1.7c1.1,0,2-0.9,2-2V6.8
	C113.1,5.7,112.2,4.8,111.1,4.8L111.1,4.8z"/>
<rect x="87.1" y="9.8" opacity="5.000000e-002" fill="#FFFFFF" width="20.9" height="1.5"/>
<rect x="87.1" y="13.6" opacity="5.000000e-002" fill="#FFFFFF" width="20.9" height="1.5"/>
<rect x="94.5" y="17.6" opacity="5.000000e-002" fill="#FFFFFF" width="13.5" height="1.5"/>
<g opacity="5.000000e-002">
	<g>
		<path fill="#FFFFFF" d="M180.9,8c2.2,0,4,1.8,4.1,4v35.4c0,1.9-1.3,3.4-3,3.9c-0.2-1.1-1.2-2-2.4-2h-3.1c-1.3,0-2.3,0.9-2.4,2
			h-0.4c-0.2-1.2-1.3-2-1.8-2h-3.1c-1.3,0-2.3,0.9-2.4,2h-0.8c-0.2-1.2-1.3-2-2.6-2h-18.4c-1.3,0-2.4,0.9-2.6,2h-0.8
			c-0.2-1.2-1.3-2-2.4-2h-3.1c-1.3,0-2.3,0.9-2.4,2H133c-0.2-1.2-1.3-2-2.4-2h-3.1c-1.2,0-2.1,0.8-2.4,1.9c-1.6-0.5-2.8-2-2.8-3.8
			V12c0-2.2,1.8-4,4-4H180.9 M126.8,47.9h53.7c0.7,0,1.3-0.6,1.3-1.3V12.8c0-0.7-0.6-1.3-1.3-1.3h-53.7c-0.7,0-1.3,0.6-1.3,1.3v33.7
			C125.4,47.2,126.1,47.9,126.8,47.9 M180.9,6.5h-54.6c-3,0-5.5,2.5-5.5,5.5v35.4c0,2.4,1.6,4.5,3.8,5.2l1.6,0.5l0.3-1.6
			c0.1-0.4,0.4-0.7,0.9-0.7h3.1c0.5,0,0.9,0.4,1,0.8l0.2,1.2h1.2h0.1h1.3l0.2-1.3c0.1-0.4,0.5-0.7,1-0.7h3.1c0.5,0,0.9,0.4,1,0.8
			l0.2,1.2h1.2h0.8h1.2l0.2-1.2c0.1-0.5,0.6-0.8,1.1-0.8h18.4c0.5,0,1,0.4,1.1,0.8l0.2,1.2h1.2h0.8h1.3l0.2-1.3
			c0.1-0.4,0.5-0.7,1-0.7h2.9c0.2,0.1,0.5,0.4,0.6,0.8l0.2,1.2h1.2h0.4h1.3l0.2-1.3c0.1-0.4,0.5-0.7,1-0.7h3.1
			c0.5,0,0.8,0.4,0.9,0.8l0.3,1.5l1.5-0.4c2.5-0.7,4.1-2.8,4.1-5.3V12v0l0,0C186.4,8.9,183.9,6.5,180.9,6.5L180.9,6.5z M126.9,13
			h53.4v33.4h-53.4V13L126.9,13z"/>
		<path fill="#FFFFFF" d="M185.1,59.9h-62.9c-1.3,0-2.4-1.1-2.4-2.4v-0.8c0-1.3,1.1-2.4,2.4-2.4H185c1.1,0,2,0.7,2.3,1.7h0.1
			l0.1,0.8v0.8C187.5,58.8,186.4,59.9,185.1,59.9z M122.2,55.8c-0.4,0-0.9,0.4-0.9,0.9v0.8c0,0.4,0.4,0.9,0.9,0.9h62.9
			c0.4,0,0.9-0.4,0.9-0.9v0l-0.1-0.8c0-0.4-0.4-0.9-0.9-0.9H122.2z"/>
	</g>
</g>
<g opacity="5.000000e-002">
	<circle fill="#FFFFFF" cx="218.7" cy="49.5" r="1"/>
</g>
<rect x="223.4" y="48.7" opacity="5.000000e-002" fill="#FFFFFF" width="27.4" height="1.5"/>
<g opacity="5.000000e-002">
	<circle fill="#FFFFFF" cx="218.7" cy="59.3" r="1"/>
</g>
<rect x="223.4" y="58.6" opacity="5.000000e-002" fill="#FFFFFF" width="27.4" height="1.5"/>
<g opacity="5.000000e-002">
	<circle fill="#FFFFFF" cx="218.7" cy="69.1" r="1"/>
</g>
<rect x="223.4" y="68.3" opacity="5.000000e-002" fill="#FFFFFF" width="27.4" height="1.5"/>
<g opacity="5.000000e-002">
	<circle fill="#FFFFFF" cx="218.7" cy="78.3" r="1"/>
</g>
<rect x="223.4" y="77.6" opacity="5.000000e-002" fill="#FFFFFF" width="27.4" height="1.5"/>
<path opacity="5.000000e-002" fill="#FFFFFF" d="M244.3,104.3c1.9,0,3.4,1.5,3.4,3.4v49.7c0,1.9-1.5,3.4-3.4,3.4h-24.9
	c-1.9,0-3.4-1.5-3.4-3.4v-49.7c0-1.9,1.5-3.4,3.4-3.4H244.3 M225.8,108.2H238c0.2,0,0.5-0.2,0.5-0.5c0-0.2-0.2-0.5-0.5-0.5h-12.1
	c-0.2,0-0.5,0.2-0.5,0.5C225.4,107.9,225.6,108.2,225.8,108.2 M219.7,150.2h24.4c1.1,0,2-0.9,2-2v-36.3c0-1.1-0.9-2-2-2h-24.4
	c-1.1,0-2,0.9-2,2v36.3C217.6,149.3,218.6,150.2,219.7,150.2 M231.9,158.6c1.8,0,3.3-1.5,3.3-3.3c0-1.8-1.4-3.3-3.3-3.3
	c-1.8,0-3.3,1.4-3.3,3.3C228.6,157.1,230.1,158.6,231.9,158.6 M244.3,102.8h-24.9c-2.7,0-4.9,2.2-4.9,4.9v49.7
	c0,2.7,2.2,4.9,4.9,4.9h24.9c2.7,0,4.9-2.2,4.9-4.9v-49.7C249.2,105,247,102.8,244.3,102.8L244.3,102.8z M219.7,148.7
	c-0.3,0-0.5-0.2-0.5-0.5v-36.3c0-0.3,0.2-0.5,0.5-0.5h24.4c0.3,0,0.5,0.2,0.5,0.5v36.3c0,0.3-0.2,0.5-0.5,0.5H219.7L219.7,148.7z
	 M231.9,157.1c-1,0-1.8-0.8-1.8-1.8s0.8-1.8,1.8-1.8c1,0,1.8,0.8,1.8,1.8C233.7,156.3,232.9,157.1,231.9,157.1L231.9,157.1z"/>
<path opacity="5.000000e-002" fill="#FFFFFF" d="M304.1,126.8c0.7,0,1.2,0.6,1.2,1.2v24.2c0,0.7-0.6,1.2-1.2,1.2h-25.7h-0.7
	l-0.5,0.6l-6.6,8.1l0-7.1l0,0l0,0l0-1.5h-1.5h-2.3c-0.7,0-1.2-0.6-1.2-1.2v-24.2c0-0.7,0.6-1.2,1.2-1.2H304.1 M304.1,125.3h-37.4
	c-1.5,0-2.7,1.2-2.7,2.7v24.2c0,1.5,1.2,2.7,2.7,2.7h2.3c0,0,0,0,0,0v7.7c0,1.2,0.4,1.8,0.9,1.8c0.4,0,0.9-0.3,1.4-1l7-8.5h25.7
	c1.5,0,2.7-1.2,2.7-2.7v-24.2C306.9,126.6,305.6,125.3,304.1,125.3L304.1,125.3z"/>
<g opacity="5.000000e-002">
	<path fill="#FFFFFF" d="M286.6,142.4l-2,0.1l-0.5-12h3.4L286.6,142.4z M287.3,147.9h-3.2v-3.3h3.2V147.9z"/>
</g>
<path opacity="5.000000e-002" fill="#FFFFFF" d="M318.1,101.7l-0.8-0.1c-0.7-0.1-1.5-0.2-2.3-0.5c-0.6-0.1-1-0.2-1.1-0.3
	c-0.6-0.2-1.3-0.4-2-0.7l-0.5-0.2l0.1-0.6c0.2-1.4,0.4-2.9,0.7-4.4c-0.1,0-0.2-0.1-0.2-0.1c-0.6-0.3-1.3-0.8-1.9-1.3
	c-0.2-0.2-0.4-0.4-0.5-0.5c-0.1-0.1-0.1-0.1-0.2-0.2c-0.4,0.2-0.8,0.3-1.1,0.5c-0.9,0.4-1.9,0.9-2.8,1.3l-0.2,0.1h-0.5l-0.3-0.3
	c-1.3-1.7-2.3-3.4-3-5.1l-0.2-0.5l0.5-0.3c1.4-1,2.5-1.8,3.5-2.6c-0.1-0.4-0.2-0.9-0.3-1.3c-0.2-0.7-0.2-1.4-0.2-2.2v-0.3l-4.6-1.8
	l0.1-0.6c0.1-1,0.3-2.1,0.5-3.1l0.1-0.3c0.3-0.9,0.6-1.6,0.9-2.3l0.2-0.5l0.6,0.1c1.4,0.2,2.9,0.5,4.3,0.7c0.1-0.1,0.1-0.2,0.2-0.4
	c0.4-0.7,0.8-1.2,1.3-1.7c0.3-0.3,0.5-0.6,0.8-0.9c-0.3-0.6-0.5-1.1-0.8-1.7c-0.3-0.7-0.7-1.4-1-2.2l-0.1-0.2v-0.5l0.2-0.3
	c0.7-0.7,1.6-1.3,2.4-1.7c0.5-0.4,1.1-0.6,1.6-0.9c0.3-0.2,0.7-0.3,1.1-0.4l0.4-0.1l0.5,0.5l0.6,0.8c0.6,0.9,1.3,1.8,2,2.7
	c0.4-0.1,0.8-0.2,1.2-0.3c0.6-0.1,1.3-0.2,2-0.2l0.6,0c0.5-1.3,0.9-2.7,1.5-4.1l0.2-0.6l0.6,0.1c0.7,0.1,1.4,0.2,2.1,0.4
	c0.3,0,0.5,0.1,0.7,0.2c0.2,0,0.5,0.1,0.6,0.1c0.7,0.2,1.4,0.5,2.3,0.8l0.5,0.2l-0.1,0.6c-0.1,0.8-0.2,1.6-0.4,2.4
	c-0.1,0.7-0.2,1.3-0.3,2c0.1,0,0.1,0.1,0.2,0.2c0.6,0.3,1.1,0.7,1.6,1.1c0.3,0.3,0.6,0.6,0.9,0.9c1.3-0.6,2.6-1.2,4-1.8l0.5-0.2
	l0.4,0.4c1.3,1.5,2.3,3.2,3,5.1l0.4,1h-0.9c-1.1,0.9-2.3,1.7-3.4,2.5c0,0,0,0,0,0c0.1,0.4,0.2,0.7,0.2,1.1c0.2,0.7,0.2,1.4,0.2,2.3
	v0.2c0.4,0.1,0.8,0.3,1.2,0.4c1,0.4,2,0.7,3,1.1l0.5,0.2l0,0.5c0,0.5-0.1,1-0.2,1.5c0,0.3-0.1,0.5-0.1,0.8l-0.1,0.2
	c0,0.1,0,0.1-0.1,0.2c0,0.1,0,0.2-0.1,0.3c0,0.2-0.1,0.4-0.2,0.5c-0.2,0.7-0.5,1.4-0.8,2.2l-0.2,0.6l-0.6-0.1
	c-0.8-0.1-1.6-0.3-2.4-0.4c-0.6-0.1-1.3-0.2-1.9-0.3c0,0,0,0,0,0.1v0.1l-0.1,0.2c-0.4,0.6-0.8,1.2-1.2,1.7c-0.2,0.2-0.4,0.4-0.5,0.6
	c0,0.1-0.1,0.1-0.2,0.2l0.3,0.6c0.5,1.2,1.1,2.3,1.5,3.4l0.2,0.5l-0.4,0.4c-0.8,0.7-1.6,1.3-2.5,1.8c-0.6,0.3-1.1,0.6-1.7,0.9
	l-0.2,0.1c-0.2,0.1-0.3,0.2-0.5,0.3l-0.6,0.4l-0.4-0.6c-0.5-0.7-0.9-1.3-1.4-2c-0.4-0.5-0.8-1.1-1.2-1.6c-0.4,0.1-0.9,0.2-1.3,0.3
	c-0.7,0.1-1.4,0.2-2.1,0.2h-0.2c-0.4,1.3-0.9,2.6-1.6,4.2L318.1,101.7z M313,98.9c0.4,0.2,0.9,0.3,1.3,0.4c0.2,0.1,0.5,0.2,1.1,0.3
	c0.6,0.2,1.2,0.3,1.8,0.4c0.6-1.5,1.1-2.8,1.5-4.1l0.2-0.5h1.2c0.7,0,1.3-0.1,1.9-0.2c0.5-0.1,1.1-0.3,1.7-0.4l1-0.3v0.7
	c0.4,0.6,0.9,1.3,1.3,1.9c0.4,0.5,0.7,1,1.1,1.5c0,0,0,0,0,0l0.2-0.1c0.6-0.2,1.1-0.5,1.6-0.8c0.7-0.4,1.3-0.8,1.9-1.3
	c-0.4-1-0.9-1.9-1.3-2.9l-0.7-1.5l0.4-0.4c0.2-0.2,0.3-0.3,0.5-0.5c0.2-0.2,0.3-0.4,0.5-0.5c0.3-0.4,0.6-0.9,1-1.4v-0.1l0.1-0.2
	c0-0.1,0.1-0.2,0.1-0.2c0.1-0.1,0.1-0.2,0.2-0.3l0.3-0.4l0.5,0.1c0.8,0.1,1.6,0.3,2.4,0.4c0.6,0.1,1.2,0.2,1.9,0.3
	c0.2-0.5,0.4-1.1,0.5-1.5c0.1-0.2,0.1-0.3,0.2-0.5c0-0.1,0-0.1,0-0.2c0-0.1,0.1-0.3,0.1-0.4c0-0.2,0.1-0.5,0.1-0.7
	c0-0.3,0.1-0.5,0.1-0.8c-0.8-0.3-1.6-0.6-2.4-0.9c-0.6-0.2-1.1-0.4-1.7-0.6l-0.5-0.2v-1.2c0-0.8-0.1-1.4-0.2-2l0-0.1
	c0-0.3-0.1-0.6-0.2-0.9c0-0.2-0.1-0.4-0.1-0.5l-0.1-0.5l0.4-0.3c1.1-0.8,2.3-1.6,3.5-2.6c-0.6-1.4-1.3-2.6-2.2-3.7
	c-1.3,0.6-2.6,1.2-3.9,1.8l-0.5,0.2l-0.4-0.4c-0.4-0.4-0.8-0.8-1.2-1.1c-0.5-0.4-1-0.7-1.5-1l-0.2-0.1c-0.1-0.1-0.2-0.1-0.3-0.2
	l-0.6-0.4l0.1-0.5c0.1-0.8,0.3-1.7,0.4-2.5c0.1-0.6,0.2-1.2,0.3-1.8c-0.6-0.2-1.1-0.4-1.6-0.6c-0.2-0.1-0.3-0.1-0.4-0.1h-0.2
	l-0.2-0.1c-0.2-0.1-0.2-0.1-0.2-0.1l-0.2,0c-0.5-0.1-1-0.2-1.4-0.3c-0.5,1.4-1,2.7-1.4,4l-0.2,0.5h-1.6c-0.6,0.1-1.2,0.1-1.8,0.2
	c-0.5,0.1-1,0.2-1.5,0.4l-0.5,0.2l-0.3-0.5c-0.7-1.1-1.5-2.1-2.3-3.1l-0.3-0.4c-0.1,0-0.2,0.1-0.3,0.2l-0.1,0.1
	c-0.5,0.2-1,0.5-1.5,0.8c-0.7,0.3-1.2,0.7-1.8,1.2c0.3,0.6,0.5,1.1,0.8,1.7c0.3,0.7,0.7,1.4,1,2.2l0.2,0.5l-0.4,0.4
	c-0.4,0.4-0.7,0.7-1,1.1l-0.1,0.1c-0.4,0.4-0.7,0.9-1.1,1.5c-0.2,0.2-0.2,0.4-0.4,0.6l-0.2,0.6l-0.6-0.1c-1.4-0.3-2.9-0.5-4.3-0.7
	c-0.2,0.5-0.4,1-0.6,1.5l0,0.2c-0.2,0.8-0.3,1.6-0.4,2.4l4.5,1.7v1.3c0,0.7,0.1,1.3,0.2,1.9l0,0.1c0.1,0.5,0.2,1.1,0.4,1.6l0.2,0.5
	l-0.4,0.3c-1,0.7-2.1,1.5-3.5,2.5c0.5,1.2,1.3,2.5,2.2,3.7c0.8-0.4,1.5-0.7,2.3-1.1c0.5-0.2,1-0.5,1.6-0.7l0.5-0.2l0.4,0.4
	c0.2,0.2,0.3,0.3,0.5,0.5c0.2,0.2,0.4,0.3,0.5,0.5c0.5,0.4,1.1,0.8,1.7,1.2c0.1,0.1,0.2,0.1,0.2,0.1c0.2,0.1,0.3,0.2,0.5,0.3
	l0.4,0.3l-0.1,0.5C313.4,96.1,313.2,97.5,313,98.9z M319.9,89.6c-0.7,0-1.4-0.1-2.1-0.3c-2-0.5-3.7-1.7-4.7-3.5
	c-1.1-1.8-1.3-3.8-0.8-5.9c0.5-2,1.7-3.6,3.6-4.7c1.8-1,3.8-1.3,5.8-0.8c2.1,0.6,3.7,1.8,4.7,3.6c1.1,1.8,1.3,3.8,0.8,5.9
	c-0.5,2-1.7,3.6-3.5,4.6C322.4,89.2,321.1,89.6,319.9,89.6z M319.8,75.7c-1.1,0-2.1,0.3-3.1,0.8c-1.5,0.9-2.5,2.1-2.9,3.8
	c-0.5,1.7-0.3,3.2,0.6,4.7c0.8,1.5,2.1,2.4,3.8,2.8c1.7,0.5,3.2,0.3,4.7-0.6c1.5-0.8,2.4-2.1,2.8-3.7c0.5-1.7,0.3-3.2-0.6-4.7
	c-0.8-1.5-2.1-2.4-3.8-2.9C320.8,75.7,320.3,75.7,319.8,75.7z"/>
<path opacity="5.000000e-002" fill="#FFFFFF" d="M67.8,27.2l-0.6-0.1l0.1-0.7l-0.2,0.7c-0.3,0-0.7-0.1-1.1-0.2
	c-0.2,0-0.4-0.1-0.5-0.1c-0.3-0.1-0.6-0.2-0.9-0.3l-0.5-0.2l0.1-0.6c0.1-0.6,0.2-1.1,0.2-1.6c-0.2-0.1-0.5-0.3-0.8-0.5
	c0,0-0.1-0.1-0.1-0.1l-0.2,0.1c-0.4,0.2-0.8,0.4-1.2,0.6l-0.2,0.1h-0.5l-0.3-0.3c-0.6-0.8-1-1.5-1.4-2.3L59.6,21l0.5-0.3
	c0.4-0.3,0.9-0.6,1.3-1c0-0.1,0-0.2-0.1-0.3c-0.1-0.3-0.1-0.6-0.1-0.9l-2-0.8l0.1-0.6c0.1-0.5,0.1-0.9,0.2-1.4l0-0.1
	c0.1-0.4,0.3-0.7,0.4-1.1l0.2-0.5l0.6,0.1c0.5,0.1,1.1,0.2,1.6,0.3c0.2-0.3,0.3-0.5,0.5-0.7c0.1-0.1,0.1-0.1,0.2-0.2
	c-0.1-0.2-0.2-0.3-0.2-0.5c-0.1-0.3-0.3-0.6-0.4-0.9l-0.1-0.2v-0.5l0.2-0.2c0.4-0.3,0.7-0.6,1.2-0.8c0.2-0.1,0.5-0.3,0.7-0.4
	c0.2-0.1,0.4-0.2,0.5-0.2l0.4-0.1l0.5,0.4l0.3,0.4c0.2,0.3,0.4,0.6,0.7,0.9c0.1,0,0.2,0,0.3-0.1c0.2,0,0.5-0.1,0.9-0.1
	c0.2-0.5,0.4-1,0.6-1.6L68.7,9l0.6,0.1c0.3,0.1,0.6,0.1,0.9,0.2c0.1,0,0.2,0,0.3,0.1c0.1,0,0.2,0,0.3,0.1c0.3,0.1,0.7,0.2,1,0.4
	l0.5,0.2l-0.1,0.6c-0.1,0.4-0.1,0.7-0.2,1.1c0,0.2-0.1,0.4-0.1,0.6c0.2,0.1,0.4,0.3,0.6,0.4c0.1,0.1,0.2,0.1,0.2,0.2
	c0.5-0.2,1-0.5,1.5-0.7l0.5-0.2l0.4,0.4c0.6,0.7,1,1.5,1.4,2.3l0.4,1h-0.9c-0.4,0.3-0.8,0.6-1.1,0.8c0,0.1,0,0.2,0,0.2
	c0.1,0.3,0.1,0.5,0.1,0.9c0.1,0,0.2,0.1,0.2,0.1c0.4,0.2,0.9,0.3,1.3,0.5l0.5,0.2l0,0.5c0,0.2-0.1,0.5-0.1,0.7L77,20.4
	c0,0,0,0.1,0,0.2c0,0.1,0,0.2-0.1,0.3c-0.1,0.3-0.2,0.7-0.4,1l-0.2,0.6l-0.6-0.1c-0.4-0.1-0.7-0.1-1.1-0.2c-0.2,0-0.4-0.1-0.6-0.1
	c-0.2,0.2-0.3,0.5-0.5,0.7c-0.1,0.1-0.1,0.1-0.1,0.1l0,0c0.2,0.5,0.5,1,0.7,1.5l0.2,0.5L74,25.2c-0.4,0.3-0.8,0.6-1.2,0.8
	c-0.3,0.2-0.5,0.3-0.8,0.4l-0.1,0c-0.1,0-0.1,0.1-0.2,0.1l-0.6,0.4l-0.4-0.6c-0.2-0.3-0.4-0.6-0.6-0.9c-0.1-0.2-0.2-0.3-0.3-0.5
	c-0.1,0-0.2,0.1-0.3,0.1c-0.3,0-0.5,0.1-0.8,0.1c-0.2,0.5-0.4,1-0.6,1.6L67.8,27.2z M65.8,25.3c0.1,0,0.1,0,0.2,0.1
	c0.1,0,0.2,0.1,0.4,0.1c0.2,0,0.3,0.1,0.4,0.1c0.2-0.5,0.4-1,0.5-1.4l0.2-0.5h0.8c0.3,0,0.5,0,0.8-0.1c0.2,0,0.4-0.1,0.7-0.2l1-0.3
	v0.8c0.2,0.2,0.3,0.5,0.5,0.7c0.1,0.1,0.2,0.3,0.3,0.4c0.2-0.1,0.3-0.2,0.5-0.2c0.2-0.1,0.3-0.2,0.5-0.3c-0.1-0.3-0.3-0.6-0.4-0.9
	l-0.5-1l0.4-0.4c0.1-0.1,0.1-0.1,0.2-0.2c0.1-0.1,0.2-0.2,0.2-0.3c0.1-0.1,0.2-0.3,0.3-0.4v0l0.2-0.3c0-0.1,0.1-0.1,0.1-0.2l0.3-0.4
	l0.5,0.1c0.4,0.1,0.7,0.1,1.1,0.2c0.2,0,0.3,0,0.5,0.1c0-0.1,0.1-0.2,0.1-0.3c0-0.1,0-0.1,0.1-0.2c0-0.1,0-0.2,0.1-0.3
	c0-0.1,0-0.2,0-0.3c0,0,0,0,0,0c-0.2-0.1-0.5-0.2-0.7-0.3c-0.3-0.1-0.5-0.2-0.7-0.3l-0.5-0.2V18c0-0.3,0-0.6-0.1-0.8l0-0.1
	c0-0.1,0-0.2-0.1-0.4L73.4,16l0.4-0.3c0.4-0.3,0.8-0.6,1.3-0.9c-0.2-0.3-0.4-0.7-0.6-1c-0.5,0.2-0.9,0.4-1.4,0.6l-0.5,0.2l-0.4-0.4
	c-0.2-0.2-0.3-0.3-0.5-0.5c-0.2-0.1-0.4-0.3-0.6-0.4l-0.3-0.2L70.4,13l0.1-0.5c0.1-0.4,0.1-0.7,0.2-1.1c0-0.2,0.1-0.3,0.1-0.5
	c-0.1,0-0.2-0.1-0.4-0.1h-0.2l-0.3-0.1c-0.1,0-0.2,0-0.3-0.1c-0.2,0.5-0.3,0.9-0.5,1.4L69,12.6h-1c-0.2,0-0.5,0-0.7,0.1
	c-0.2,0-0.4,0.1-0.6,0.2L66.1,13l-0.3-0.5c-0.3-0.4-0.6-0.9-0.9-1.3c-0.2,0.1-0.3,0.2-0.5,0.3c-0.2,0.1-0.3,0.2-0.5,0.3
	c0.1,0.1,0.1,0.3,0.2,0.4c0.1,0.3,0.3,0.6,0.4,0.9l0.2,0.5l-0.4,0.4c-0.2,0.2-0.3,0.3-0.4,0.5L64,14.6c-0.1,0.1-0.3,0.3-0.4,0.6
	c-0.1,0.1-0.1,0.1-0.1,0.2L63.2,16l-0.6-0.1c-0.5-0.1-1-0.2-1.5-0.3c0,0.1-0.1,0.2-0.1,0.3l0,0c0,0.2-0.1,0.5-0.1,0.7l1.9,0.7v0.9
	c0,0.3,0,0.5,0.1,0.7l0,0.1c0,0.2,0.1,0.4,0.2,0.6l0.2,0.5l-0.4,0.3c-0.4,0.3-0.8,0.6-1.2,0.9c0.2,0.3,0.3,0.6,0.6,1
	c0.2-0.1,0.5-0.2,0.7-0.3l1.2-0.5l0.4,0.4c0.1,0.1,0.1,0.1,0.2,0.2c0.1,0.1,0.2,0.2,0.3,0.2c0.2,0.1,0.4,0.3,0.7,0.4l0.1,0.1
	c0.1,0,0.2,0.1,0.3,0.2l0.4,0.3L66,23.8C65.9,24.3,65.8,24.8,65.8,25.3z M68.3,21.9c-0.3,0-0.7-0.1-1-0.1c-1-0.2-1.8-0.9-2.3-1.8
	c-0.5-0.9-0.7-1.9-0.4-2.9c0.2-1,0.8-1.8,1.8-2.3c0.9-0.5,1.9-0.6,2.9-0.4c1.1,0.3,1.8,0.9,2.3,1.8c0.5,0.9,0.7,1.9,0.4,2.9
	c-0.2,1-0.9,1.8-1.8,2.3C69.6,21.7,68.9,21.9,68.3,21.9z M68.2,15.8c-0.4,0-0.8,0.1-1.1,0.3c-0.6,0.3-0.9,0.8-1.1,1.4
	c-0.2,0.6-0.1,1.2,0.2,1.8c0.3,0.5,0.8,0.9,1.4,1.1c0.7,0.2,1.2,0.1,1.8-0.2c0.6-0.3,0.9-0.8,1-1.4c0.2-0.6,0.1-1.2-0.2-1.8
	c-0.3-0.6-0.8-0.9-1.4-1.1C68.6,15.8,68.4,15.8,68.2,15.8z"/>
<path opacity="5.000000e-002" fill="#FFFFFF" d="M12.8,164.3l-0.6-0.1l0.1-0.7l-0.2,0.7c-0.3,0-0.7-0.1-1.1-0.2
	c-0.2,0-0.4-0.1-0.5-0.1c-0.3-0.1-0.6-0.2-0.9-0.3l-0.5-0.2l0.1-0.6c0.1-0.6,0.2-1.1,0.2-1.6c-0.2-0.1-0.5-0.3-0.8-0.5
	c0,0-0.1-0.1-0.1-0.1l-0.2,0.1c-0.4,0.2-0.8,0.4-1.2,0.6L7,161.2H6.4l-0.3-0.3c-0.6-0.8-1-1.5-1.4-2.3l-0.2-0.5l0.5-0.3
	c0.4-0.3,0.9-0.6,1.3-1c0-0.1,0-0.2-0.1-0.3c-0.1-0.3-0.1-0.6-0.1-0.9l-2-0.8l0.1-0.6c0-0.5,0.1-0.9,0.2-1.4l0-0.1
	c0.1-0.4,0.3-0.8,0.4-1.1l0.2-0.5l0.6,0.1c0.5,0.1,1.1,0.2,1.6,0.3c0.2-0.3,0.3-0.5,0.5-0.7c0.1-0.1,0.1-0.1,0.2-0.2
	c-0.1-0.2-0.2-0.3-0.2-0.5c-0.1-0.3-0.3-0.6-0.4-0.9l-0.1-0.2v-0.5l0.2-0.2c0.4-0.3,0.7-0.6,1.2-0.8c0.2-0.1,0.5-0.3,0.7-0.4
	c0.2-0.1,0.4-0.2,0.5-0.2l0.4-0.1l0.4,0.4l0.3,0.4c0.2,0.3,0.4,0.6,0.7,0.9c0.1,0,0.2,0,0.3-0.1c0.2,0,0.5-0.1,0.9-0.1
	c0.2-0.5,0.4-1,0.6-1.6l0.2-0.6l0.6,0.1c0.3,0.1,0.6,0.1,0.9,0.2c0.1,0,0.2,0,0.3,0.1c0.1,0,0.2,0,0.3,0.1c0.3,0.1,0.7,0.2,1,0.4
	l0.5,0.2l-0.1,0.6c-0.1,0.4-0.1,0.7-0.2,1.1c0,0.2-0.1,0.4-0.1,0.6c0.2,0.1,0.4,0.3,0.6,0.4c0.1,0.1,0.2,0.1,0.2,0.2
	c0.5-0.2,1-0.5,1.5-0.7l0.5-0.2l0.4,0.4c0.6,0.7,1,1.5,1.4,2.3l0.4,1h-0.9c-0.4,0.3-0.8,0.6-1.1,0.8c0,0.1,0,0.2,0,0.2
	c0.1,0.3,0.1,0.6,0.1,0.9c0.1,0,0.2,0.1,0.3,0.1c0.4,0.2,0.9,0.3,1.3,0.5l0.5,0.2l0,0.5c0,0.2-0.1,0.5-0.1,0.7l-0.1,0.6
	c0,0,0,0.1,0,0.2c0,0.1,0,0.2-0.1,0.3c-0.1,0.3-0.2,0.7-0.4,1l-0.2,0.6l-0.6-0.1c-0.4-0.1-0.7-0.1-1.1-0.2c-0.2,0-0.4-0.1-0.6-0.1
	c-0.1,0.2-0.3,0.5-0.5,0.7c-0.1,0.1-0.1,0.1-0.1,0.1l0,0c0.2,0.5,0.5,1,0.7,1.5l0.2,0.5l-0.4,0.4c-0.4,0.3-0.8,0.6-1.2,0.8
	c-0.3,0.2-0.5,0.3-0.8,0.4l-0.1,0c-0.1,0-0.1,0.1-0.2,0.1l-0.6,0.4l-0.4-0.6c-0.2-0.3-0.4-0.6-0.6-0.9c-0.1-0.2-0.2-0.3-0.3-0.5
	c-0.1,0-0.2,0.1-0.3,0.1c-0.3,0-0.5,0.1-0.8,0.1c-0.2,0.5-0.4,1-0.6,1.6L12.8,164.3z M10.8,162.4c0.1,0,0.1,0,0.2,0.1
	c0.1,0,0.2,0.1,0.5,0.1c0.2,0,0.3,0.1,0.4,0.1c0.2-0.5,0.4-1,0.5-1.4l0.2-0.5h0.8c0.3,0,0.5,0,0.8-0.1c0.2,0,0.5-0.1,0.7-0.2l1-0.3
	v0.8c0.2,0.2,0.3,0.5,0.5,0.7c0.1,0.1,0.2,0.2,0.3,0.4c0.2-0.1,0.3-0.2,0.5-0.2c0.2-0.1,0.3-0.2,0.5-0.3c-0.1-0.3-0.3-0.6-0.4-0.9
	l-0.4-1l0.4-0.4c0.1-0.1,0.1-0.1,0.2-0.2c0.1-0.1,0.2-0.2,0.2-0.2c0.1-0.1,0.2-0.3,0.3-0.5v0L18,158c0.1-0.1,0.1-0.2,0.2-0.3
	l0.3-0.4l0.5,0.1c0.4,0.1,0.7,0.1,1.1,0.2c0.2,0,0.3,0,0.5,0.1c0-0.1,0.1-0.2,0.1-0.3c0-0.1,0-0.1,0.1-0.2c0-0.1,0-0.2,0.1-0.3
	c0-0.1,0-0.2,0-0.3c0,0,0,0,0,0c-0.2-0.1-0.5-0.2-0.7-0.3c-0.3-0.1-0.5-0.2-0.8-0.3l-0.5-0.2v-0.8c0-0.3,0-0.5-0.1-0.8l0-0.1
	c0-0.1,0-0.2-0.1-0.4l-0.2-0.7l0.4-0.3c0.4-0.3,0.8-0.6,1.3-0.9c-0.2-0.3-0.4-0.7-0.6-1c-0.5,0.2-0.9,0.4-1.4,0.6l-0.5,0.2l-0.4-0.4
	c-0.2-0.2-0.3-0.3-0.5-0.5c-0.2-0.1-0.4-0.3-0.6-0.4l-0.3-0.2l-0.4-0.3l0.1-0.5c0.1-0.4,0.1-0.7,0.2-1.1c0-0.2,0.1-0.3,0.1-0.5
	c-0.1,0-0.2-0.1-0.4-0.1h-0.2l-0.3-0.1c-0.1,0-0.2,0-0.3-0.1c-0.2,0.5-0.3,0.9-0.5,1.4l-0.2,0.5l-1,0c-0.2,0-0.5,0-0.7,0.1
	c-0.2,0-0.4,0.1-0.6,0.2l-0.5,0.2l-0.3-0.5c-0.3-0.4-0.6-0.9-0.9-1.3c-0.2,0.1-0.3,0.2-0.5,0.3c-0.2,0.1-0.3,0.2-0.5,0.3
	c0.1,0.1,0.1,0.3,0.2,0.4c0.1,0.3,0.3,0.6,0.4,1l0.2,0.5l-0.4,0.4c-0.2,0.2-0.3,0.3-0.4,0.5L9,151.7c-0.1,0.1-0.3,0.3-0.4,0.6
	c-0.1,0.1-0.1,0.1-0.1,0.2l-0.2,0.6L7.6,153c-0.5-0.1-1-0.2-1.5-0.3c0,0.1-0.1,0.2-0.1,0.3l0,0.1c0,0.2-0.1,0.5-0.1,0.7l1.9,0.7v0.9
	c0,0.3,0,0.5,0.1,0.7l0,0.1c0,0.2,0.1,0.4,0.2,0.6l0.2,0.5l-0.4,0.3c-0.4,0.3-0.8,0.6-1.2,0.9c0.2,0.3,0.3,0.6,0.6,1
	c0.2-0.1,0.5-0.2,0.7-0.3l1.2-0.5l0.4,0.4c0.1,0.1,0.1,0.1,0.2,0.2c0.1,0.1,0.2,0.2,0.2,0.2c0.2,0.1,0.4,0.3,0.7,0.4l0.1,0.1
	c0.1,0,0.2,0.1,0.3,0.2l0.4,0.3l-0.1,0.5C11,161.4,10.9,161.9,10.8,162.4z M13.3,159c-0.3,0-0.7,0-1-0.1c-1-0.2-1.8-0.9-2.3-1.8
	c-0.5-0.9-0.7-1.9-0.4-2.9c0.2-1,0.8-1.8,1.8-2.3c0.9-0.5,1.9-0.6,2.9-0.4c1.1,0.3,1.8,0.9,2.3,1.8c0.5,0.9,0.7,1.9,0.4,2.9
	c-0.2,1-0.9,1.8-1.8,2.3C14.6,158.8,14,159,13.3,159z M13.3,152.9c-0.4,0-0.8,0.1-1.1,0.3c-0.6,0.3-0.9,0.8-1.1,1.4
	c-0.2,0.6-0.1,1.2,0.2,1.8c0.3,0.5,0.8,0.9,1.4,1.1c0.7,0.2,1.2,0.1,1.8-0.2c0.6-0.3,0.9-0.8,1-1.4c0.2-0.6,0.1-1.2-0.2-1.8
	c-0.3-0.6-0.8-0.9-1.4-1.1C13.7,152.9,13.5,152.9,13.3,152.9z"/>
<g opacity="5.000000e-002">
	<path fill="#FFFFFF" d="M119.6,123.3c1.6,0,2.9,1.3,2.9,2.9c0,1.6-1.3,2.9-2.9,2.9c-1.6,0-2.9-1.3-2.9-2.9
		C116.7,124.6,118,123.3,119.6,123.3 M119.6,121.8c-2.4,0-4.4,2-4.4,4.4c0,2.4,2,4.4,4.4,4.4c2.4,0,4.4-2,4.4-4.4
		C124,123.7,122,121.8,119.6,121.8L119.6,121.8z"/>
	<path fill="#FFFFFF" d="M131.1,143.9c0.6,0,1.1,0.5,1.1,1.1c0,0.6-0.5,1.1-1.1,1.1H91.9c-0.6,0-1.1-0.5-1.1-1.1
		c0-0.6,0.5-1.1,1.1-1.1H131.1 M131.1,142.4H91.9c-1.5,0-2.6,1.2-2.6,2.6s1.2,2.6,2.6,2.6h39.2c1.5,0,2.6-1.2,2.6-2.6
		S132.5,142.4,131.1,142.4L131.1,142.4z"/>
	<path fill="#FFFFFF" d="M129.1,148.9c0.7,0,1.2,0.6,1.2,1.2v13.6h0.1c0,0.7-0.6,1.2-1.2,1.2H93.6c-0.7,0-1.2-0.6-1.2-1.2v-13.6
		c0-0.7,0.6-1.2,1.2-1.2H129.1 M129.1,147.4H93.6c-1.5,0-2.7,1.2-2.7,2.7v13.6c0,1.5,1.2,2.7,2.7,2.7h35.5c1.5,0,2.7-1.2,2.7-2.7
		v-1.5h-0.1v-12.1C131.8,148.6,130.6,147.4,129.1,147.4L129.1,147.4z"/>
	<path fill="#FFFFFF" d="M108.1,129.7c0.5,0,0.8,0.4,0.8,0.8v7.1c0,0.5-0.4,0.8-0.8,0.8H96.9c-0.5,0-0.8-0.4-0.8-0.8v-7.1
		c0-0.5,0.4-0.8,0.8-0.8H108.1 M108.1,128.2H96.9c-1.3,0-2.3,1-2.3,2.3v7.1c0,1.3,1,2.3,2.3,2.3h11.3c1.3,0,2.3-1,2.3-2.3v-7.1
		C110.5,129.2,109.4,128.2,108.1,128.2L108.1,128.2z"/>
	<path fill="#FFFFFF" d="M105.7,140.4h-6.6c-0.5,0-0.9,0.1-0.9,0.5c0,0.5,0.4,0.5,0.9,0.5h6.6c0.5,0,0.9-0.1,0.9-0.5
		C106.6,140.5,106.2,140.4,105.7,140.4L105.7,140.4z"/>
	<path fill="#FFFFFF" d="M122.5,132c2,0,3.5,1.8,3.5,4v5.5h-2.6v-6.2h-0.4v6.2h-7.2l0-6.6c0,0,0,0,0,0c-0.1,0-1.8,6.6-1.8,6.6h-2.7
		l2.1-6.8c0.4-1.3,1.4-2.2,2.5-2.5c0.1-0.1,0.1-0.1,0.1-0.1s0.1,0,0.1,0h0.1c0.2,0,0.3-0.1,0.4-0.1c0.1,0,0.1,0,0.1,0
		c0,0-0.1,0-0.1,0s0.1,0,0.1,0c0.1,0,0.2,0,0.2,0H122.5 M122.5,130.5h-5.8h-0.2h-0.1h-0.1c-0.2,0-0.3,0-0.4,0.1h-0.1
		c-0.3,0-0.6,0.1-0.8,0.2c-1.5,0.5-2.7,1.8-3.2,3.4l-2.1,6.8L109,143h2h2.7h1.2h0.6h7.2h1.5h1.6h1.5v-1.5V136c0-1.5-0.5-3-1.5-4
		C125,131.1,123.7,130.5,122.5,130.5L122.5,130.5z"/>
</g>
<g opacity="5.000000e-002">
	<path fill="#FFFFFF" d="M214.1,4.6c1.1,0,2,0.9,2,2s-0.9,2-2,2s-2-0.9-2-2S213,4.6,214.1,4.6 M214.1,3.1c-1.9,0-3.5,1.6-3.5,3.5
		s1.6,3.5,3.5,3.5s3.5-1.6,3.5-3.5S216,3.1,214.1,3.1L214.1,3.1z"/>
	<path fill="#FFFFFF" d="M222,18.6c0.4,0,0.8,0.4,0.8,0.8s-0.4,0.8-0.8,0.8h-26.8c-0.4,0-0.8-0.4-0.8-0.8s0.4-0.8,0.8-0.8H222
		 M222,17.1h-26.8c-1.3,0-2.3,1-2.3,2.3s1,2.3,2.3,2.3H222c1.3,0,2.3-1,2.3-2.3S223.2,17.1,222,17.1L222,17.1z"/>
	<path fill="#FFFFFF" d="M220.6,22.1c0.5,0,0.8,0.4,0.8,0.8v9.3h0c0,0.5-0.4,0.8-0.8,0.8h-24.3c-0.5,0-0.8-0.4-0.8-0.8v-9.3
		c0-0.5,0.4-0.8,0.8-0.8H220.6 M220.6,20.6h-24.2c-1.3,0-2.3,1.1-2.3,2.3v9.3c0,1.3,1.1,2.3,2.3,2.3h24.3c1.3,0,2.3-1.1,2.3-2.3
		v-1.5h0v-7.8C222.9,21.6,221.9,20.6,220.6,20.6L220.6,20.6z"/>
	<path fill="#FFFFFF" d="M206.3,9c0.3,0,0.6,0.2,0.6,0.6v4.9c0,0.3-0.2,0.6-0.6,0.6h-7.7c-0.3,0-0.6-0.2-0.6-0.6V9.5
		c0-0.3,0.2-0.6,0.6-0.6H206.3 M206.3,7.5h-7.7c-1.1,0-2.1,0.9-2.1,2.1v4.9c0,1.1,0.9,2.1,2.1,2.1h7.7c1.1,0,2.1-0.9,2.1-2.1V9.5
		C208.3,8.4,207.4,7.5,206.3,7.5L206.3,7.5z"/>
	<path fill="#FFFFFF" d="M204.6,16.3h-4.5c-0.3,0-0.6,0-0.6,0.4c0,0.3,0.3,0.4,0.6,0.4h4.5c0.3,0,0.6,0,0.6-0.4
		C205.2,16.3,205,16.3,204.6,16.3L204.6,16.3z"/>
	<path fill="#FFFFFF" d="M216.1,10.6c1.3,0,2.4,1.2,2.4,2.7V17h-1.8v-4.2h-0.3V17h-4.9l0-4.5c0,0,0,0,0,0c-0.1,0-1.2,4.5-1.2,4.5
		h-1.9l1.4-4.7c0.3-0.9,1-1.5,1.7-1.7c0,0,0,0,0.1,0s0,0,0.1,0h0c0.1,0,0.2,0,0.2,0c0,0,0.1,0,0.1,0c0,0,0,0,0,0s0.1,0,0.1,0
		c0,0,0.1,0,0.1,0H216.1 M216.1,9.1h-4H212h0h-0.1c-0.1,0-0.3,0-0.4,0h0c-0.3,0-0.5,0.1-0.7,0.2c-1.1,0.4-2.1,1.4-2.5,2.6l-1.5,4.7
		l-0.6,1.9h2h1.9h1.2h0.1h4.9h1.5h0.6h1.5V17v-3.7c0-1.1-0.4-2.3-1.2-3.1C218,9.5,217.1,9.1,216.1,9.1L216.1,9.1z"/>
</g>
<path opacity="5.000000e-002" fill="#FFFFFF" d="M198.2,68c0.7,0,1.2,0.6,1.2,1.2v43.3c0,0.7-0.6,1.2-1.2,1.2h-54.6
	c-0.7,0-1.2-0.6-1.2-1.2V69.2c0-0.7,0.6-1.2,1.2-1.2H198.2 M146.4,109.3h48.9c0.1,0,0.2-0.1,0.2-0.2V72.6c0-0.1-0.1-0.2-0.2-0.2
	h-48.9c-0.1,0-0.2,0.1-0.2,0.2v36.6C146.3,109.3,146.3,109.3,146.4,109.3 M197.4,91.9c0.6,0,1-0.4,1-1s-0.4-1-1-1c-0.6,0-1,0.4-1,1
	S196.9,91.9,197.4,91.9 M144.2,91.3c0.3,0,0.5-0.2,0.5-0.5s-0.2-0.5-0.5-0.5s-0.5,0.2-0.5,0.5S143.9,91.3,144.2,91.3 M198.2,66.5
	h-54.6c-1.5,0-2.7,1.2-2.7,2.7v43.3c0,1.5,1.2,2.7,2.7,2.7h54.6c1.5,0,2.7-1.2,2.7-2.7V69.2C200.9,67.7,199.7,66.5,198.2,66.5
	L198.2,66.5z M147.8,73.9H194v33.9h-46.3V73.9L147.8,73.9z"/>
<path opacity="5.000000e-002" fill="#FFFFFF" d="M50.5,31.5c0.7,0,1.2,0.6,1.2,1.2v54.6c0,0.7-0.6,1.2-1.2,1.2H7.2
	C6.6,88.5,6,88,6,87.3V32.7c0-0.7,0.6-1.2,1.2-1.2H50.5 M28.9,33.8c0.3,0,0.5-0.2,0.5-0.5c0-0.3-0.2-0.5-0.5-0.5s-0.5,0.2-0.5,0.5
	C28.4,33.6,28.6,33.8,28.9,33.8 M10.6,84.6h36.6c0.1,0,0.2-0.1,0.2-0.2V35.5c0-0.1-0.1-0.2-0.2-0.2H10.6c-0.1,0-0.2,0.1-0.2,0.2
	v48.9C10.4,84.5,10.5,84.6,10.6,84.6 M28.9,87.5c0.6,0,1-0.4,1-1c0-0.6-0.4-1-1-1s-1,0.4-1,1C27.9,87.1,28.3,87.5,28.9,87.5
	 M50.5,30H7.2c-1.5,0-2.7,1.2-2.7,2.7v54.6c0,1.5,1.2,2.7,2.7,2.7h43.3c1.5,0,2.7-1.2,2.7-2.7V32.7C53.3,31.2,52,30,50.5,30L50.5,30
	z M11.9,36.9h33.9v46.3H11.9V36.9L11.9,36.9z"/>
<path opacity="5.000000e-002" fill="#FFFFFF" d="M330.8,116.5C330.8,116.5,330.8,116.5,330.8,116.5l0.6,0c0.4,0,0.7,0.3,0.7,0.7
	l-0.1,5.9c1.2,0.3,2.1,1.4,2.1,2.7l-0.4,32.1c0,1.5-1.2,2.7-2.7,2.7c0,0,0,0,0,0l-7.9-0.1c-1.5,0-2.7-1.3-2.7-2.8l0.4-32.1
	c0-1.5,1.2-2.7,2.7-2.7c0,0,0,0,0,0l6.5,0.1l0.1-5.8C330.1,116.8,330.4,116.5,330.8,116.5 M331.3,138c0.7,0,1.3-0.5,1.3-1.3l0.1,0
	l0.1-10.7c0-0.7-0.5-1.3-1.3-1.3l-8.3-0.1c0,0,0,0,0,0c-0.7,0-1.3,0.5-1.3,1.3l-0.1,10.7c0,0.7,0.5,1.3,1.3,1.3L331.3,138
	C331.3,138,331.3,138,331.3,138 M324.6,142.5c0.3,0,0.5-0.2,0.5-0.5l0-1.8c0-0.3-0.2-0.5-0.5-0.5l-1.8,0c0,0,0,0,0,0
	c-0.3,0-0.5,0.2-0.5,0.5l0,1.8c0,0.3,0.2,0.5,0.5,0.5L324.6,142.5C324.6,142.5,324.6,142.5,324.6,142.5 M328,142.5
	c0.3,0,0.5-0.2,0.5-0.5l0-1.8c0-0.3-0.2-0.5-0.5-0.5l-1.8,0c0,0,0,0,0,0c-0.3,0-0.5,0.2-0.5,0.5l0,1.8c0,0.3,0.2,0.5,0.5,0.5
	L328,142.5C328,142.5,328,142.5,328,142.5 M331.5,142.6c0.3,0,0.5-0.2,0.5-0.5l0-1.8c0-0.3-0.2-0.5-0.5-0.5l-1.8,0c0,0,0,0,0,0
	c-0.3,0-0.5,0.2-0.5,0.5l0,1.8c0,0.3,0.2,0.5,0.5,0.5L331.5,142.6C331.5,142.6,331.5,142.6,331.5,142.6 M324.5,146
	c0.3,0,0.5-0.2,0.5-0.5l0-1.8c0-0.3-0.2-0.5-0.5-0.5l-1.8,0c0,0,0,0,0,0c-0.3,0-0.5,0.2-0.5,0.5l0,1.8c0,0.3,0.2,0.5,0.5,0.5
	L324.5,146C324.5,146,324.5,146,324.5,146 M328,146.1c0.3,0,0.5-0.2,0.5-0.5l0-1.8c0-0.3-0.2-0.5-0.5-0.5l-1.8,0c0,0,0,0,0,0
	c-0.3,0-0.5,0.2-0.5,0.5l0,1.8c0,0.3,0.2,0.5,0.5,0.5L328,146.1C328,146.1,328,146.1,328,146.1 M331.5,146.1c0.3,0,0.5-0.2,0.5-0.5
	l0-1.8c0-0.3-0.2-0.5-0.5-0.5l-1.8,0c0,0,0,0,0,0c-0.3,0-0.5,0.2-0.5,0.5l0,1.8c0,0.3,0.2,0.5,0.5,0.5L331.5,146.1
	C331.5,146.1,331.5,146.1,331.5,146.1 M324.5,149.8c0.3,0,0.5-0.2,0.5-0.5l0-1.8c0-0.3-0.2-0.5-0.5-0.5l-1.8,0c0,0,0,0,0,0
	c-0.3,0-0.5,0.2-0.5,0.5l0,1.8c0,0.3,0.2,0.5,0.5,0.5L324.5,149.8C324.5,149.8,324.5,149.8,324.5,149.8 M328,149.8
	c0.3,0,0.5-0.2,0.5-0.5l0-1.8c0-0.3-0.2-0.5-0.5-0.5l-1.8,0c0,0,0,0,0,0c-0.3,0-0.5,0.2-0.5,0.5l0,1.8c0,0.3,0.2,0.5,0.5,0.5
	L328,149.8C327.9,149.8,328,149.8,328,149.8 M331.4,149.9c0.3,0,0.5-0.2,0.5-0.5l0-1.8c0-0.3-0.2-0.5-0.5-0.5l-1.8,0c0,0,0,0,0,0
	c-0.3,0-0.5,0.2-0.5,0.5l0,1.8c0,0.3,0.2,0.5,0.5,0.5L331.4,149.9C331.4,149.9,331.4,149.9,331.4,149.9 M330.8,115
	c-1.2,0-2.2,1-2.2,2.2l-0.1,4.3l-5-0.1l0,0l0,0c-2.3,0-4.2,1.9-4.2,4.2l-0.4,32.1c0,2.3,1.9,4.3,4.2,4.3l7.9,0.1l0,0l0,0
	c2.3,0,4.2-1.9,4.2-4.2l0.4-32.1c0-1.5-0.8-2.9-2.1-3.7l0.1-4.9c0-0.6-0.2-1.2-0.6-1.6s-1-0.7-1.6-0.7L330.8,115L330.8,115
	L330.8,115L330.8,115z M323.3,136.4l0.1-10.3l7.8,0.1l-0.1,9l-0.1,0l0,1.3L323.3,136.4L323.3,136.4z"/>
<path opacity="5.000000e-002" fill="#FFFFFF" d="M16.2,7.4C16.2,7.4,16.3,7.4,16.2,7.4l32.1,0.4c1.5,0,2.7,1.3,2.7,2.8L51,18.5
	c0,1.5-1.2,2.7-2.7,2.7c0,0,0,0,0,0l-32.1-0.4c-1.5,0-2.7-1.3-2.7-2.8l0.1-6.5l-5.8-0.1c-0.4,0-0.7-0.3-0.7-0.7l0-0.6
	c0-0.4,0.3-0.7,0.7-0.7c0,0,0,0,0,0l5.9,0.1C13.9,8.3,15,7.4,16.2,7.4 M27.2,19.8c0.7,0,1.3-0.5,1.3-1.3l0.1-8.2
	C28.5,9.5,28,9,27.3,9l0-0.1L16.5,8.8c0,0,0,0,0,0c-0.7,0-1.3,0.5-1.3,1.3l-0.1,8.3c0,0.7,0.5,1.3,1.3,1.3L27.2,19.8
	C27.1,19.8,27.1,19.8,27.2,19.8 M32.6,12.4c0.3,0,0.5-0.2,0.5-0.5l0-1.8c0-0.3-0.2-0.5-0.5-0.5l-1.8,0c0,0,0,0,0,0
	c-0.3,0-0.5,0.2-0.5,0.5l0,1.8c0,0.3,0.2,0.5,0.5,0.5L32.6,12.4C32.6,12.4,32.6,12.4,32.6,12.4 M36.1,12.4c0.3,0,0.5-0.2,0.5-0.5
	l0-1.8c0-0.3-0.2-0.5-0.5-0.5l-1.8,0c0,0,0,0,0,0c-0.3,0-0.5,0.2-0.5,0.5l0,1.8c0,0.3,0.2,0.5,0.5,0.5L36.1,12.4
	C36.1,12.4,36.1,12.4,36.1,12.4 M39.9,12.5c0.3,0,0.5-0.2,0.5-0.5l0-1.8c0-0.3-0.2-0.5-0.5-0.5l-1.8,0c0,0,0,0,0,0
	c-0.3,0-0.5,0.2-0.5,0.5l0,1.8c0,0.3,0.2,0.5,0.5,0.5L39.9,12.5C39.9,12.5,39.9,12.5,39.9,12.5 M32.6,15.9c0.3,0,0.5-0.2,0.5-0.5
	l0-1.8c0-0.3-0.2-0.5-0.5-0.5l-1.8,0c0,0,0,0,0,0c-0.3,0-0.5,0.2-0.5,0.5l0,1.8c0,0.3,0.2,0.5,0.5,0.5L32.6,15.9
	C32.6,15.9,32.6,15.9,32.6,15.9 M36.1,15.9c0.3,0,0.5-0.2,0.5-0.5l0-1.8c0-0.3-0.2-0.5-0.5-0.5l-1.8,0c0,0,0,0,0,0
	c-0.3,0-0.5,0.2-0.5,0.5l0,1.8c0,0.3,0.2,0.5,0.5,0.5L36.1,15.9C36.1,15.9,36.1,15.9,36.1,15.9 M39.8,15.9c0.3,0,0.5-0.2,0.5-0.5
	l0-1.8c0-0.3-0.2-0.5-0.5-0.5l-1.8,0c0,0,0,0,0,0c-0.3,0-0.5,0.2-0.5,0.5l0,1.8c0,0.3,0.2,0.5,0.5,0.5L39.8,15.9
	C39.8,15.9,39.8,15.9,39.8,15.9 M32.5,19.3c0.3,0,0.5-0.2,0.5-0.5l0-1.8c0-0.3-0.2-0.5-0.5-0.5l-1.8,0c0,0,0,0,0,0
	c-0.3,0-0.5,0.2-0.5,0.5l0,1.8c0,0.3,0.2,0.5,0.5,0.5L32.5,19.3C32.5,19.3,32.5,19.3,32.5,19.3 M36,19.4c0.3,0,0.5-0.2,0.5-0.5
	l0-1.8c0-0.3-0.2-0.5-0.5-0.5l-1.8,0c0,0,0,0,0,0c-0.3,0-0.5,0.2-0.5,0.5l0,1.8c0,0.3,0.2,0.5,0.5,0.5L36,19.4
	C36,19.4,36,19.4,36,19.4 M39.8,19.4c0.3,0,0.5-0.2,0.5-0.5l0-1.8c0-0.3-0.2-0.5-0.5-0.5l-1.8,0c0,0,0,0,0,0c-0.3,0-0.5,0.2-0.5,0.5
	l0,1.8c0,0.3,0.2,0.5,0.5,0.5L39.8,19.4C39.8,19.4,39.8,19.4,39.8,19.4 M16.2,5.9c-1.5,0-2.9,0.8-3.6,2.1L7.8,8
	c-1.2,0-2.2,1-2.3,2.2l0,0.6c0,1.2,1,2.2,2.2,2.3l4.3,0.1l-0.1,5c0,2.3,1.9,4.3,4.2,4.3l32.1,0.4l0,0l0,0c2.3,0,4.2-1.9,4.2-4.2
	l0.1-7.9c0-1.1-0.4-2.2-1.2-3c-0.8-0.8-1.9-1.3-3-1.3L16.2,5.9L16.2,5.9L16.2,5.9L16.2,5.9z M16.6,18.1l0.1-7.8l9,0.1l0,0.1l1.3,0
	l-0.1,7.8L16.6,18.1L16.6,18.1z"/>
<line opacity="5.000000e-002" fill="#FFFFFF" x1="232.7" y1="54.8" x2="232.9" y2="54.6"/>
<path opacity="5.000000e-002" fill="#FFFFFF" d="M274.5,111.6C274.5,111.6,274.5,111.6,274.5,111.6c-0.4,0-0.7-0.1-1.1-0.2l-5.7-2.4
	l5.3-12.5l1.9,0.8c0.3,0.1,0.6,0.2,0.9,0.2c1,0,3.2-1.2,6.7-9.5c4.4-10.6,2.1-11.5,1.4-11.9l-1.9-0.8l5.3-12.5l5.7,2.4
	c1,0.4,2,1.4,1.7,3.9c-0.1,0.4-1.4,8.2-6.8,21c-5.3,12.6-10.2,19.5-10.3,19.5C276.5,111,275.5,111.6,274.5,111.6z M269.7,108.2
	l4.3,1.8c0.9,0.4,1.9-0.5,2.3-1.1c0,0,4.9-6.8,10.1-19.2c5.4-12.7,6.7-20.6,6.7-20.7c0.2-1.9-0.6-2.2-0.8-2.3l-4.3-1.8l-4.1,9.7
	l0.6,0.2c2.1,0.9,3.9,3.2-0.6,13.8c-3.9,9.3-6.5,10.4-8,10.4c-0.6,0-1.1-0.2-1.4-0.3l-0.6-0.3L269.7,108.2z"/>
<path opacity="5.000000e-002" fill="#FFFFFF" d="M281.1,74.9l-1.5-0.7c-0.8-0.3-1.4-0.9-1.7-1.7c-0.3-0.8-0.3-1.6,0-2.4l2.8-6.6
	c0.5-1.2,1.6-1.9,2.9-1.9c0.4,0,0.8,0.1,1.2,0.2l1.5,0.6L281.1,74.9z M283.6,63c-0.7,0-1.3,0.4-1.5,1l-2.8,6.6
	c-0.2,0.4-0.2,0.9,0,1.3c0.2,0.4,0.5,0.7,0.9,0.9l0.2,0.1l4.1-9.7l-0.1-0.1C284,63.1,283.8,63,283.6,63z"/>
<path opacity="5.000000e-002" fill="#FFFFFF" d="M267,108.6l-1.6-0.7c-1.6-0.7-2.4-2.5-1.7-4.1l2.8-6.6c0.5-1.2,1.6-1.9,2.9-1.9
	c0.4,0,0.8,0.1,1.2,0.2l1.6,0.7L267,108.6z M269.5,96.7c-0.7,0-1.3,0.4-1.5,1l-2.8,6.6c-0.4,0.8,0,1.8,0.9,2.2l0.2,0.1l4.1-9.7
	l-0.2-0.1C269.9,96.7,269.7,96.7,269.5,96.7z"/>
</svg>
