<?xml version="1.0" encoding="utf-8"?>
<!-- Generator: Adobe Illustrator 17.1.0, SVG Export Plug-In . SVG Version: 6.00 Build 0)  -->
<!DOCTYPE svg PUBLIC "-//W3C//DTD SVG 1.1//EN" "http://www.w3.org/Graphics/SVG/1.1/DTD/svg11.dtd">
<svg version="1.1" id="Isolation_Mode" xmlns="http://www.w3.org/2000/svg" xmlns:xlink="http://www.w3.org/1999/xlink" x="0px"
	 y="0px" width="87px" height="87px" viewBox="0 0 87 87" enable-background="new 0 0 87 87" xml:space="preserve">
<g transform="matrix( 1, 0, 0, 1, 270.15,120.3) ">
	<g transform="matrix( 1, 0, 0, 1, 0,0) ">
		<g>
			<g id="h_0_Layer0_0_FILL_18_">
				<path fill="#E1B584" d="M-214.7-87.2c-3.3-3.3-7.3-4.9-11.9-4.9s-8.5,1.6-11.8,4.9c-3.3,3.2-5,7.2-5,11.8c0,4.6,1.7,8.5,5,11.8
					c3.3,3.2,7.2,4.8,11.8,4.8s8.6-1.6,11.9-4.8c3.2-3.3,4.8-7.2,4.8-11.8C-209.9-80-211.5-84-214.7-87.2z"/>
			</g>
		</g>
	</g>
</g>
<g>
	<g>
		<defs>
			<path id="SVGID_1_" d="M55.4,33.1c-3.3-3.3-7.3-4.9-11.9-4.9s-8.5,1.6-11.8,4.9c-3.3,3.2-5,7.2-5,11.8s1.7,8.5,5,11.8
				c3.3,3.2,7.2,4.8,11.8,4.8s8.6-1.6,11.9-4.8c3.2-3.3,4.8-7.2,4.8-11.8C60.3,40.3,58.7,36.3,55.4,33.1z"/>
		</defs>
		<clipPath id="SVGID_2_">
			<use xlink:href="#SVGID_1_"  overflow="visible"/>
		</clipPath>
		<path clip-path="url(#SVGID_2_)" fill="#54341E" d="M59.1,27.7c0,0-6.6,11.3-20.6,9.7s-11-1.4-11-1.4s5.8-9.5,16.2-12.1
			C50.1,22.4,59.1,27.7,59.1,27.7z"/>
	</g>
</g>
<g>
	<g>
		<defs>
			<path id="SVGID_3_" d="M55.4,33.1c-3.3-3.3-7.3-4.9-11.9-4.9s-8.5,1.6-11.8,4.9c-3.3,3.2-5,7.2-5,11.8s1.7,8.5,5,11.8
				c3.3,3.2,7.2,4.8,11.8,4.8s8.6-1.6,11.9-4.8c3.2-3.3,4.8-7.2,4.8-11.8C60.3,40.3,58.7,36.3,55.4,33.1z"/>
		</defs>
		<clipPath id="SVGID_4_">
			<use xlink:href="#SVGID_3_"  overflow="visible"/>
		</clipPath>
		<path clip-path="url(#SVGID_4_)" fill="#54341E" d="M55.2,24.4c0,0-2.8,9.5,0,17.4c1.9,5.3,1.6,5.6,1.6,5.6s3-2.5,3.5-9.3
			S55.2,24.4,55.2,24.4z"/>
	</g>
</g>
<path fill="#FFFFFF" d="M26.1,48.1c0,1.3-1,2.3-2.3,2.3l0,0c-1.3,0-2.3-1-2.3-2.3v-6.5c0-1.3,1-2.3,2.3-2.3l0,0c1.3,0,2.3,1,2.3,2.3
	V48.1z"/>
<path fill="#FFFFFF" d="M65.5,48.1c0,1.3-1,2.3-2.3,2.3l0,0c-1.3,0-2.3-1-2.3-2.3v-6.5c0-1.3,1-2.3,2.3-2.3l0,0c1.3,0,2.3,1,2.3,2.3
	V48.1z"/>
<path fill="#FFFFFF" d="M63.8,45.8h-1.3c0-10.5-8.5-19-19-19s-19,8.5-19,19h-1.3c0-11.2,9.1-20.4,20.4-20.4S63.8,34.6,63.8,45.8z"/>
<path fill="#FFFFFF" d="M62.7,44.5c-0.4-0.1-0.7,0.1-0.8,0.5c-2.4,9.5-9.9,11-14.1,11c-0.3-0.3-0.8-0.5-1.4-0.5h-3.9
	c-1,0-1.7,0.6-1.7,1.4c0,1.4,1.7,1.4,1.7,1.4h2.9c1.4,0,2.2-0.4,2.5-0.9c4.6-0.1,12.6-1.9,15.2-12.1C63.3,45,63,44.6,62.7,44.5z"/>
<path fill="#FFFFFF" d="M48.6,56.8c0,1.4-1.1,2.5-2.5,2.5h-3.8c-1.4,0-2.5-1.1-2.5-2.5v-0.2c0-1.4,1.1-2.5,2.5-2.5h3.8
	c1.4,0,2.5,1.1,2.5,2.5V56.8z"/>
</svg>
