<?xml version="1.0" encoding="utf-8"?>
<!-- Generator: Adobe Illustrator 17.1.0, SVG Export Plug-In . SVG Version: 6.00 Build 0)  -->
<!DOCTYPE svg PUBLIC "-//W3C//DTD SVG 1.1//EN" "http://www.w3.org/Graphics/SVG/1.1/DTD/svg11.dtd">
<svg version="1.1" id="Isolation_Mode" xmlns="http://www.w3.org/2000/svg" xmlns:xlink="http://www.w3.org/1999/xlink" x="0px"
	 y="0px" width="87px" height="87px" viewBox="0 0 87 87" enable-background="new 0 0 87 87" xml:space="preserve">
<path fill="#FFFFFF" d="M50.6,57.7H36.2c-0.7,0-1.2,0.5-1.2,1.2h16.9C51.8,58.2,51.3,57.7,50.6,57.7z"/>
<path fill="#FFFFFF" d="M57.6,57.7h-2.5c-0.6,0-1.1,0.5-1.1,1.1v0.1h4.6v-0.1C58.7,58.2,58.2,57.7,57.6,57.7z"/>
<path fill="#FFFFFF" d="M64.9,58.8c0-0.6-0.5-1.1-1.1-1.1h-2.5c-0.6,0-1.1,0.5-1.1,1.1v0.1L64.9,58.8C64.9,58.8,64.9,58.8,64.9,58.8
	z"/>
<path fill="#FFFFFF" d="M25.4,57.7h-2.5c-0.6,0-1.1,0.5-1.1,1.1v0.1h4.6v-0.1C26.4,58.2,25.9,57.7,25.4,57.7z"/>
<path fill="#FFFFFF" d="M31.6,57.7h-2.5c-0.6,0-1.1,0.5-1.1,1.1v0.1h4.6v-0.1C32.7,58.2,32.2,57.7,31.6,57.7z"/>
<path fill="#FFFFFF" d="M19.1,50.2l8.6-3.8c-0.3,0.1-1-1.1-1.4-1.8c-0.3-0.8-0.7-2.1-0.4-2.2l-8.6,3.8l-0.5-1.1
	c-0.3-0.6-0.8-0.6-1.2-0.1l-4,5.4c-0.4,0.5-0.2,1,0.5,1.1l6.7,0.6c0.7,0.1,1-0.4,0.7-1L19.1,50.2z"/>
<path fill="#FFFFFF" d="M54.4,48.1l-2-4c-0.4-0.8-1.4-1.2-2.3-0.8c-0.8,0.4-1.2,1.4-0.8,2.3l1.6,2.6l-0.1,0.1l-2.6-4
	c-0.6-1.1-1.9-1.5-2.9-1s-1.4,1.8-0.8,2.9l2.2,4.2l-0.1,0.1l-2.8-5c-0.6-1.1-1.9-1.5-3-0.9s-1.5,1.9-0.9,3l2.2,3.8l-0.1,0l-6-8.5
	c-0.7-1.1-2.1-1.4-3.1-0.8c-1,0.6-1.3,2-0.6,3.1l7.4,11.3l-0.2,0.1l0,0l-3.2-1.7c-1-0.5-2.3-0.1-2.8,0.9s-0.1,2.3,0.9,2.8
	c0,0,10.4,5.2,10.7,5.2c2.2,1.5,4.9,2.1,8.2,0.1C60.5,59.5,55.9,50.6,54.4,48.1z"/>
<g>
	<path fill="#FFFFFF" d="M34.3,44.4c0.7-0.3,1.3-0.9,1.6-1.6c-0.5-0.7-1.2-1-1.9-1c-0.4,0-0.8,0.1-1.1,0.3c-0.8,0.5-1.1,1.5-0.9,2.4
		C32.7,44.7,33.5,44.7,34.3,44.4z"/>
	<path fill="#FFFFFF" d="M31,43.2c0.2-0.8,0.7-1.5,1.4-1.9c0.5-0.3,1.1-0.4,1.6-0.4c0.8,0,1.6,0.3,2.2,0.8c0-0.5,0-1-0.2-1.4
		c-0.7-1.6-2.6-2.3-4.2-1.6c-1.6,0.7-2.4,2.6-1.7,4.2c0.2,0.4,0.5,0.8,0.8,1.1C30.9,43.6,30.9,43.4,31,43.2z"/>
</g>
<path fill="#FFFFFF" d="M54.1,31.5l-6.7-0.6c-0.7-0.1-1,0.4-0.7,1l0.5,1.1l-8.7,3.8c0.3-0.1,1,1.1,1.3,1.8c0.3,0.8,0.7,2.1,0.4,2.3
	L49,37l0.4,0.9c0.3,0.6,0.8,0.6,1.2,0.1l4-5.4C55,32.1,54.8,31.6,54.1,31.5z"/>
<g>
	<path fill="#FFFFFF" d="M46.7,31.9l0.5,1.1l-2,0.9h8.5l0.9-1.2c0.4-0.5,0.2-1-0.5-1.1l-0.4,0h-7C46.6,31.6,46.7,31.7,46.7,31.9z"/>
	<path fill="#FFFFFF" d="M61.1,31.5h-5.4c0,0,0,0,0,0c0.2,0.5,0.1,1.2-0.3,1.7L55,33.8h6.6v16.6c0,0.3-0.2,0.5-0.5,0.5h-36
		c-0.3,0-0.5-0.2-0.5-0.5V33.8h18.1l3.1-1.4l-0.1-0.1c-0.1-0.3-0.2-0.5-0.2-0.8H25.1c-0.9,0-1.5,0.6-1.5,1.5v17.4
		c0,0.9,0.6,1.5,1.5,1.5h36c0.9,0,1.5-0.6,1.5-1.5V33C62.6,32.1,62,31.5,61.1,31.5z"/>
</g>
<g>
	<path fill="#FFFFFF" d="M36,59.4c1.7,0.9,4.5,2.2,6.5,3.2H55c1-1,1.6-2.1,1.9-3.2H36z"/>
	<path fill="#FFFFFF" d="M69.4,60.7c0-0.7-0.6-1.3-1.3-1.3H57.9c-0.3,1.2-0.8,2.2-1.6,3.2h11.9c0.7,0,1.3-0.6,1.3-1.3L69.4,60.7
		L69.4,60.7z"/>
	<path fill="#FFFFFF" d="M34,59.5c-0.1,0-0.1-0.1-0.2-0.1h-15c-0.7,0-1.3,0.6-1.3,1.3v0.6c0,0.7,0.6,1.3,1.3,1.3h21.4
		C38.7,61.9,36.7,60.8,34,59.5z"/>
</g>
<g>
	<path fill="#FFFFFF" d="M34.2,58.5L34.2,58.5c0.3-0.9,1.1-1.6,2.1-1.6h14.5c1,0,1.9,0.7,2,1.6h0.6c0.1-0.9,0.9-1.6,1.9-1.6h1.9
		c0-0.4,0-0.7-0.1-1.1h-18l0.5,0.8l-0.2,0.1l-1.6-0.9h-4.3c0,0,0,0,0,0.1C33,56.7,33.4,57.9,34.2,58.5z"/>
	<path fill="#FFFFFF" d="M59.7,58.5c0-0.1-0.1-0.2-0.1-0.3c0,0.1-0.1,0.2-0.1,0.3H59.7z"/>
	<path fill="#FFFFFF" d="M64.9,24.4H22c-1.7,0-3.2,1.4-3.2,3.2v27.8c0,1.4,0.9,2.6,2.2,3c0.2-0.9,0.9-1.5,1.9-1.5h2.5
		c0.9,0,1.7,0.7,1.9,1.6h0.1c0.1-0.9,0.9-1.6,1.9-1.6h2.5c0.2,0,0.4,0,0.6,0.1c0-0.4,0-0.8,0.2-1.2H22.4c-0.6,0-1.1-0.5-1.1-1.1
		V28.2c0-0.6,0.5-1.1,1.1-1.1h42.2c0.6,0,1.1,0.5,1.1,1.1v26.5c0,0.6-0.5,1.1-1.1,1.1h-6.4c0,0.4,0.1,0.8,0.1,1.2
		c0.6,0.1,1.2,0.6,1.4,1.2c0.3-0.7,1-1.3,1.8-1.3h2.5c0.9,0,1.7,0.7,1.9,1.5c1.4-0.4,2.3-1.5,2.3-3V27.5
		C68.1,25.8,66.7,24.4,64.9,24.4z"/>
</g>
</svg>
