<?xml version="1.0" encoding="utf-8"?>
<!-- Generator: Adobe Illustrator 17.1.0, SVG Export Plug-In . SVG Version: 6.00 Build 0)  -->
<!DOCTYPE svg PUBLIC "-//W3C//DTD SVG 1.1//EN" "http://www.w3.org/Graphics/SVG/1.1/DTD/svg11.dtd">
<svg version="1.1" id="Isolation_Mode" xmlns="http://www.w3.org/2000/svg" xmlns:xlink="http://www.w3.org/1999/xlink" x="0px"
	 y="0px" width="87px" height="87px" viewBox="0 0 87 87" enable-background="new 0 0 87 87" xml:space="preserve">
<g>
	<rect x="41.5" y="27.1" fill="#2B2C2C" width="23.1" height="31.3"/>
	<polygon fill="#797B7C" points="43.4,59 35.8,58.4 35.8,27.1 55.3,27.1 	"/>
	<path fill="#D96137" d="M33.4,25c0-0.6-0.5-1.1-1.1-1.1h-6.2c-0.6,0-1.1,0.5-1.1,1.1v31.5c0,0.6,0.5,1.1,1.1,1.1h6.2
		c0.6,0,1.1-0.5,1.1-1.1V25z"/>
	<g>
		<defs>
			<rect id="SVGID_1_" x="19.5" y="23.9" width="29" height="40.1"/>
		</defs>
		<clipPath id="SVGID_2_">
			<use xlink:href="#SVGID_1_"  overflow="visible"/>
		</clipPath>
		<path clip-path="url(#SVGID_2_)" fill="#D96137" d="M62.6,25.9H34.4V57c0,1.2-0.9,2.2-2.1,2.2h-5.9c-1.2,0-2.4-1-2.4-2.2V26.1
			c-1.5,0.2-3,1.7-3,3.5v29.3c0,1.9,1.7,3.2,3.6,3.2h37.9c1.9,0,3.7-1.3,3.7-3.2V29.6C66.2,27.7,64.5,25.9,62.6,25.9z M45.9,56.8
			c0,0.2-0.2,0.4-0.4,0.4h-2.7c-0.2,0-0.4-0.2-0.4-0.4v-2.7c0-0.2,0.2-0.4,0.4-0.4h2.7c0.2,0,0.4,0.2,0.4,0.4V56.8z M45.9,52.3
			c0,0.2-0.2,0.4-0.4,0.4h-2.7c-0.2,0-0.4-0.2-0.4-0.4v-2.7c0-0.2,0.2-0.4,0.4-0.4h2.7c0.2,0,0.4,0.2,0.4,0.4V52.3z M45.9,47.9
			c0,0.2-0.2,0.4-0.4,0.4h-2.7c-0.2,0-0.4-0.2-0.4-0.4v-2.7c0-0.2,0.2-0.4,0.4-0.4h2.7c0.2,0,0.4,0.2,0.4,0.4V47.9z M50.3,56.8
			c0,0.2-0.2,0.4-0.4,0.4h-2.7c-0.2,0-0.4-0.2-0.4-0.4v-2.7c0-0.2,0.2-0.4,0.4-0.4H50c0.2,0,0.4,0.2,0.4,0.4V56.8z M50.3,52.3
			c0,0.2-0.2,0.4-0.4,0.4h-2.7c-0.2,0-0.4-0.2-0.4-0.4v-2.7c0-0.2,0.2-0.4,0.4-0.4H50c0.2,0,0.4,0.2,0.4,0.4V52.3z M50.3,47.9
			c0,0.2-0.2,0.4-0.4,0.4h-2.7c-0.2,0-0.4-0.2-0.4-0.4v-2.7c0-0.2,0.2-0.4,0.4-0.4H50c0.2,0,0.4,0.2,0.4,0.4V47.9z M55.3,56.8
			c0,0.2-0.2,0.4-0.4,0.4h-2.7c-0.2,0-0.4-0.2-0.4-0.4v-2.7c0-0.2,0.2-0.4,0.4-0.4h2.7c0.2,0,0.4,0.2,0.4,0.4V56.8z M55.3,52.3
			c0,0.2-0.2,0.4-0.4,0.4h-2.7c-0.2,0-0.4-0.2-0.4-0.4v-2.7c0-0.2,0.2-0.4,0.4-0.4h2.7c0.2,0,0.4,0.2,0.4,0.4V52.3z M55.3,47.9
			c0,0.2-0.2,0.4-0.4,0.4h-2.7c-0.2,0-0.4-0.2-0.4-0.4v-2.7c0-0.2,0.2-0.4,0.4-0.4h2.7c0.2,0,0.4,0.2,0.4,0.4V47.9z M58.3,40.8
			c0,0.6-0.5,1-1,1H39.4c-0.6,0-1-0.5-1-1v-9.9c0-0.6,0.5-1,1-1h17.8c0.6,0,1,0.5,1,1V40.8z M63.8,37.4c0,0.2-0.2,0.4-0.4,0.4h-2.7
			c-0.2,0-0.4-0.2-0.4-0.4v-2.7c0-0.2,0.2-0.4,0.4-0.4h2.7c0.2,0,0.4,0.2,0.4,0.4V37.4z M63.8,33.5c0,0.2-0.2,0.4-0.4,0.4h-2.7
			c-0.2,0-0.4-0.2-0.4-0.4v-2.7c0-0.2,0.2-0.4,0.4-0.4h2.7c0.2,0,0.4,0.2,0.4,0.4V33.5z"/>
	</g>
	<g>
		<defs>
			<rect id="SVGID_3_" x="48.5" y="23.9" width="18.1" height="40.1"/>
		</defs>
		<clipPath id="SVGID_4_">
			<use xlink:href="#SVGID_3_"  overflow="visible"/>
		</clipPath>
		<path clip-path="url(#SVGID_4_)" fill="#D96137" d="M62.6,25.9H34.4V57c0,1.2-0.9,2.2-2.1,2.2h-5.9c-1.2,0-2.4-1-2.4-2.2V26.1
			c-1.5,0.2-3,1.7-3,3.5v29.3c0,1.9,1.7,3.2,3.6,3.2h37.9c1.9,0,3.7-1.3,3.7-3.2V29.6C66.2,27.7,64.5,25.9,62.6,25.9z M45.9,56.8
			c0,0.2-0.2,0.4-0.4,0.4h-2.7c-0.2,0-0.4-0.2-0.4-0.4v-2.7c0-0.2,0.2-0.4,0.4-0.4h2.7c0.2,0,0.4,0.2,0.4,0.4V56.8z M45.9,52.3
			c0,0.2-0.2,0.4-0.4,0.4h-2.7c-0.2,0-0.4-0.2-0.4-0.4v-2.7c0-0.2,0.2-0.4,0.4-0.4h2.7c0.2,0,0.4,0.2,0.4,0.4V52.3z M45.9,47.9
			c0,0.2-0.2,0.4-0.4,0.4h-2.7c-0.2,0-0.4-0.2-0.4-0.4v-2.7c0-0.2,0.2-0.4,0.4-0.4h2.7c0.2,0,0.4,0.2,0.4,0.4V47.9z M50.3,56.8
			c0,0.2-0.2,0.4-0.4,0.4h-2.7c-0.2,0-0.4-0.2-0.4-0.4v-2.7c0-0.2,0.2-0.4,0.4-0.4H50c0.2,0,0.4,0.2,0.4,0.4V56.8z M50.3,52.3
			c0,0.2-0.2,0.4-0.4,0.4h-2.7c-0.2,0-0.4-0.2-0.4-0.4v-2.7c0-0.2,0.2-0.4,0.4-0.4H50c0.2,0,0.4,0.2,0.4,0.4V52.3z M50.3,47.9
			c0,0.2-0.2,0.4-0.4,0.4h-2.7c-0.2,0-0.4-0.2-0.4-0.4v-2.7c0-0.2,0.2-0.4,0.4-0.4H50c0.2,0,0.4,0.2,0.4,0.4V47.9z M55.3,56.8
			c0,0.2-0.2,0.4-0.4,0.4h-2.7c-0.2,0-0.4-0.2-0.4-0.4v-2.7c0-0.2,0.2-0.4,0.4-0.4h2.7c0.2,0,0.4,0.2,0.4,0.4V56.8z M55.3,52.3
			c0,0.2-0.2,0.4-0.4,0.4h-2.7c-0.2,0-0.4-0.2-0.4-0.4v-2.7c0-0.2,0.2-0.4,0.4-0.4h2.7c0.2,0,0.4,0.2,0.4,0.4V52.3z M55.3,47.9
			c0,0.2-0.2,0.4-0.4,0.4h-2.7c-0.2,0-0.4-0.2-0.4-0.4v-2.7c0-0.2,0.2-0.4,0.4-0.4h2.7c0.2,0,0.4,0.2,0.4,0.4V47.9z M58.3,40.8
			c0,0.6-0.5,1-1,1H39.4c-0.6,0-1-0.5-1-1v-9.9c0-0.6,0.5-1,1-1h17.8c0.6,0,1,0.5,1,1V40.8z M63.8,37.4c0,0.2-0.2,0.4-0.4,0.4h-2.7
			c-0.2,0-0.4-0.2-0.4-0.4v-2.7c0-0.2,0.2-0.4,0.4-0.4h2.7c0.2,0,0.4,0.2,0.4,0.4V37.4z M63.8,33.5c0,0.2-0.2,0.4-0.4,0.4h-2.7
			c-0.2,0-0.4-0.2-0.4-0.4v-2.7c0-0.2,0.2-0.4,0.4-0.4h2.7c0.2,0,0.4,0.2,0.4,0.4V33.5z"/>
	</g>
	<g>
		<defs>
			<polygon id="SVGID_5_" points="20.4,58.4 16.3,58.4 16.3,23 31.3,23 			"/>
		</defs>
		<clipPath id="SVGID_6_">
			<use xlink:href="#SVGID_5_"  overflow="visible"/>
		</clipPath>
		<path clip-path="url(#SVGID_6_)" fill="#E17853" d="M33.4,25c0-0.6-0.5-1.1-1.1-1.1h-6.2c-0.6,0-1.1,0.5-1.1,1.1v31.5
			c0,0.6,0.5,1.1,1.1,1.1h6.2c0.6,0,1.1-0.5,1.1-1.1V25z"/>
	</g>
	<g>
		<defs>
			<polygon id="SVGID_7_" points="41.6,64 19.5,64 19.5,23.9 56.5,23.9 			"/>
		</defs>
		<clipPath id="SVGID_8_">
			<use xlink:href="#SVGID_7_"  overflow="visible"/>
		</clipPath>
		<path clip-path="url(#SVGID_8_)" fill="#E17853" d="M62.6,25.9H34.4V57c0,1.2-0.9,2.2-2.1,2.2h-5.9c-1.2,0-2.4-1-2.4-2.2V26.1
			c-1.5,0.2-3,1.7-3,3.5v29.3c0,1.9,1.7,3.2,3.6,3.2h37.9c1.9,0,3.7-1.3,3.7-3.2V29.6C66.2,27.7,64.5,25.9,62.6,25.9z M45.9,56.8
			c0,0.2-0.2,0.4-0.4,0.4h-2.7c-0.2,0-0.4-0.2-0.4-0.4v-2.7c0-0.2,0.2-0.4,0.4-0.4h2.7c0.2,0,0.4,0.2,0.4,0.4V56.8z M45.9,52.3
			c0,0.2-0.2,0.4-0.4,0.4h-2.7c-0.2,0-0.4-0.2-0.4-0.4v-2.7c0-0.2,0.2-0.4,0.4-0.4h2.7c0.2,0,0.4,0.2,0.4,0.4V52.3z M45.9,47.9
			c0,0.2-0.2,0.4-0.4,0.4h-2.7c-0.2,0-0.4-0.2-0.4-0.4v-2.7c0-0.2,0.2-0.4,0.4-0.4h2.7c0.2,0,0.4,0.2,0.4,0.4V47.9z M50.3,56.8
			c0,0.2-0.2,0.4-0.4,0.4h-2.7c-0.2,0-0.4-0.2-0.4-0.4v-2.7c0-0.2,0.2-0.4,0.4-0.4H50c0.2,0,0.4,0.2,0.4,0.4V56.8z M50.3,52.3
			c0,0.2-0.2,0.4-0.4,0.4h-2.7c-0.2,0-0.4-0.2-0.4-0.4v-2.7c0-0.2,0.2-0.4,0.4-0.4H50c0.2,0,0.4,0.2,0.4,0.4V52.3z M50.3,47.9
			c0,0.2-0.2,0.4-0.4,0.4h-2.7c-0.2,0-0.4-0.2-0.4-0.4v-2.7c0-0.2,0.2-0.4,0.4-0.4H50c0.2,0,0.4,0.2,0.4,0.4V47.9z M55.3,56.8
			c0,0.2-0.2,0.4-0.4,0.4h-2.7c-0.2,0-0.4-0.2-0.4-0.4v-2.7c0-0.2,0.2-0.4,0.4-0.4h2.7c0.2,0,0.4,0.2,0.4,0.4V56.8z M55.3,52.3
			c0,0.2-0.2,0.4-0.4,0.4h-2.7c-0.2,0-0.4-0.2-0.4-0.4v-2.7c0-0.2,0.2-0.4,0.4-0.4h2.7c0.2,0,0.4,0.2,0.4,0.4V52.3z M55.3,47.9
			c0,0.2-0.2,0.4-0.4,0.4h-2.7c-0.2,0-0.4-0.2-0.4-0.4v-2.7c0-0.2,0.2-0.4,0.4-0.4h2.7c0.2,0,0.4,0.2,0.4,0.4V47.9z M58.3,40.8
			c0,0.6-0.5,1-1,1H39.4c-0.6,0-1-0.5-1-1v-9.9c0-0.6,0.5-1,1-1h17.8c0.6,0,1,0.5,1,1V40.8z M63.8,37.4c0,0.2-0.2,0.4-0.4,0.4h-2.7
			c-0.2,0-0.4-0.2-0.4-0.4v-2.7c0-0.2,0.2-0.4,0.4-0.4h2.7c0.2,0,0.4,0.2,0.4,0.4V37.4z M63.8,33.5c0,0.2-0.2,0.4-0.4,0.4h-2.7
			c-0.2,0-0.4-0.2-0.4-0.4v-2.7c0-0.2,0.2-0.4,0.4-0.4h2.7c0.2,0,0.4,0.2,0.4,0.4V33.5z"/>
	</g>
</g>
</svg>
