<?xml version="1.0" encoding="utf-8"?>
<!-- Generator: Adobe Illustrator 17.1.0, SVG Export Plug-In . SVG Version: 6.00 Build 0)  -->
<!DOCTYPE svg PUBLIC "-//W3C//DTD SVG 1.1//EN" "http://www.w3.org/Graphics/SVG/1.1/DTD/svg11.dtd">
<svg version="1.1" id="Isolation_Mode" xmlns="http://www.w3.org/2000/svg" xmlns:xlink="http://www.w3.org/1999/xlink" x="0px"
	 y="0px" width="87px" height="87px" viewBox="0 0 87 87" enable-background="new 0 0 87 87" xml:space="preserve">
<g>
	<rect x="28.8" y="17.9" fill="#797B7C" width="28.1" height="49.8"/>
	<g>
		<defs>
			<polygon id="SVGID_61_" points="52.7,15.1 27.2,69.8 27.2,71.4 60.2,72.8 59.3,15.1 			"/>
		</defs>
		<clipPath id="SVGID_1_">
			<use xlink:href="#SVGID_61_"  overflow="visible"/>
		</clipPath>
		<polygon clip-path="url(#SVGID_1_)" fill="#2B2C2C" points="56.5,68.2 28.8,66.1 28.8,19.7 56.8,19.7 		"/>
	</g>
	<path fill="#8FBC70" d="M54.2,16.5H31.1c-1.8,0-3.2,1.4-3.2,3.2v46.2c0,1.8,1.4,3.2,3.2,3.2h23.1c1.8,0,3.2-1.4,3.2-3.2V19.6
		C57.4,17.9,56,16.5,54.2,16.5z M37,19.2h11.3c0.2,0,0.4,0.2,0.4,0.4c0,0.2-0.2,0.4-0.4,0.4H37c-0.2,0-0.4-0.2-0.4-0.4
		S36.8,19.2,37,19.2z M42.7,66.9c-1.7,0-3-1.3-3-3s1.3-3,3-3s3,1.3,3,3C45.7,65.5,44.4,66.9,42.7,66.9z M55.9,57.2
		c0,1.1-0.8,1.9-1.9,1.9H31.3c-1.1,0-1.9-0.8-1.9-1.9V23.4c0-1.1,0.8-1.9,1.9-1.9H54c1.1,0,1.9,0.8,1.9,1.9L55.9,57.2L55.9,57.2z"/>
	<g>
		<defs>
			<polygon id="SVGID_60_" points="52.7,15.1 27.2,69.8 27.2,71.4 60.2,72.8 59.3,15.1 			"/>
		</defs>
		<clipPath id="SVGID_2_">
			<use xlink:href="#SVGID_60_"  overflow="visible"/>
		</clipPath>
		<path clip-path="url(#SVGID_2_)" fill="#618C44" d="M54.2,16.5H31.1c-1.8,0-3.2,1.4-3.2,3.2v46.2c0,1.8,1.4,3.2,3.2,3.2h23.1
			c1.8,0,3.2-1.4,3.2-3.2V19.6C57.4,17.9,56,16.5,54.2,16.5z M37,19.2h11.3c0.2,0,0.4,0.2,0.4,0.4c0,0.2-0.2,0.4-0.4,0.4H37
			c-0.2,0-0.4-0.2-0.4-0.4S36.8,19.2,37,19.2z M42.7,66.9c-1.7,0-3-1.3-3-3s1.3-3,3-3s3,1.3,3,3C45.7,65.5,44.4,66.9,42.7,66.9z
			 M55.9,57.2c0,1.1-0.8,1.9-1.9,1.9H31.3c-1.1,0-1.9-0.8-1.9-1.9V23.4c0-1.1,0.8-1.9,1.9-1.9H54c1.1,0,1.9,0.8,1.9,1.9L55.9,57.2
			L55.9,57.2z"/>
	</g>
	<path fill="#FFFFFF" d="M51.7,31.5h-18c-0.7,0-1.3,0.6-1.3,1.3v11.7c0,0.7,0.6,1.3,1.3,1.3h1.1c0,0,0,0,0,0v3.7
		c0,1,0.5,1.2,1.1,0.4l3.4-4.1h12.4c0.7,0,1.3-0.6,1.3-1.3V32.8C53,32.1,52.4,31.5,51.7,31.5z"/>
	<g>
		<defs>
			<polygon id="SVGID_59_" points="52.7,15.1 27.2,69.8 27.2,71.4 60.2,72.8 59.3,15.1 			"/>
		</defs>
		<clipPath id="SVGID_3_">
			<use xlink:href="#SVGID_59_"  overflow="visible"/>
		</clipPath>
		<path clip-path="url(#SVGID_3_)" fill="#E5E5E5" d="M51.7,31.5h-18c-0.7,0-1.3,0.6-1.3,1.3v11.7c0,0.7,0.6,1.3,1.3,1.3h1.1
			c0,0,0,0,0,0v3.7c0,1,0.5,1.2,1.1,0.4l3.4-4.1h12.4c0.7,0,1.3-0.6,1.3-1.3V32.8C53,32.1,52.4,31.5,51.7,31.5z"/>
	</g>
	<g>
		<rect x="34.6" y="33.5" fill="#2B2C2C" width="16.1" height="1.7"/>
		<rect x="34.6" y="37.5" fill="#2B2C2C" width="16.1" height="1.7"/>
		<rect x="41.1" y="41.5" fill="#2B2C2C" width="9.6" height="1.7"/>
	</g>
</g>
</svg>
