<?xml version="1.0" encoding="utf-8"?>
<!-- Generator: Adobe Illustrator 17.1.0, SVG Export Plug-In . SVG Version: 6.00 Build 0)  -->
<!DOCTYPE svg PUBLIC "-//W3C//DTD SVG 1.1//EN" "http://www.w3.org/Graphics/SVG/1.1/DTD/svg11.dtd">
<svg version="1.1" id="Isolation_Mode" xmlns="http://www.w3.org/2000/svg" xmlns:xlink="http://www.w3.org/1999/xlink" x="0px"
	 y="0px" width="136px" height="136px" viewBox="0 0 136 136" enable-background="new 0 0 136 136" xml:space="preserve">
<g>
	<defs>
		<circle id="SVGID_4_" cx="68" cy="68" r="68"/>
	</defs>
	<clipPath id="SVGID_1_">
		<use xlink:href="#SVGID_4_"  overflow="visible"/>
	</clipPath>
	<g clip-path="url(#SVGID_1_)">
		<g transform="matrix( 1, 0, 0, 1, 0,0) ">
			<g>
				<g id="Layer0_0_FILL_1_">
					<g>
						<path fill="#2D3033" d="M57.6,82.7v53h12.9V86.5h3.5v117.2c0,2.7,0.9,4.9,2.7,6.6c1.6,1.4,3.6,2.2,6,2.2
							c2.3,0.1,4.2-0.6,5.9-2.1c1.8-1.6,2.7-3.8,2.7-6.7v-68.9h2.9v68.9c0,2.7,0.9,4.9,2.7,6.6c1.6,1.4,3.6,2.2,6,2.2
							c2.3,0.1,4.3-0.6,5.8-2.1c1.8-1.6,2.8-3.8,2.8-6.7V86.5h3.1v41.3c0,2.1,0.7,3.8,2,5.1c1.2,1.1,2.7,1.6,4.4,1.6
							c1.7,0,3.2-0.5,4.4-1.6c1.4-1.3,2-2.9,2-5.1V82.7c0.1-5.4-1.7-10-5.5-13.7c-3.6-3.8-8-5.7-13.3-5.7l-0.3-0.1l-0.2,0.1
							l-31.1-0.1v0.1l-0.1-0.1l-0.4,0.1c-5.2,0-9.7,1.9-13.3,5.7C59.3,72.7,57.5,77.2,57.6,82.7z"/>
						<path fill="#FFFFFF" d="M108.2,63.2l0.3,0.1c5.3,0,9.8,1.9,13.3,5.7c3.7,3.7,5.6,8.3,5.5,13.7v45.1c0,2.1-0.7,3.8-2,5.1
							c-1.2,1.1-2.7,1.6-4.4,1.6c-1.8,0-3.3-0.5-4.4-1.6c-1.4-1.3-2-2.9-2-5.1V86.5h-3.1v117.2c0,2.8-0.9,5.1-2.8,6.7
							c-1.5,1.4-3.4,2.1-5.6,2.1c-0.1,0-0.2,0-0.3,0c-2.3,0-4.3-0.7-6-2.2c-1.8-1.7-2.7-3.9-2.7-6.6v-68.9h-2.9v68.9
							c0,2.8-0.9,5.1-2.7,6.7c-1.6,1.4-3.4,2.1-5.6,2.1c-0.1,0-0.2,0-0.3,0c-2.4,0-4.4-0.7-6-2.2c-1.8-1.7-2.7-3.9-2.7-6.6V86.5
							h-3.5v49.2H57.6v-53c0-5.4,1.8-10,5.4-13.7c3.7-3.8,8.1-5.7,13.3-5.7l0.4-0.1l0.1,0.1v-0.1l31.1,0.1L108.2,63.2 M77.4,58.9
							l-1.2,0.3l-3.4,0v0.4c-4.9,0.7-9.1,2.9-12.7,6.7c-4.4,4.4-6.6,10-6.5,16.5l0,53v4h4h12.4v64c0,3.8,1.4,7.1,4,9.5l0,0l0,0
							c2.3,2.1,5.2,3.2,8.6,3.2c0.1,0,0.2,0,0.3,0c3.2,0,6-1.1,8.3-3.2c0.5-0.5,1-1,1.5-1.6c0.4,0.5,0.8,1,1.3,1.5l0,0l0.1,0
							c2.4,2.1,5.3,3.2,8.6,3.2c0.1,0,0.2,0,0.3,0c3.2,0,6-1.1,8.2-3.2c2.7-2.4,4.1-5.7,4.1-9.6V137c1.6,1,3.5,1.5,5.6,1.5
							c2.7,0,5.2-0.9,7.1-2.7l0,0l0,0c2.2-2,3.3-4.8,3.3-8V82.7c0.1-6.5-2.1-12.1-6.6-16.5c-4.2-4.4-9.4-6.8-15.6-6.9L108,59
							l-0.8,0.3l-29.3-0.1L77.4,58.9L77.4,58.9z"/>
					</g>
				</g>
			</g>
		</g>
		<g transform="matrix( 1, 0, 0, 1, 0,0) ">
			<g>
				<g id="Layer0_0_FILL_12_">
					<g>
						<path fill="#00AADD" d="M8.4,94.1v70.8h17.2V99.2h4.6v156.4c0,3.7,1.2,6.6,3.6,8.8c2.1,1.9,4.8,2.9,8,2.9
							c3,0.1,5.7-0.9,7.9-2.8c2.4-2.1,3.5-5.1,3.5-8.9v-91.9h3.9v91.9c0,3.7,1.2,6.6,3.5,8.8c2.2,1.9,4.9,2.9,8,2.9
							c3.1,0.1,5.7-0.9,7.8-2.8c2.4-2.1,3.7-5.1,3.7-8.9V99.2h4.1v55.2c0,2.8,0.9,5.1,2.7,6.8c1.6,1.5,3.6,2.2,5.9,2.2
							c2.3,0,4.3-0.7,5.9-2.2c1.8-1.7,2.7-3.9,2.7-6.8V94.1c0.1-7.3-2.3-13.4-7.3-18.3c-4.8-5.1-10.7-7.6-17.8-7.6L76,68.1l-0.3,0.1
							l-41.6-0.1v0.1L34,68.1l-0.5,0.1c-7,0-12.9,2.5-17.8,7.6C10.8,80.7,8.4,86.8,8.4,94.1z"/>
						<path fill="#FFFFFF" d="M76,68.1l0.5,0.1c7.1,0,13,2.5,17.8,7.6c5,4.9,7.4,11,7.3,18.3v60.2c0,2.8-0.9,5.1-2.7,6.8
							c-1.6,1.5-3.6,2.2-5.9,2.2c-2.4,0-4.3-0.7-5.9-2.2c-1.8-1.7-2.7-3.9-2.7-6.8V99.2h-4.1v156.4c0,3.8-1.2,6.7-3.7,8.9
							c-2,1.9-4.5,2.8-7.4,2.8c-0.1,0-0.3,0-0.4,0c-3.1,0-5.8-1-8-2.9c-2.4-2.2-3.5-5.2-3.5-8.8v-91.9h-3.9v91.9
							c0,3.8-1.2,6.7-3.5,8.9c-2.1,1.9-4.6,2.8-7.5,2.8c-0.1,0-0.3,0-0.4,0c-3.2,0-5.8-1-8-2.9c-2.4-2.2-3.6-5.2-3.6-8.8V99.2h-4.6
							v65.7H8.4V94.1c0-7.3,2.4-13.4,7.2-18.3c4.9-5.1,10.8-7.6,17.8-7.6l0.5-0.1l0.2,0.1v-0.1l41.6,0.1L76,68.1 M34.7,63.8
							l-1.2,0.3l-3.3,0v0.3C23.5,65.1,17.7,68,12.8,73c-5.6,5.7-8.4,12.8-8.3,21.1l0,70.7v4h4h17.2h0.6v86.7c0,4.8,1.6,8.7,4.9,11.8
							l0,0l0,0c2.9,2.6,6.5,3.9,10.6,3.9c0.1,0,0.3,0,0.4,0c3.9,0,7.3-1.3,10.2-3.9c1.1-1,2.1-2.2,2.8-3.5c0.7,1.2,1.6,2.4,2.7,3.4
							l0,0l0.1,0c2.9,2.6,6.5,3.9,10.6,3.9c0.1,0,0.3,0,0.4,0c3.9,0,7.3-1.3,10.1-3.9c3.3-2.9,5-6.9,5-11.9v-91.6
							c0,0,0.1,0.1,0.1,0.1c2.4,2.2,5.3,3.3,8.6,3.3c3.3,0,6.2-1.1,8.6-3.2l0,0l0,0c2.6-2.4,4-5.8,4-9.7V94.1
							c0.1-8.3-2.7-15.4-8.4-21.1c-5.4-5.7-12.1-8.7-20.1-8.8l-1.2-0.4l-0.9,0.3l-39.8-0.1L34.7,63.8L34.7,63.8z"/>
					</g>
				</g>
			</g>
		</g>
		<g transform="matrix( 1, 0, 0, 1, 270.15,120.3) ">
			<g transform="matrix( 1, 0, 0, 1, 0,0) ">
				<g>
					<g id="h_0_Layer0_0_FILL_2_">
						<g>
							<path fill="#2D3033" d="M-193.3-88.7c3.2-3.1,6.9-4.7,11.3-4.7s8.1,1.6,11.3,4.7c3.2,3.1,4.8,6.8,4.8,11.3
								c0,4.3-1.6,8.1-4.8,11.2c-3.1,3.1-6.9,4.6-11.3,4.6s-8.1-1.5-11.3-4.6c-3.1-3.1-4.6-6.9-4.6-11.2
								C-197.9-81.8-196.4-85.6-193.3-88.7z"/>
							<path fill="#FFFFFF" d="M-182-93.4c4.4,0,8.1,1.6,11.3,4.7c3.2,3.1,4.8,6.8,4.8,11.3c0,4.3-1.6,8.1-4.8,11.2
								c-3.1,3.1-6.9,4.6-11.3,4.6s-8.1-1.5-11.3-4.6c-3.1-3.1-4.6-6.9-4.6-11.2c0-4.4,1.5-8.2,4.6-11.3
								C-190.2-91.8-186.4-93.4-182-93.4 M-182-97.4c-5.4,0-10.2,2-14.1,5.9c-3.8,3.8-5.8,8.6-5.8,14.1c0,5.4,1.9,10.1,5.7,14l0,0
								l0,0c3.9,3.8,8.7,5.7,14.1,5.7c5.4,0,10.2-1.9,14.1-5.7c4-3.9,6-8.6,6-14.1c0-5.5-2-10.3-6-14.1
								C-171.9-95.4-176.6-97.4-182-97.4L-182-97.4z"/>
						</g>
					</g>
				</g>
			</g>
		</g>
		<g transform="matrix( 1, 0, 0, 1, 270.15,120.3) ">
			<g transform="matrix( 1, 0, 0, 1, 0,0) ">
				<g>
					<g id="h_0_Layer0_0_FILL_12_">
						<g>
							<path fill="#00AADD" d="M-230.3-94.3c4.2-4.2,9.3-6.3,15.1-6.3c5.8,0,10.8,2.1,15,6.3c4.2,4.1,6.4,9.1,6.4,15
								c0,5.8-2.1,10.8-6.4,15c-4.2,4.1-9.2,6.1-15,6.1c-5.8,0-10.9-2-15.1-6.1c-4.1-4.2-6.1-9.2-6.1-15
								C-236.5-85.2-234.4-90.2-230.3-94.3z"/>
							<path fill="#FFFFFF" d="M-215.2-100.6c5.8,0,10.8,2.1,15,6.3c4.2,4.1,6.4,9.1,6.4,15c0,5.8-2.1,10.8-6.4,15
								c-4.2,4.1-9.2,6.1-15,6.1c-5.8,0-10.9-2-15.1-6.1c-4.1-4.2-6.1-9.2-6.1-15c0-5.9,2-10.9,6.1-15
								C-226.1-98.5-221-100.6-215.2-100.6 M-215.2-104.6c-6.9,0-12.9,2.5-17.9,7.4c-4.9,4.9-7.3,10.9-7.3,17.9
								c0,6.8,2.5,12.8,7.3,17.8l0,0l0,0c5,4.8,11,7.3,17.9,7.3c6.9,0,12.9-2.5,17.8-7.3c5-5,7.6-11,7.6-17.8c0-7-2.5-13-7.5-17.9
								C-202.3-102.1-208.3-104.6-215.2-104.6L-215.2-104.6z"/>
						</g>
					</g>
				</g>
			</g>
		</g>
	</g>
</g>
</svg>
