<?xml version="1.0" encoding="utf-8"?>
<!-- Generator: Adobe Illustrator 17.1.0, SVG Export Plug-In . SVG Version: 6.00 Build 0)  -->
<!DOCTYPE svg PUBLIC "-//W3C//DTD SVG 1.1//EN" "http://www.w3.org/Graphics/SVG/1.1/DTD/svg11.dtd">
<svg version="1.1" id="Isolation_Mode" xmlns="http://www.w3.org/2000/svg" xmlns:xlink="http://www.w3.org/1999/xlink" x="0px"
	 y="0px" width="87px" height="87px" viewBox="0 0 87 87" enable-background="new 0 0 87 87" xml:space="preserve">
<g>
	<path fill="#E0C655" d="M61.1,49.9l-7.2-4.2c-0.2-0.1-0.3-0.1-0.5-0.1c-0.4,0-0.7,0.3-0.7,0.8V49c0,0,0,0,0,0h-5.7
		c-0.4,0-0.9-0.2-1.1-0.5L34.6,35.9c-0.2-0.3-0.9-0.9-1.2-0.9c-0.2-0.1-0.7-0.1-1.1-0.1h-6.2c-0.4,0-0.7,0.3-0.7,0.7v1.8
		c0,0.4,0.3,0.7,0.7,0.7h5.5c0.4,0,0.9,0.2,1.1,0.5l11.2,12.6c0.2,0.3,0.9,0.9,1.2,0.9c0.2,0.1,0.7,0.1,1.1,0.1h6.4c0,0,0,0,0,0v2.6
		c0,0.5,0.3,0.8,0.7,0.8h0c0.2,0,0.3,0,0.5-0.1l7.2-4.2c0.3-0.2,0.4-0.4,0.4-0.7S61.3,50,61.1,49.9z"/>
	<path fill="#B79F37" d="M43.9,46.4l-3.4-3.8c-0.1,0.2-0.2,0.4-0.3,0.6c-0.5,0.8-1,1.3-1.7,1.7l3.2,3.6
		C42.4,47.9,42.8,47.4,43.9,46.4z"/>
	<path fill="#C7B773" d="M61.1,37.1l-7.2,4.2c-0.2,0.1-0.3,0.1-0.5,0.1c-0.4,0-0.7-0.3-0.7-0.8V38c0,0,0,0,0,0h-5.7
		c-0.4,0-0.9,0.2-1.1,0.5L34.6,51.1c-0.2,0.3-0.9,0.9-1.2,0.9c-0.2,0.1-0.7,0.1-1.1,0.1h-6.2c-0.4,0-0.7-0.3-0.7-0.7v-1.8
		c0-0.4,0.3-0.7,0.7-0.7h5.5c0.4,0,0.9-0.2,1.1-0.5l11.2-12.6c0.2-0.3,0.9-0.9,1.2-0.9c0.2-0.1,0.7-0.1,1.1-0.1h6.4c0,0,0,0,0,0
		v-2.6c0-0.5,0.3-0.8,0.7-0.8h0c0.2,0,0.3,0,0.5,0.1l7.2,4.2c0.3,0.2,0.4,0.4,0.4,0.7S61.3,37,61.1,37.1z"/>
</g>
</svg>
