<svg id="Главная" xmlns="http://www.w3.org/2000/svg" xmlns:xlink="http://www.w3.org/1999/xlink" width="162.31" height="34" viewBox="0 0 162.31 34">
  <defs>
    <style>
      .cls-1 {
        fill: url(#linear-gradient);
      }

      .cls-2 {
        fill: #ccc;
      }

      .cls-3 {
        fill: url(#linear-gradient-2);
      }

      .cls-4 {
        fill: #fff;
      }

      .cls-5 {
        fill: url(#radial-gradient);
      }

      .cls-6 {
        fill: url(#radial-gradient-2);
      }

      .cls-7 {
        fill: url(#linear-gradient-3);
      }

      .cls-8 {
        fill: url(#linear-gradient-4);
      }

      .cls-9 {
        fill: url(#linear-gradient-5);
      }

      .cls-10 {
        fill: url(#linear-gradient-6);
      }

      .cls-11 {
        fill: url(#linear-gradient-7);
      }

      .cls-12 {
        fill: url(#linear-gradient-8);
      }

      .cls-13 {
        fill: url(#linear-gradient-9);
      }

      .cls-14 {
        fill: url(#linear-gradient-10);
      }

      .cls-15 {
        fill: url(#linear-gradient-11);
      }

      .cls-16 {
        fill: url(#linear-gradient-12);
      }
    </style>
    <linearGradient id="linear-gradient" x1="17" y1="33.48" x2="17" y2="0.52" gradientUnits="userSpaceOnUse">
      <stop offset="0" stop-color="#666"/>
      <stop offset="0.02" stop-color="#777"/>
      <stop offset="0.08" stop-color="#999"/>
      <stop offset="0.14" stop-color="#b5b5b5"/>
      <stop offset="0.2" stop-color="#cbcbcb"/>
      <stop offset="0.27" stop-color="#dadada"/>
      <stop offset="0.36" stop-color="#e3e3e3"/>
      <stop offset="0.47" stop-color="#e6e6e6"/>
      <stop offset="1" stop-color="gray"/>
    </linearGradient>
    <linearGradient id="linear-gradient-2" x1="72.19" y1="29.5" x2="72.19" y2="51.24" gradientUnits="userSpaceOnUse">
      <stop offset="0" stop-color="#dbdbdb"/>
      <stop offset="0.33" stop-color="#ccc"/>
      <stop offset="0.56" stop-color="#e6e6e6"/>
      <stop offset="1" stop-color="#e3e3e3"/>
    </linearGradient>
    <radialGradient id="radial-gradient" cx="77.7" cy="45.73" r="16.19" gradientTransform="translate(1.26 0.32) scale(0.98)" gradientUnits="userSpaceOnUse">
      <stop offset="0" stop-color="#ee4823"/>
      <stop offset="0.18" stop-color="#eb3724"/>
      <stop offset="0.41" stop-color="#e92a25"/>
      <stop offset="0.61" stop-color="#e82525"/>
      <stop offset="0.71" stop-color="#e02425"/>
      <stop offset="0.85" stop-color="#cc2224"/>
      <stop offset="1" stop-color="#af1f23"/>
    </radialGradient>
    <radialGradient id="radial-gradient-2" cx="66.68" cy="46.2" r="24.58" gradientTransform="translate(1.26 0.32) scale(0.98)" gradientUnits="userSpaceOnUse">
      <stop offset="0" stop-color="#ee4823"/>
      <stop offset="0.3" stop-color="#eb3724"/>
      <stop offset="0.67" stop-color="#e92a25"/>
      <stop offset="1" stop-color="#e82525"/>
    </radialGradient>
    <linearGradient id="linear-gradient-3" x1="117.68" y1="53.01" x2="117.68" y2="32.75" gradientUnits="userSpaceOnUse">
      <stop offset="0" stop-color="#ef5038"/>
      <stop offset="0.24" stop-color="#ee472b"/>
      <stop offset="1" stop-color="#bf151b"/>
    </linearGradient>
    <linearGradient id="linear-gradient-4" x1="130.32" y1="47.89" x2="130.32" y2="33.15" xlink:href="#linear-gradient-3"/>
    <linearGradient id="linear-gradient-5" x1="142.65" y1="47.91" x2="142.65" y2="32.77" gradientUnits="userSpaceOnUse">
      <stop offset="0" stop-color="#c9c9c9"/>
      <stop offset="0.5" stop-color="#999"/>
      <stop offset="1" stop-color="#4d4d4d"/>
    </linearGradient>
    <linearGradient id="linear-gradient-6" x1="189.62" y1="47.89" x2="189.62" y2="33.16" xlink:href="#linear-gradient-5"/>
    <linearGradient id="linear-gradient-7" x1="200.61" y1="47.94" x2="200.61" y2="32.78" xlink:href="#linear-gradient-5"/>
    <linearGradient id="linear-gradient-8" x1="153.85" y1="47.94" x2="153.85" y2="32.78" xlink:href="#linear-gradient-5"/>
    <linearGradient id="linear-gradient-9" x1="104.57" y1="47.96" x2="104.57" y2="32.83" xlink:href="#linear-gradient-3"/>
    <linearGradient id="linear-gradient-10" x1="165.52" y1="47.89" x2="165.52" y2="33.16" xlink:href="#linear-gradient-5"/>
    <linearGradient id="linear-gradient-11" x1="211.47" y1="48.02" x2="211.47" y2="33.03" xlink:href="#linear-gradient-5"/>
    <linearGradient id="linear-gradient-12" x1="178.97" y1="49.31" x2="178.97" y2="31.85" xlink:href="#linear-gradient-5"/>
  </defs>
  <title>artcapital_logo</title>
  <g>
    <g>
      <g>
        <path class="cls-1" d="M7.58,0.52H26.42a7.06,7.06,0,0,1,7.06,7.06V26.42a7.07,7.07,0,0,1-7.07,7.07H7.58A7.06,7.06,0,0,1,.52,26.42V7.58A7.06,7.06,0,0,1,7.58.52Z"/>
        <path class="cls-2" d="M62.58,58A7.6,7.6,0,0,1,55,50.42h0V31.58A7.6,7.6,0,0,1,62.58,24H81.42A7.6,7.6,0,0,1,89,31.58h0V50.42A7.6,7.6,0,0,1,81.42,58H62.58ZM56,31.58V50.42A6.58,6.58,0,0,0,62.58,57H81.42A6.58,6.58,0,0,0,88,50.42h0V31.58A6.58,6.58,0,0,0,81.42,25H62.58A6.58,6.58,0,0,0,56,31.58h0Z" transform="translate(-55 -24)"/>
      </g>
      <g>
        <path class="cls-3" d="M72.2,29.5l-11,21.73c3.17-2.38,7.26-5.38,11-5.36s7.85,3,11,5.36Z" transform="translate(-55 -24)"/>
        <path class="cls-4" d="M72.2,30.5L62.37,49.86c2.87-2.15,6.42-4.61,9.82-4.6s6.95,2.45,9.82,4.6Z" transform="translate(-55 -24)"/>
        <path class="cls-5" d="M77.78,45.47L73.95,37.9a18.92,18.92,0,0,1-3,5.56,6.89,6.89,0,0,1,1.29-.12A9.44,9.44,0,0,1,77.78,45.47Z" transform="translate(-55 -24)"/>
        <path class="cls-6" d="M72.2,34.45l-5.59,11a10.38,10.38,0,0,1,4.3-2,18.92,18.92,0,0,0,3-5.56Z" transform="translate(-55 -24)"/>
      </g>
    </g>
    <path class="cls-7" d="M114.39,32.75a9,9,0,0,1,.23,1.92,4.94,4.94,0,0,1,3.81-1.7,4.77,4.77,0,0,1,3.47,1.38c1,1,1.92,2.71,1.92,6s-0.91,5.16-2.06,6.3A5.1,5.1,0,0,1,118.09,48a5.27,5.27,0,0,1-3.29-1.18s0,1.41,0,1.95v3.48l-3,.77V37a16.09,16.09,0,0,0-.28-3.56Zm0.43,11.35a4.11,4.11,0,0,0,2.85,1.27,2.16,2.16,0,0,0,1.57-.59c1.24-1.14,1.24-3.19,1.24-4.29,0-1.84-.17-3.39-1-4.23a2.06,2.06,0,0,0-1.62-.65,4.33,4.33,0,0,0-3.07,1.47v7Z" transform="translate(-55 -24)"/>
    <path class="cls-8" d="M131.45,47.89h-3.16V35.53h-3.94V33.15h11.93l-1.77,2.37h-3.06V47.89Z" transform="translate(-55 -24)"/>
    <path class="cls-9" d="M137.2,33.35l2.29-.58v6.51h2.07a1.59,1.59,0,0,0,1.32-.44,2.43,2.43,0,0,0,.64-1.38L144,35.24a3.29,3.29,0,0,1,.67-1.52,2.45,2.45,0,0,1,1.76-.7l0.68-.06,1,1.41-0.88.21a1.36,1.36,0,0,0-.65.32,2,2,0,0,0-.44.82l-0.61,2.2a3.22,3.22,0,0,1-.68,1.46,3,3,0,0,1-1.08.71v0.09a2.44,2.44,0,0,1,.94.61,3.43,3.43,0,0,1,.79,1.59l0.76,2.75A1.67,1.67,0,0,0,148,46.39l-1.08,1.46a1.8,1.8,0,0,1-.6.06,2.6,2.6,0,0,1-1.88-.88,4.27,4.27,0,0,1-.67-1.88L143.38,43a2.21,2.21,0,0,0-.67-1.47,1.75,1.75,0,0,0-1.35-.44h-1.86v6.84H137.2V33.35Z" transform="translate(-55 -24)"/>
    <path class="cls-10" d="M190.14,47.89h-2.31V35.05H184.2V33.16H195l-1.42,1.89h-3.48V47.89Z" transform="translate(-55 -24)"/>
    <path class="cls-11" d="M204.46,46.49c-1.18,1.28-4.45,2.15-7.18.69-1.83-1-2.14-3.45-1.37-5.22a3.94,3.94,0,0,1,1-1.31c1.48-1.27,4.16-1.28,5.74-1.28,0.36,0,.68,0,0.95,0V37.32a2,2,0,0,0-.46-1.53c-0.71-.82-2.26-1-3.67-1a8.41,8.41,0,0,0-2.49.26l-1.39-1.87c3-.63,8.8-1,9.92,2.3a17.66,17.66,0,0,1,.16,3.46v4a8.77,8.77,0,0,1-.08,1.31A3.77,3.77,0,0,1,204.46,46.49ZM203.56,41l-0.37,0a5.67,5.67,0,0,0-.75,0c-2.21,0-4.91.11-4.91,2.71,0,1.8,2.19,2.88,3.86,2.36a2.64,2.64,0,0,0,2.19-2.5c0-.84,0-1,0-1.87C203.58,41.45,203.57,41.23,203.56,41Z" transform="translate(-55 -24)"/>
    <path class="cls-12" d="M157.7,46.49c-1.18,1.28-4.46,2.15-7.17.69-1.84-1-2.15-3.45-1.37-5.22a3.9,3.9,0,0,1,1-1.31c1.49-1.27,4.16-1.28,5.74-1.28,0.37,0,.68,0,1,0V37.32a2,2,0,0,0-.46-1.53c-0.72-.82-2.26-1-3.67-1a8.45,8.45,0,0,0-2.49.26l-1.39-1.87c3-.63,8.81-1,9.93,2.3a17.76,17.76,0,0,1,.16,3.46v4a9.15,9.15,0,0,1-.09,1.31A3.81,3.81,0,0,1,157.7,46.49ZM156.8,41l-0.36,0a5.82,5.82,0,0,0-.76,0c-2.21,0-4.91.11-4.91,2.71,0,1.8,2.19,2.88,3.86,2.36a2.65,2.65,0,0,0,2.19-2.5c0-.84,0-1,0-1.87C156.81,41.45,156.81,41.23,156.8,41Z" transform="translate(-55 -24)"/>
    <path class="cls-13" d="M108.88,46.49a5,5,0,0,1-2.9,1.37,10.78,10.78,0,0,1-3.72-.14,4.22,4.22,0,0,1-3-4.86,5.29,5.29,0,0,1,.72-2c1.31-1.9,3.75-2,5.8-2a11.45,11.45,0,0,1,1.38,0c0-.52,0-1,0-1.55a2.14,2.14,0,0,0-.47-1.53c-0.68-.8-2.37-0.76-3.34-0.72a11.79,11.79,0,0,0-2.67.52L99,33.47c3-.91,9.94-1.31,10.89,2a6.52,6.52,0,0,1,.16,1.26v6.17a8.28,8.28,0,0,1-.09,1.31A3.74,3.74,0,0,1,108.88,46.49Zm-1.71-5.34s-0.9,0-1.18,0c-1.79,0-4.17,0-4,2.62,0.11,1.84,1.51,2.23,3.28,2.13a2.13,2.13,0,0,0,1.93-2.33c0-.84,0-0.82,0-1.66C107.18,41.66,107.18,41.36,107.17,41.15Z" transform="translate(-55 -24)"/>
    <path class="cls-14" d="M170.74,35.62a4,4,0,0,0-4-2.45h-6.61V47.89h2.31V35.05h3.65a3,3,0,0,1,2.24.82,1.33,1.33,0,0,1,.26.79c0,2.43,0,11.22,0,11.23h2.34v-9.5A12.48,12.48,0,0,0,170.74,35.62Z" transform="translate(-55 -24)"/>
    <path class="cls-15" d="M217.31,38.1a12.51,12.51,0,0,0-.25-3c-0.57-1.56-2-2.08-3.66-2.08H213c-1.88,0-3,.56-3.54,2.14a5.8,5.8,0,0,0-.22,1.13c-0.05.45-.09,0.93-0.11,1.27-0.07.67-.2,1.76-0.49,4.22-0.36,3.11-.65,3.77-1.55,4.3a5,5,0,0,1-.9.42,1.72,1.72,0,0,1-.58.11l1.06,1.4h0.43a3.61,3.61,0,0,0,2.05-.82c0.8-.68,1-1.58,1.22-2.92,0.18-.89.76-5.84,0.88-6.86a3.26,3.26,0,0,1,.59-1.85,2,2,0,0,1,1.67-.55A1.64,1.64,0,0,1,215,36.75c0,0.21,0,.42,0,0.63v10.5h2.33V38.1Z" transform="translate(-55 -24)"/>
    <path class="cls-16" d="M185,46.51a5,5,0,0,1-.9-0.42,2.82,2.82,0,0,1-1.5-2.61c0-.29,0-1,0-1V33.24l-2.23-.17s0,8.72,0,10.63A4.7,4.7,0,0,1,175.86,46a1.68,1.68,0,0,1-1.19-1.73c0-.21,0-0.42,0-0.63V33.27l-2.33-.17v9.84a12.61,12.61,0,0,0,.25,3c0.57,1.57,2,2.08,3.66,2.08h0.38a8.55,8.55,0,0,0,4.6-1.83,5.35,5.35,0,0,0,.58.7c0.1,0.1.2,0.21,0.3,0.3a3.61,3.61,0,0,0,2.05.82h0.43l1.06-1.4A1.71,1.71,0,0,1,185,46.51Z" transform="translate(-55 -24)"/>
  </g>
</svg>
