<svg id="Главная" xmlns="http://www.w3.org/2000/svg" width="80" height="113" viewBox="0 0 80 113">
  <defs>
    <style>
      .cls-1 {
        fill: #efefef;
      }

      .cls-2 {
        fill: #cbcbcb;
      }

      .cls-3, .cls-5 {
        fill: #363636;
      }

      .cls-4 {
        fill: #ea2d2e;
      }

      .cls-5 {
        font-size: 8px;
        font-family: Roboto;
      }
    </style>
  </defs>
  <title>interactive_brokers</title>
  <g>
    <rect class="cls-1" width="80" height="113"/>
    <rect class="cls-2" y="89" width="80" height="1"/>
    <g>
      <g>
        <path id="path3" class="cls-3" d="M1134.27,138.09h0.86v7.62h-0.86v-7.62Z" transform="translate(-1122 -80)"/>
        <path id="path5" class="cls-3" d="M1137.22,140.08h0.84v1A2.13,2.13,0,0,1,1140,140a2.06,2.06,0,0,1,2.16,2.25v3.5h-0.84v-3.29a1.5,1.5,0,0,0-1.56-1.7,1.66,1.66,0,0,0-1.69,1.76v3.22h-0.84v-5.63Z" transform="translate(-1122 -80)"/>
        <path id="path7" class="cls-3" d="M1144.23,144.22v-3.4h-0.78v-0.74h0.78v-1.7h0.84v1.7h1.79v0.74h-1.79v3.29a0.83,0.83,0,0,0,.95.94,1.76,1.76,0,0,0,.82-0.2v0.72a2.11,2.11,0,0,1-1,.24A1.43,1.43,0,0,1,1144.23,144.22Z" transform="translate(-1122 -80)"/>
        <path id="path9" class="cls-3" d="M1150.65,145.11a2.33,2.33,0,0,0,1.77-.79l0.52,0.47a2.91,2.91,0,0,1-2.32,1.06,2.95,2.95,0,0,1-.11-5.88,2.68,2.68,0,0,1,2.62,3c0,0.08,0,.16,0,0.29h-4.46a2,2,0,0,0,2,1.87h0Zm1.64-2.55a1.85,1.85,0,0,0-1.8-1.89,1.94,1.94,0,0,0-1.83,1.89h3.63Z" transform="translate(-1122 -80)"/>
        <path id="path11" class="cls-3" d="M1154.61,140.08h0.84v1.47a2.41,2.41,0,0,1,2.3-1.57v0.9h-0.07c-1.23,0-2.23.88-2.23,2.58v2.24h-0.84v-5.63h0Z" transform="translate(-1122 -80)"/>
        <path id="path13" class="cls-3" d="M1158.33,144.08v0c0-1.21,1-1.84,2.41-1.84a5.9,5.9,0,0,1,1.72.24v-0.17a1.44,1.44,0,0,0-1.67-1.52,3.92,3.92,0,0,0-1.71.4l-0.25-.69a4.61,4.61,0,0,1,2-.48,2.5,2.5,0,0,1,1.82.62,2.23,2.23,0,0,1,.59,1.65v3.44h-0.83v-0.84a2.47,2.47,0,0,1-2,1A1.89,1.89,0,0,1,1158.33,144.08Zm4.14-.44v-0.52a5.78,5.78,0,0,0-1.64-.24c-1,0-1.64.46-1.64,1.13v0a1.25,1.25,0,0,0,1.42,1.12A1.68,1.68,0,0,0,1162.46,143.64Z" transform="translate(-1122 -80)"/>
        <path id="path15" class="cls-3" d="M1164.71,142.93v0a2.93,2.93,0,0,1,5.14-1.94l-0.56.59a2.27,2.27,0,0,0-1.71-.85,2.08,2.08,0,0,0-2,2.18v0a2.1,2.1,0,0,0,2.07,2.19,2.32,2.32,0,0,0,1.72-.84l0.53,0.5A2.91,2.91,0,0,1,1164.71,142.93Z" transform="translate(-1122 -80)"/>
        <path id="path17" class="cls-3" d="M1171.57,144.22v-3.4h-0.78v-0.74h0.78v-1.7h0.84v1.7h1.79v0.74h-1.79v3.29a0.83,0.83,0,0,0,.95.94,1.76,1.76,0,0,0,.82-0.2v0.72a2.11,2.11,0,0,1-1,.24,1.43,1.43,0,0,1-1.59-1.59h0Z" transform="translate(-1122 -80)"/>
        <path id="path19" class="cls-3" d="M1175.69,137.93h1v0.93h-1v-0.93Zm0.05,2.16h0.84v5.63h-0.84v-5.63Z" transform="translate(-1122 -80)"/>
        <path id="path21" class="cls-3" d="M1178,140.08h0.93l1.89,4.67,1.91-4.67h0.9l-2.45,5.67h-0.74Z" transform="translate(-1122 -80)"/>
        <path id="path23" class="cls-3" d="M1187.08,145.11a2.33,2.33,0,0,0,1.77-.79l0.52,0.47a2.91,2.91,0,0,1-2.32,1.06,2.95,2.95,0,0,1-.11-5.88,2.68,2.68,0,0,1,2.62,3c0,0.08,0,.16,0,0.29h-4.46A2,2,0,0,0,1187.08,145.11Zm1.64-2.55a1.85,1.85,0,0,0-1.8-1.89,1.94,1.94,0,0,0-1.83,1.89h3.63Z" transform="translate(-1122 -80)"/>
      </g>
      <g>
        <path id="path25" class="cls-3" d="M1141.75,151H1145a2.8,2.8,0,0,1,2,.68,1.69,1.69,0,0,1,.49,1.22v0a1.84,1.84,0,0,1-1.21,1.76,1.92,1.92,0,0,1,1.63,1.84v0c0,1.31-1.1,2.08-2.77,2.08h-3.39V151Zm3.1,3.4c1,0,1.75-.47,1.75-1.36v0c0-.75-0.6-1.24-1.69-1.24h-2.32v2.62h2.25Zm0.3,3.45c1.15,0,1.87-.51,1.87-1.36v0c0-.83-0.7-1.31-2-1.31h-2.41v2.69h2.56Z" transform="translate(-1122 -80)"/>
        <path id="path27" class="cls-3" d="M1149.47,153h0.84v1.47a2.41,2.41,0,0,1,2.3-1.57v0.9h-0.07c-1.23,0-2.23.88-2.23,2.58v2.24h-0.84V153h0Z" transform="translate(-1122 -80)"/>
        <path id="path29" class="cls-3" d="M1153.29,155.87v0a2.93,2.93,0,0,1,5.87,0v0a2.92,2.92,0,0,1-3,2.94A2.88,2.88,0,0,1,1153.29,155.87Zm5,0v0a2.13,2.13,0,0,0-2.09-2.2,2.08,2.08,0,0,0-2.06,2.18v0a2.11,2.11,0,0,0,2.08,2.19A2.08,2.08,0,0,0,1158.3,155.87Z" transform="translate(-1122 -80)"/>
        <path id="path31" class="cls-3" d="M1160.67,150.71h0.84v5.49l3-3.17h1l-2.36,2.42,2.44,3.21h-1l-2-2.62-1.14,1.15v1.47h-0.84v-7.95h0Z" transform="translate(-1122 -80)"/>
        <path id="path33" class="cls-3" d="M1169.08,158.06a2.33,2.33,0,0,0,1.77-.79l0.52,0.47a2.91,2.91,0,0,1-2.32,1.06,2.95,2.95,0,0,1-.11-5.88,2.68,2.68,0,0,1,2.62,3c0,0.08,0,.16,0,0.29h-4.46A2,2,0,0,0,1169.08,158.06Zm1.64-2.55a1.85,1.85,0,0,0-1.8-1.89,1.94,1.94,0,0,0-1.83,1.89h3.63Z" transform="translate(-1122 -80)"/>
        <path id="path35" class="cls-3" d="M1173,153h0.84v1.47a2.41,2.41,0,0,1,2.3-1.57v0.9h-0.07c-1.23,0-2.23.88-2.23,2.58v2.24H1173V153Z" transform="translate(-1122 -80)"/>
        <path id="path37" class="cls-3" d="M1177,157.94l0.42-.6a3.29,3.29,0,0,0,1.95.72,1,1,0,0,0,1.16-.89v0c0-.57-0.66-0.78-1.4-1s-1.86-.56-1.86-1.59v0a1.7,1.7,0,0,1,1.92-1.61,3.85,3.85,0,0,1,2,.62l-0.38.63a3.18,3.18,0,0,0-1.67-.54,0.93,0.93,0,0,0-1.09.82v0c0,0.53.7,0.74,1.45,1s1.81,0.6,1.81,1.61v0a1.77,1.77,0,0,1-2,1.69,3.87,3.87,0,0,1-2.33-.83h0Z" transform="translate(-1122 -80)"/>
      </g>
    </g>
    <g id="g39">
      <polygon id="polygon41" class="cls-4" points="46.41 30.05 37.86 18.05 37.86 18.05 36.2 19.17 43.74 31.58 46.41 30.05"/>
      <polygon id="polygon43" class="cls-4" points="46.82 45.86 46.82 31.53 33.85 39.02 33.85 39.02 40.21 49.3 40.33 49.3 46.82 45.86"/>
      <polygon id="polygon45" class="cls-4" points="37.44 17.38 37.29 15.58 36.19 15.08 35.27 15.19 34.81 15.8 33.52 14.5 33.03 14.92 34.54 16.87 34.5 17.86 35.68 18.43 37.44 17.38"/>
      <circle id="circle47" class="cls-4" cx="38.11" cy="31.53" r="3.1"/>
    </g>
    <text class="cls-5" transform="translate(10.42 103.37)">предс<tspan x="23.36" y="0">т</tspan><tspan x="27.34" y="0">ави</tspan><tspan x="41.48" y="0">т</tspan><tspan x="45.21" y="0">ель</tspan></text>
  </g>
</svg>
