<svg id="Главная" xmlns="http://www.w3.org/2000/svg" width="119.5" height="119.5" viewBox="0 0 119.5 119.5">
  <defs>
    <style>
      .cls-1 {
        fill: none;
        stroke: #363636;
        stroke-miterlimit: 10;
        stroke-width: 1.5px;
      }
    </style>
  </defs>
  <title>svg_02</title>
  <g>
    <circle class="cls-1" cx="59.75" cy="59.75" r="59"/>
    <path class="cls-1" d="M359,1852.43H311a16.89,16.89,0,0,0,12.45,16.28,14.62,14.62,0,0,0,9.9,5.57v7.21a11.57,11.57,0,0,1-11.57,11.57v4h26.45v-4a11.57,11.57,0,0,1-11.57-11.57v-7.21a14.62,14.62,0,0,0,9.9-5.57h0A16.89,16.89,0,0,0,359,1852.43Zm-44.5,3h5.87v4.32a14.53,14.53,0,0,0,.74,4.56l0.08,0.26C317.13,1862.46,314.5,1859.16,314.5,1855.43Zm34.39,8.9a14.54,14.54,0,0,0,.74-4.58v-4.32h5.87c0,3.73-2.63,7-6.68,9.13A2,2,0,0,1,348.89,1864.33Z" transform="translate(-275.25 -1811.35)"/>
  </g>
</svg>
