<svg id="Главная" xmlns="http://www.w3.org/2000/svg" width="119.5" height="119.5" viewBox="0 0 119.5 119.5">
  <defs>
    <style>
      .cls-1 {
        fill: none;
        stroke: #363636;
        stroke-miterlimit: 10;
        stroke-width: 1.5px;
      }
    </style>
  </defs>
  <title>svg_03</title>
  <g>
    <circle class="cls-1" cx="59.75" cy="59.75" r="59"/>
    <g>
      <path class="cls-1" d="M640.15,1890.47s8.35,0.11,8.35-7.11h0a25.35,25.35,0,0,1-1.22-7.64,10.74,10.74,0,0,1-2.45,2,15.91,15.91,0,0,1-9,0,12.52,12.52,0,0,1-2.88-2.43c-0.09,2.67-.39,6-1.24,8.08h0C631.8,1890.58,640.15,1890.47,640.15,1890.47Z" transform="translate(-580.39 -1811.35)"/>
      <path class="cls-1" d="M660.3,1887.69c-2.08-1.15-11.17-4.12-11.77-4.31h0c0,7.22-8.35,7.11-8.35,7.11s-8.35.11-8.35-7.11h0c-0.6.2-9.69,3.16-11.77,4.31s-3.58,2.55-3.58,4.94c0,0.84,5.52,6.57,24,6.57s23.5-5.74,23.5-6.57C663.88,1890.23,662.44,1888.88,660.3,1887.69Z" transform="translate(-580.39 -1811.35)"/>
      <path class="cls-1" d="M653.91,1859.92a1.61,1.61,0,0,0-1.45.36,6.94,6.94,0,0,1-1.85,2.69c1.08-2.46-.12-9-1.68-10.22a7.42,7.42,0,0,1-2.16-3.15c-0.6,1.84-10.22,1.59-13.4,3.09a7.38,7.38,0,0,0-4.33,5.77,12.14,12.14,0,0,0,.54,4.93,26.2,26.2,0,0,1-1.6-3.27,1.49,1.49,0,0,0-1.22-.21c-1.45.43-1,6.68,2.69,7.59h0a33.38,33.38,0,0,0,.78,4.24,16.55,16.55,0,0,0,2.78,3.56,12.52,12.52,0,0,0,2.88,2.43,15.91,15.91,0,0,0,9,0,10.74,10.74,0,0,0,2.45-2,18.39,18.39,0,0,0,3.21-4,33.37,33.37,0,0,0,.78-4.26C654.9,1866.51,655.58,1860.41,653.91,1859.92Z" transform="translate(-580.39 -1811.35)"/>
      <path class="cls-1" d="M647.54,1846.14s-0.78-2.77-8.36-3.13c-6.95-.33-15.88,5.55-11.22,17.11a26.2,26.2,0,0,0,1.6,3.27,12.14,12.14,0,0,1-.54-4.93,7.38,7.38,0,0,1,4.33-5.77c3.19-1.5,12.8-1.26,13.4-3.09a7.42,7.42,0,0,0,2.16,3.15c1.56,1.26,2.77,7.75,1.68,10.22a6.94,6.94,0,0,0,1.85-2.69,9,9,0,0,0,.43-1.34C653.56,1856.18,653.68,1845.18,647.54,1846.14Z" transform="translate(-580.39 -1811.35)"/>
    </g>
  </g>
</svg>
