<svg id="Главная" xmlns="http://www.w3.org/2000/svg" xmlns:xlink="http://www.w3.org/1999/xlink" width="119.5" height="119.5" viewBox="0 0 119.5 119.5">
  <defs>
    <style>
      .cls-1 {
        fill: none;
        stroke: #363636;
        stroke-miterlimit: 10;
        stroke-width: 1.5px;
      }

      .cls-2 {
        clip-path: url(#clip-path);
      }
    </style>
    <clipPath id="clip-path" transform="translate(-886.62 -1811.35)">
      <circle class="cls-1" cx="946.56" cy="1866.72" r="21.54" transform="translate(-439.82 298.74) rotate(-14.59)"/>
    </clipPath>
  </defs>
  <title>svg_04</title>
  <g>
    <circle class="cls-1" cx="59.75" cy="59.75" r="59"/>
    <g>
      <g>
        <circle class="cls-1" cx="946.56" cy="1866.72" r="21.54" transform="translate(-1326.44 -1512.61) rotate(-14.59)"/>
        <path class="cls-1" d="M925.72,1872.15l41.7-10.86" transform="translate(-886.62 -1811.35)"/>
        <path class="cls-1" d="M941.14,1845.88l10.86,41.7" transform="translate(-886.62 -1811.35)"/>
        <g>
          <g class="cls-2">
            <circle class="cls-1" cx="939.08" cy="1837.99" r="21.54" transform="translate(-1319.44 -1515.42) rotate(-14.59)"/>
            <circle class="cls-1" cx="954.04" cy="1895.46" r="21.54" transform="translate(-1333.44 -1509.8) rotate(-14.59)"/>
          </g>
          <circle class="cls-1" cx="946.56" cy="1866.72" r="21.54" transform="translate(-1326.44 -1512.61) rotate(-14.59)"/>
        </g>
      </g>
      <path class="cls-1" d="M946,1892c-0.28,4.86-2.68,6.92-7.92,6.92V1902h16.17v-3.07c-5.25,0-7.64-2.06-7.92-6.93H946Z" transform="translate(-886.62 -1811.35)"/>
      <path class="cls-1" d="M956.83,1889.24a24.76,24.76,0,1,1-11.07-46.9" transform="translate(-886.62 -1811.35)"/>
    </g>
  </g>
</svg>
