<?xml version="1.0" encoding="utf-8"?>
<!-- Generator: Adobe Illustrator 21.0.0, SVG Export Plug-In . SVG Version: 6.00 Build 0)  -->
<svg version="1.1" xmlns="http://www.w3.org/2000/svg" xmlns:xlink="http://www.w3.org/1999/xlink" x="0px" y="0px"
	 viewBox="0 0 1366 768" style="enable-background:new 0 0 1366 768;" xml:space="preserve">
<style type="text/css">
	.st0{opacity:0.32;fill:#F2D231;}
	.st1{opacity:0.65;fill:#FFFFFF;}
	.st2{opacity:0.29;fill:#F2D231;}
	.st3{opacity:0.14;fill:#F2D231;}
	.st4{opacity:0.18;fill:#FFFFFF;}
	.st5{opacity:0.22;fill:#FFFFFF;}
	.st6{opacity:0.48;fill:#FFFFFF;}
	.st7{opacity:0.24;fill:#F2D231;}
	.st8{opacity:0.42;fill:#F2D231;}
	.st9{opacity:0.23;fill:#F2D231;}
	.st10{opacity:0.27;fill:#F7F7F5;}
	.st11{opacity:0.15;fill:#F7F7F5;}
	.st12{opacity:0.29;fill:#F7F7F5;}
	.st13{opacity:0.31;fill:#F7F7F5;}
	.st14{opacity:0.73;fill:#F7F7F5;}
	.st15{opacity:0.5;fill:#F2D231;}
	.st16{opacity:0.25;fill:#F2D231;}
	.st17{opacity:0.33;fill:#F2D231;}
	.st18{opacity:0.23;fill:#F2F2F2;}
	.st19{opacity:0.35;fill:#F2F2F2;}
	.st20{opacity:0.25;fill:#F2F2F2;}
	.st21{opacity:0.74;fill:#F2F2F2;}
	.st22{opacity:0.45;fill:#F2F2F2;}
	.st23{opacity:0.48;fill:#F2D231;}
	.st24{opacity:0.4;fill:#F2D231;}
	.st25{opacity:0.47;fill:#F2D231;}
	.st26{opacity:0.36;fill:#F2D231;}
	.st27{opacity:0.17;fill:#FFFFFF;}
	.st28{opacity:0.2;fill:#FFFFFF;}
	.st29{opacity:0.21;fill:#FFFFFF;}
	.st30{opacity:0.21;fill:#F2D231;}
	.st31{opacity:0.24;fill:#FFFFFF;}
	.st32{opacity:0.23;fill:#FFFFFF;}
	.st33{opacity:0.28;fill:#F2D231;}
	.st34{opacity:0.19;fill:#F2D231;}
	.st35{opacity:0.34;fill:#F4F4F4;}
	.st36{opacity:0.15;fill:#F4F4F4;}
	.st37{opacity:0.32;}
	.st38{fill:#F2D231;}
	.st39{opacity:0.26;fill:#F2D231;}
	.st40{opacity:0.25;fill:#F4F4F4;}
	.st41{opacity:0.2;fill:#F4F4F4;}
	.st42{opacity:0.23;fill:#F4F4F4;}
	.st43{opacity:0.46;fill:#F4F4F4;}
	.st44{opacity:0.64;fill:#F4F4F4;}
	.st45{opacity:0.47;fill:#F4F4F4;}
	.st46{opacity:0.6;fill:#F2D231;}
	.st47{opacity:0.34;fill:#F2D231;}
</style>
<g id="Слой_1_xA0_Изображение_1_">
	
		<image style="overflow:visible;" width="1366" height="768" id="Слой_1_xA0_Изображение" xlink:href="CE4E9BE9B7985CCD.png" >
	</image>
</g>
<g id="Слой_3">
	<circle class="st0" cx="922.4" cy="58.9" r="2"/>
	<circle class="st1" cx="752.6" cy="38.6" r="1"/>
	<circle class="st0" cx="782.6" cy="251.5" r="1"/>
	<circle class="st2" cx="842.2" cy="285.7" r="1"/>
	<circle class="st3" cx="989.3" cy="284.5" r="1"/>
	<circle class="st4" cx="938.2" cy="258.8" r="1.2"/>
	<circle class="st5" cx="1035.7" cy="138.7" r="1.8"/>
	<circle class="st6" cx="1124.3" cy="98.2" r="0.9"/>
	<circle class="st7" cx="1286.3" cy="64.4" r="2.3"/>
	<circle class="st8" cx="1330.1" cy="159.5" r="1"/>
	<circle class="st9" cx="1313.6" cy="253.7" r="1"/>
	<circle class="st10" cx="799.5" cy="444.4" r="1.9"/>
	<circle class="st11" cx="750.9" cy="495.5" r="1.1"/>
	<circle class="st12" cx="850.8" cy="375.9" r="1.2"/>
	<circle class="st13" cx="1193.2" cy="317.8" r="1.8"/>
	<circle class="st14" cx="1102.1" cy="348.1" r="1"/>
	<circle class="st15" cx="1210.5" cy="401.5" r="1.1"/>
	<circle class="st16" cx="1313.6" cy="397.6" r="1.1"/>
	<circle class="st17" cx="1366" cy="345.4" r="2.4"/>
	<circle class="st0" cx="1293.6" cy="542.4" r="1.1"/>
	<circle class="st18" cx="1304.8" cy="516.3" r="1.4"/>
	<circle class="st19" cx="1284.7" cy="691.4" r="2.3"/>
	<circle class="st20" cx="1144.7" cy="529.6" r="1.1"/>
	<circle class="st21" cx="1101.5" cy="572" r="0.9"/>
	<circle class="st22" cx="989.3" cy="485.5" r="1.2"/>
	<circle class="st23" cx="820.4" cy="658.1" r="1.1"/>
	<circle class="st24" cx="1025.3" cy="633.2" r="1.8"/>
	<circle class="st25" cx="1100" cy="527.6" r="0.9"/>
	<circle class="st26" cx="1127" cy="484.8" r="1.4"/>
</g>
<g id="STARS">
	<circle class="st27" cx="27.9" cy="136.8" r="2.4"/>
	<circle class="st27" cx="82.5" cy="172.3" r="1.3"/>
	<circle class="st17" cx="22.4" cy="208.5" r="1.2"/>
	<circle class="st28" cx="65.5" cy="288.4" r="1.1"/>
	<circle class="st28" cx="0.2" cy="306.2" r="1.1"/>
	
		<ellipse transform="matrix(5.152687e-02 -0.9987 0.9987 5.152687e-02 4.0785 297.789)" class="st7" cx="158.8" cy="146.7" rx="2.1" ry="2.1"/>
	<circle class="st9" cx="192" cy="149.7" r="1"/>
	<circle class="st29" cx="175.8" cy="184.3" r="1"/>
	<circle class="st30" cx="32.4" cy="395.7" r="1"/>
	<circle class="st31" cx="114.2" cy="475" r="1.2"/>
	<circle class="st32" cx="64.7" cy="476.7" r="0.9"/>
	<circle class="st33" cx="34.3" cy="541.1" r="1.2"/>
	<circle class="st0" cx="31.7" cy="564.6" r="2.6"/>
	<circle class="st34" cx="190.3" cy="548" r="1"/>
	<circle class="st16" cx="157.8" cy="555.7" r="1"/>
	<circle class="st35" cx="177.4" cy="717.7" r="2.4"/>
	<circle class="st36" cx="350.6" cy="578.1" r="1.8"/>
	<g class="st37">
		
			<image style="overflow:visible;opacity:0.76;" width="335" height="336" xlink:href="CE4E9BE9B7985CCF.png"  transform="matrix(1 0 0 1 225 470)">
		</image>
		<g>
			<circle class="st38" cx="392.4" cy="637.9" r="2.2"/>
		</g>
	</g>
	<circle class="st39" cx="360.8" cy="257.4" r="1"/>
	<circle class="st40" cx="506.4" cy="34.2" r="2.4"/>
	<circle class="st41" cx="436.9" cy="203.6" r="1.8"/>
	<circle class="st42" cx="565.3" cy="257.3" r="1"/>
	<circle class="st42" cx="583.2" cy="301.8" r="0.8"/>
	<circle class="st43" cx="613.1" cy="304.3" r="0.9"/>
	<circle class="st0" cx="649.5" cy="111.1" r="0.8"/>
	<circle class="st44" cx="485.9" cy="424.9" r="0.9"/>
	<circle class="st45" cx="532.9" cy="605.1" r="1"/>
	<circle class="st46" cx="546.1" cy="688.9" r="0.8"/>
	<circle class="st47" cx="543.9" cy="482.4" r="1.2"/>
	<circle class="st2" cx="677.1" cy="723.1" r="2.4"/>
</g>
</svg>
