<svg id="Слой_1" data-name="Слой 1" xmlns="http://www.w3.org/2000/svg" viewBox="0 0 29.84999 29.85">
  <defs>
    <style>
      .cls-1 {
        fill: #f5d030;
        stroke: #fff;
        stroke-miterlimit: 10;
        stroke-width: 0.25px;
      }
    </style>
  </defs>
  <title>instagram_hover</title>
  <g id="Слой_1-2" data-name="Слой 1-2">
    <path class="cls-1" d="M14.925,2.825c3.9,0,4.4,0,6,.1,4,0.2,5.9,2.1,6,6,0.1,1.6.1,2,.1,6,0,3.9,0,4.4-.1,6-0.2,4-2,5.9-6,6-1.6.1-2,.1-6,0.1-3.9,0-4.4,0-6-.1-4-.2-5.9-2.1-6-6-0.1-1.6-.1-2-0.1-6,0-3.9,0-4.4.1-6,0.2-4,2-5.9,6-6C10.525,2.825,11.025,2.825,14.925,2.825Zm0-2.7c-4,0-4.5,0-6.1.1-5.4.2-8.3,3.2-8.6,8.6-0.1,1.6-.1,2.1-0.1,6.1s0,4.5.1,6.1c0.2,5.4,3.2,8.3,8.6,8.6,1.6,0.1,2.1.1,6.1,0.1s4.5,0,6.1-.1c5.4-.2,8.3-3.2,8.6-8.6,0.1-1.6.1-2.1,0.1-6.1s0-4.5-.1-6.1c-0.2-5.4-3.2-8.3-8.6-8.6C19.425,0.225,18.925.125,14.925,0.125Zm0,7.2a7.6,7.6,0,1,0,7.6,7.6h0a7.59663,7.59663,0,0,0-7.59326-7.6H14.925Zm0,12.5a4.9,4.9,0,1,1,4.9-4.9,4.84482,4.84482,0,0,1-4.789,4.9Q14.98049,19.82563,14.925,19.825Zm7.9-14.5a1.8,1.8,0,1,0,1.8,1.8,1.73261,1.73261,0,0,0-1.66249-1.8Q22.89378,5.32227,22.825,5.325Z"/>
  </g>
</svg>
