<svg id="Слой_1" data-name="Слой 1" xmlns="http://www.w3.org/2000/svg" viewBox="0 0 94.59999 127.40499">
  <defs>
    <style>
      .cls-1 {
        fill: #fff;
      }

      .cls-2 {
        fill: #f4d030;
      }
    </style>
  </defs>
  <title>logo_home</title>
  <g>
    <path class="cls-1" d="M545.59959,157.43854h-2.9v-13.4h11.2v9.5h-1.4l1.5,3.9h-2.9l-1.6-3.9h-3.9v3.9h0Zm5.4-6.3v-4.6h-5.4v4.6h5.4Z" transform="translate(-542.6996 -30.13354)"/>
    <path class="cls-1" d="M556.29959,146.93854h9.6v10.5h-9.6v-6.7h6.9v-1.6h-6.9v-2.2Zm2.7,6.1v2.2h4.3v-2.2h-4.3Z" transform="translate(-542.6996 -30.13354)"/>
    <path class="cls-1" d="M577.79959,157.43854h-9.6v-10.5h6.9v-2.9h2.7v13.4h0Zm-2.7-2.2v-6h-4.2v6h4.2Z" transform="translate(-542.6996 -30.13354)"/>
    <path class="cls-1" d="M580.09959,146.93854h9.6v10.5h-9.6v-6.7h6.9v-1.6h-6.9v-2.2Zm2.7,6.1v2.2h4.3v-2.2h-4.3Z" transform="translate(-542.6996 -30.13354)"/>
    <path class="cls-1" d="M594.6996,149.23853v6h4.3v-1.5h2.7v3.8h-9.6v-10.5h9.6v3.8h-2.8v-1.5h-4.2v-0.1Z" transform="translate(-542.6996 -30.13354)"/>
    <path class="cls-1" d="M613.4996,157.43854h-9.6v-10.5h9.6v10.5Zm-6.9-8.2v6h4.3v-6h-4.3Z" transform="translate(-542.6996 -30.13354)"/>
    <path class="cls-1" d="M625.3996,157.43854h-9.6v-10.5h6.9v-2.9h2.7v13.4h0Zm-2.7-2.2v-6h-4.3v6h4.3Z" transform="translate(-542.6996 -30.13354)"/>
    <path class="cls-1" d="M637.29959,157.43854h-9.6v-10.5h9.6v6.5h-6.9v1.7h6.9v2.3Zm-2.6-6.2v-2h-4.3v2h4.3Z" transform="translate(-542.6996 -30.13354)"/>
    <g>
      <rect class="cls-2" x="562.77411" y="85.83571" width="28.69972" height="6.29994" transform="translate(-436.58628 404.01804) rotate(-45)"/>
      <rect class="cls-2" x="588.47392" y="60.11796" width="28.69972" height="6.29994" transform="translate(-410.87378 414.658) rotate(-45)"/>
      <rect class="cls-2" x="591.29017" y="44.31768" width="13.29988" height="6.29994" transform="translate(-401.1317 406.57692) rotate(-45)"/>
      <rect class="cls-2" x="611.99883" y="65.15659" width="13.29988" height="6.29994" transform="translate(-409.8016 427.32373) rotate(-45)"/>
      <rect class="cls-2" x="554.69057" y="80.93619" width="13.29988" height="6.29994" transform="translate(-437.74466 391.42241) rotate(-45)"/>
      <rect class="cls-2" x="575.35761" y="101.6337" width="13.29988" height="6.29994" transform="translate(-446.32678 412.09838) rotate(-45)"/>
      <rect class="cls-2" x="558.20726" y="61.65085" width="6.29994" height="13.29988" transform="translate(-426.57782 386.81081) rotate(-45)"/>
      <rect class="cls-2" x="578.86345" y="40.84231" width="6.29994" height="13.29988" transform="translate(-405.8139 395.32226) rotate(-45)"/>
      <rect class="cls-2" x="594.78437" y="98.10914" width="6.29994" height="13.29988" transform="translate(-441.64454 423.35311) rotate(-45)"/>
      <rect class="cls-2" x="615.48197" y="77.442" width="6.29994" height="13.29988" transform="translate(-420.96848 431.93526) rotate(-45)"/>
      <rect class="cls-2" x="599.68268" y="74.62684" width="6.29994" height="28.69972" transform="translate(-429.05003 422.19419) rotate(-45)"/>
      <rect class="cls-2" x="573.96504" y="48.92703" width="6.29994" height="28.69973" transform="translate(-418.41005 396.48178) rotate(-45)"/>
      <rect class="cls-2" x="536.66565" y="52.22703" width="65.09936" height="6.29994" transform="translate(-415.13774 388.58203) rotate(-45)"/>
      <rect class="cls-2" x="578.33136" y="93.82664" width="65.09938" height="6.29994" transform="translate(-432.3495 430.22839) rotate(-45)"/>
      <rect class="cls-2" x="566.09841" y="64.45997" width="6.29994" height="65.09937" transform="translate(-444.5668 400.79933) rotate(-45)"/>
      <rect class="cls-2" x="607.57836" y="22.95633" width="6.29994" height="64.99937" transform="translate(-403.03474 417.9593) rotate(-45)"/>
    </g>
  </g>
</svg>
