<?xml version="1.0" encoding="utf-8"?>
<!-- Generator: Adobe Illustrator 21.0.0, SVG Export Plug-In . SVG Version: 6.00 Build 0)  -->
<svg version="1.1" id="Layer_1" xmlns="http://www.w3.org/2000/svg" xmlns:xlink="http://www.w3.org/1999/xlink" x="0px" y="0px"
	 viewBox="0 0 156.9 156.9" style="enable-background:new 0 0 156.9 156.9;" xml:space="preserve">
<style type="text/css">
	.st0{fill:#F5D030;}
</style>
<g>
	
		<rect x="51.4" y="75.8" transform="matrix(0.7071 0.7071 -0.7071 0.7071 87.2997 -10.8653)" class="st0" width="10.7" height="48.3"/>
	
		<rect x="94.6" y="32.6" transform="matrix(0.7071 0.7071 -0.7071 0.7071 69.4117 -54.0508)" class="st0" width="10.7" height="48.3"/>
	
		<rect x="86.3" y="19" transform="matrix(0.7071 0.7071 -0.7071 0.7071 48.1759 -55.9918)" class="st0" width="10.7" height="22.4"/>
	
		<rect x="121.2" y="53.8" transform="matrix(0.7071 0.7071 -0.7071 0.7071 83.0571 -70.4347)" class="st0" width="10.7" height="22.4"/>
	
		<rect x="24.8" y="80.5" transform="matrix(0.7071 0.7071 -0.7071 0.7071 73.6562 5.5232)" class="st0" width="10.7" height="22.4"/>
	
		<rect x="59.7" y="115.4" transform="matrix(0.7071 0.7071 -0.7071 0.7071 108.5374 -8.9197)" class="st0" width="10.7" height="22.4"/>
	
		<rect x="24.8" y="53.8" transform="matrix(0.7071 -0.7071 0.7071 0.7071 -37.1553 40.3727)" class="st0" width="10.7" height="22.4"/>
	<rect x="59.7" y="19" transform="matrix(0.7071 -0.7071 0.7071 0.7071 -2.2779 54.8247)" class="st0" width="10.7" height="22.4"/>
	
		<rect x="86.3" y="115.3" transform="matrix(0.7071 -0.7071 0.7071 0.7071 -62.6357 101.8877)" class="st0" width="10.7" height="22.4"/>
	
		<rect x="121.2" y="80.5" transform="matrix(0.7071 -0.7071 0.7071 0.7071 -27.7583 116.3398)" class="st0" width="10.7" height="22.4"/>
	
		<rect x="94.6" y="75.8" transform="matrix(0.7071 -0.7071 0.7071 0.7071 -41.3985 99.9499)" class="st0" width="10.7" height="48.3"/>
	
		<rect x="51.4" y="32.6" transform="matrix(0.7071 -0.7071 0.7071 0.7071 -23.5105 56.7644)" class="st0" width="10.7" height="48.3"/>
	
		<rect x="38.2" y="-11.2" transform="matrix(0.7071 0.7071 -0.7071 0.7071 43.4764 -18.0106)" class="st0" width="10.7" height="109.4"/>
	
		<rect x="108" y="58.6" transform="matrix(0.7071 0.7071 -0.7071 0.7071 113.3045 -46.9343)" class="st0" width="10.7" height="109.4"/>
	
		<rect x="38.2" y="58.6" transform="matrix(0.7071 -0.7071 0.7071 0.7071 -67.383 63.93)" class="st0" width="10.7" height="109.4"/>
	
		<rect x="108" y="-11.2" transform="matrix(0.7071 -0.7071 0.7071 0.7071 2.4461 92.8515)" class="st0" width="10.7" height="109.4"/>
</g>
</svg>
