<?xml version="1.0" encoding="utf-8"?>
<!-- Generator: Adobe Illustrator 21.0.0, SVG Export Plug-In . SVG Version: 6.00 Build 0)  -->
<svg version="1.1" id="Слой_1" xmlns="http://www.w3.org/2000/svg" xmlns:xlink="http://www.w3.org/1999/xlink" x="0px" y="0px"
	 viewBox="0 0 1000 1000" style="enable-background:new 0 0 1000 1000;" xml:space="preserve">
<style type="text/css">
	.st0{fill:none;stroke:#2A1232;stroke-width:80;stroke-miterlimit:10;}
	.st1{fill:#682B7B;}
	.st2{fill:#FCFDFD;}
	.st3{fill:#FFFFFF;}
	.st4{fill:none;stroke:#FCFDFD;stroke-width:2;stroke-miterlimit:10;}
	.st5{enable-background:new    ;}
</style>
<g>
	
		<rect x="196.6" y="200.4" transform="matrix(0.7071 -0.7071 0.7071 0.7071 -209.3017 499.9464)" class="st0" width="604.4" height="604.4"/>
	<polygon class="st1" points="812.9,559.2 812.9,188.5 442.1,188.5 227.6,403 227.6,602.1 399.3,773.8 598.4,773.8 	"/>
	<path class="st2" d="M268.6,608c0-10.2,6.9-17.4,16.6-17.4s16.3,7.2,16.3,17.4c0,10-6.4,17.4-16.6,17.4
		C275.3,625.4,268.6,617.9,268.6,608z"/>
	<path class="st2" d="M332.5,622.4V435.8h26.3l59.8,94.4c13.8,21.9,24.6,41.5,33.5,60.6l0.6-0.3c-2.2-24.9-2.8-47.6-2.8-76.7v-78
		h22.7v186.5h-24.4L389,527.7c-13-20.8-25.5-42.1-34.9-62.3l-0.8,0.3c1.4,23.5,1.9,45.9,1.9,76.9v79.7H332.5z"/>
	<path class="st2" d="M611.2,534.9h-72.5v67.2h80.8v20.2H514.6V435.8h100.7V456h-76.7V515h72.5V534.9z"/>
	<path class="st2" d="M690.6,456.3h-56.7v-20.5H772v20.5h-57v166h-24.4V456.3z"/>
	<path class="st3" d="M391.1,381.1c-0.5-9.8-1.1-21.6-1-30.3h-0.3c-2.4,8.2-5.3,17-8.9,26.7l-12.4,34.1h-6.9l-11.4-33.4
		c-3.3-9.9-6.1-19-8.1-27.3H342c-0.2,8.8-0.7,20.5-1.4,31l-1.9,30.1h-8.6l4.9-70.2h11.6l12,34c2.9,8.6,5.3,16.4,7.1,23.6h0.3
		c1.8-7.1,4.3-14.8,7.4-23.6l12.5-34h11.6l4.4,70.2h-8.9L391.1,381.1z"/>
	<path class="st3" d="M426.9,347.4c0.1,3.1-2.2,5.6-5.8,5.6c-3.2,0-5.5-2.5-5.5-5.6c0-3.2,2.4-5.7,5.7-5.7
		C424.7,341.7,426.9,344.2,426.9,347.4z M416.7,412v-50.4h9.2V412H416.7z"/>
	<path class="st3" d="M477,410.1c-2.4,1.2-7.7,2.9-14.5,2.9c-15.2,0-25.1-10.3-25.1-25.7c0-15.5,10.6-26.8,27.1-26.8
		c5.4,0,10.2,1.4,12.7,2.6l-2.1,7.1c-2.2-1.2-5.6-2.4-10.6-2.4c-11.6,0-17.8,8.5-17.8,19.1c0,11.7,7.5,18.9,17.5,18.9
		c5.2,0,8.6-1.4,11.3-2.5L477,410.1z"/>
	<path class="st3" d="M487.7,377.3c0-5.9-0.1-11-0.4-15.7h8l0.3,9.9h0.4c2.3-6.8,7.8-11,14-11c1,0,1.8,0.1,2.6,0.3v8.6
		c-0.9-0.2-1.9-0.3-3.1-0.3c-6.5,0-11,4.9-12.3,11.8c-0.2,1.2-0.4,2.7-0.4,4.3V412h-9.1V377.3z"/>
	<path class="st3" d="M566.4,386.3c0,18.6-12.9,26.8-25.1,26.8c-13.6,0-24.2-10-24.2-25.9c0-16.9,11-26.8,25-26.8
		C556.6,360.4,566.4,370.9,566.4,386.3z M526.4,386.9c0,11,6.4,19.4,15.3,19.4c8.8,0,15.3-8.2,15.3-19.6c0-8.5-4.3-19.4-15.1-19.4
		S526.4,377.3,526.4,386.9z"/>
	<path class="st3" d="M576.7,402.6c2.7,1.8,7.5,3.6,12.1,3.6c6.7,0,9.8-3.3,9.8-7.5c0-4.4-2.6-6.8-9.4-9.3
		c-9.1-3.2-13.3-8.2-13.3-14.3c0-8.1,6.6-14.8,17.4-14.8c5.1,0,9.6,1.5,12.4,3.1l-2.3,6.7c-2-1.2-5.6-2.9-10.3-2.9
		c-5.4,0-8.4,3.1-8.4,6.9c0,4.2,3,6,9.6,8.5c8.8,3.3,13.2,7.7,13.2,15.2c0,8.9-6.9,15.1-18.9,15.1c-5.5,0-10.6-1.4-14.2-3.4
		L576.7,402.6z"/>
	<path class="st3" d="M664.8,386.3c0,18.6-12.9,26.8-25.1,26.8c-13.6,0-24.2-10-24.2-25.9c0-16.9,11-26.8,25-26.8
		C655,360.4,664.8,370.9,664.8,386.3z M624.8,386.9c0,11,6.4,19.4,15.3,19.4c8.8,0,15.3-8.2,15.3-19.6c0-8.5-4.3-19.4-15.1-19.4
		S624.8,377.3,624.8,386.9z"/>
	<path class="st3" d="M677.3,412v-43.4h-7.1v-7h7.1v-2.4c0-7.1,1.6-13.5,5.8-17.6c3.4-3.3,8-4.7,12.3-4.7c3.2,0,6,0.7,7.8,1.5
		l-1.2,7.1c-1.4-0.6-3.2-1.1-5.8-1.1c-7.8,0-9.8,6.9-9.8,14.6v2.7h12.2v7h-12.2V412H677.3z"/>
	<path class="st3" d="M719,347.1v14.5h13.1v7H719v27.2c0,6.3,1.8,9.8,6.9,9.8c2.4,0,4.2-0.3,5.3-0.6l0.4,6.9
		c-1.8,0.7-4.6,1.2-8.1,1.2c-4.3,0-7.7-1.4-9.9-3.9c-2.6-2.7-3.5-7.2-3.5-13.1v-27.5h-7.8v-7h7.8v-12.1L719,347.1z"/>
	<circle class="st4" cx="750.4" cy="365.5" r="13.9"/>
	<g class="st5">
		<path class="st3" d="M745.2,356.5c1.2-0.2,2.9-0.4,4.5-0.4c2.5,0,4.1,0.5,5.3,1.5c0.9,0.8,1.4,2.1,1.4,3.5c0,2.4-1.5,4-3.4,4.7
			v0.1c1.4,0.5,2.2,1.8,2.7,3.7c0.6,2.5,1,4.3,1.4,5h-2.4c-0.3-0.5-0.7-2.1-1.2-4.4c-0.5-2.5-1.5-3.5-3.6-3.5h-2.2v7.9h-2.4V356.5z
			 M747.5,364.8h2.4c2.5,0,4.1-1.4,4.1-3.5c0-2.4-1.7-3.4-4.2-3.4c-1.1,0-1.9,0.1-2.3,0.2V364.8z"/>
	</g>
</g>
</svg>
