<?xml version="1.0" encoding="utf-8"?>
<!-- Generator: Adobe Illustrator 21.0.0, SVG Export Plug-In . SVG Version: 6.00 Build 0)  -->
<svg version="1.1" xmlns="http://www.w3.org/2000/svg" xmlns:xlink="http://www.w3.org/1999/xlink" x="0px" y="0px"
	 viewBox="0 0 1000 1000" style="enable-background:new 0 0 1000 1000;" xml:space="preserve">
<style type="text/css">
	.st0{display:none;}
	.st1{display:inline;stroke:#B57918;stroke-miterlimit:10;}
	.st2{display:inline;fill:none;stroke:#32250E;stroke-width:80;stroke-miterlimit:10;}
	.st3{display:inline;fill-rule:evenodd;clip-rule:evenodd;fill:none;stroke:#C6C6C6;stroke-width:14;stroke-miterlimit:10;}
	.st4{display:inline;fill-rule:evenodd;clip-rule:evenodd;stroke:#C6C6C6;stroke-width:14;stroke-miterlimit:10;}
	.st5{display:inline;fill:none;stroke:#C6C6C6;stroke-width:14;stroke-miterlimit:10;}
	.st6{display:inline;fill-rule:evenodd;clip-rule:evenodd;fill:#757575;}
	.st7{display:inline;fill-rule:evenodd;clip-rule:evenodd;fill:#FFF35F;}
	.st8{display:inline;fill-rule:evenodd;clip-rule:evenodd;fill:#FFFA99;}
	.st9{display:inline;}
	.st10{fill-rule:evenodd;clip-rule:evenodd;fill:#939393;}
	.st11{display:inline;fill-rule:evenodd;clip-rule:evenodd;fill:none;stroke:#000000;stroke-miterlimit:10;}
	.st12{display:inline;fill:#C4C4C4;}
	.st13{display:inline;fill:#111111;}
	.st14{display:inline;fill:none;stroke:#989895;stroke-miterlimit:10;}
	.st15{display:inline;fill:#989895;}
	.st16{fill-rule:evenodd;clip-rule:evenodd;fill:#7F7F7F;}
	.st17{fill-rule:evenodd;clip-rule:evenodd;fill:#A8A8A8;}
	.st18{fill-rule:evenodd;clip-rule:evenodd;fill:#6F6F6F;}
	.st19{fill-rule:evenodd;clip-rule:evenodd;fill:#111111;}
	.st20{display:inline;fill:#6ED5F9;}
	.st21{fill-rule:evenodd;clip-rule:evenodd;fill:#383838;}
	.st22{fill-rule:evenodd;clip-rule:evenodd;fill:#99C45A;}
	.st23{fill-rule:evenodd;clip-rule:evenodd;fill:#557230;}
	.st24{fill-rule:evenodd;clip-rule:evenodd;fill:#BABABA;}
	.st25{fill-rule:evenodd;clip-rule:evenodd;fill:#484848;}
	.st26{fill-rule:evenodd;clip-rule:evenodd;fill:#E44646;}
	.st27{fill-rule:evenodd;clip-rule:evenodd;fill:#EA9B1F;}
	.st28{fill-rule:evenodd;clip-rule:evenodd;fill:#DCDCDC;}
	.st29{display:inline;fill:none;stroke:#411B30;stroke-width:80;stroke-miterlimit:10;}
	.st30{fill-rule:evenodd;clip-rule:evenodd;fill:#949494;}
	.st31{fill-rule:evenodd;clip-rule:evenodd;fill:#FFFFFF;}
	.st32{fill-rule:evenodd;clip-rule:evenodd;fill:#26B552;}
	.st33{fill-rule:evenodd;clip-rule:evenodd;fill:#E84523;}
	.st34{fill-rule:evenodd;clip-rule:evenodd;fill:#FF9D00;}
	.st35{fill-rule:evenodd;clip-rule:evenodd;fill:#D1D1D1;}
	.st36{fill-rule:evenodd;clip-rule:evenodd;fill:#E5936B;}
	.st37{fill-rule:evenodd;clip-rule:evenodd;fill:#7B6488;}
	.st38{fill-rule:evenodd;clip-rule:evenodd;fill:#555555;}
	.st39{fill-rule:evenodd;clip-rule:evenodd;fill:#44B759;}
	.st40{fill-rule:evenodd;clip-rule:evenodd;fill:#53B6D9;}
	.st41{fill:none;stroke:#192814;stroke-width:80;stroke-miterlimit:10;}
	.st42{fill-rule:evenodd;clip-rule:evenodd;fill:#EBEBEB;}
	.st43{fill-rule:evenodd;clip-rule:evenodd;fill:#1F1F1F;}
	.st44{fill-rule:evenodd;clip-rule:evenodd;fill:none;stroke:#60605F;stroke-width:3;stroke-miterlimit:10;}
	.st45{fill-rule:evenodd;clip-rule:evenodd;fill:#17436C;}
	.st46{fill-rule:evenodd;clip-rule:evenodd;fill:#121463;}
	.st47{fill-rule:evenodd;clip-rule:evenodd;fill:#FF1205;}
	.st48{fill-rule:evenodd;clip-rule:evenodd;fill:#FFAD0C;}
	.st49{fill-rule:evenodd;clip-rule:evenodd;fill:#0C3595;}
	.st50{fill-rule:evenodd;clip-rule:evenodd;fill:#F7A013;}
	.st51{fill-rule:evenodd;clip-rule:evenodd;fill:#FDD063;}
	.st52{fill-rule:evenodd;clip-rule:evenodd;fill:#9E7C2B;}
	.st53{fill-rule:evenodd;clip-rule:evenodd;fill:#F8DD5C;}
	.st54{fill:#EEB42C;}
	.st55{fill:#F3B22F;}
	.st56{font-family:'Seravek';}
	.st57{font-size:114.0442px;}
	.st58{display:inline;fill:none;stroke:#1C2D46;stroke-width:80;stroke-miterlimit:10;}
	.st59{display:inline;fill:#A1CEDC;}
	.st60{display:inline;fill:#CDD7D9;}
	.st61{display:inline;fill:#B2CDD9;}
	.st62{fill:none;stroke:#2A1232;stroke-width:80;stroke-miterlimit:10;}
	.st63{fill:#682B7B;}
	.st64{fill:#FCFDFD;}
	.st65{font-family:'MyriadPro-Regular';}
	.st66{font-size:276.735px;}
	.st67{fill:#FFFFFF;}
	.st68{font-size:104.1773px;}
	.st69{fill:none;stroke:#FCFDFD;stroke-width:2;stroke-miterlimit:10;}
	.st70{font-size:27.0319px;}
</style>
<g id="Слой_2" class="st0">
	<rect x="-0.5" y="-0.5" class="st1" width="1060" height="1000"/>
</g>
<g id="Слой_1">
	<g class="st0">
		
			<rect x="196.5" y="206.9" transform="matrix(0.7071 0.7071 -0.7071 0.7071 506.0365 -203.5017)" class="st2" width="604.4" height="604.4"/>
		<path class="st3" d="M669.7,577.3v-78.7c0,0-1.7-43.5,45.1-43.5c67.5,0,96.1,0,96.1,0"/>
		<path class="st3" d="M919.7,333v78.7c0,0,1.7,43.8-45.1,43.5c-42-0.2-63.7-0.2-63.7-0.2"/>
		<path class="st3" d="M797.5,156.1h78.7c0,0,43.8-1.7,43.5,45.1c-0.2,42-0.2,131.8-0.2,131.8"/>
		<path class="st3" d="M507.6,555.3V380.2c0,0,1.7-33.4-45.1-33.4s-46.8,0-46.8,0"/>
		<path class="st3" d="M559.9,566.1V337.7c0,0-1.7-33.4,45.1-33.4c46.8,0,46.8,0,46.8,0"/>
		<circle class="st4" cx="764" cy="304.3" r="108.2"/>
		<circle class="st4" cx="541.8" cy="157" r="101.5"/>
		<circle class="st4" cx="313.1" cy="339.6" r="108.1"/>
		<line class="st5" x1="639.1" y1="156.1" x2="797.5" y2="156.1"/>
		<path class="st6" d="M777.4,357.7h-24c-3.2,0-5.8,2.6-5.8,5.8v5.6c0,3.2,2.6,5.8,5.8,5.8h2.4c1.1,3.4,5,6,9.6,6
			c4.6,0,8.5-2.6,9.6-6h2.4c3.2,0,5.8-2.6,5.8-5.8v-5.6C783.2,360.4,780.6,357.7,777.4,357.7z"/>
		<path class="st7" d="M766.1,270.2c-19.1,0-34.5,14.2-34.5,31.7c0,10.6,5.5,23.8,12.7,32.3c2.4,2.9,3.6,7.9,4.3,12.4
			c1,6.5,13,5.9,17.5,5.9c4,0,16.2,1.3,17.1-5.9c0.7-5.9,3.2-11.7,5.8-15c6-7.7,11.7-19.7,11.7-29.7
			C800.6,284.4,785.2,270.2,766.1,270.2z M755.1,292.9c-9,9.5-8.2,22.8-8.2,22.8s-10-13.8,1.5-27.2c11.5-13.4,28.6-4.5,28.6-4.5
			S764.1,283.4,755.1,292.9z"/>
		<path class="st8" d="M765.6,256.8L765.6,256.8c-3.2,0-5.8-2.6-5.8-5.8v-17.6c0-3.2,2.6-5.8,5.8-5.8l0,0c3.2,0,5.8,2.6,5.8,5.8V251
			C771.4,254.2,768.8,256.8,765.6,256.8z"/>
		<path class="st8" d="M799.6,271.5L799.6,271.5c-2.3-2.3-2.3-5.9,0-8.2l12.5-12.5c2.3-2.3,5.9-2.3,8.2,0v0c2.3,2.3,2.3,5.9,0,8.2
			l-12.5,12.5C805.6,273.7,801.9,273.7,799.6,271.5z"/>
		<path class="st8" d="M732.6,270.6L732.6,270.6c-2.3,2.3-5.9,2.3-8.2,0l-12.5-12.5c-2.3-2.3-2.3-5.9,0-8.2h0c2.3-2.3,5.9-2.3,8.2,0
			l12.5,12.5C734.8,264.6,734.8,268.3,732.6,270.6z"/>
		<path class="st8" d="M718.1,304.3L718.1,304.3c0,3.2-2.6,5.8-5.8,5.8h-17.6c-3.2,0-5.8-2.6-5.8-5.8l0,0c0-3.2,2.6-5.8,5.8-5.8
			h17.6C715.5,298.5,718.1,301.1,718.1,304.3z"/>
		<path class="st8" d="M839.2,304.3L839.2,304.3c0,3.2-2.6,5.8-5.8,5.8h-17.6c-3.2,0-5.8-2.6-5.8-5.8l0,0c0-3.2,2.6-5.8,5.8-5.8
			h17.6C836.6,298.5,839.2,301.1,839.2,304.3z"/>
		<g id="Прямоугольник_x2C__скругл._углы_1_4_" class="st9">
			<g>
				<path class="st10" d="M765,509.1H418.6c-7,0-12.7,5.7-12.7,12.7v236.3c0,7,5.7,12.7,12.7,12.7H765c7,0,12.7-5.7,12.7-12.7V521.8
					C777.7,514.8,772,509.1,765,509.1z"/>
			</g>
		</g>
		<path class="st11" d="M362.6,288.2"/>
		<path class="st12" d="M344.4,416.5h-65.1c-4.5,0-8.2-3.7-8.2-8.2V275.9c0-4.5,3.7-8.2,8.2-8.2h65.1c4.5,0,8.2,3.7,8.2,8.2v132.4
			C352.6,412.8,348.9,416.5,344.4,416.5z"/>
		<rect x="276.9" y="285.1" class="st13" width="69.7" height="104"/>
		<circle class="st14" cx="311.8" cy="402.8" r="8.3"/>
		<path class="st15" d="M318.7,278.3h-13.8c-0.7,0-1.2-0.5-1.2-1.2v-0.5c0-0.7,0.5-1.2,1.2-1.2h13.8c0.7,0,1.2,0.5,1.2,1.2v0.5
			C319.9,277.8,319.4,278.3,318.7,278.3z"/>
		<g id="Прямоугольник_x2C__скругл._углы_3_3_" class="st9">
			<g>
				<path class="st16" d="M815.8,826.7H361c-4.2,0-7.6,3.4-7.6,7.6v5.9c0,4.2,3.4,7.6,7.6,7.6h454.8c4.2,0,7.6-3.4,7.6-7.6v-5.9
					C823.4,830.1,820,826.7,815.8,826.7z"/>
			</g>
		</g>
		<g id="Прямоугольник_x2C__скругл._углы_2_4_" class="st9">
			<g>
				<path class="st17" d="M822.6,829.2l-36.4-52.5c-3.8-6.1-7.4-12.7-14.4-12.7H411.8c-7,0-10,6.9-14.4,12.7l-41.5,52.5
					c-2.2,3.7-3.5,8.5,2.5,8.5l449.7-0.8C815.2,836.8,824.5,834.8,822.6,829.2z"/>
			</g>
		</g>
		<g id="Прямоугольник_x2C__скругл._углы_4_3_" class="st9">
			<g>
				<path class="st18" d="M685.4,807.6c0-2.1-1.9-3.8-4.2-3.8H497.4c-2.3,0-4.2,1.7-4.2,3.8l-9.3,22.9c0,2.1,1.9,3.8,4.2,3.8h200.7
					c2.3,0,4.2-1.7,4.2-3.8L685.4,807.6z"/>
			</g>
		</g>
		<g id="Прямоугольник_1_4_" class="st9">
			<g>
				<rect x="416.4" y="526.9" class="st19" width="350.7" height="218.5"/>
			</g>
		</g>
		<path class="st20" d="M597.6,145.7c-1.2-21.8-20.5-39-43.4-37.1C546.9,100.3,536,95,523.9,95c-21.4,0-38.8,16.5-40,37.2
			c-13.7,2.4-24.2,14.2-24.2,28.4c0,15.9,13.2,28.9,29.4,28.9h9c5.2,8.1,14.3,13.5,24.8,13.5h69.5c16.2,0,29.4-12.9,29.4-28.9
			C621.8,159.9,611.3,148.1,597.6,145.7z M493.7,176h-4.5c-8.8,0-15.9-6.9-15.9-15.4c0-14.3,14.2-17.5,23.5-17
			c-0.3-9.2,0.9-35.2,27.1-35.2c6.5,0,11.6,1.7,15.5,4.3c-12.3,6.2-20.9,18.5-21.7,32.9C504,148.1,492.7,160,493.7,176z"/>
		<g id="Прямоугольник_x2C__скругл._углы_5_3_" class="st9">
			<g>
				<path class="st21" d="M763.3,769.9c-1.3-2.2-1.9-4.2-4.2-4.2H422.8c-2.1,0.1-3,2.4-4.2,4.2l-16.9,25.4c0,2.3,1.9,4.2,4.2,4.2
					H776c2.3,0,4.2-1.9,4.2-4.2L763.3,769.9z"/>
			</g>
		</g>
		<g class="st9">
			<g id="Прямоугольник_x2C__скругл._углы_1_1_">
				<g>
					<path class="st22" d="M682.6,582.7l-36.2-36.1c-1.4-1.4-4.4-4.7-4.5-4.7c-0.1,0-4.1,4-5.5,5.4l-139,139
						c-1.5,1.5-5.4,5.4-5.3,5.4c0.1,0,3.3,3.4,4.5,4.7l36.2,36.1c2.6,2.6,7.1,2.2,10.1-0.7l139-139
						C684.9,589.8,685.2,585.3,682.6,582.7z"/>
				</g>
			</g>
			<g id="Прямоугольник_3_копия_1_">
				<g>
					
						<rect x="514" y="672.4" transform="matrix(0.7072 -0.7071 0.7071 0.7072 -334.51 567.0485)" class="st23" width="6.7" height="29.9"/>
				</g>
			</g>
			<g id="Прямоугольник_3_копия_3_1_">
				<g>
					
						<rect x="548.1" y="638.3" transform="matrix(0.7072 -0.7071 0.7071 0.7072 -300.4177 581.1741)" class="st23" width="6.7" height="29.9"/>
				</g>
			</g>
			<g id="Прямоугольник_3_копия_7_9_">
				<g>
					
						<rect x="616.3" y="570.1" transform="matrix(0.7072 -0.7071 0.7071 0.7072 -232.2329 609.4363)" class="st23" width="6.7" height="29.9"/>
				</g>
			</g>
			<g id="Прямоугольник_3_копия_7_7_">
				<g>
					<polygon class="st23" points="595.4,588.2 590.7,592.9 621.6,624.3 626.3,619.6 					"/>
				</g>
			</g>
			<g id="Прямоугольник_3_копия_7_5_">
				<g>
					<polygon class="st23" points="561.3,622.7 556.6,627.5 587.6,658.9 592.3,654.2 					"/>
				</g>
			</g>
			<g id="Прямоугольник_3_копия_7_3_">
				<g>
					<polygon class="st23" points="527.4,656.4 522.7,661.1 553.6,692.5 558.4,687.8 					"/>
				</g>
			</g>
			<g id="Прямоугольник_3_копия_7_1_">
				<g>
					<polygon class="st23" points="629.7,554.4 625,559.1 655.9,590.5 660.6,585.8 					"/>
				</g>
			</g>
			<g id="Прямоугольник_3_копия_5_1_">
				<g>
					
						<rect x="582.2" y="604.2" transform="matrix(0.7072 -0.7071 0.7071 0.7072 -266.3258 595.3108)" class="st23" width="6.7" height="29.9"/>
				</g>
			</g>
		</g>
		<g class="st9">
			<g id="Фигура_1_1_">
				<g>
					<path class="st24" d="M571.9,577c-5.8-2.7-60-26.2-60-26.2s-6.2-3-3.5,2.9s27.3,59.5,27.3,59.5s0.3,2.5,5.7,7.8
						c0.7,0.7,37.5-38.7,37.5-38.7S577.7,579.7,571.9,577z"/>
				</g>
			</g>
			<g id="Фигура_1_копия_1_">
				<g>
					<path class="st25" d="M511.6,550.5c0,0-5.8-3-3.5,2.9c2.4,5.9,11.4,24.9,11.4,24.9s6.9-1.4,11.4-5.5c4.3-4,5.8-11.6,5.7-11.6
						C531.1,558.8,511.6,550.5,511.6,550.5z"/>
				</g>
			</g>
			<g id="Прямоугольник_x2C__скругл._углы_2_1_">
				<g>
					<path class="st26" d="M688.4,690.9l-22.3-22.3c-3.2-3.2-8.1-3.6-10.8-0.9l-28.4,28.4c-2.7,2.7-2.3,7.6,0.9,10.8l22.3,22.3
						c3.2,3.2,8.1,3.6,10.8,0.9l28.4-28.4C692,698.9,691.6,694.1,688.4,690.9z"/>
				</g>
			</g>
			<g id="Прямоугольник_2_1_">
				<g>
					
						<rect x="576.3" y="580.6" transform="matrix(0.7072 -0.7071 0.7071 0.7072 -278.9744 615.3917)" class="st27" width="54.2" height="127.7"/>
				</g>
			</g>
			<g id="Прямоугольник_1_1_">
				<g>
					
						<rect x="621.3" y="684.3" transform="matrix(0.7072 -0.7071 0.7071 0.7072 -297.7917 661.1741)" class="st28" width="56" height="11.6"/>
				</g>
			</g>
		</g>
	</g>
	<g class="st0">
		
			<rect x="193.7" y="207.4" transform="matrix(0.7071 0.7071 -0.7071 0.7071 505.5252 -201.3663)" class="st29" width="604.4" height="604.4"/>
		<g id="Фигура_1" class="st9">
			<g>
				<path class="st30" d="M704.5,779.1c-5.4-4.8-25.3,4.2-27.5-21.3c-2.3-25.5-5.8-63.9-5.8-63.9H527.8c0,0-4.1,57-5.8,67.8
					c-1.8,10.7-16.7,13.3-29,17.4c-0.5,0.2-4.3,6,9.7,5.8c14-0.2,193.6,0,193.6,0S708.4,782.6,704.5,779.1z"/>
			</g>
		</g>
		<g id="Прямоугольник_x2C__скругл._углы_1" class="st9">
			<g>
				<path class="st18" d="M944.2,196.2H252.9c-10.7,0-19.4,8.7-19.4,19.4v462.8c0,10.7,8.7,19.4,19.4,19.4h691.3
					c10.7,0,19.4-8.7,19.4-19.4V215.6C963.5,204.9,954.9,196.2,944.2,196.2z"/>
			</g>
		</g>
		<g id="Прямоугольник_1" class="st9">
			<g>
				<rect x="262.6" y="225.3" class="st31" width="673.9" height="377.6"/>
			</g>
		</g>
		<g id="Эллипс_3" class="st9">
			<g>
				<ellipse class="st32" cx="320.7" cy="254.3" rx="8" ry="7.7"/>
			</g>
		</g>
		<g id="Эллипс_3_копия" class="st9">
			<g>
				<ellipse class="st33" cx="291.9" cy="254.3" rx="8" ry="7.7"/>
			</g>
		</g>
		<g id="Эллипс_3_копия_2" class="st9">
			<g>
				<ellipse class="st34" cx="349.4" cy="254.3" rx="8" ry="7.7"/>
			</g>
		</g>
		<g id="Прямоугольник_x2C__скругл._углы_6" class="st9">
			<g>
				<path class="st35" d="M721.5,238.8h-244c-5.3,0-9.7,4.3-9.7,9.7v7.7c0,5.3,4.3,9.7,9.7,9.7h244c5.3,0,9.7-4.3,9.7-9.7v-7.7
					C731.2,243.2,726.8,238.8,721.5,238.8z"/>
			</g>
		</g>
		<g id="Прямоугольник_x2C__скругл._углы_6_копия" class="st9">
			<g>
				<path class="st35" d="M857,238.8h-17.4c-5.3,0-9.7,4.3-9.7,9.7v7.7c0,5.3,4.3,9.7,9.7,9.7H857c5.3,0,9.7-4.3,9.7-9.7v-7.7
					C866.7,243.2,862.4,238.8,857,238.8z"/>
			</g>
		</g>
		<g id="Прямоугольник_x2C__скругл._углы_6_копия_2" class="st9">
			<g>
				<path class="st35" d="M857,238.8h-17.4c-5.3,0-9.7,4.3-9.7,9.7v7.7c0,5.3,4.3,9.7,9.7,9.7H857c5.3,0,9.7-4.3,9.7-9.7v-7.7
					C866.7,243.2,862.4,238.8,857,238.8z"/>
			</g>
		</g>
		<g id="Прямоугольник_2" class="st9">
			<g>
				<rect x="287.7" y="291.1" class="st36" width="174.3" height="174.3"/>
			</g>
		</g>
		<g id="Прямоугольник_3" class="st9">
			<g>
				<rect x="287.7" y="480.9" class="st37" width="371.8" height="104.6"/>
			</g>
		</g>
		<g id="Прямоугольник_4" class="st9">
			<g>
				<rect x="481.4" y="291.1" class="st18" width="296.3" height="7.7"/>
			</g>
		</g>
		<g id="Прямоугольник_4_копия" class="st9">
			<g>
				<rect x="481.4" y="310.5" class="st18" width="296.3" height="7.7"/>
			</g>
		</g>
		<g id="Прямоугольник_4_копия_2" class="st9">
			<g>
				<rect x="481.4" y="329.9" class="st18" width="257.5" height="7.7"/>
			</g>
		</g>
		<g id="Прямоугольник_4_копия_3" class="st9">
			<g>
				<rect x="481.4" y="349.2" class="st18" width="296.3" height="7.7"/>
			</g>
		</g>
		<g id="Прямоугольник_4_копия_4" class="st9">
			<g>
				<rect x="481.4" y="368.6" class="st18" width="257.5" height="7.7"/>
			</g>
		</g>
		<g id="Прямоугольник_4_копия_5" class="st9">
			<g>
				<rect x="481.4" y="387.9" class="st18" width="275" height="7.7"/>
			</g>
		</g>
		<g id="Прямоугольник_4_копия_6" class="st9">
			<g>
				<rect x="481.4" y="407.3" class="st18" width="236.2" height="7.7"/>
			</g>
		</g>
		<g id="Прямоугольник_4_копия_7" class="st9">
			<g>
				<rect x="520.1" y="426.7" class="st18" width="168.5" height="7.7"/>
			</g>
		</g>
		<g id="Прямоугольник_4_копия_9" class="st9">
			<g>
				<rect x="520.1" y="248.5" class="st38" width="168.5" height="7.7"/>
			</g>
		</g>
		<g id="Прямоугольник_4_копия_8" class="st9">
			<g>
				<rect x="481.4" y="446" class="st18" width="249.8" height="7.7"/>
			</g>
		</g>
		<g id="Прямоугольник_5" class="st9">
			<g>
				<rect x="798.9" y="291.1" class="st39" width="116.2" height="102.6"/>
			</g>
		</g>
		<g id="Прямоугольник_6" class="st9">
			<g>
				<rect x="669.2" y="480.9" class="st40" width="92.9" height="104.6"/>
			</g>
		</g>
		<g id="Прямоугольник_x2C__скругл._углы_5" class="st9">
			<g>
				<path class="st18" d="M1015.8,415.1H758.3c-10.7,0-19.4,8.7-19.4,19.4v381.5c0,10.7,8.7,19.4,19.4,19.4h257.5
					c10.7,0,19.4-8.7,19.4-19.4V434.4C1035.2,423.7,1026.5,415.1,1015.8,415.1z"/>
			</g>
		</g>
		<g id="Эллипс_1" class="st9">
			<g>
				<ellipse class="st30" cx="887.4" cy="818.5" rx="9.2" ry="9.2"/>
			</g>
		</g>
		<g id="Прямоугольник_1_5_" class="st9">
			<g>
				<rect x="756" y="452.5" class="st31" width="262.1" height="347.3"/>
			</g>
		</g>
		<g id="Эллипс_3_1_" class="st9">
			<g>
				<ellipse class="st32" cx="320.7" cy="254.3" rx="8" ry="7.7"/>
			</g>
		</g>
		<g id="Эллипс_3_копия_1_" class="st9">
			<g>
				<ellipse class="st33" cx="291.9" cy="254.3" rx="8" ry="7.7"/>
			</g>
		</g>
		<g id="Эллипс_3_копия_2_1_" class="st9">
			<g>
				<ellipse class="st34" cx="349.4" cy="254.3" rx="8" ry="7.7"/>
			</g>
		</g>
		<g id="Прямоугольник_x2C__скругл._углы_6_1_" class="st9">
			<g>
				<path class="st35" d="M953.8,463.5H797c-4.3,0-7.7,3.5-7.7,7.7v1.9c0,4.3,3.5,7.7,7.7,7.7h156.8c4.3,0,7.7-3.5,7.7-7.7v-1.9
					C961.6,466.9,958.1,463.5,953.8,463.5z"/>
			</g>
		</g>
		<g id="Прямоугольник_x2C__скругл._углы_6_копия_2_1_" class="st9">
			<g>
				<path class="st35" d="M1000.3,463.5h-7.7c-4.3,0-7.7,3.5-7.7,7.7v1.9c0,4.3,3.5,7.7,7.7,7.7h7.7c4.3,0,7.7-3.5,7.7-7.7v-1.9
					C1008.1,466.9,1004.6,463.5,1000.3,463.5z"/>
			</g>
		</g>
		<g id="Прямоугольник_2_3_" class="st9">
			<g>
				<rect x="771.8" y="498.3" class="st36" width="109.9" height="110.1"/>
			</g>
		</g>
		<g id="Прямоугольник_3_1_" class="st9">
			<g>
				<rect x="771.8" y="618.2" class="st37" width="234.5" height="66"/>
			</g>
		</g>
		<g id="Прямоугольник_4_1_" class="st9">
			<g>
				<rect x="893.8" y="498.3" class="st18" width="114.4" height="4.9"/>
			</g>
		</g>
		<g id="Прямоугольник_4_копия_1_" class="st9">
			<g>
				<rect x="893.8" y="510.5" class="st18" width="114.4" height="4.9"/>
			</g>
		</g>
		<g id="Прямоугольник_4_копия_2_1_" class="st9">
			<g>
				<rect x="893.8" y="522.8" class="st18" width="99.5" height="4.9"/>
			</g>
		</g>
		<g id="Прямоугольник_4_копия_3_1_" class="st9">
			<g>
				<rect x="893.8" y="535" class="st18" width="114.4" height="4.9"/>
			</g>
		</g>
		<g id="Прямоугольник_4_копия_10" class="st9">
			<g>
				<path class="st18" d="M839.6,697.8v4.8h85.2v-4.8H839.6z M913.7,709.9h-74.1v4.8h74.1V709.9z M839.6,726.8h85.2V722h-85.2V726.8
					z"/>
			</g>
		</g>
		<g id="Прямоугольник_4_копия_4_1_" class="st9">
			<g>
				<rect x="893.8" y="547.2" class="st18" width="99.5" height="4.9"/>
			</g>
		</g>
		<g id="Прямоугольник_4_копия_12" class="st9">
			<g>
				<rect x="839.6" y="771.3" class="st18" width="83.3" height="5.8"/>
			</g>
		</g>
		<g id="Прямоугольник_4_копия_13" class="st9">
			<g>
				<rect x="839.6" y="783" class="st18" width="83.3" height="5.8"/>
			</g>
		</g>
		<g id="Прямоугольник_4_копия_5_1_" class="st9">
			<g>
				<rect x="893.8" y="559.5" class="st18" width="106.2" height="4.9"/>
			</g>
		</g>
		<g id="Прямоугольник_4_копия_6_1_" class="st9">
			<g>
				<rect x="893.8" y="571.7" class="st18" width="91.3" height="4.9"/>
			</g>
		</g>
		<g id="Прямоугольник_4_копия_11" class="st9">
			<g>
				<path class="st18" d="M910.3,734.6h-70.7v4.8h70.7V734.6z M839.6,746.7v4.8h75.5v-4.8H839.6z M839.6,763.6h64.9v-4.8h-64.9
					V763.6z"/>
			</g>
		</g>
		<g id="Прямоугольник_4_копия_7_1_" class="st9">
			<g>
				<rect x="908.8" y="583.9" class="st18" width="65.1" height="4.9"/>
			</g>
		</g>
		<g id="Прямоугольник_4_копия_8_1_" class="st9">
			<g>
				<rect x="893.8" y="596.2" class="st18" width="96.5" height="4.9"/>
			</g>
		</g>
		<g id="Прямоугольник_5_1_" class="st9">
			<g>
				<rect x="932.9" y="694.2" class="st39" width="73.2" height="95"/>
			</g>
		</g>
		<g id="Прямоугольник_6_1_" class="st9">
			<g>
				<rect x="771.8" y="693.9" class="st40" width="58.6" height="96.8"/>
			</g>
		</g>
	</g>
	<g id="Слой_3" class="st0">
		<g class="st9">
			
				<rect x="196.7" y="207.4" transform="matrix(0.7071 0.7071 -0.7071 0.7071 506.4039 -203.4876)" class="st41" width="604.4" height="604.4"/>
			<g id="Rounded_Rectangle_1">
				<g>
					<path class="st42" d="M835.3,138.4H546.1c-19.8,0-35.8,16-35.8,35.8v661.5c0,19.8,16,35.8,35.8,35.8h289.1
						c19.8,0,35.8-16,35.8-35.8V174.2C871.1,154.4,855,138.4,835.3,138.4z"/>
				</g>
			</g>
			<g id="Rectangle_1">
				<g>
					<rect x="533.9" y="221.5" class="st19" width="317.7" height="565.4"/>
				</g>
			</g>
			<g id="Rounded_Rectangle_2">
				<g>
					<path class="st43" d="M714.4,178.6h-44.6c-1.5,0-2.7,1.2-2.7,2.7v2.9c0,1.5,1.2,2.7,2.7,2.7h44.6c1.5,0,2.7-1.2,2.7-2.7v-2.9
						C717.1,179.8,715.9,178.6,714.4,178.6z"/>
				</g>
			</g>
			<g id="Ellipse_2">
				<g>
					<ellipse class="st43" cx="643.5" cy="182.7" rx="6.9" ry="6.9"/>
				</g>
			</g>
			<circle class="st44" cx="689.7" cy="827.3" r="24.1"/>
			<g id="Rounded_Rectangle_1_1_">
				<g>
					<path class="st45" d="M727.9,294.1H262.4c-19.8,0-35.8,16-35.8,35.8v260.5c0,19.8,16,35.8,35.8,35.8h465.5
						c19.8,0,35.8-16,35.8-35.8V329.9C763.7,310.2,747.6,294.1,727.9,294.1z"/>
				</g>
			</g>
			<g id="Rectangle_1_copy">
				<g>
					<rect x="664.2" y="500.7" class="st46" width="75.6" height="48.5"/>
				</g>
			</g>
			<g id="Ellipse_1_1_">
				<g>
					<ellipse class="st47" cx="688.9" cy="526.1" rx="20.7" ry="20.7"/>
				</g>
			</g>
			<g id="Ellipse_1_copy">
				<g>
					<ellipse class="st48" cx="715.9" cy="526.1" rx="20.7" ry="20.7"/>
				</g>
			</g>
			<g id="Rounded_Rectangle_3">
				<g>
					<path class="st31" d="M727.9,520.5h-52.5c-3.1,0-5.6,2.5-5.6,5.6c0,3.1,2.5,5.6,5.6,5.6h52.5c3.1,0,5.6-2.5,5.6-5.6
						C733.4,523,730.9,520.5,727.9,520.5z"/>
				</g>
			</g>
			<g id="Rounded_Rectangle_3_copy_5">
				<g>
					<path class="st31" d="M427.2,487.2h-55.1c-3.5,0-6.3,2.8-6.3,6.3v9.7c0,3.5,2.8,6.3,6.3,6.3h55.1c3.5,0,6.3-2.8,6.3-6.3v-9.7
						C433.5,490,430.7,487.2,427.2,487.2z"/>
				</g>
			</g>
			<g id="Rounded_Rectangle_3_copy_7">
				<g>
					<path class="st31" d="M516.3,487.2h-55.1c-3.5,0-6.3,2.8-6.3,6.3v9.7c0,3.5,2.8,6.3,6.3,6.3h55.1c3.5,0,6.3-2.8,6.3-6.3v-9.7
						C522.6,490,519.8,487.2,516.3,487.2z"/>
				</g>
			</g>
			<g id="Rounded_Rectangle_3_copy_8">
				<g>
					<path class="st31" d="M606.2,487.2h-55.1c-3.5,0-6.3,2.8-6.3,6.3v9.7c0,3.5,2.8,6.3,6.3,6.3h55.1c3.5,0,6.3-2.8,6.3-6.3v-9.7
						C612.5,490,609.7,487.2,606.2,487.2z"/>
				</g>
			</g>
			<g id="Rounded_Rectangle_3_copy_6">
				<g>
					<path class="st31" d="M337.3,487.2h-55.1c-3.5,0-6.3,2.8-6.3,6.3v9.7c0,3.5,2.8,6.3,6.3,6.3h55.1c3.5,0,6.3-2.8,6.3-6.3v-9.7
						C343.5,490,340.7,487.2,337.3,487.2z"/>
				</g>
			</g>
			<g id="Rounded_Rectangle_3_copy_9">
				<g>
					<path class="st31" d="M323.8,530.1h-41.6c-3.5,0-6.3,2.8-6.3,6.3v8.9c0,3.5,2.8,6.3,6.3,6.3h41.6c3.5,0,6.3-2.8,6.3-6.3v-8.9
						C330,532.9,327.2,530.1,323.8,530.1z"/>
				</g>
			</g>
			<g id="Rounded_Rectangle_3_copy_10">
				<g>
					<path class="st31" d="M348.4,572.2h-66.2c-3.5,0-6.3,2.8-6.3,6.3v3.4c0,3.5,2.8,6.3,6.3,6.3h66.2c3.5,0,6.3-2.8,6.3-6.3v-3.4
						C354.7,575,351.9,572.2,348.4,572.2z"/>
				</g>
			</g>
			<g id="Rounded_Rectangle_3_copy_11">
				<g>
					<path class="st31" d="M488.5,572.2H369.7c-3.5,0-6.3,2.8-6.3,6.3v3.4c0,3.5,2.8,6.3,6.3,6.3h118.8c3.5,0,6.3-2.8,6.3-6.3v-3.4
						C494.7,575,491.9,572.2,488.5,572.2z"/>
				</g>
			</g>
			<g id="Rounded_Rectangle_4">
				<g>
					<path class="st31" d="M581.6,328.3H457.1c-6.9,0-12.5,5.6-12.5,12.5v5.1c0,6.9,5.6,12.5,12.5,12.5h124.5
						c6.9,0,12.5-5.6,12.5-12.5v-5.1C594.2,333.9,588.6,328.3,581.6,328.3z"/>
				</g>
			</g>
			<g id="Rounded_Rectangle_4_copy">
				<g>
					<path class="st31" d="M703.4,328.3h-83.1c-6.9,0-12.5,5.6-12.5,12.5v5.1c0,6.9,5.6,12.5,12.5,12.5h83.1
						c6.9,0,12.5-5.6,12.5-12.5v-5.1C715.9,333.9,710.3,328.3,703.4,328.3z"/>
				</g>
			</g>
			<g id="Rectangle_1_1_">
				<g>
					<rect x="664.2" y="550.7" class="st31" width="75.6" height="48.5"/>
				</g>
			</g>
			<g id="Rectangle_2">
				<g>
					<rect x="667.4" y="555.5" class="st49" width="68.4" height="9.5"/>
				</g>
			</g>
			<g id="Rectangle_2_copy">
				<g>
					<rect x="667.4" y="585.7" class="st50" width="68.4" height="9.5"/>
				</g>
			</g>
			<g id="Rounded_Rectangle_3_copy">
				<g>
					<path class="st49" d="M683.7,569c-3.3,0-6,2.7-6,6v1.6c0,3.3,2.7,6,6,6c3.3,0,6-2.7,6-6V575C689.7,571.7,687,569,683.7,569z"/>
				</g>
			</g>
			<g id="Rounded_Rectangle_3_copy_2">
				<g>
					<path class="st49" d="M696.9,569c-3.3,0-6,2.7-6,6v1.6c0,3.3,2.7,6,6,6c3.3,0,6-2.7,6-6V575C702.9,571.7,700.2,569,696.9,569z"
						/>
				</g>
			</g>
			<g id="Rounded_Rectangle_3_copy_3">
				<g>
					<path class="st49" d="M710.2,569c-3.3,0-6,2.7-6,6v1.6c0,3.3,2.7,6,6,6c3.3,0,6-2.7,6-6V575C716.2,571.7,713.5,569,710.2,569z"
						/>
				</g>
			</g>
			<g id="Rounded_Rectangle_3_copy_4">
				<g>
					<path class="st49" d="M723.5,569c-3.3,0-6,2.7-6,6v1.6c0,3.3,2.7,6,6,6c3.3,0,6-2.7,6-6V575C729.4,571.7,726.8,569,723.5,569z"
						/>
				</g>
			</g>
			<g id="Rounded_Rectangle_2_1_">
				<g>
					<path class="st51" d="M354.1,385.5h-66.4c-6.9,0-12.5,5.6-12.5,12.5v48.8c0,6.9,5.6,12.5,12.5,12.5h66.4
						c6.9,0,12.5-5.6,12.5-12.5V398C366.6,391.1,361,385.5,354.1,385.5z"/>
				</g>
			</g>
			<g id="Shape_1">
				<g>
					<rect x="305.4" y="385.5" class="st52" width="0.8" height="73.9"/>
				</g>
			</g>
			<g id="Shape_1_copy">
				<g>
					<rect x="338" y="413" class="st52" width="0.8" height="46.4"/>
				</g>
			</g>
			<g id="Shape_1_copy_3">
				<g>
					<rect x="275.1" y="430.8" class="st52" width="30.2" height="0.8"/>
				</g>
			</g>
			<g id="Shape_1_copy_5">
				<g>
					<rect x="338" y="430.3" class="st52" width="28.6" height="0.8"/>
				</g>
			</g>
			<g id="Shape_1_copy_7">
				<g>
					<rect x="306.2" y="395.7" class="st52" width="60.5" height="0.8"/>
				</g>
			</g>
			<g id="Shape_1_copy_6">
				<g>
					<rect x="275.1" y="413.3" class="st52" width="30.2" height="0.8"/>
				</g>
			</g>
			<g id="Shape_1_copy_6_1_">
				<g>
					<rect x="338" y="413" class="st52" width="28.6" height="0.8"/>
				</g>
			</g>
			<g id="Shape_1_copy_4">
				<g>
					<rect x="275.1" y="448.2" class="st52" width="91.5" height="0.8"/>
				</g>
			</g>
			<g id="Эллипс_1_2_">
				<g>
					<path class="st53" d="M552,752.8c-44.4,0-80.5-36.1-80.5-80.5s36.1-80.5,80.5-80.5s80.5,36.1,80.5,80.5S596.3,752.8,552,752.8z
						"/>
				</g>
				<g>
					<path class="st54" d="M552,596.8c41.6,0,75.5,33.9,75.5,75.5s-33.9,75.5-75.5,75.5s-75.5-33.9-75.5-75.5S510.3,596.8,552,596.8
						 M552,586.8c-47.2,0-85.5,38.3-85.5,85.5c0,47.2,38.3,85.5,85.5,85.5c47.2,0,85.5-38.3,85.5-85.5
						C637.4,625.1,599.2,586.8,552,586.8L552,586.8z"/>
				</g>
			</g>
			<g id="Эллипс_2">
				<g>
					<path class="st54" d="M552,608.1c35.4,0,64.2,28.8,64.2,64.2s-28.8,64.2-64.2,64.2c-35.4,0-64.2-28.8-64.2-64.2
						S516.5,608.1,552,608.1 M552,603.1c-38.2,0-69.2,31-69.2,69.2s31,69.2,69.2,69.2s69.2-31,69.2-69.2S590.2,603.1,552,603.1
						L552,603.1z"/>
				</g>
			</g>
			<text transform="matrix(1 0 0 1 524.0428 709.431)" class="st55 st56 st57">$</text>
		</g>
	</g>
	<g id="Слой_4" class="st0">
		
			<rect x="196.7" y="207.4" transform="matrix(0.7071 0.7071 -0.7071 0.7071 506.4039 -203.4876)" class="st58" width="604.4" height="604.4"/>
		<path class="st59" d="M874.5,410.7h-455c-14,0-25.5-11.5-25.5-25.5V277.5c0-14,11.5-25.5,25.5-25.5h455c14,0,25.5,11.5,25.5,25.5
			v107.7C900,399.2,888.5,410.7,874.5,410.7z"/>
		<path class="st60" d="M874.5,749.1h-455c-14,0-25.5-11.5-25.5-25.5V616c0-14,11.5-25.5,25.5-25.5h455c14,0,25.5,11.5,25.5,25.5
			v107.7C900,737.7,888.5,749.1,874.5,749.1z"/>
		<path class="st61" d="M874.5,579.9h-455c-14,0-25.5-11.5-25.5-25.5V446.8c0-14,11.5-25.5,25.5-25.5h455c14,0,25.5,11.5,25.5,25.5
			v107.7C900,568.5,888.5,579.9,874.5,579.9z"/>
	</g>
	<g>
		
			<rect x="196.7" y="200.4" transform="matrix(0.7071 0.7071 -0.7071 0.7071 501.4541 -205.5379)" class="st62" width="604.4" height="604.4"/>
		<polygon class="st63" points="812.9,559.2 812.9,188.5 442.1,188.5 227.6,403 227.6,602.1 399.3,773.8 598.4,773.8 		"/>
		<g>
			<text transform="matrix(1 0 0 1 254.2275 622.3661)" class="st64 st65 st66">.NET</text>
		</g>
		<text transform="matrix(1 0 0 1 324.0586 411.9686)" class="st67 st65 st68">Microsoft</text>
		<circle class="st69" cx="750.4" cy="365.5" r="13.9"/>
		<text transform="matrix(1 0 0 1 743.1421 374.5213)" class="st67 st65 st70">R </text>
	</g>
</g>
</svg>
