<?xml version="1.0" encoding="utf-8"?>
<!-- Generator: Adobe Illustrator 21.0.0, SVG Export Plug-In . SVG Version: 6.00 Build 0)  -->
<svg version="1.1" id="Слой_1" xmlns="http://www.w3.org/2000/svg" xmlns:xlink="http://www.w3.org/1999/xlink" x="0px" y="0px"
	 viewBox="0 0 1000 1000" style="enable-background:new 0 0 1000 1000;" xml:space="preserve">
<style type="text/css">
	.st0{fill:none;stroke:#32250E;stroke-width:80;stroke-miterlimit:10;}
	.st1{fill-rule:evenodd;clip-rule:evenodd;fill:none;stroke:#C6C6C6;stroke-width:14;stroke-miterlimit:10;}
	.st2{fill-rule:evenodd;clip-rule:evenodd;stroke:#C6C6C6;stroke-width:14;stroke-miterlimit:10;}
	.st3{fill:none;stroke:#C6C6C6;stroke-width:14;stroke-miterlimit:10;}
	.st4{fill-rule:evenodd;clip-rule:evenodd;fill:#757575;}
	.st5{fill-rule:evenodd;clip-rule:evenodd;fill:#FFF35F;}
	.st6{fill-rule:evenodd;clip-rule:evenodd;fill:#FFFA99;}
	.st7{fill-rule:evenodd;clip-rule:evenodd;fill:#939393;}
	.st8{fill-rule:evenodd;clip-rule:evenodd;fill:none;stroke:#000000;stroke-miterlimit:10;}
	.st9{fill:#C4C4C4;}
	.st10{fill:#111111;}
	.st11{fill:none;stroke:#989895;stroke-miterlimit:10;}
	.st12{fill:#989895;}
	.st13{fill-rule:evenodd;clip-rule:evenodd;fill:#7F7F7F;}
	.st14{fill-rule:evenodd;clip-rule:evenodd;fill:#A8A8A8;}
	.st15{fill-rule:evenodd;clip-rule:evenodd;fill:#6F6F6F;}
	.st16{fill-rule:evenodd;clip-rule:evenodd;fill:#111111;}
	.st17{fill:#6ED5F9;}
	.st18{fill-rule:evenodd;clip-rule:evenodd;fill:#383838;}
	.st19{fill-rule:evenodd;clip-rule:evenodd;fill:#99C45A;}
	.st20{fill-rule:evenodd;clip-rule:evenodd;fill:#557230;}
	.st21{fill-rule:evenodd;clip-rule:evenodd;fill:#BABABA;}
	.st22{fill-rule:evenodd;clip-rule:evenodd;fill:#484848;}
	.st23{fill-rule:evenodd;clip-rule:evenodd;fill:#E44646;}
	.st24{fill-rule:evenodd;clip-rule:evenodd;fill:#EA9B1F;}
	.st25{fill-rule:evenodd;clip-rule:evenodd;fill:#DCDCDC;}
</style>
<g>
	
		<rect x="196.5" y="206.9" transform="matrix(0.7071 0.7071 -0.7071 0.7071 506.0365 -203.5017)" class="st0" width="604.4" height="604.4"/>
	<path class="st1" d="M669.7,577.3v-78.7c0,0-1.7-43.5,45.1-43.5c67.5,0,96.1,0,96.1,0"/>
	<path class="st1" d="M919.7,333v78.7c0,0,1.7,43.8-45.1,43.5c-42-0.2-63.7-0.2-63.7-0.2"/>
	<path class="st1" d="M797.5,156.1h78.7c0,0,43.8-1.7,43.5,45.1c-0.2,42-0.2,131.8-0.2,131.8"/>
	<path class="st1" d="M507.6,555.3V380.2c0,0,1.7-33.4-45.1-33.4s-46.8,0-46.8,0"/>
	<path class="st1" d="M559.9,566.1V337.7c0,0-1.7-33.4,45.1-33.4c46.8,0,46.8,0,46.8,0"/>
	<circle class="st2" cx="764" cy="304.3" r="108.2"/>
	<circle class="st2" cx="541.8" cy="157" r="101.5"/>
	<circle class="st2" cx="313.1" cy="339.6" r="108.1"/>
	<line class="st3" x1="639.1" y1="156.1" x2="797.5" y2="156.1"/>
	<path class="st4" d="M777.4,357.7h-24c-3.2,0-5.8,2.6-5.8,5.8v5.6c0,3.2,2.6,5.8,5.8,5.8h2.4c1.1,3.4,5,6,9.6,6
		c4.6,0,8.5-2.6,9.6-6h2.4c3.2,0,5.8-2.6,5.8-5.8v-5.6C783.2,360.4,780.6,357.7,777.4,357.7z"/>
	<path class="st5" d="M766.1,270.2c-19.1,0-34.5,14.2-34.5,31.7c0,10.6,5.5,23.8,12.7,32.3c2.4,2.9,3.6,7.9,4.3,12.4
		c1,6.5,13,5.9,17.5,5.9c4,0,16.2,1.3,17.1-5.9c0.7-5.9,3.2-11.7,5.8-15c6-7.7,11.7-19.7,11.7-29.7
		C800.6,284.4,785.2,270.2,766.1,270.2z M755.1,292.9c-9,9.5-8.2,22.8-8.2,22.8s-10-13.8,1.5-27.2c11.5-13.4,28.6-4.5,28.6-4.5
		S764.1,283.4,755.1,292.9z"/>
	<path class="st6" d="M765.6,256.8L765.6,256.8c-3.2,0-5.8-2.6-5.8-5.8v-17.6c0-3.2,2.6-5.8,5.8-5.8l0,0c3.2,0,5.8,2.6,5.8,5.8V251
		C771.4,254.2,768.8,256.8,765.6,256.8z"/>
	<path class="st6" d="M799.6,271.5L799.6,271.5c-2.3-2.3-2.3-5.9,0-8.2l12.5-12.5c2.3-2.3,5.9-2.3,8.2,0v0c2.3,2.3,2.3,5.9,0,8.2
		l-12.5,12.5C805.6,273.7,801.9,273.7,799.6,271.5z"/>
	<path class="st6" d="M732.6,270.6L732.6,270.6c-2.3,2.3-5.9,2.3-8.2,0l-12.5-12.5c-2.3-2.3-2.3-5.9,0-8.2h0c2.3-2.3,5.9-2.3,8.2,0
		l12.5,12.5C734.8,264.6,734.8,268.3,732.6,270.6z"/>
	<path class="st6" d="M718.1,304.3L718.1,304.3c0,3.2-2.6,5.8-5.8,5.8h-17.6c-3.2,0-5.8-2.6-5.8-5.8l0,0c0-3.2,2.6-5.8,5.8-5.8h17.6
		C715.5,298.5,718.1,301.1,718.1,304.3z"/>
	<path class="st6" d="M839.2,304.3L839.2,304.3c0,3.2-2.6,5.8-5.8,5.8h-17.6c-3.2,0-5.8-2.6-5.8-5.8l0,0c0-3.2,2.6-5.8,5.8-5.8h17.6
		C836.6,298.5,839.2,301.1,839.2,304.3z"/>
	<g id="Прямоугольник_x2C__скругл._углы_1_4_">
		<g>
			<path class="st7" d="M765,509.1H418.6c-7,0-12.7,5.7-12.7,12.7v236.3c0,7,5.7,12.7,12.7,12.7H765c7,0,12.7-5.7,12.7-12.7V521.8
				C777.7,514.8,772,509.1,765,509.1z"/>
		</g>
	</g>
	<path class="st8" d="M362.6,288.2"/>
	<path class="st9" d="M344.4,416.5h-65.1c-4.5,0-8.2-3.7-8.2-8.2V275.9c0-4.5,3.7-8.2,8.2-8.2h65.1c4.5,0,8.2,3.7,8.2,8.2v132.4
		C352.6,412.8,348.9,416.5,344.4,416.5z"/>
	<rect x="276.9" y="285.1" class="st10" width="69.7" height="104"/>
	<circle class="st11" cx="311.8" cy="402.8" r="8.3"/>
	<path class="st12" d="M318.7,278.3h-13.8c-0.7,0-1.2-0.5-1.2-1.2v-0.5c0-0.7,0.5-1.2,1.2-1.2h13.8c0.7,0,1.2,0.5,1.2,1.2v0.5
		C319.9,277.8,319.4,278.3,318.7,278.3z"/>
	<g id="Прямоугольник_x2C__скругл._углы_3_3_">
		<g>
			<path class="st13" d="M815.8,826.7H361c-4.2,0-7.6,3.4-7.6,7.6v5.9c0,4.2,3.4,7.6,7.6,7.6h454.8c4.2,0,7.6-3.4,7.6-7.6v-5.9
				C823.4,830.1,820,826.7,815.8,826.7z"/>
		</g>
	</g>
	<g id="Прямоугольник_x2C__скругл._углы_2_4_">
		<g>
			<path class="st14" d="M822.6,829.2l-36.4-52.5c-3.8-6.1-7.4-12.7-14.4-12.7H411.8c-7,0-10,6.9-14.4,12.7l-41.5,52.5
				c-2.2,3.7-3.5,8.5,2.5,8.5l449.7-0.8C815.2,836.8,824.5,834.8,822.6,829.2z"/>
		</g>
	</g>
	<g id="Прямоугольник_x2C__скругл._углы_4_3_">
		<g>
			<path class="st15" d="M685.4,807.6c0-2.1-1.9-3.8-4.2-3.8H497.4c-2.3,0-4.2,1.7-4.2,3.8l-9.3,22.9c0,2.1,1.9,3.8,4.2,3.8h200.7
				c2.3,0,4.2-1.7,4.2-3.8L685.4,807.6z"/>
		</g>
	</g>
	<g id="Прямоугольник_1_4_">
		<g>
			<rect x="416.4" y="526.9" class="st16" width="350.7" height="218.5"/>
		</g>
	</g>
	<path class="st17" d="M597.6,145.7c-1.2-21.8-20.5-39-43.4-37.1C546.9,100.3,536,95,523.9,95c-21.4,0-38.8,16.5-40,37.2
		c-13.7,2.4-24.2,14.2-24.2,28.4c0,15.9,13.2,28.9,29.4,28.9h9c5.2,8.1,14.3,13.5,24.8,13.5h69.5c16.2,0,29.4-12.9,29.4-28.9
		C621.8,159.9,611.3,148.1,597.6,145.7z M493.7,176h-4.5c-8.8,0-15.9-6.9-15.9-15.4c0-14.3,14.2-17.5,23.5-17
		c-0.3-9.2,0.9-35.2,27.1-35.2c6.5,0,11.6,1.7,15.5,4.3c-12.3,6.2-20.9,18.5-21.7,32.9C504,148.1,492.7,160,493.7,176z"/>
	<g id="Прямоугольник_x2C__скругл._углы_5_3_">
		<g>
			<path class="st18" d="M763.3,769.9c-1.3-2.2-1.9-4.2-4.2-4.2H422.8c-2.1,0.1-3,2.4-4.2,4.2l-16.9,25.4c0,2.3,1.9,4.2,4.2,4.2H776
				c2.3,0,4.2-1.9,4.2-4.2L763.3,769.9z"/>
		</g>
	</g>
	<g>
		<g id="Прямоугольник_x2C__скругл._углы_1_1_">
			<g>
				<path class="st19" d="M682.6,582.7l-36.2-36.1c-1.4-1.4-4.4-4.7-4.5-4.7c-0.1,0-4.1,4-5.5,5.4l-139,139
					c-1.5,1.5-5.4,5.4-5.3,5.4c0.1,0,3.3,3.4,4.5,4.7l36.2,36.1c2.6,2.6,7.1,2.2,10.1-0.7l139-139
					C684.9,589.8,685.2,585.3,682.6,582.7z"/>
			</g>
		</g>
		<g id="Прямоугольник_3_копия_1_">
			<g>
				
					<rect x="514" y="672.4" transform="matrix(0.7072 -0.7071 0.7071 0.7072 -334.51 567.0485)" class="st20" width="6.7" height="29.9"/>
			</g>
		</g>
		<g id="Прямоугольник_3_копия_3_1_">
			<g>
				
					<rect x="548.1" y="638.3" transform="matrix(0.7072 -0.7071 0.7071 0.7072 -300.4177 581.1741)" class="st20" width="6.7" height="29.9"/>
			</g>
		</g>
		<g id="Прямоугольник_3_копия_7_9_">
			<g>
				
					<rect x="616.3" y="570.1" transform="matrix(0.7072 -0.7071 0.7071 0.7072 -232.2329 609.4363)" class="st20" width="6.7" height="29.9"/>
			</g>
		</g>
		<g id="Прямоугольник_3_копия_7_7_">
			<g>
				<polygon class="st20" points="595.4,588.2 590.7,592.9 621.6,624.3 626.3,619.6 				"/>
			</g>
		</g>
		<g id="Прямоугольник_3_копия_7_5_">
			<g>
				<polygon class="st20" points="561.3,622.7 556.6,627.5 587.6,658.9 592.3,654.2 				"/>
			</g>
		</g>
		<g id="Прямоугольник_3_копия_7_3_">
			<g>
				<polygon class="st20" points="527.4,656.4 522.7,661.1 553.6,692.5 558.4,687.8 				"/>
			</g>
		</g>
		<g id="Прямоугольник_3_копия_7_1_">
			<g>
				<polygon class="st20" points="629.7,554.4 625,559.1 655.9,590.5 660.6,585.8 				"/>
			</g>
		</g>
		<g id="Прямоугольник_3_копия_5_1_">
			<g>
				
					<rect x="582.2" y="604.2" transform="matrix(0.7072 -0.7071 0.7071 0.7072 -266.3258 595.3108)" class="st20" width="6.7" height="29.9"/>
			</g>
		</g>
	</g>
	<g>
		<g id="Фигура_1_1_">
			<g>
				<path class="st21" d="M571.9,577c-5.8-2.7-60-26.2-60-26.2s-6.2-3-3.5,2.9s27.3,59.5,27.3,59.5s0.3,2.5,5.7,7.8
					c0.7,0.7,37.5-38.7,37.5-38.7S577.7,579.7,571.9,577z"/>
			</g>
		</g>
		<g id="Фигура_1_копия_1_">
			<g>
				<path class="st22" d="M511.6,550.5c0,0-5.8-3-3.5,2.9c2.4,5.9,11.4,24.9,11.4,24.9s6.9-1.4,11.4-5.5c4.3-4,5.8-11.6,5.7-11.6
					C531.1,558.8,511.6,550.5,511.6,550.5z"/>
			</g>
		</g>
		<g id="Прямоугольник_x2C__скругл._углы_2_1_">
			<g>
				<path class="st23" d="M688.4,690.9l-22.3-22.3c-3.2-3.2-8.1-3.6-10.8-0.9l-28.4,28.4c-2.7,2.7-2.3,7.6,0.9,10.8l22.3,22.3
					c3.2,3.2,8.1,3.6,10.8,0.9l28.4-28.4C692,698.9,691.6,694.1,688.4,690.9z"/>
			</g>
		</g>
		<g id="Прямоугольник_2_1_">
			<g>
				
					<rect x="576.3" y="580.6" transform="matrix(0.7072 -0.7071 0.7071 0.7072 -278.9744 615.3917)" class="st24" width="54.2" height="127.7"/>
			</g>
		</g>
		<g id="Прямоугольник_1_1_">
			<g>
				
					<rect x="621.3" y="684.3" transform="matrix(0.7072 -0.7071 0.7071 0.7072 -297.7917 661.1741)" class="st25" width="56" height="11.6"/>
			</g>
		</g>
	</g>
</g>
</svg>
