<svg id="Слой_1" data-name="Слой 1" xmlns="http://www.w3.org/2000/svg" viewBox="0 0 967.83 967.83">
  <defs>
    <style>
      .cls-1 {
        fill: #192941;
      }

      .cls-2 {
        fill: #fff;
      }
    </style>
  </defs>
  <title>xamarin1</title>
  <g>
    <path class="cls-1" d="M497,983.44L13.08,499.52,497,15.61,980.92,499.52ZM126.22,499.52L497,870.3,867.78,499.52,497,128.75Z" transform="translate(-13.08 -15.61)"/>
    <g id="xamagon">
      <path id="Logo" class="cls-2" d="M446.79,236a45.48,45.48,0,0,0-38.43,22.23L287.16,468.74a45.8,45.8,0,0,0,0,44.45L408.37,723.74A45.47,45.47,0,0,0,446.79,746H689.21a45.48,45.48,0,0,0,38.43-22.23L848.84,513.19a45.81,45.81,0,0,0,0-44.45L727.63,258.19A45.47,45.47,0,0,0,689.21,236H446.79ZM449,359.14a5.25,5.25,0,0,1,1,0h41.81a5.51,5.51,0,0,1,4.57,2.71l70.93,126.4a5.45,5.45,0,0,1,.67,2,5.44,5.44,0,0,1,.67-2l70.76-126.4a5.53,5.53,0,0,1,4.74-2.71H686c3.7,0,6.48,4.7,4.74,8L621.49,491l69.24,123.68c1.9,3.3-.94,8.18-4.74,8.14H644.17a5.53,5.53,0,0,1-4.74-2.88l-70.76-126.4a5.45,5.45,0,0,1-.67-2,5.44,5.44,0,0,1-.67,2l-70.93,126.4a5.53,5.53,0,0,1-4.57,2.88H450c-3.8,0-6.64-4.85-4.74-8.14L514.51,491,445.27,367.11a5.7,5.7,0,0,1,3.72-8h0Z" transform="translate(-13.08 -15.61)"/>
    </g>
  </g>
</svg>
