<?xml version="1.0" encoding="utf-8"?>
<!-- Generator: Adobe Illustrator 17.1.0, SVG Export Plug-In . SVG Version: 6.00 Build 0)  -->
<!DOCTYPE svg PUBLIC "-//W3C//DTD SVG 1.1//EN" "http://www.w3.org/Graphics/SVG/1.1/DTD/svg11.dtd">
<svg version="1.1" id="Isolation_Mode" xmlns="http://www.w3.org/2000/svg" xmlns:xlink="http://www.w3.org/1999/xlink" x="0px"
	 y="0px" width="87px" height="87px" viewBox="0 0 87 87" enable-background="new 0 0 87 87" xml:space="preserve">
<g>
	<path fill="#FFFFFF" d="M26.1,48.2c0,1.3-1,2.3-2.3,2.3l0,0c-1.3,0-2.3-1-2.3-2.3v-6.5c0-1.3,1-2.3,2.3-2.3l0,0
		c1.3,0,2.3,1,2.3,2.3V48.2z"/>
	<path fill="#FFFFFF" d="M65.5,48.2c0,1.3-1,2.3-2.3,2.3l0,0c-1.3,0-2.3-1-2.3-2.3v-6.5c0-1.3,1-2.3,2.3-2.3l0,0
		c1.3,0,2.3,1,2.3,2.3V48.2z"/>
	<path fill="#FFFFFF" d="M63.8,45.9h-1.3c0-10.5-8.5-19-19-19s-19,8.5-19,19h-1.3c0-11.2,9.1-20.4,20.4-20.4S63.8,34.7,63.8,45.9z"
		/>
	<path fill="#FFFFFF" d="M48.5,57.5c-0.3,1.1-1.3,1.8-2.4,1.8h-3.8c-1.4,0-2.5-1.1-2.5-2.5v-0.2c0-1.4,1.1-2.5,2.5-2.5h3.8
		c1.2,0,2.2,0.8,2.4,2c3.2-0.2,7.8-1.3,10.9-5.6c0.6-1.7,0.9-3.6,0.9-5.6c0-4.7-1.6-8.6-4.8-11.8c-3.3-3.3-7.3-4.9-11.9-4.9
		s-8.5,1.6-11.8,4.9c-3.3,3.2-5,7.2-5,11.8s1.7,8.5,5,11.8c3.3,3.2,7.2,4.8,11.8,4.8s8.6-1.6,11.9-4.8c0.7-0.7,1.2-1.4,1.8-2.1
		C54.3,56.8,51,57.4,48.5,57.5z"/>
</g>
</svg>
