<?xml version="1.0" encoding="utf-8"?>
<!-- Generator: Adobe Illustrator 17.1.0, SVG Export Plug-In . SVG Version: 6.00 Build 0)  -->
<!DOCTYPE svg PUBLIC "-//W3C//DTD SVG 1.1//EN" "http://www.w3.org/Graphics/SVG/1.1/DTD/svg11.dtd">
<svg version="1.1" id="Isolation_Mode" xmlns="http://www.w3.org/2000/svg" xmlns:xlink="http://www.w3.org/1999/xlink" x="0px"
	 y="0px" width="87px" height="87px" viewBox="0 0 87 87" enable-background="new 0 0 87 87" xml:space="preserve">
<rect x="20.5" y="25.8" fill="#FFFFFF" width="45.9" height="30.4"/>
<g>
	<g>
		<defs>
			<path id="SVGID_1_" d="M51.9,19.4L28.1,65.9c0,0,49.9-1.8,50.4-1.8s4.5-43,4-43.3S51.9,19.4,51.9,19.4z"/>
		</defs>
		<clipPath id="SVGID_2_">
			<use xlink:href="#SVGID_1_"  overflow="visible"/>
		</clipPath>
		<rect x="20.9" y="25.8" clip-path="url(#SVGID_2_)" fill="#E8E7E7" width="45.9" height="30.4"/>
	</g>
</g>
<g>
	<path fill="#5AADBB" d="M64.9,24.4H22c-1.7,0-3.2,1.4-3.2,3.2v27.8c0,1.4,0.9,2.6,2.2,3c0.2-0.9,0.9-1.5,1.9-1.5h2.5
		c0.9,0,1.7,0.7,1.9,1.6h0.1c0.1-0.9,0.9-1.6,1.9-1.6h2.5c0.9,0,1.7,0.7,1.9,1.6h0.6c0.2-0.9,1.1-1.6,2-1.6h14.5c1,0,1.9,0.7,2,1.6
		h0.6c0.1-0.9,0.9-1.6,1.9-1.6h2.5c0.9,0,1.7,0.7,1.9,1.6h-0.2c0.1-0.9,0.9-1.6,1.9-1.6h2.5c0.9,0,1.7,0.7,1.9,1.5
		c1.4-0.4,2.3-1.5,2.3-3V27.5C68.1,25.8,66.7,24.4,64.9,24.4z M65.6,54.7c0,0.6-0.5,1.1-1.1,1.1H22.4c-0.6,0-1.1-0.5-1.1-1.1V28.2
		c0-0.6,0.5-1.1,1.1-1.1h42.2c0.6,0,1.1,0.5,1.1,1.1L65.6,54.7L65.6,54.7z"/>
	<path fill="#5AADBB" d="M69.4,60.7c0-0.7-0.6-1.3-1.3-1.3H18.8c-0.7,0-1.3,0.6-1.3,1.3v0.6c0,0.7,0.6,1.3,1.3,1.3h49.4
		c0.7,0,1.3-0.6,1.3-1.3L69.4,60.7L69.4,60.7z"/>
	<path fill="#5AADBB" d="M50.6,57.7H36.2c-0.7,0-1.2,0.5-1.2,1.2h16.9C51.8,58.2,51.3,57.7,50.6,57.7z"/>
	<path fill="#5AADBB" d="M57.6,57.7h-2.5c-0.6,0-1.1,0.5-1.1,1.1v0.1h4.6v-0.1C58.7,58.2,58.2,57.7,57.6,57.7z"/>
	<path fill="#5AADBB" d="M64.9,58.8c0-0.6-0.5-1.1-1.1-1.1h-2.5c-0.6,0-1.1,0.5-1.1,1.1v0.1L64.9,58.8L64.9,58.8z"/>
	<path fill="#5AADBB" d="M25.4,57.7h-2.5c-0.6,0-1.1,0.5-1.1,1.1v0.1h4.6v-0.1C26.4,58.2,25.9,57.7,25.4,57.7z"/>
	<path fill="#5AADBB" d="M31.6,57.7h-2.5c-0.6,0-1.1,0.5-1.1,1.1v0.1h4.6v-0.1C32.7,58.2,32.2,57.7,31.6,57.7z"/>
</g>
<path fill="#91D1DC" d="M69.4,60.7c0-0.7-0.6-1.3-1.3-1.3H18.8c-0.7,0-1.3,0.6-1.3,1.3v0.6c0,0.7,0.6,1.3,1.3,1.3h49.4
	c0.7,0,1.3-0.6,1.3-1.3L69.4,60.7L69.4,60.7z"/>
<path fill="#91D1DC" d="M50.6,57.7H36.2c-0.7,0-1.2,0.5-1.2,1.2h16.9C51.8,58.2,51.3,57.7,50.6,57.7z"/>
<path fill="#91D1DC" d="M57.6,57.7h-2.5c-0.6,0-1.1,0.5-1.1,1.1v0.1h4.6v-0.1C58.7,58.2,58.2,57.7,57.6,57.7z"/>
<path fill="#91D1DC" d="M64.9,58.8c0-0.6-0.5-1.1-1.1-1.1h-2.5c-0.6,0-1.1,0.5-1.1,1.1v0.1L64.9,58.8L64.9,58.8z"/>
<path fill="#91D1DC" d="M25.4,57.7h-2.5c-0.6,0-1.1,0.5-1.1,1.1v0.1h4.6v-0.1C26.4,58.2,25.9,57.7,25.4,57.7z"/>
<path fill="#91D1DC" d="M31.6,57.7h-2.5c-0.6,0-1.1,0.5-1.1,1.1v0.1h4.6v-0.1C32.7,58.2,32.2,57.7,31.6,57.7z"/>
<g>
	<g>
		<defs>
			<path id="SVGID_3_" d="M51.9,19.4L28.1,65.9L8.3,68.4c0,0,5-52.3,4.8-51.3S51.9,19.4,51.9,19.4z"/>
		</defs>
		<clipPath id="SVGID_4_">
			<use xlink:href="#SVGID_3_"  overflow="visible"/>
		</clipPath>
		<path clip-path="url(#SVGID_4_)" fill="#91D1DC" d="M64.9,24.4H22c-1.7,0-3.2,1.4-3.2,3.2v27.8c0,1.4,0.9,2.6,2.2,3
			c0.2-0.9,0.9-1.5,1.9-1.5h2.5c0.9,0,1.7,0.7,1.9,1.6h0.1c0.1-0.9,0.9-1.6,1.9-1.6h2.5c0.9,0,1.7,0.7,1.9,1.6h0.6
			c0.2-0.9,1.1-1.6,2-1.6h14.5c1,0,1.9,0.7,2,1.6h0.6c0.1-0.9,0.9-1.6,1.9-1.6h2.5c0.9,0,1.7,0.7,1.9,1.6h-0.2
			c0.1-0.9,0.9-1.6,1.9-1.6h2.5c0.9,0,1.7,0.7,1.9,1.5c1.4-0.4,2.3-1.5,2.3-3V27.5C68.1,25.8,66.7,24.4,64.9,24.4z M65.6,54.7
			c0,0.6-0.5,1.1-1.1,1.1H22.4c-0.6,0-1.1-0.5-1.1-1.1V28.2c0-0.6,0.5-1.1,1.1-1.1h42.2c0.6,0,1.1,0.5,1.1,1.1L65.6,54.7L65.6,54.7z
			"/>
	</g>
</g>
<g>
	<path fill="#4FB6D0" stroke="#049EC4" stroke-miterlimit="10" d="M62.1,50.4c0,0.6-0.4,1-1,1h-36c-0.6,0-1-0.4-1-1V33
		c0-0.6,0.4-1,1-1h36c0.6,0,1,0.4,1,1V50.4z"/>
	<rect x="24.1" y="32" fill="#049EC4" width="38" height="1.8"/>
	<g>
		<g>
			<defs>
				<path id="SVGID_5_" d="M51.9,19.4L28.1,65.9c0,0-33.7,2.8-33.3,2.5S1.4,23.1,4,22.8S51.9,19.4,51.9,19.4z"/>
			</defs>
			<clipPath id="SVGID_6_">
				<use xlink:href="#SVGID_5_"  overflow="visible"/>
			</clipPath>
			<g clip-path="url(#SVGID_6_)">
				<path fill="#E2F6FA" stroke="#55C7E3" stroke-miterlimit="10" d="M62.1,50.4c0,0.6-0.4,1-1,1h-36c-0.6,0-1-0.4-1-1V33
					c0-0.6,0.4-1,1-1h36c0.6,0,1,0.4,1,1V50.4z"/>
				<rect x="24.1" y="32" fill="#55C7E3" width="38" height="1.8"/>
			</g>
		</g>
	</g>
</g>
<g>
	<path fill="#E8E7E7" d="M19.1,50.2l8.6-3.8c-0.3,0.1-1-1.1-1.4-1.8c-0.3-0.8-0.7-2.1-0.4-2.2l-8.6,3.8l-0.5-1.1
		c-0.3-0.6-0.8-0.6-1.2-0.1l-4,5.4c-0.4,0.5-0.2,1,0.5,1.1l6.7,0.6c0.7,0.1,1-0.4,0.7-1L19.1,50.2z"/>
	<path fill="#FFFFFF" d="M54.1,31.5l-6.7-0.6c-0.7-0.1-1,0.4-0.7,1l0.5,1.1l-8.7,3.8c0.3-0.1,1,1.1,1.3,1.8c0.3,0.8,0.7,2.1,0.4,2.3
		L49,37l0.4,0.9c0.3,0.6,0.8,0.6,1.2,0.1l4-5.4C55,32.1,54.8,31.6,54.1,31.5z"/>
	<ellipse transform="matrix(-0.4054 -0.9141 0.9141 -0.4054 8.4115 88.5321)" fill="#BF0808" cx="33" cy="41.5" rx="3.1" ry="3.2"/>
</g>
<g>
	<path opacity="0.8" fill="#E17853" d="M54.4,48.1l-2-4c-0.4-0.8-1.4-1.2-2.3-0.8c-0.8,0.4-1.2,1.4-0.8,2.3l1.6,2.6l-0.1,0.1l-2.6-4
		c-0.6-1.1-1.9-1.5-2.9-1s-1.4,1.8-0.8,2.9l2.2,4.2l-0.1,0.1l-2.8-5c-0.6-1.1-1.9-1.5-3-0.9s-1.5,1.9-0.9,3l2.2,3.8l-0.1,0l-6-8.5
		c-0.7-1.1-2.1-1.4-3.1-0.8c-1,0.6-1.3,2-0.6,3.1l7.4,11.3l-0.2,0.1l0,0l-3.2-1.7c-1-0.5-2.3-0.1-2.8,0.9s-0.1,2.3,0.9,2.8
		c0,0,10.4,5.2,10.7,5.2c2.2,1.5,4.9,2.1,8.2,0.1C60.5,59.5,55.9,50.6,54.4,48.1z"/>
	<g opacity="0.8">
		<path fill="#DDDDDD" d="M34,41.8c0.8,0,1.5,0.4,2,1.1l6,8.5h0.1l-2.2-3.8c-0.6-1.1-0.2-2.4,0.9-3c0.3-0.2,0.7-0.3,1.1-0.3
			c0.8,0,1.5,0.4,1.9,1.2l2.8,5l0.1-0.1l-2.2-4.2c-0.6-1.1-0.2-2.4,0.8-2.9c0.3-0.1,0.6-0.2,0.9-0.2c0.8,0,1.6,0.4,2,1.2l2.6,4
			l0.1-0.1l-1.6-2.6c-0.4-0.9,0-1.9,0.8-2.3c0.2-0.1,0.5-0.2,0.7-0.2c0.7,0,1.3,0.4,1.6,1l2,4c1.5,2.5,6.1,11.4-1.1,15.8
			c-1.5,0.9-2.9,1.3-4.1,1.3c-1.5,0-2.9-0.6-4.1-1.4c-0.3,0-10.7-5.2-10.7-5.2c-1-0.5-1.4-1.8-0.9-2.8c0.4-0.7,1.1-1.1,1.9-1.1
			c0.3,0,0.6,0.1,0.9,0.2l3.2,1.7l0.2-0.1l-7.4-11.3c-0.7-1.1-0.4-2.5,0.6-3.1C33.2,41.9,33.6,41.8,34,41.8 M34,40.8
			c-0.6,0-1.1,0.2-1.6,0.4c-0.7,0.4-1.2,1.1-1.4,1.9c-0.2,0.9,0,1.8,0.5,2.6l5.5,8.4L36.8,54c-0.4-0.2-0.9-0.3-1.4-0.3
			c-1.2,0-2.3,0.7-2.8,1.7c-0.4,0.7-0.4,1.6-0.2,2.3c0.3,0.8,0.8,1.4,1.5,1.8c7.5,3.8,9.8,4.9,10.7,5.2c1.5,1,3,1.5,4.6,1.5
			c1.5,0,3.1-0.5,4.6-1.4c6.3-3.9,4.9-11.4,1.5-17.1l-2-4c-0.5-0.9-1.4-1.5-2.5-1.5c-0.4,0-0.8,0.1-1.1,0.2c-0.4,0.2-0.8,0.5-1,0.9
			c-0.6-0.7-1.5-1.2-2.5-1.2c-0.5,0-0.9,0.1-1.4,0.3c-0.6,0.3-1.1,0.8-1.3,1.4c-0.5-0.3-1.1-0.5-1.6-0.5c-0.5,0-1.1,0.1-1.5,0.4
			c-0.6,0.4-1.1,0.9-1.4,1.5l-2.1-2.9C36.2,41.4,35.2,40.8,34,40.8L34,40.8z"/>
	</g>
</g>
</svg>
