<?xml version="1.0" encoding="utf-8"?>
<!-- Generator: Adobe Illustrator 17.1.0, SVG Export Plug-In . SVG Version: 6.00 Build 0)  -->
<!DOCTYPE svg PUBLIC "-//W3C//DTD SVG 1.1//EN" "http://www.w3.org/Graphics/SVG/1.1/DTD/svg11.dtd">
<svg version="1.1" id="Layer_1" xmlns="http://www.w3.org/2000/svg" xmlns:xlink="http://www.w3.org/1999/xlink" x="0px" y="0px"
	 viewBox="0 0 63.1 11.4" enable-background="new 0 0 63.1 11.4" xml:space="preserve">
<g>
	<path fill="#fff" d="M18.7,4.2c-0.1-0.3-0.3-0.3-0.5-0.3h-0.1V3h0.4c0.7,0,0.9,0.1,1.2,0.8l1.8,4.7c0.1,0.4,0.3,0.9,0.3,0.9h0
		c0,0,0.1-0.5,0.3-0.9l1.8-4.7C24.1,3.2,24.3,3,25,3h0.4v0.9h-0.1c-0.3,0-0.4,0.1-0.5,0.3l-2.4,6.3h-1.1L18.7,4.2z"/>
	<path fill="#fff" d="M29.5,2.8c2.2,0,4,1.7,4,3.9c0,2.3-1.8,4-4,4c-2.2,0-4-1.7-4-4C25.5,4.5,27.3,2.8,29.5,2.8z M29.5,9.8
		c1.6,0,2.9-1.3,2.9-3.1c0-1.7-1.3-3-2.9-3c-1.6,0-2.9,1.3-2.9,3C26.6,8.5,27.9,9.8,29.5,9.8z"/>
	<path fill="#fff" d="M38.1,2.8c0.9,0,2.7,0.4,2.7,1.6v0.7h-1V4.7c0-0.6-1.1-0.9-1.7-0.9c-1.6,0-2.9,1.2-2.9,3c0,1.9,1.4,3,2.9,3
		c1.5,0,2.4-1.1,2.4-1.1L41,9.5c0,0-1,1.2-2.9,1.2c-2.2,0-3.9-1.6-3.9-3.9C34.1,4.5,35.8,2.8,38.1,2.8z"/>
	<path fill="#fff" d="M46.1,5.9h0.4V5.8c0-1.6-0.6-2.1-1.9-2.1c-0.4,0-1.5,0.1-1.5,0.7v0.5h-1V4.1c0-1,1.8-1.3,2.4-1.3
		c2.4,0,2.9,1.3,2.9,2.9v3.6c0,0.2,0.1,0.3,0.3,0.3h0.6v0.9h-1c-0.6,0-0.9-0.3-0.9-0.9c0-0.3,0-0.6,0-0.6h0c0,0-0.6,1.6-2.5,1.6
		c-1.3,0-2.6-0.7-2.6-2.2C41.5,6,44.8,5.9,46.1,5.9z M44.2,9.8c1.4,0,2.3-1.5,2.3-2.8V6.7h-0.4c-1.2,0-3.5,0-3.5,1.7
		C42.5,9.1,43.1,9.8,44.2,9.8z"/>
	<path fill="#fff" d="M49.5,1.2c0-0.2-0.1-0.3-0.3-0.3h-0.6V0h1.1c0.6,0,0.9,0.3,0.9,0.9v8.4c0,0.2,0.1,0.3,0.3,0.3h0.6v0.9h-1.1
		c-0.6,0-0.9-0.3-0.9-0.9V1.2z"/>
	<path fill="#fff" d="M52.7,4.2c0-0.2-0.1-0.3-0.3-0.3h-0.6V3h1.1c0.6,0,0.9,0.3,0.9,0.9v5.4c0,0.2,0.1,0.3,0.3,0.3h0.6v0.9h-1.1
		c-0.6,0-0.9-0.3-0.9-0.9V4.2z"/>
	<path fill="#fff" d="M59.1,2.8c2.2,0,4,1.7,4,3.9c0,2.3-1.8,4-4,4c-2.2,0-4-1.7-4-4C55.2,4.5,57,2.8,59.1,2.8z M59.2,9.8
		c1.6,0,2.9-1.3,2.9-3.1c0-1.7-1.3-3-2.9-3c-1.6,0-2.9,1.3-2.9,3C56.2,8.5,57.6,9.8,59.2,9.8z"/>
	<path fill="#fff" d="M14.4,5.3c-0.3,0-0.6,0-0.8,0.1c-0.3-1.1-1.4-2-2.7-2c-0.3,0-0.6,0.1-0.9,0.2C9.3,2.4,8,1.6,6.5,1.6
		c-2.3,0-4.1,1.8-4.1,4.1c0,0.3,0,0.5,0.1,0.8c-0.1,0-0.2,0-0.4,0C0.9,6.4,0,7.3,0,8.5C0,9,0.2,9.4,0.4,9.8c0.3,0.4,0.8,0.7,1.4,0.8
		c0.1,0,0.2,0,0.3,0h6.4L8,10H4.2C4.1,10,4,10,4,10c-0.4-0.1-0.8-0.3-1-0.6c-0.2-0.3-0.3-0.6-0.3-1c0-0.9,0.7-1.6,1.6-1.6
		c0.1,0,0.2,0,0.3,0c0-0.2-0.1-0.4-0.1-0.6c0-1.7,1.4-3.1,3.1-3.1c1.1,0,2.1,0.6,2.7,1.6c0.2-0.1,0.5-0.1,0.7-0.1
		c0.9,0,1.7,0.6,2,1.5C13,6,13.3,6,13.5,6c1.1,0,2,0.9,2,2c0,1.1-0.9,2-2,2c0,0-0.1,0-0.1,0c0.2,0.2,0.3,0.4,0.4,0.6H14
		c0.1,0,0.1,0,0.2,0c0.1,0,0.1,0,0.2,0c1.5,0,2.6-1.2,2.6-2.6C17,6.5,15.9,5.3,14.4,5.3z"/>
	<g>
		<path fill="#fff" d="M12.3,11.1c0.4-0.3,0.5-0.9,0.1-1.3L12,9.2c-0.3-0.4-0.9-0.5-1.3-0.1l-0.1,0.1l1.6,1.9L12.3,11.1z"/>
		<path fill="#fff" d="M8.6,6.7C9,6.3,9.1,5.7,8.7,5.3L8.3,4.8C8,4.4,7.4,4.4,7,4.7L6.8,4.8l1.6,1.9L8.6,6.7z"/>
		<path fill="#fff" d="M8.6,8.8c1.5,1.8,3,2.9,3.5,2.5L6.7,4.9C6.3,5.3,7.1,7,8.6,8.8z"/>
	</g>
	<circle fill="#fff" cx="53.1" cy="0.7" r="0.7"/>
</g>
</svg>
