<?xml version="1.0" encoding="utf-8"?>
<!-- Generator: Adobe Illustrator 17.1.0, SVG Export Plug-In . SVG Version: 6.00 Build 0)  -->
<!DOCTYPE svg PUBLIC "-//W3C//DTD SVG 1.1//EN" "http://www.w3.org/Graphics/SVG/1.1/DTD/svg11.dtd">
<svg version="1.1" id="Layer_1" xmlns="http://www.w3.org/2000/svg" xmlns:xlink="http://www.w3.org/1999/xlink" x="0px" y="0px"
	 width="99.2px" height="178.3px" viewBox="0 0 99.2 178.3" enable-background="new 0 0 99.2 178.3" xml:space="preserve">
<g>
	<path fill="#2D3033" d="M25.1,56.7V2.5c0-1.4,1.1-2.5,2.5-2.5s2.5,1.1,2.5,2.5v52.9l60,44.6c0.6,0.5,1,1.2,1,2v38.5
		c0,1.4-1.1,2.5-2.5,2.5s-2.5-1.1-2.5-2.5v-37.3l-60-44.6C25.5,58.2,25.1,57.5,25.1,56.7z"/>
	<path fill="#00AADD" d="M8.1,161.2V102c0-0.8,0.4-1.5,1-2l60-44.6V29.6c0-1.4,1.1-2.5,2.5-2.5s2.5,1.1,2.5,2.5v27.1
		c0,0.8-0.4,1.5-1,2l-60,44.6v57.9c0,1.4-1.1,2.5-2.5,2.5S8.1,162.6,8.1,161.2z"/>
	<g>
		<g>
			<path fill="#2D3033" d="M96.6,138.6c0.5,0,0.8,0.4,0.5,0.9l-8,13.9c-0.3,0.5-0.7,0.5-1,0l-8-13.9c-0.3-0.5-0.1-0.9,0.5-0.9H96.6z
				"/>
		</g>
		<path fill="#2D3033" d="M78,139c0-1.4,1.1-2.5,2.6-2.5h16c1.5,0,2.6,1.1,2.6,2.5c0,0.5-0.1,0.9-0.4,1.4l-8,13.9
			c-0.5,0.8-1.3,1.4-2.2,1.4s-1.7-0.5-2.2-1.4l-8-13.9C78.1,140,78,139.5,78,139z M94.2,140.6H83.1l5.6,9.6L94.2,140.6z"/>
	</g>
	<g>
		<g>
			<path fill="#00AADD" d="M2.6,161.2c-0.5,0-0.8,0.4-0.5,0.9l8,13.9c0.3,0.5,0.7,0.5,1,0l8-13.9c0.3-0.5,0-0.9-0.5-0.9H2.6z"/>
		</g>
		<path fill="#00AADD" d="M0,161.7L0,161.7c0-1.4,1.1-2.5,2.6-2.5h16c1.5,0,2.6,1.1,2.6,2.5c0,0.5-0.1,0.9-0.4,1.4l-8,13.9
			c-0.5,0.9-1.3,1.4-2.2,1.4s-1.7-0.5-2.2-1.4l-8-13.9C0.1,162.7,0,162.2,0,161.7z M16.2,163.2H5.1l5.6,9.6L16.2,163.2z"/>
	</g>
</g>
</svg>
