<?xml version="1.0" encoding="utf-8"?>
<!-- Generator: Adobe Illustrator 17.1.0, SVG Export Plug-In . SVG Version: 6.00 Build 0)  -->
<!DOCTYPE svg PUBLIC "-//W3C//DTD SVG 1.1//EN" "http://www.w3.org/Graphics/SVG/1.1/DTD/svg11.dtd">
<svg version="1.1" id="Layer_1" xmlns="http://www.w3.org/2000/svg" xmlns:xlink="http://www.w3.org/1999/xlink" x="0px" y="0px"
	 width="127.1px" height="121px" viewBox="0 0 127.1 121" enable-background="new 0 0 127.1 121" xml:space="preserve">
<g>
	<path fill="#00AADD" d="M61.3,1.8c1.2-2.5,3.2-2.5,4.4,0l16,32.3c1.2,2.5,4.4,4.8,7.2,5.2l35.7,5.2c2.7,0.4,3.3,2.3,1.4,4.2
		l-25.8,25.2c-2,1.9-3.2,5.7-2.7,8.4l6.1,35.5c0.5,2.7-1.1,3.9-3.6,2.6L68,103.7c-2.4-1.3-6.4-1.3-8.9,0l-31.9,16.8
		c-2.4,1.3-4,0.1-3.6-2.6l6.1-35.5c0.5-2.7-0.8-6.5-2.7-8.4L1.2,48.8c-2-1.9-1.4-3.8,1.4-4.2l35.7-5.2c2.7-0.4,5.9-2.7,7.2-5.2
		L61.3,1.8z"/>
</g>
</svg>
