<?xml version="1.0" encoding="utf-8"?>
<!-- Generator: Adobe Illustrator 17.1.0, SVG Export Plug-In . SVG Version: 6.00 Build 0)  -->
<!DOCTYPE svg PUBLIC "-//W3C//DTD SVG 1.1//EN" "http://www.w3.org/Graphics/SVG/1.1/DTD/svg11.dtd">
<svg version="1.1" id="Isolation_Mode" xmlns="http://www.w3.org/2000/svg" xmlns:xlink="http://www.w3.org/1999/xlink" x="0px"
	 y="0px" width="53px" height="106.9px" viewBox="0 0 53 106.9" enable-background="new 0 0 53 106.9" xml:space="preserve">
<g id="Layer_1">
	<g>
		<path fill="#2D3033" d="M28.1,86.9h-2.9c-12.3,0-22.7-12-22.7-26.2V35c0-1.1,0.9-1.9,1.9-1.9s1.9,0.9,1.9,1.9v25.6
			C6.3,72.8,14.9,83,25.2,83h2.9c10.2,0,18.5-10,18.5-22.3V34.2c0-1.1,0.9-1.9,1.9-1.9s1.9,0.9,1.9,1.9v26.4
			C50.4,75.1,40.4,86.9,28.1,86.9z"/>
		<rect x="24.9" y="84.5" fill="#2D3033" width="3.9" height="20.1"/>
		<path fill="#2D3033" d="M31.6,106.9h-9.5c-1.1,0-1.9-0.9-1.9-1.9c0-1.1,0.9-1.9,1.9-1.9h9.5c1.1,0,1.9,0.9,1.9,1.9
			C33.5,106,32.7,106.9,31.6,106.9z"/>
		<path fill="#2D3033" d="M8.3,34.8H1.9c-1.1,0-1.9-0.9-1.9-1.9c0-1.1,0.9-1.9,1.9-1.9h6.4c1.1,0,1.9,0.9,1.9,1.9
			C10.2,33.9,9.4,34.8,8.3,34.8z"/>
		<path fill="#2D3033" d="M51.1,34.8h-7.2c-1.1,0-1.9-0.9-1.9-1.9c0-1.1,0.9-1.9,1.9-1.9h7.2c1.1,0,1.9,0.9,1.9,1.9
			C53,33.9,52.1,34.8,51.1,34.8z"/>
		<path fill="#00AADD" d="M32.1,0.9v15.6c0,0.7-0.6,1.3-1.3,1.3c-0.7,0-1.3-0.6-1.3-1.3V0.2C28.8,0.1,28,0,27.3,0v18.8
			c0,0.7-0.6,1.3-1.3,1.3s-1.3-0.6-1.3-1.3V0.1c-0.8,0.1-1.5,0.2-2.2,0.4v16c0,0.7-0.6,1.3-1.3,1.3s-1.3-0.6-1.3-1.3V1.4
			C13.6,4,9.2,10.1,9.2,17.3v45.4C9.2,72.3,17,80,26.6,80s17.3-7.8,17.3-17.3V17.3C43.9,9.7,39,3.2,32.1,0.9z"/>
		<path fill-rule="evenodd" clip-rule="evenodd" fill="none" d="M32.1,0.9v15.6c0,0.7-0.6,1.3-1.3,1.3c-0.7,0-1.3-0.6-1.3-1.3V0.2
			C28.8,0.1,28,0,27.3,0v18.8c0,0.7-0.6,1.3-1.3,1.3s-1.3-0.6-1.3-1.3V0.1c-0.8,0.1-1.5,0.2-2.2,0.4v16c0,0.7-0.6,1.3-1.3,1.3
			s-1.3-0.6-1.3-1.3V1.4C13.6,4,9.2,10.1,9.2,17.3v45.4C9.2,72.3,17,80,26.6,80s17.3-7.8,17.3-17.3V17.3C43.9,9.7,39,3.2,32.1,0.9z"
			/>
	</g>
</g>
</svg>
