<?xml version="1.0" encoding="utf-8"?>
<!-- Generator: Adobe Illustrator 17.1.0, SVG Export Plug-In . SVG Version: 6.00 Build 0)  -->
<!DOCTYPE svg PUBLIC "-//W3C//DTD SVG 1.1//EN" "http://www.w3.org/Graphics/SVG/1.1/DTD/svg11.dtd">
<svg version="1.1" id="Layer_1" xmlns="http://www.w3.org/2000/svg" xmlns:xlink="http://www.w3.org/1999/xlink" x="0px" y="0px"
	 width="120.3px" height="140px" viewBox="0 0 120.3 140" enable-background="new 0 0 120.3 140" xml:space="preserve">
<g>
	<path fill="#00AADD" d="M87.1,4.9H7c-3.9,0-7,3.1-7,7V133c0,3.9,3.1,7,7,7h101.5c3.9,0,7-3.1,7-7V34.8L87.1,4.9z"/>
	<g>
		<path fill="#2D3033" d="M86.7,21c0,7.2,5.8,13,13,13h15.8L86.7,4.9V21z"/>
		<path fill="#FFFFFF" d="M120.3,36H99.7c-8.3,0-15-6.7-15-15V0L120.3,36z M88.7,9.7V21c0,6.1,4.9,11,11,11h11L88.7,9.7z"/>
	</g>
	<path fill="#FFFFFF" d="M55.3,59.5V37.1c-12,0-22.3,10.1-22.3,22.5c0,12.4,10.2,22.5,22.6,22.5s22.6-10.1,22.6-22.5
		c0,0-0.2,0-0.2,0L55.3,59.5z"/>
	<g>
		<path fill="#FFFFFF" d="M82.2,55.5c0-12.4-9.7-22.2-22.1-22.2c0,0-0.8,0-0.8,0v21.8L82.2,55.5z"/>
		<path fill="#FFFFFF" d="M83.3,55.8l-24-0.2V32.4h0.8c12.6,0,23.2,10.3,23.2,22.9V55.8z M60.3,54.7l21.7,0.1
			C81.7,43,72,33.5,60.3,33.4V54.7z"/>
	</g>
	<path fill="#FFFFFF" d="M98,98.4H17.5c-1.1,0-2-0.9-2-2s0.9-2,2-2H98c1.1,0,2,0.9,2,2S99.1,98.4,98,98.4z"/>
	<path fill="#FFFFFF" d="M98,107.7H17.5c-1.1,0-2-0.9-2-2s0.9-2,2-2H98c1.1,0,2,0.9,2,2S99.1,107.7,98,107.7z"/>
	<path fill="#FFFFFF" d="M98,117H17.5c-1.1,0-2-0.9-2-2s0.9-2,2-2H98c1.1,0,2,0.9,2,2S99.1,117,98,117z"/>
	<path fill="#FFFFFF" d="M98,126.4H17.5c-1.1,0-2-0.9-2-2s0.9-2,2-2H98c1.1,0,2,0.9,2,2S99.1,126.4,98,126.4z"/>
</g>
</svg>
