<?xml version="1.0" encoding="utf-8"?>
<!-- Generator: Adobe Illustrator 17.1.0, SVG Export Plug-In . SVG Version: 6.00 Build 0)  -->
<!DOCTYPE svg PUBLIC "-//W3C//DTD SVG 1.1//EN" "http://www.w3.org/Graphics/SVG/1.1/DTD/svg11.dtd">
<svg version="1.1" id="Isolation_Mode" xmlns="http://www.w3.org/2000/svg" xmlns:xlink="http://www.w3.org/1999/xlink" x="0px"
	 y="0px" width="87px" height="87px" viewBox="0 0 87 87" enable-background="new 0 0 87 87" xml:space="preserve">
<path fill="#FFFFFF" d="M54.2,16.5H31.1c-1.8,0-3.2,1.4-3.2,3.2v46.2c0,1.8,1.4,3.2,3.2,3.2h23.1c1.8,0,3.2-1.4,3.2-3.2V19.6
	C57.4,17.9,56,16.5,54.2,16.5z M37,19.2h11.3c0.2,0,0.4,0.2,0.4,0.4c0,0.2-0.2,0.4-0.4,0.4H37c-0.2,0-0.4-0.2-0.4-0.4
	S36.8,19.2,37,19.2z M42.7,66.9c-1.7,0-3-1.3-3-3s1.3-3,3-3s3,1.3,3,3C45.7,65.5,44.4,66.9,42.7,66.9z M55.9,57.2
	c0,1.1-0.8,1.9-1.9,1.9H31.3c-1.1,0-1.9-0.8-1.9-1.9V23.4c0-1.1,0.8-1.9,1.9-1.9H54c1.1,0,1.9,0.8,1.9,1.9L55.9,57.2L55.9,57.2z"/>
<path fill="#FFFFFF" d="M51.7,31.5h-18c-0.7,0-1.3,0.6-1.3,1.3v11.7c0,0.7,0.6,1.3,1.3,1.3h1.1c0,0,0,0,0,0v3.7c0,1,0.5,1.2,1.1,0.4
	l3.4-4.1h12.4c0.7,0,1.3-0.6,1.3-1.3V32.8C53,32.1,52.4,31.5,51.7,31.5z M50.7,43.3h-9.6v-1.7h9.6V43.3z M50.7,39.2H34.6v-1.7h16.1
	V39.2z M50.7,35.3H34.6v-1.7h16.1V35.3z"/>
</svg>
