<?xml version="1.0" encoding="utf-8"?>
<!-- Generator: Adobe Illustrator 17.1.0, SVG Export Plug-In . SVG Version: 6.00 Build 0)  -->
<!DOCTYPE svg PUBLIC "-//W3C//DTD SVG 1.1//EN" "http://www.w3.org/Graphics/SVG/1.1/DTD/svg11.dtd">
<svg version="1.1" id="Isolation_Mode" xmlns="http://www.w3.org/2000/svg" xmlns:xlink="http://www.w3.org/1999/xlink" x="0px"
	 y="0px" width="87px" height="87px" viewBox="0 0 87 87" enable-background="new 0 0 87 87" xml:space="preserve">
<rect x="28.8" y="18" fill="#797B7C" width="28" height="49.7"/>
<g>
	<g>
		<g>
			<defs>
				<polygon id="SVGID_7_" points="52.5,15 27.1,69.6 27.1,71.3 59.9,72.7 59.1,15 				"/>
			</defs>
			<clipPath id="SVGID_1_">
				<use xlink:href="#SVGID_7_"  overflow="visible"/>
			</clipPath>
			<polygon clip-path="url(#SVGID_1_)" fill="#2B2C2C" points="56.2,68 28.5,66 28.5,19.6 56.5,19.6 			"/>
		</g>
	</g>
</g>
<path fill="#FCA181" d="M54.3,16.5H31.2c-1.8,0-3.2,1.4-3.2,3.2v46.2c0,1.8,1.4,3.2,3.2,3.2h23.1c1.8,0,3.2-1.4,3.2-3.2V19.6
	C57.4,17.9,56,16.5,54.3,16.5z M37.1,19.2h11.2c0.2,0,0.4,0.2,0.4,0.4c0,0.2-0.2,0.4-0.4,0.4H37.1c-0.2,0-0.4-0.2-0.4-0.4
	C36.7,19.5,36.9,19.2,37.1,19.2z M42.7,66.9c-1.7,0-3-1.3-3-3s1.3-3,3-3c1.7,0,3,1.3,3,3C45.8,65.5,44.4,66.9,42.7,66.9z M56,57.2
	c0,1.1-0.8,1.9-1.9,1.9H31.4c-1.1,0-1.9-0.8-1.9-1.9V23.5c0-1.1,0.8-1.9,1.9-1.9H54c1.1,0,1.9,0.8,1.9,1.9L56,57.2L56,57.2z"/>
<g>
	<circle fill="#FFFFFF" cx="37.7" cy="39.7" r="1.5"/>
	<circle fill="#FFFFFF" cx="47.7" cy="39.7" r="1.5"/>
	<path fill="#FFFFFF" d="M51.2,33H34.4c-0.7,0-1.2,0.6-1.2,1.2v11c0,0.7,0.6,1.2,1.2,1.2h1v5l4.1-5h11.7c0.7,0,1.2-0.6,1.2-1.2v-11
		C52.5,33.5,51.9,33,51.2,33z M47.7,42.4L47.7,42.4c-0.1,0-0.1,0.1-0.2,0.1h-9.8c-0.2,0-0.4-0.1-0.7-0.2C35.8,42,35,40.9,35,39.7
		c0-1.6,1.2-2.8,2.8-2.8s2.8,1.2,2.8,2.8c0,0.2,0,0.4-0.1,0.7h4.6c0-0.2-0.1-0.4-0.1-0.7c0-1.6,1.2-2.8,2.8-2.8s2.8,1.2,2.8,2.8
		S49.2,42.4,47.7,42.4z"/>
</g>
<g>
	<g>
		<g>
			<defs>
				<polygon id="SVGID_9_" points="53.2,13.2 29.1,65.1 58.9,62.8 56.5,16.4 				"/>
			</defs>
			<clipPath id="SVGID_2_">
				<use xlink:href="#SVGID_9_"  overflow="visible"/>
			</clipPath>
			<g clip-path="url(#SVGID_2_)">
				<circle fill="#FFFFFF" cx="37.7" cy="39.7" r="1.5"/>
				<circle fill="#BFBFBF" cx="47.7" cy="39.7" r="1.5"/>
				<path fill="#BFBFBF" d="M51.2,33H34.4c-0.7,0-1.2,0.6-1.2,1.2v11c0,0.7,0.6,1.2,1.2,1.2h1v5l4.1-5h11.7c0.7,0,1.2-0.6,1.2-1.2
					v-11C52.5,33.5,51.9,33,51.2,33z M47.7,42.4L47.7,42.4c-0.1,0-0.1,0.1-0.2,0.1h-9.8c-0.2,0-0.4-0.1-0.7-0.2
					C35.8,42,35,40.9,35,39.7c0-1.6,1.2-2.8,2.8-2.8s2.8,1.2,2.8,2.8c0,0.2,0,0.4-0.1,0.7h4.6c0-0.2-0.1-0.4-0.1-0.7
					c0-1.6,1.2-2.8,2.8-2.8s2.8,1.2,2.8,2.8S49.2,42.4,47.7,42.4z"/>
			</g>
		</g>
	</g>
</g>
<g>
	<g>
		<g>
			<defs>
				<polygon id="SVGID_11_" points="52.6,14.9 26.7,69.5 27.4,71.4 60.3,72.8 60,15.1 				"/>
			</defs>
			<clipPath id="SVGID_3_">
				<use xlink:href="#SVGID_11_"  overflow="visible"/>
			</clipPath>
			<path clip-path="url(#SVGID_3_)" fill="#EC8558" d="M54.3,16.5H31.2c-1.8,0-3.2,1.4-3.2,3.2v46.2c0,1.8,1.4,3.2,3.2,3.2h23.1
				c1.8,0,3.2-1.4,3.2-3.2V19.7C57.4,17.9,56,16.5,54.3,16.5z M37.1,19.2h11.2c0.2,0,0.4,0.2,0.4,0.4c0,0.2-0.2,0.4-0.4,0.4H37.1
				c-0.2,0-0.4-0.2-0.4-0.4C36.6,19.5,36.9,19.2,37.1,19.2z M42.7,66.9c-1.7,0-3-1.3-3-3s1.3-3,3-3c1.7,0,3,1.3,3,3
				C45.7,65.5,44.4,66.9,42.7,66.9z M56,57.2c0,1.1-0.8,1.9-1.9,1.9H31.4c-1.1,0-1.9-0.8-1.9-1.9V23.5c0-1.1,0.8-1.9,1.9-1.9H54
				c1.1,0,1.9,0.8,1.9,1.9L56,57.2L56,57.2z"/>
		</g>
	</g>
</g>
</svg>
