<svg xmlns="http://www.w3.org/2000/svg" xmlns:xlink="http://www.w3.org/1999/xlink" width="62" height="62" viewBox="0 0 62 62"><defs><path id="hzwwa" d="M878 1041a30 30 0 1 1 60 0 30 30 0 0 1-60 0z"/><path id="hzwwb" d="M905.82 1029l-6.82 16.36h6.82l-2.05 13.64 10.23-19.1h-5.45L914 1029z"/><path id="hzwwd" d="M892.64 1025l-3.64 8.73h3.64l-1.1 7.27 5.46-10.18h-2.9l2.9-5.82z"/><path id="hzwwf" d="M921.64 1044l-3.64 8.73h3.64l-1.1 7.27 5.46-10.18h-2.9l2.9-5.82z"/><linearGradient id="hzwwc" x1="905.15" x2="910" y1="1050.04" y2="1029.65" gradientUnits="userSpaceOnUse"><stop offset="0" stop-color="#ff9c28"/><stop offset="1" stop-color="#fccc5b"/></linearGradient><linearGradient id="hzwwe" x1="892.28" x2="894.87" y1="1036.22" y2="1025.35" gradientUnits="userSpaceOnUse"><stop offset="0" stop-color="#ff9c28"/><stop offset="1" stop-color="#fccc5b"/></linearGradient><linearGradient id="hzwwg" x1="921.28" x2="923.87" y1="1055.22" y2="1044.35" gradientUnits="userSpaceOnUse"><stop offset="0" stop-color="#ff9c28"/><stop offset="1" stop-color="#fccc5b"/></linearGradient></defs><g><g transform="translate(-877 -1010)"><use fill="#fff" fill-opacity="0" stroke="#f7931e" stroke-miterlimit="50" xlink:href="#hzwwa"/></g><g transform="translate(-877 -1010)"><use fill="url(#hzwwc)" xlink:href="#hzwwb"/></g><g transform="translate(-877 -1010)"><use fill="url(#hzwwe)" xlink:href="#hzwwd"/></g><g transform="translate(-877 -1010)"><use fill="url(#hzwwg)" xlink:href="#hzwwf"/></g></g></svg>