<svg xmlns="http://www.w3.org/2000/svg" xmlns:xlink="http://www.w3.org/1999/xlink" width="62" height="62" viewBox="0 0 62 62"><defs><path id="rifha" d="M450 294a30 30 0 1 1 60 0 30 30 0 0 1-60 0z"/><path id="rifhb" d="M477.82 282L471 298.36h6.82L475.77 312 486 292.9h-5.45L486 282z"/><path id="rifhc" d="M464.64 278l-3.64 8.73h3.64l-1.1 7.27 5.46-10.18h-2.9L469 278z"/><path id="rifhd" d="M493.64 297l-3.64 8.73h3.64l-1.1 7.27 5.46-10.18h-2.9L498 297z"/></defs><g><g transform="translate(-449 -263)"><use fill="#fff" fill-opacity="0" stroke="#fff" stroke-miterlimit="50" xlink:href="#rifha"/></g><g transform="translate(-449 -263)"><use fill="#fff" xlink:href="#rifhb"/></g><g transform="translate(-449 -263)"><use fill="#fff" xlink:href="#rifhc"/></g><g transform="translate(-449 -263)"><use fill="#fff" xlink:href="#rifhd"/></g></g></svg>