<svg xmlns="http://www.w3.org/2000/svg" xmlns:xlink="http://www.w3.org/1999/xlink" width="62" height="62" viewBox="0 0 62 62"><defs><path id="1r9fa" d="M276 294a30 30 0 1 1 60 0 30 30 0 0 1-60 0z"/><path id="1r9fb" d="M296.8 290.63a4.6 4.6 0 0 0-.34 1.75c0 2.39 1.78 4.32 3.97 4.32 2.2 0 3.97-1.93 3.97-4.32 0-2.57-1.77-3.82-1.77-6.97a7.74 7.74 0 0 1 5.84-7.41 6.6 6.6 0 0 0-.67 2.9c0 6.5 8.2 7.16 8.2 15.62a10.5 10.5 0 0 1-9.96 10.48c4.83-.34 6.2-7.11 3.37-10.96-1.07 6.65-7.41 3.91-7.62 8.08-.07 1.59 1.62 2.87 3.8 2.9a10.5 10.5 0 0 1-8.8-16.39z"/></defs><g><g transform="translate(-275 -263)"><use fill="#fff" fill-opacity="0" stroke="#fff" stroke-miterlimit="50" xlink:href="#1r9fa"/></g><g transform="translate(-275 -263)"><use fill="#fff" xlink:href="#1r9fb"/></g></g></svg>