<svg xmlns="http://www.w3.org/2000/svg" xmlns:xlink="http://www.w3.org/1999/xlink" width="62" height="62" viewBox="0 0 62 62"><defs><path id="jrqua" d="M450 294a30 30 0 1 1 60 0 30 30 0 0 1-60 0z"/><path id="jrqub" d="M470 302.5a10.5 10.5 0 0 1 11.01-10.49A10.5 10.5 0 0 0 491 302l.01.51a10.5 10.5 0 1 1-21 0zm14-10a6.5 6.5 0 1 1 13 0 6.5 6.5 0 0 1-13 0zm-18-6.5a4 4 0 1 1 8 0 4 4 0 0 1-8 0zm14-8a2 2 0 1 1 4 0 2 2 0 0 1-4 0z"/></defs><g><g transform="translate(-449 -263)"><use fill="#fff" fill-opacity="0" stroke="#fff" stroke-miterlimit="50" xlink:href="#jrqua"/></g><g transform="translate(-449 -263)"><use fill="#fff" xlink:href="#jrqub"/></g></g></svg>