<svg xmlns="http://www.w3.org/2000/svg" xmlns:xlink="http://www.w3.org/1999/xlink" width="62" height="62" viewBox="0 0 62 62"><defs><path id="x2raa" d="M1273 1041a30 30 0 1 1 60 0 30 30 0 0 1-60 0z"/><path id="x2rab" d="M1293 1049.5a10.5 10.5 0 0 1 11.01-10.49 10.5 10.5 0 0 0 9.98 9.98l.01.51a10.5 10.5 0 1 1-21 0zm14-10a6.5 6.5 0 1 1 13 0 6.5 6.5 0 0 1-13 0zm-18-6.5a4 4 0 1 1 8 0 4 4 0 0 1-8 0zm14-8a2 2 0 1 1 4 0 2 2 0 0 1-4 0z"/><linearGradient id="x2rac" x1="1294.59" x2="1314.47" y1="1060" y2="1023" gradientUnits="userSpaceOnUse"><stop offset="0" stop-color="#4db748"/><stop offset="1" stop-color="#9be15d"/></linearGradient></defs><g><g transform="translate(-1272 -1010)"><use fill="#fff" fill-opacity="0" stroke="#4db748" stroke-miterlimit="50" xlink:href="#x2raa"/></g><g transform="translate(-1272 -1010)"><use fill="url(#x2rac)" xlink:href="#x2rab"/></g></g></svg>