<svg xmlns="http://www.w3.org/2000/svg" xmlns:xlink="http://www.w3.org/1999/xlink" width="62" height="62" viewBox="0 0 62 62"><defs><path id="tlm6a" d="M485 997a30 30 0 1 1 60 0 30 30 0 0 1-60 0z"/><path id="tlm6b" d="M506.8 994.63a4.59 4.59 0 0 0-.34 1.74c0 2.39 1.78 4.32 3.97 4.32 2.2 0 3.97-1.93 3.97-4.32 0-2.57-1.77-3.82-1.77-6.96 0-3.54 2.47-6.51 5.84-7.41a6.59 6.59 0 0 0-.67 2.9c0 6.5 8.2 7.16 8.2 15.6a10.5 10.5 0 0 1-9.96 10.49c4.83-.35 6.2-7.12 3.37-10.96-1.07 6.64-7.41 3.9-7.62 8.07-.07 1.59 1.62 2.87 3.8 2.9h-.09a10.5 10.5 0 0 1-8.7-16.37z"/><linearGradient id="tlm6c" x1="512.14" x2="526" y1="1002.47" y2="964.92" gradientUnits="userSpaceOnUse"><stop offset="0" stop-color="#ffc62c"/><stop offset="1" stop-color="#fbff43"/></linearGradient></defs><g><g transform="translate(-484 -966)"><use fill="#fff" fill-opacity="0" stroke="#ffc62d" stroke-miterlimit="50" xlink:href="#tlm6a"/></g><g transform="translate(-484 -966)"><use fill="url(#tlm6c)" xlink:href="#tlm6b"/></g></g></svg>