<svg width="36" height="36" viewBox="0 0 36 36" fill="none" xmlns="http://www.w3.org/2000/svg">
<path d="M35.9212 27.8934C35.8194 27.5865 35.1716 27.1346 33.9782 26.5385C33.6549 26.3506 33.1942 26.0953 32.5982 25.7714C32.0016 25.4475 31.46 25.149 30.9746 24.8762C30.4881 24.6036 30.0324 24.3394 29.6066 24.0841C29.5385 24.0329 29.3255 23.884 28.9675 23.6363C28.6092 23.3893 28.3071 23.206 28.0595 23.0864C27.8124 22.9676 27.5693 22.9078 27.3307 22.9078C26.9899 22.9078 26.5641 23.1508 26.053 23.6363C25.5418 24.1224 25.0729 24.6504 24.647 25.2219C24.221 25.7932 23.7692 26.3212 23.2924 26.807C22.8149 27.293 22.4226 27.5358 22.1161 27.5358C21.9623 27.5358 21.7705 27.4929 21.5406 27.4082C21.3108 27.3231 21.136 27.2501 21.016 27.1913C20.8971 27.1312 20.693 27.0122 20.403 26.8327C20.1125 26.6537 19.9509 26.5556 19.9169 26.5385C17.5818 25.2428 15.5792 23.7598 13.9086 22.0899C12.2385 20.419 10.7553 18.4166 9.45996 16.0812C9.44295 16.0471 9.34471 15.8851 9.16587 15.5955C8.98677 15.3056 8.86739 15.1013 8.80775 14.9817C8.74811 14.8625 8.67566 14.6877 8.59059 14.4576C8.50551 14.2276 8.4628 14.0359 8.4628 13.8823C8.4628 13.5757 8.70575 13.1835 9.19158 12.7062C9.67731 12.2291 10.2058 11.7772 10.7767 11.3514C11.3479 10.9256 11.8759 10.4567 12.3618 9.94552C12.8476 9.43408 13.0904 9.00817 13.0904 8.66734C13.0904 8.42886 13.0308 8.18572 12.9116 7.93865C12.7923 7.69103 12.6091 7.38888 12.3618 7.03076C12.1145 6.67282 11.9654 6.45996 11.9141 6.39145C11.6587 5.96563 11.3948 5.50972 11.1218 5.02389C10.8487 4.53816 10.5507 3.99673 10.2267 3.40022C9.90298 2.80398 9.64749 2.34359 9.45978 2.01977C8.86354 0.826838 8.41193 0.178836 8.10503 0.0769256C7.98566 0.0257911 7.80656 0 7.56817 0C7.10769 0 6.50697 0.0850748 5.76557 0.255762C5.02389 0.42618 4.44028 0.604927 4.0141 0.792718C3.16183 1.15048 2.25851 2.19018 1.30388 3.91147C0.434598 5.51339 0 7.09891 0 8.66689C0 9.12674 0.029821 9.57414 0.0894629 10.0092C0.149105 10.4438 0.255672 10.9339 0.409255 11.4795C0.562569 12.0248 0.68624 12.43 0.779733 12.6938C0.873316 12.9578 1.04803 13.4307 1.30379 14.1128C1.5592 14.7946 1.71278 15.212 1.76391 15.3654C2.36042 17.0359 3.0678 18.5272 3.88586 19.8398C5.23183 22.0215 7.06864 24.2761 9.39522 26.6029C11.7219 28.9295 13.9761 30.7662 16.158 32.1127C17.4703 32.9307 18.9622 33.638 20.6324 34.2349C20.7859 34.2858 21.2033 34.439 21.8849 34.6953C22.5668 34.9509 23.0399 35.1256 23.3039 35.2194C23.568 35.3132 23.9732 35.437 24.5181 35.5906C25.0642 35.7441 25.5539 35.8507 25.9885 35.9108C26.4233 35.9696 26.8708 36 27.3308 36C28.8987 36 30.4843 35.5651 32.0865 34.6959C33.8076 33.7417 34.847 32.8382 35.205 31.9853C35.3932 31.5595 35.5715 30.9757 35.7419 30.2341C35.9129 29.4928 35.9978 28.8921 35.9978 28.4317C35.9983 28.1924 35.9726 28.0137 35.9212 27.8934Z" fill="#FFC700"/>
</svg>
