<svg width="36" height="36" viewBox="0 0 36 36" fill="none" xmlns="http://www.w3.org/2000/svg">
<path d="M34.4973 20.6065C34.6316 19.7565 34.7023 18.887 34.7023 17.9995C34.7023 8.77458 27.2245 1.29692 17.9994 1.29692C17.1142 1.29692 16.2421 1.36982 15.3929 1.50265C13.8546 0.550823 12.039 0 10.0933 0C4.51899 0 0 4.5184 0 10.0933C0 12.0386 0.551158 13.8527 1.50256 15.3941C1.3709 16.2455 1.29842 17.1122 1.29842 17.9998C1.29842 27.2253 8.77608 34.7007 17.999 34.7007C18.885 34.7007 19.7573 34.6324 20.6064 34.4984C22.1463 35.4484 23.9604 36.0008 25.9057 36.0008C31.4815 36.0008 36 31.4812 36 25.9065C36.0004 23.9604 35.4496 22.1467 34.4973 20.6065ZM25.9296 25.596C25.223 26.6132 24.1851 27.4081 22.8288 27.9796C21.4698 28.5527 19.8635 28.8379 18.0086 28.8379C15.7854 28.8379 13.9447 28.4489 12.4917 27.6633C11.4618 27.1007 10.6242 26.3461 9.98018 25.4051C9.33486 24.4633 9.00768 23.541 9.00768 22.6417C9.00768 22.1113 9.20998 21.6499 9.60378 21.2738C10.0017 20.8949 10.5142 20.7049 11.1191 20.7049C11.6146 20.7049 12.0402 20.8542 12.3867 21.1499C12.7306 21.4455 13.0191 21.8753 13.2551 22.4424C13.5379 23.0995 13.8451 23.6487 14.1719 24.087C14.4967 24.5198 14.9539 24.8811 15.546 25.1639C16.1315 25.4475 16.9109 25.5893 17.886 25.5893C19.2206 25.5893 20.2992 25.3006 21.1246 24.7311C21.9542 24.1564 22.3527 23.4572 22.3527 22.6124C22.3527 21.9385 22.1379 21.4033 21.6973 20.9861C21.2527 20.5634 20.6785 20.2415 19.966 20.0169C19.2507 19.79 18.2903 19.5494 17.0868 19.2959C15.4707 18.9432 14.1192 18.5326 13.0246 18.0611C11.9287 17.5879 11.0559 16.941 10.409 16.1238C9.76072 15.2987 9.43747 14.273 9.43747 13.0582C9.43747 11.8998 9.77871 10.8639 10.4619 9.96227C11.1447 9.05815 12.1326 8.36613 13.4207 7.88411C14.7043 7.40225 16.2155 7.1612 17.9467 7.1612C19.3312 7.1612 20.5288 7.3214 21.5424 7.64012C22.5533 7.96119 23.396 8.38488 24.0698 8.91653C24.7393 9.44701 25.232 10.0065 25.544 10.5937C25.8558 11.1826 26.0128 11.7578 26.0128 12.3191C26.0128 12.8409 25.8105 13.3142 25.4163 13.7291C25.0221 14.1445 24.5179 14.3562 23.9291 14.3543C23.3983 14.3543 22.9819 14.2318 22.6931 13.9726C22.4119 13.7219 22.1165 13.3226 21.797 12.7662C21.3932 11.9898 20.9095 11.3849 20.347 10.9523C19.7994 10.5277 18.8959 10.3066 17.6386 10.3093C16.4754 10.3093 15.5446 10.547 14.8422 11.0119C14.1353 11.4842 13.7974 12.0321 13.7958 12.6742C13.797 13.0765 13.9127 13.4158 14.1455 13.7059C14.3818 13.9986 14.7107 14.2523 15.1334 14.4662C15.5562 14.6834 15.9863 14.8514 16.4186 14.9722C16.8559 15.0962 17.5815 15.2754 18.59 15.5127C19.8549 15.7853 21.0022 16.0899 22.0331 16.4218C23.062 16.7554 23.9401 17.1578 24.6655 17.6371C25.3967 18.115 25.9682 18.7244 26.3761 19.4603C26.787 20.1975 26.9916 21.0978 26.9916 22.1573C26.9932 23.433 26.6379 24.5804 25.9296 25.596Z" fill="#FFC700"/>
</svg>
